<svg width="1500" height="292" viewBox="0 0 1500 292" fill="none" xmlns="http://www.w3.org/2000/svg">
<g clip-path="url(#clip0_2380_14)">
<path d="M1498.93 114.071C1452.41 92.672 1404.4 70.8424 1350.41 64.1043C1296.43 57.3662 1234.66 69.3194 1204.85 103.471C1174.32 138.454 1184.74 185.498 1162.24 223.711C1128.7 280.631 1028.49 301.507 948.151 284.939C867.81 268.37 803.764 223.988 745.7 179.375C705.89 148.746 656.076 114.425 600.116 123.209C576.519 126.901 556.428 137.977 534.708 145.746C445.766 177.529 338.754 151.423 254.597 113.086C170.439 74.7499 94.5329 23.9679 0.63978 1.53833" stroke="#EE8F9F" stroke-width="3" stroke-miterlimit="10"/>
</g>
<defs>
<clipPath id="clip0_2380_14">
<rect width="1500" height="292" fill="white" transform="matrix(-1 0 0 1 1500 0)"/>
</clipPath>
</defs>
</svg>
