<svg width="40" height="40" viewBox="0 0 40 40" fill="none" xmlns="http://www.w3.org/2000/svg">
<path d="M20.0016 40C16.046 40.0003 12.1791 38.8277 8.88994 36.6303C5.60078 34.4329 3.03708 31.3096 1.52303 27.6552C0.00898723 24.0008 -0.387403 19.9795 0.38399 16.0998C1.15538 12.2201 3.05991 8.65628 5.85674 5.85901C8.65356 3.06173 12.2171 1.15663 16.0966 0.384617C19.9762 -0.387399 23.9975 0.00834501 27.6522 1.5218C31.3068 3.03526 34.4306 5.59846 36.6285 8.88727C38.8264 12.1761 39.9997 16.0428 40 19.9984C39.994 25.3008 37.8853 30.3843 34.1362 34.134C30.3872 37.8836 25.304 39.9932 20.0016 40Z" fill="white"/>
<path d="M39.0584 19.9999C39.0584 23.7689 37.9408 27.4532 35.8469 30.587C33.7529 33.7208 30.7768 36.1633 27.2947 37.6057C23.8126 39.048 19.981 39.4254 16.2844 38.6901C12.5879 37.9548 9.19235 36.1398 6.52728 33.4748C3.8622 30.8097 2.04726 27.4142 1.31197 23.7176C0.576678 20.0211 0.954059 16.1895 2.39639 12.7074C3.83871 9.2253 6.28121 6.2491 9.41501 4.15517C12.5488 2.06124 16.2331 0.943604 20.0021 0.943604C25.0562 0.943604 29.9032 2.95131 33.477 6.52507C37.0507 10.0988 39.0584 14.9459 39.0584 19.9999Z" fill="#E30613"/>
<path fill-rule="evenodd" clip-rule="evenodd" d="M39.6669 18.9181C39.6669 18.9181 36.3092 18.679 36.1119 18.679C35.8509 18.679 34.9164 18.6411 34.5976 18.6292C34.2788 18.6172 32.7426 18.4977 31.9416 18.5096C31.1406 18.5216 29.4888 18.7089 29.4888 18.7089C29.4888 18.7089 29.4649 20.0717 29.4111 20.4523C29.3573 20.8329 29.3055 21.2493 29.1162 21.3589C28.927 21.4685 28.2515 21.6319 28.1778 21.3808C28.0502 20.9325 28.2495 20.4304 28.3013 20.1255C28.4563 19.368 28.3288 18.5798 27.9426 17.9099C27.3569 16.7901 25.1252 14.69 24.1669 13.8292C23.2085 12.9685 21.9592 12.0619 21.6623 11.1493C21.3654 10.2367 21.3036 9.78643 21.206 9.46564C21.1084 9.14484 21.0307 8.9715 20.9011 8.89578C20.8147 8.84881 20.7185 8.82288 20.6202 8.82007C20.6106 8.48836 20.6516 8.15713 20.7417 7.83776C20.8972 7.18821 21.2199 7.06866 21.2438 6.8714C21.2678 6.67414 20.8852 6.48884 20.3293 6.54263C19.6359 6.61237 19.2035 6.90129 18.801 7.69231C18.4902 8.34784 18.0678 9.68481 18.1455 10.7209C18.267 12.3368 19.2513 13.1936 19.5403 14.0922C19.7395 14.7378 20.1719 15.8397 20.0563 17.334C19.9308 18.9539 20.2556 20.6496 21.3016 21.9168C21.6565 22.3463 22.0849 22.7093 22.5669 22.9888C23.1786 23.3335 23.334 23.6523 23.0909 23.8695C22.8478 24.0866 22.3357 24.1643 21.8376 23.7937C21.3395 23.4231 20.7537 22.7975 20.6421 22.7975C20.5305 22.7975 20.3333 23.0645 20.0663 23.4351C19.7993 23.8057 19.3271 24.1643 19.4028 24.3058C19.7535 24.6946 19.9486 25.1989 19.9507 25.7225C19.9583 26.0079 19.9062 26.2918 19.7978 26.556C19.6894 26.8202 19.527 27.0589 19.3211 27.2567C19.6618 27.5735 20.0563 28.6973 19.9965 29.1835C19.9549 29.5556 19.8198 29.9111 19.6038 30.217C19.3878 30.5229 19.0979 30.7691 18.7612 30.9329C18.7612 30.9329 20.132 31.0584 20.9988 31.0724C22.4078 31.0226 23.809 30.8385 25.183 30.5224C26.2291 30.2415 26.9942 30.2674 27.1476 28.8368C27.3011 27.4061 27.1994 26.5354 27.8251 26.5653C28.6221 26.6032 28.4029 27.3424 28.387 27.8545C28.375 28.2749 28.2973 29.0041 28.2973 29.0041C28.2973 29.0041 31.2861 28.9782 32.5633 29.0041C32.898 29.0041 37.7502 28.8248 37.7502 28.8248L39.6669 18.9181ZM36.7575 24.2978C36.7296 24.6306 36.5822 24.798 36.2394 24.798C35.8967 24.798 30.3934 24.8318 30.0149 24.7681C29.8953 24.7481 29.1939 24.6525 29.3195 23.981C29.4091 23.4909 30.1264 23.712 30.4771 23.7499C31.9795 23.9093 34.7929 23.6702 36.3052 23.6762C36.6479 23.6762 36.7814 24.0069 36.7575 24.2978ZM17.757 19.468C17.7968 18.934 17.6294 18.41 17.4262 18.3701C17.223 18.3303 16.8384 18.2048 16.8006 18.5236C16.7627 18.8424 16.8603 20.1355 16.4818 20.4005C15.7147 20.9365 14.9216 20.5659 14.1306 20.5021C13.3396 20.4384 10.6099 20.4384 10.0739 20.1833C9.53788 19.9283 9.42033 18.9878 9.59965 18.3582C9.77898 17.7286 10.2273 17.0591 10.4943 16.9196C10.7613 16.7801 12.5366 16.1365 12.969 15.9831C13.4014 15.8297 14.0928 15.7839 14.7064 15.5248C15.1374 15.3337 15.5988 15.2204 16.0693 15.1901C16.5647 15.2286 17.054 15.3235 17.5278 15.473C17.9622 15.6125 18.7532 15.6504 18.805 15.7659C18.8984 16.2077 18.9577 16.656 18.9824 17.1069C18.9325 17.336 18.5121 16.6984 18.269 16.6347C18.026 16.5709 17.4521 16.5071 17.1194 16.6466C16.5824 16.8153 16.0116 16.8462 15.4596 16.7363C14.8081 16.6227 14.0928 16.4175 13.4292 16.5709C12.7657 16.7243 11.7037 16.7861 11.7695 17.5273C11.8173 18.0772 12.6761 17.8222 12.8793 17.7704C13.3646 17.6534 13.8626 17.5979 14.3617 17.605C14.7702 17.6548 15.9079 17.9896 16.1769 17.9896C16.4505 17.9943 16.7221 17.9414 16.9739 17.8342C17.1732 17.7545 18.0598 17.7086 18.3169 17.8999C18.4541 18.0126 18.562 18.1568 18.6314 18.3202C18.7008 18.4836 18.7296 18.6614 18.7154 18.8384C18.7154 19.2189 18.4603 19.8685 18.0638 20.0339C17.6673 20.1993 17.739 19.7171 17.757 19.468ZM18.9804 22.6441C18.8503 22.9472 18.6155 23.1933 18.3189 23.3375C17.9443 23.5686 17.7072 23.6184 17.757 23.2478C17.8068 22.8772 18.0917 22.4508 17.9761 22.2515C17.8606 22.0523 17.4262 21.9586 17.0935 22.1758C16.7607 22.393 16.7109 22.3751 16.673 22.5584C16.6352 22.7417 16.6093 23.5287 16.4937 23.734C16.3782 23.9392 16.2008 24.258 15.2424 24.2819C14.284 24.3058 12.5824 23.9511 11.8073 24.0269C11.1299 24.0926 10.572 24.0687 10.3508 23.9113C10.1297 23.7539 10.0181 23.0047 10.0838 22.5165C10.1416 22.0981 10.6816 21.5442 11.2973 21.5083C12.1076 21.504 12.9173 21.5573 13.7201 21.6677C14.5172 21.7574 15.5991 21.867 16.0972 21.867C16.5953 21.867 17.2728 21.7893 17.5916 21.6378C17.9104 21.4864 18.0897 21.3171 18.2431 21.331C18.356 21.3283 18.468 21.3523 18.5698 21.4011C18.6716 21.45 18.7604 21.5222 18.8289 21.6119C19.0063 21.9068 19.1457 22.3213 18.9804 22.6421V22.6441ZM18.0519 25.854C17.9243 25.6547 17.6773 25.5471 17.49 25.3937L16.8125 25.6368C16.8125 25.6368 17.1313 25.9815 17.0556 26.3003C17.0208 26.5204 16.9094 26.7211 16.7409 26.867C16.5725 27.0128 16.3579 27.0944 16.1351 27.0973C15.6907 27.1212 13.8636 27.2109 13.2499 27.0575C12.7435 26.9239 12.2727 26.6804 11.8711 26.3441C11.5762 26.1011 11.4188 26.0054 11.4467 25.7145C11.4726 25.4615 11.5902 25.2323 11.7954 25.1945C12.0006 25.1566 12.2796 25.2981 13.8118 25.3937C15.344 25.4894 16.1231 25.4694 17.1453 25.0749C17.6049 24.907 18.0523 24.7073 18.4842 24.4772C18.4842 24.4772 18.9365 25.0869 18.8548 25.589C18.7413 26.3043 18.4822 26.376 18.1774 26.5434C18.1679 26.3017 18.1257 26.0624 18.0519 25.8321V25.854ZM16.9161 28.8427C16.9699 29.0241 17.1154 29.0779 17.221 29.2412C17.2328 29.3935 17.2035 29.546 17.1362 29.6831C17.0689 29.8201 16.9661 29.9366 16.8384 30.0203C15.8764 30.124 14.9075 30.1493 13.9413 30.096C13.5555 30.0176 13.1853 29.8763 12.8454 29.6776C12.759 29.6104 12.6884 29.5251 12.6384 29.4277C12.5885 29.3303 12.5606 29.2231 12.5565 29.1137C12.6145 28.7917 12.7234 28.4809 12.8793 28.1932C13.2673 28.2656 13.6604 28.3082 14.0549 28.3207L16.954 28.3347C16.9109 28.5031 16.8981 28.6778 16.9161 28.8507V28.8427ZM18.3667 29.0938C18.277 28.5518 17.7091 28.1573 17.745 28.1474L18.5101 27.9182C18.5101 27.9182 18.8568 28.6853 18.811 28.9264C18.7704 29.2704 18.5992 29.5857 18.3328 29.8071C18.3674 29.571 18.3787 29.3321 18.3667 29.0938Z" fill="white"/>
<path d="M6.50293 8.90377L6.53481 8.8699L7.17241 8.21436L8.92582 9.15482L7.94152 7.42732L7.9734 7.39345L8.611 6.73792L11.281 8.67463L11.2491 8.70651L10.6374 9.33614L9.20078 8.25621L10.1173 9.87013L10.0835 9.904L9.68496 10.3244L8.04712 9.4537L9.16293 10.8584L9.13104 10.8923L8.51934 11.5199L6.50293 8.90377Z" fill="white"/>
<path d="M10.5977 5.3172L10.6375 5.29328L11.5879 4.72144L14.2599 6.92514L14.22 6.94906L13.3812 7.45316L12.9388 7.05466L12.0263 7.60459L12.1618 8.18042L12.1219 8.20433L11.2831 8.70844L10.5977 5.3172ZM11.8131 6.89924L12.4108 6.5386L11.5182 5.73164L11.8131 6.89924Z" fill="white"/>
<path d="M13.3354 3.83867L13.3793 3.82472L14.6824 3.38438C14.9399 3.27669 15.2273 3.26398 15.4933 3.34852C15.6857 3.4204 15.8546 3.54378 15.9815 3.70517C16.0573 3.80675 16.1165 3.91974 16.1568 4.03991C16.1965 4.16019 16.2173 4.28587 16.2186 4.41251C16.2182 4.61854 16.1595 4.82025 16.0492 4.99432C15.8891 5.22444 15.6514 5.38923 15.3798 5.45858L14.9434 5.60602L15.2861 6.62618L15.2423 6.64013L14.3755 6.93303L13.3354 3.83867ZM14.7143 4.92459L14.9135 4.85684C15.012 4.83009 15.1011 4.77624 15.1705 4.70142C15.2102 4.65129 15.2357 4.59142 15.2443 4.52808C15.2484 4.495 15.2484 4.46153 15.2443 4.42845C15.2443 4.39657 15.2303 4.37266 15.2243 4.35473C15.2186 4.33714 15.2119 4.31985 15.2044 4.30292L15.1805 4.25311C15.1399 4.19155 15.0805 4.14473 15.0111 4.11961C14.9013 4.08903 14.7842 4.0982 14.6804 4.14552L14.4811 4.21326L14.7143 4.92459Z" fill="white"/>
<path d="M16.667 2.82249H16.7128L17.6214 2.71689L17.7728 4.01401L18.5519 2.6073H18.5977L19.6637 2.48376L18.6157 4.19732L20.0762 5.72158H20.0283L18.8946 5.85508L17.8466 4.61574L18 5.94076H17.9541L17.0476 6.04836L16.667 2.82249Z" fill="white"/>
<path d="M21.5444 2.59131H21.5903L22.6941 2.71883L23.4612 6.10609H23.4154L22.4431 5.99251L22.3335 5.4107L21.2774 5.28717L21.0304 5.8112H20.9845L20.0122 5.69762L21.5444 2.59131ZM21.5444 4.58381L22.2398 4.66551L22.0266 3.47997L21.5444 4.58381Z" fill="white"/>
<path d="M27.8628 8.12471L27.0319 7.60467L26.9362 5.39099L25.9719 6.94913L25.147 6.43905L26.9024 3.59973L27.7213 4.10583L27.8209 6.33943L28.7833 4.77531L29.6082 5.28539L27.8628 8.12471ZM29.9549 9.2983L28.2752 8.2602L28.5641 7.78997L30.2458 8.83006L29.9549 9.2983ZM30.5347 6.40916C30.6683 6.47938 30.7863 6.57597 30.8815 6.6931C30.9767 6.81023 31.0472 6.94546 31.0886 7.0906C31.1187 7.2196 31.1224 7.35335 31.0994 7.48381C31.0765 7.61427 31.0274 7.73874 30.9551 7.84974C30.888 7.96514 30.7984 8.06588 30.6916 8.14598C30.5848 8.22607 30.463 8.28389 30.3335 8.31599C30.0371 8.35523 29.7363 8.29076 29.4821 8.13351C29.2279 7.97626 29.0359 7.73591 28.9387 7.45324C28.9072 7.32468 28.9022 7.19104 28.9241 7.06051C28.9461 6.92997 28.9944 6.80528 29.0662 6.69409C29.1344 6.57823 29.2254 6.47737 29.3336 6.39758C29.4418 6.31779 29.565 6.26074 29.6959 6.22984C29.8405 6.20167 29.9894 6.20303 30.1336 6.23385C30.2777 6.26466 30.4142 6.3243 30.5347 6.40916ZM29.7596 7.6764C29.7977 7.70327 29.8418 7.72025 29.8881 7.72582C29.9344 7.73138 29.9813 7.72536 30.0246 7.70828C30.1352 7.64553 30.2251 7.5521 30.2837 7.43929C30.3569 7.33928 30.3998 7.2203 30.4072 7.09658C30.4042 7.05104 30.3894 7.00707 30.3642 6.969C30.3391 6.93092 30.3044 6.90004 30.2637 6.8794C30.2258 6.8507 30.1813 6.832 30.1343 6.82504C30.0873 6.81807 30.0393 6.82306 29.9947 6.83955C29.8835 6.90289 29.7928 6.99697 29.7337 7.11053C29.5803 7.36557 29.5803 7.55286 29.7596 7.66643V7.6764Z" fill="white"/>
<path d="M32.2604 8.57108L31.9256 8.20247L32.4815 7.69836L32.5114 7.73224L33.416 8.72849L31.0011 10.9202L30.9692 10.8844L30.4014 10.2607L32.2604 8.57108Z" fill="white"/>
<path d="M8.91613 28.9384L10.271 30.3132C10.4721 30.492 10.5975 30.7406 10.6217 31.0086C10.6266 31.1196 10.6077 31.2305 10.5661 31.3336C10.5245 31.4367 10.4612 31.5297 10.3806 31.6063C10.2509 31.7396 10.0761 31.8199 9.89046 31.8315C9.74729 31.8346 9.60579 31.8003 9.48 31.7318C9.59588 31.9044 9.65189 32.1102 9.63941 32.3176C9.61431 32.5068 9.52329 32.6811 9.38237 32.8098C9.26708 32.9263 9.12254 33.0095 8.96394 33.0509C8.81189 33.0917 8.65175 33.0917 8.49969 33.0509C8.37083 33.0068 8.25125 32.9393 8.14702 32.8516C8.02238 32.7591 7.90329 32.6593 7.79036 32.5528L6.53906 31.2855L8.91613 28.9384ZM7.7804 31.5147L8.14901 31.8893C8.23355 31.9921 8.35114 32.0626 8.48175 32.0885C8.52932 32.0922 8.57711 32.0852 8.6216 32.0679C8.66608 32.0507 8.70613 32.0237 8.73879 31.9889C8.77201 31.9578 8.79772 31.9196 8.81395 31.8772C8.83017 31.8347 8.8365 31.7891 8.83244 31.7438C8.80485 31.6138 8.73474 31.4967 8.63319 31.4111L8.26059 31.0444L7.7804 31.5147ZM8.71488 30.5941L9.02969 30.9129C9.10374 31.006 9.2081 31.0702 9.32459 31.0942C9.36915 31.0958 9.41351 31.0875 9.4545 31.0699C9.49549 31.0524 9.53209 31.026 9.5617 30.9926C9.59385 30.9645 9.61918 30.9295 9.63575 30.8901C9.65232 30.8507 9.65971 30.8081 9.65734 30.7655C9.63422 30.6517 9.57309 30.5491 9.48399 30.4746L9.16519 30.1498L8.71488 30.5941Z" fill="white"/>
<path d="M12.4687 32.0925L13.999 32.8656C14.2797 32.9823 14.5046 33.2029 14.6266 33.4813C14.6671 33.6134 14.6797 33.7524 14.6636 33.8897C14.6475 34.0269 14.603 34.1592 14.533 34.2783C14.4749 34.4119 14.389 34.5316 14.2812 34.6295C14.1733 34.7274 14.0459 34.8012 13.9073 34.8462C13.5793 34.9154 13.2373 34.857 12.9509 34.6828L12.4448 34.4337L11.8869 35.5396L10.9624 35.0713L12.4687 32.0925ZM12.7517 33.83L12.9768 33.9436C13.1021 34.0222 13.2501 34.0566 13.3972 34.0412C13.4465 34.0298 13.4925 34.0074 13.5319 33.9756C13.5712 33.9439 13.6028 33.9036 13.6244 33.8579C13.6476 33.8146 13.6618 33.767 13.6663 33.7181C13.6707 33.6691 13.6653 33.6198 13.6503 33.573C13.6224 33.4773 13.5208 33.3857 13.3494 33.298L13.0864 33.1665L12.7517 33.83Z" fill="white"/>
<path d="M14.6821 35.0533C14.713 34.8219 14.7949 34.6002 14.922 34.4044C15.049 34.2085 15.218 34.0433 15.4166 33.9207C15.6153 33.7981 15.8387 33.7212 16.0707 33.6955C16.3028 33.6698 16.5376 33.696 16.7583 33.7721C16.9884 33.8113 17.2084 33.8962 17.4051 34.0218C17.6019 34.1473 17.7715 34.3111 17.904 34.5033C18.0173 34.7022 18.0888 34.9221 18.1142 35.1496C18.1395 35.3771 18.1182 35.6074 18.0514 35.8264C17.9872 36.1517 17.845 36.4567 17.637 36.715C17.4551 36.9246 17.2152 37.0758 16.9476 37.1494C16.635 37.227 16.3077 37.2229 15.9971 37.1374C15.6819 37.0717 15.3856 36.9355 15.1304 36.7389C14.9129 36.5589 14.7552 36.3171 14.6781 36.0455C14.591 35.7203 14.5924 35.3778 14.6821 35.0533ZM15.6784 35.2964C15.5957 35.5401 15.6006 35.805 15.6923 36.0455C15.74 36.1287 15.8041 36.2014 15.8808 36.259C15.9575 36.3167 16.0451 36.3581 16.1383 36.3809C16.2314 36.4036 16.3283 36.4072 16.4229 36.3913C16.5175 36.3754 16.6079 36.3405 16.6885 36.2886C16.84 36.177 16.9595 35.9399 17.0452 35.5753C17.1224 35.3421 17.1132 35.089 17.0193 34.862C16.9738 34.7766 16.9097 34.7026 16.8318 34.6454C16.7538 34.5881 16.664 34.5491 16.569 34.5312C16.4778 34.506 16.382 34.5017 16.2889 34.5186C16.1957 34.5355 16.1076 34.5732 16.031 34.6289C15.8411 34.8058 15.7186 35.0431 15.6843 35.3003L15.6784 35.2964Z" fill="white"/>
<path d="M20.9128 36.1771L21.8214 36.4342C21.7748 36.6644 21.6805 36.8823 21.5444 37.0738C21.4214 37.2458 21.256 37.3831 21.0642 37.4723C20.8318 37.5706 20.5813 37.6188 20.329 37.6137C20.0247 37.6296 19.7204 37.5807 19.4364 37.4703C19.1879 37.3508 18.9801 37.161 18.8386 36.9243C18.6552 36.6185 18.5625 36.2667 18.5716 35.9102C18.5529 35.6794 18.5804 35.4472 18.6526 35.2272C18.7248 35.0072 18.8402 34.8038 18.992 34.629C19.2974 34.3748 19.6715 34.2171 20.0667 34.1759C20.4619 34.1348 20.8605 34.212 21.2117 34.3978C21.4735 34.5896 21.6664 34.8607 21.7616 35.1709L20.853 35.3901C20.83 35.3109 20.7951 35.2356 20.7494 35.1669C20.694 35.0912 20.6208 35.0303 20.5362 34.9896C20.3951 34.9247 20.2355 34.9123 20.0861 34.9547C19.9367 34.9971 19.8073 35.0914 19.7213 35.2207C19.6159 35.4237 19.571 35.6526 19.5918 35.8803C19.57 36.1453 19.6328 36.4103 19.7711 36.6374C19.8302 36.7051 19.9041 36.7582 19.987 36.7928C20.0699 36.8273 20.1597 36.8423 20.2493 36.8367C20.3316 36.8411 20.4139 36.8277 20.4906 36.7974C20.5673 36.7672 20.6365 36.7207 20.6936 36.6613C20.8086 36.5224 20.8843 36.3552 20.9128 36.1771Z" fill="white"/>
<path d="M24.5988 35.5633L25.5412 35.6171C25.547 35.8522 25.5028 36.0858 25.4117 36.3026C25.3268 36.4946 25.1953 36.6624 25.0292 36.7907C24.8235 36.9374 24.5893 37.0392 24.3417 37.0896C24.0482 37.1723 23.7404 37.1906 23.4391 37.1434C23.1691 37.0836 22.9228 36.9449 22.7318 36.7449C22.4854 36.4865 22.3181 36.1629 22.2496 35.8124C22.1807 35.5915 22.1567 35.3591 22.1789 35.1288C22.2012 34.8986 22.2692 34.6751 22.3791 34.4715C22.5052 34.282 22.6683 34.12 22.8587 33.9953C23.0492 33.8707 23.2629 33.7859 23.487 33.7462C23.822 33.6468 24.1793 33.6524 24.5111 33.7621C24.8082 33.8932 25.055 34.1168 25.2145 34.3997L24.3776 34.7982C24.3375 34.7251 24.2872 34.658 24.2282 34.599C24.156 34.538 24.0708 34.4943 23.9791 34.4715C23.8281 34.439 23.6705 34.4613 23.5343 34.5342C23.3982 34.6072 23.2924 34.7262 23.2359 34.87C23.1769 35.0907 23.1825 35.3237 23.2518 35.5414C23.3395 35.9021 23.4511 36.1392 23.5945 36.2408C23.6664 36.2942 23.7498 36.3302 23.838 36.3457C23.9262 36.3613 24.0168 36.3561 24.1026 36.3305C24.184 36.317 24.2616 36.2863 24.3303 36.2407C24.399 36.195 24.4572 36.1353 24.5011 36.0655C24.5755 35.909 24.6091 35.7363 24.5988 35.5633Z" fill="white"/>
<path d="M28.0202 31.8951L29.5564 34.858L28.6956 35.3003L27.8528 33.6725L27.5878 35.8642L26.725 36.3125L25.1968 33.3656L26.0595 32.9173L26.9103 34.5551L27.1733 32.3395L28.0202 31.8951Z" fill="white"/>
<path d="M30.7102 29.5601L32.9298 32.0527L32.2066 32.6983L30.9871 31.3294L31.2741 33.5212L30.5468 34.1687L28.3271 31.6761L29.0524 31.0285L30.2798 32.4073L29.9909 30.1937L30.7102 29.5601Z" fill="white"/>
</svg>
