<svg width="68" height="91" viewBox="0 0 68 91" fill="none" xmlns="http://www.w3.org/2000/svg">
<path d="M64.2942 90.4995H3.9419C3.45608 90.5017 2.97461 90.408 2.52513 90.2236C2.07565 90.0392 1.66701 89.7679 1.32269 89.4252C0.978373 89.0825 0.705154 88.6751 0.518723 88.2265C0.332292 87.7778 0.236323 87.2968 0.236328 86.811V4.91507C0.236323 4.42925 0.332292 3.94821 0.518723 3.49959C0.705154 3.05097 0.978373 2.64359 1.32269 2.30086C1.66701 1.95813 2.07565 1.6868 2.52513 1.50244C2.97461 1.31809 3.45608 1.22435 3.9419 1.2266H64.2942C64.7799 1.22473 65.2612 1.31873 65.7105 1.50321C66.1598 1.6877 66.5683 1.95905 66.9126 2.30171C67.2568 2.64436 67.53 3.05159 67.7166 3.50004C67.9032 3.94849 67.9994 4.42936 67.9998 4.91507V86.811C67.9998 87.2968 67.9038 87.7778 67.7174 88.2265C67.5309 88.6751 67.2577 89.0825 66.9134 89.4252C66.5691 89.7679 66.1604 90.0392 65.711 90.2236C65.2615 90.408 64.78 90.5017 64.2942 90.4995Z" fill="#8296FF"/>
<path d="M64.0176 6.56641H2.58496V87.154H64.0176V6.56641Z" fill="#5F5FB9"/>
<path d="M64.8359 5.57031H3.40332V86.1579H64.8359V5.57031Z" fill="white"/>
<path d="M9.30335 8.24179C9.11409 8.2418 8.93254 8.16681 8.79845 8.03325C8.66435 7.89969 8.58864 7.71844 8.58789 7.52919V1.21262C8.58789 1.11879 8.60641 1.0259 8.6424 0.939252C8.67839 0.852608 8.73114 0.773924 8.79762 0.707715C8.86409 0.641505 8.94298 0.589074 9.02977 0.55343C9.11656 0.517786 9.20953 0.49963 9.30335 0.500006C9.39704 0.499629 9.48987 0.517803 9.5765 0.553482C9.66312 0.58916 9.74183 0.641637 9.80808 0.707884C9.87433 0.774131 9.9268 0.852839 9.96248 0.939467C9.99816 1.02609 10.0163 1.11893 10.016 1.21262V7.52919C10.0152 7.71795 9.93989 7.89877 9.80641 8.03225C9.67293 8.16572 9.49211 8.24104 9.30335 8.24179Z" fill="#5F5FB9"/>
<path d="M21.7369 8.24179C21.5477 8.2418 21.3661 8.16681 21.232 8.03325C21.098 7.89969 21.0222 7.71844 21.0215 7.52919V1.21262C21.0215 1.11879 21.04 1.0259 21.076 0.939252C21.112 0.852608 21.1647 0.773924 21.2312 0.707715C21.2977 0.641505 21.3766 0.589074 21.4634 0.55343C21.5502 0.517786 21.6431 0.49963 21.7369 0.500006C21.8306 0.499629 21.9235 0.517803 22.0101 0.553482C22.0967 0.58916 22.1754 0.641637 22.2417 0.707884C22.3079 0.774131 22.3604 0.852839 22.3961 0.939467C22.4318 1.02609 22.4499 1.11893 22.4496 1.21262V7.52919C22.4488 7.71795 22.3735 7.89877 22.24 8.03225C22.1065 8.16572 21.9257 8.24104 21.7369 8.24179Z" fill="#5F5FB9"/>
<path d="M34.1705 8.24179C33.9813 8.2418 33.7997 8.16681 33.6656 8.03325C33.5315 7.89969 33.4558 7.71844 33.4551 7.52919V1.21262C33.4551 1.11879 33.4736 1.0259 33.5096 0.939252C33.5456 0.852608 33.5983 0.773924 33.6648 0.707715C33.7313 0.641505 33.8102 0.589074 33.897 0.55343C33.9837 0.517786 34.0767 0.49963 34.1705 0.500006C34.2642 0.499629 34.3571 0.517803 34.4437 0.553482C34.5303 0.58916 34.609 0.641637 34.6753 0.707884C34.7415 0.774131 34.794 0.852839 34.8297 0.939467C34.8653 1.02609 34.8835 1.11893 34.8831 1.21262V7.52919C34.8824 7.71795 34.8071 7.89877 34.6736 8.03225C34.5401 8.16572 34.3593 8.24104 34.1705 8.24179Z" fill="#5F5FB9"/>
<path d="M46.6041 8.24179C46.5105 8.24196 46.4177 8.22367 46.3312 8.18797C46.2446 8.15226 46.1659 8.09984 46.0996 8.03371C45.9658 7.89975 45.89 7.71853 45.8887 7.52919V1.21262C45.8887 1.11879 45.9072 1.0259 45.9432 0.939252C45.9792 0.852608 46.0319 0.773924 46.0984 0.707715C46.1649 0.641505 46.2438 0.589074 46.3306 0.55343C46.4173 0.517786 46.5103 0.49963 46.6041 0.500006C46.6978 0.499629 46.7907 0.517803 46.8773 0.553482C46.9639 0.58916 47.0426 0.641637 47.1089 0.707884C47.1751 0.774131 47.2276 0.852839 47.2633 0.939467C47.2989 1.02609 47.3171 1.11893 47.3167 1.21262V7.52919C47.316 7.71795 47.2407 7.89877 47.1072 8.03225C46.9737 8.16572 46.7929 8.24104 46.6041 8.24179Z" fill="#5F5FB9"/>
<path d="M59.0378 8.24181C58.9441 8.24219 58.8513 8.22401 58.7647 8.18834C58.678 8.15266 58.5993 8.10018 58.5331 8.03393C58.4668 7.96769 58.4144 7.88898 58.3787 7.80235C58.343 7.71572 58.3248 7.62289 58.3252 7.5292V1.21263C58.3245 1.11884 58.3424 1.02583 58.3779 0.939034C58.4135 0.852234 58.4659 0.773373 58.5322 0.707049C58.5986 0.640725 58.6774 0.588264 58.7642 0.552721C58.851 0.517178 58.944 0.499264 59.0378 0.500023C59.1315 0.499646 59.2244 0.517821 59.311 0.553499C59.3976 0.589178 59.4763 0.641655 59.5426 0.707902C59.6088 0.774149 59.6613 0.852856 59.697 0.939484C59.7326 1.02611 59.7508 1.11895 59.7504 1.21263V7.5292C59.7497 7.71797 59.6744 7.89879 59.5409 8.03226C59.4074 8.16574 59.2266 8.24106 59.0378 8.24181Z" fill="#5F5FB9"/>
<path d="M24.5393 55.0374H11.6582V42.1562H24.5393V55.0374ZM12.5133 54.1822H23.6842V43.0114H12.5133V54.1822Z" fill="#6E73E1"/>
<path d="M18.2916 51.9974L13.4287 47.431L14.7941 45.9744L17.9039 48.8961L23.163 40.6641L24.8447 41.7358L18.2916 51.9974Z" fill="#F7527B"/>
<path d="M42.8166 42.1562H31.0215V43.533H42.8166V42.1562Z" fill="#6E73E1"/>
<path d="M58.1234 45H31.0215V46.3768H58.1234V45Z" fill="#6E73E1"/>
<path d="M58.1234 47.8477H31.0215V49.2244H58.1234V47.8477Z" fill="#6E73E1"/>
<path d="M58.1234 50.6914H31.0215V52.0682H58.1234V50.6914Z" fill="#6E73E1"/>
<path d="M58.1234 53.5352H31.0215V54.9119H58.1234V53.5352Z" fill="#6E73E1"/>
<path d="M24.5393 31.0722H11.6582V18.1797H24.5393V31.0722ZM12.5133 30.2171H23.6842V19.0348H12.5133V30.2171Z" fill="#6E73E1"/>
<path d="M18.2916 28.0237L13.4287 23.4544L14.7941 22.0007L17.9039 24.9224L23.163 16.6875L24.8447 17.7621L18.2916 28.0237Z" fill="#F7527B"/>
<path d="M42.8166 18.1797H31.0215V19.5564H42.8166V18.1797Z" fill="#6E73E1"/>
<path d="M58.1234 21.0273H31.0215V22.4041H58.1234V21.0273Z" fill="#6E73E1"/>
<path d="M58.1234 23.8711H31.0215V25.2479H58.1234V23.8711Z" fill="#6E73E1"/>
<path d="M58.1234 26.7148H31.0215V28.0916H58.1234V26.7148Z" fill="#6E73E1"/>
<path d="M58.1234 29.5586H31.0215V30.9354H58.1234V29.5586Z" fill="#6E73E1"/>
<path d="M24.5393 77.1194H11.6582V64.2383H24.5393V77.1194ZM12.5133 76.2643H23.6842V65.0934H12.5133V76.2643Z" fill="#6E73E1"/>
<path d="M18.2916 74.0794L13.4287 69.513L14.7941 68.0593L17.9039 70.9782L23.163 62.7461L24.8447 63.8179L18.2916 74.0794Z" fill="#F7527B"/>
<path d="M42.8166 64.2383H31.0215V65.615H42.8166V64.2383Z" fill="#6E73E1"/>
<path d="M58.1234 67.082H31.0215V68.4588H58.1234V67.082Z" fill="#6E73E1"/>
<path d="M58.1234 69.9297H31.0215V71.3064H58.1234V69.9297Z" fill="#6E73E1"/>
<path d="M58.1234 72.7734H31.0215V74.1502H58.1234V72.7734Z" fill="#6E73E1"/>
<path d="M58.1234 75.6172H31.0215V76.9939H58.1234V75.6172Z" fill="#6E73E1"/>
</svg>
