<svg width="91" height="93" viewBox="0 0 91 93" fill="none" xmlns="http://www.w3.org/2000/svg">
<g clip-path="url(#clip0_222_2066)">
<path d="M17.5672 30.3372C17.2222 29.8122 14.985 26.3804 14.6585 25.9055C14.515 25.6858 14.2902 25.5321 14.0335 25.4782C13.7768 25.4242 13.5091 25.4745 13.2894 25.6179C13.0697 25.7613 12.916 25.9862 12.8621 26.2429C12.8082 26.4996 12.8585 26.7673 13.0019 26.987L14.831 29.7696L11.6662 30.2352C11.5363 30.2547 11.4114 30.2996 11.2988 30.3673C11.1862 30.4351 11.088 30.5243 11.0099 30.63C10.9318 30.7357 10.8752 30.8557 10.8435 30.9832C10.8118 31.1108 10.8055 31.2433 10.825 31.3733C10.8445 31.5032 10.8894 31.6281 10.9571 31.7407C11.0248 31.8533 11.1141 31.9515 11.2198 32.0296C11.3255 32.1077 11.4455 32.1643 11.573 32.196C11.7006 32.2277 11.8331 32.234 11.9631 32.2145L16.0182 31.6098C16.828 32.9093 17.3409 34.3715 17.5205 35.8921C17.7 37.4127 17.5418 38.9541 17.0571 40.4065C16.9978 40.6478 17.0315 40.9025 17.1514 41.12C17.2714 41.3375 17.4689 41.5019 17.7046 41.5805C17.9402 41.6591 18.1969 41.646 18.4234 41.544C18.6499 41.4419 18.8297 41.2584 18.927 41.0298C19.5237 39.2607 19.7114 37.3793 19.4759 35.5273C19.2403 33.6752 18.5877 31.9006 17.5672 30.3372Z" fill="#F7527B"/>
<path d="M52.3831 47.1132C52.1697 47.1129 51.9621 47.0436 51.7914 46.9156C51.6206 46.7876 51.4959 46.6077 51.4358 46.403C51.3757 46.1982 51.3834 45.9795 51.4579 45.7795C51.5323 45.5795 51.6695 45.409 51.8488 45.2934C58.6272 40.9117 58.0225 41.2364 65.2331 40.5055C65.4939 40.4779 65.7549 40.5551 65.9587 40.72C66.1626 40.8849 66.2926 41.124 66.3202 41.3848V41.3959C66.3451 41.6554 66.2665 41.9143 66.1015 42.1162C65.9364 42.318 65.6983 42.4465 65.439 42.4737C58.4046 43.1953 59.2951 42.8299 52.9229 46.9555C52.7624 47.0555 52.5777 47.11 52.3887 47.1132H52.3831Z" fill="#5F5FB9"/>
<path d="M61.4469 42.8789C61.317 42.8832 61.1876 42.8617 61.066 42.8159C60.9445 42.77 60.8331 42.7007 60.7384 42.6118C60.6436 42.5229 60.5673 42.4162 60.5138 42.2978C60.4603 42.1794 60.4307 42.0516 60.4266 41.9217C60.4234 41.8274 60.4334 41.7332 60.4563 41.6416L61.625 37.1004C61.6907 36.8434 61.8558 36.6229 62.084 36.4876C62.3122 36.3522 62.5848 36.3131 62.8419 36.3788C63.099 36.4445 63.3194 36.6096 63.4547 36.8378C63.5901 37.066 63.6292 37.3387 63.5635 37.5957L62.406 42.1258C62.353 42.3403 62.2298 42.531 62.0561 42.6674C61.8823 42.8039 61.6679 42.8784 61.4469 42.8789Z" fill="#5F5FB9"/>
<path d="M32.3094 0C29.2133 36.0532 31.0109 27.7815 22.4163 51.3185C20.6042 56.314 19.6764 61.5871 19.6746 66.9011V93H10.7702V66.0793C10.7706 61.0568 11.603 56.069 13.2338 51.3185C19.6746 32.5212 20.1606 32.818 20.6355 20.4502C20.6993 19.219 20.4171 17.9946 19.8207 16.9156C19.2243 15.8365 18.3376 14.9461 17.2611 14.3452L10.2119 10.4978C9.49019 10.1102 8.65917 9.97623 7.85223 10.1175C2.40019 11.1063 2.57828 11.1063 2.36124 11.1063C1.88573 11.1469 1.41356 10.9969 1.04862 10.6894C0.68368 10.3818 0.455867 9.94191 0.415277 9.4664C0.374688 8.99089 0.524655 8.51873 0.832191 8.15379C1.13973 7.78885 1.57964 7.56103 2.05515 7.52044L5.66511 6.92682C6.21994 6.83078 6.72712 6.55306 7.10691 6.13735C7.4867 5.72163 7.71756 5.19147 7.76319 4.63024L7.98023 2.37448C8.01046 2.02561 8.17062 1.70082 8.42898 1.46445C8.68734 1.22807 9.02506 1.09736 9.37524 1.0982C9.56103 1.09917 9.74481 1.13676 9.91606 1.20881C10.0873 1.28086 10.2427 1.38597 10.3733 1.51812C10.5039 1.65027 10.6071 1.80686 10.6772 1.97895C10.7472 2.15104 10.7826 2.33525 10.7814 2.52103V2.57298L10.6627 4.94746C10.6358 5.44015 10.7521 5.93008 10.9977 6.35804C11.2433 6.786 11.6076 7.13367 12.0465 7.35905C24.4217 13.7126 20.1402 11.5367 21.0696 12.0004L21.5946 0H32.3094Z" fill="#FFA7BC"/>
<path d="M32.3094 0C29.2133 36.0532 31.0108 27.7815 22.4163 51.3185C20.6042 56.314 19.6763 61.5871 19.6745 66.9011V93H16.1499V66.9011C16.1502 61.5871 17.0774 56.3139 18.8898 51.3185C24.084 37.0345 25.8946 33.2725 26.5568 25.6537L28.7643 0H32.3094Z" fill="#FF8499"/>
<path d="M90.2765 39.1192C90.4149 39.3609 90.5043 39.6274 90.5397 39.9037C90.575 40.1799 90.5556 40.4604 90.4826 40.7291C90.4095 40.9978 90.2843 41.2495 90.114 41.4698C89.9437 41.6902 89.7316 41.8748 89.49 42.0131C89.2483 42.1515 88.9817 42.2409 88.7055 42.2763C88.4293 42.3116 88.1488 42.2922 87.8801 42.2192C87.6114 42.1462 87.3597 42.0209 87.1394 41.8506C86.919 41.6803 86.7344 41.4683 86.5961 41.2266L81.6486 32.9159C81.1698 32.1069 80.5058 31.4232 79.7111 30.9211C78.9164 30.4189 78.0139 30.1127 77.0777 30.0276L63.2278 28.7902C62.1254 28.6815 61.0205 28.971 60.1131 29.6062C59.2056 30.2415 58.5555 31.1806 58.2803 32.2536C57.6366 34.7895 55.4013 40.1692 50.9194 51.5259C49.0071 56.3748 48.0235 61.54 48.02 66.7523V92.9996H29.5491V66.7523C29.5491 57.3638 32.2408 52.0398 36.129 42.1857L27.3527 51.2755C25.7275 52.9661 24.4561 54.9641 23.6129 57.1523L18.825 69.6369C18.5712 70.2129 18.1066 70.6699 17.5266 70.9142C16.9465 71.1584 16.2949 71.1714 15.7056 70.9504C15.1163 70.7295 14.6339 70.2913 14.3574 69.7259C14.0809 69.1605 14.0313 68.5107 14.2188 67.9099L18.8101 55.4939C18.9711 55.0612 18.954 54.5822 18.7623 54.1621C18.5707 53.742 18.2203 53.4151 17.788 53.253L17.6822 53.2177L12.4676 51.615C11.8991 51.4216 11.4288 51.0134 11.1574 50.4778C10.8859 49.9421 10.8349 49.3214 11.0153 48.7486C11.1956 48.1758 11.593 47.6964 12.1224 47.4128C12.6517 47.1293 13.2711 47.0642 13.8478 47.2314L19.7339 49.1607C20.3716 49.3662 21.0532 49.3939 21.7054 49.2405C22.3576 49.0872 22.9555 48.7588 23.4348 48.2907C30.484 41.3657 32.8956 39.3864 37.9581 32.2833C40.0231 29.4105 41.1855 25.9877 41.2972 22.4515L41.9892 -0.0078125H60.5398C60.115 13.7549 59.9462 19.1457 59.8776 21.2828C59.8604 21.7487 60.0207 22.2038 60.3262 22.556C60.6316 22.9083 61.0593 23.1315 61.523 23.1805L78.7195 24.9911C79.7898 25.106 80.8712 24.9244 81.8452 24.4661C88.2953 21.498 87.9669 21.498 88.6422 21.498C89.1484 21.5007 89.6396 21.6708 90.0391 21.9817C90.4386 22.2926 90.7241 22.7269 90.8512 23.2169C90.9782 23.707 90.9396 24.2253 90.7413 24.6911C90.5431 25.1569 90.1964 25.5442 89.7552 25.7924L85.5999 28.0779C85.2926 28.2508 85.0662 28.5381 84.9699 28.8773C84.8736 29.2164 84.9154 29.5799 85.086 29.8884L90.2765 39.1192Z" fill="#8296FF"/>
<path d="M90.2765 39.1182C90.4149 39.3598 90.5043 39.6264 90.5397 39.9026C90.575 40.1788 90.5556 40.4593 90.4826 40.728C90.4096 40.9967 90.2843 41.2484 90.114 41.4688C89.9437 41.6891 89.7316 41.8737 89.49 42.0121C89.2483 42.1504 88.9818 42.2399 88.7055 42.2752C88.4293 42.3106 88.1489 42.2912 87.8801 42.2181C87.6114 42.1451 87.3597 42.0198 87.1394 41.8495C86.9191 41.6792 86.7345 41.4672 86.5961 41.2255L81.6486 32.9148C81.1698 32.1059 80.5058 31.4222 79.7111 30.92C78.9165 30.4179 78.0139 30.1116 77.0777 30.0265L63.2278 28.7892C62.1254 28.6805 61.0205 28.9699 60.1131 29.6052C59.2056 30.2404 58.5555 31.1795 58.2804 32.2526C57.6366 34.7884 55.4013 40.1681 50.9195 51.5248C49.0071 56.3737 48.0235 61.5389 48.02 66.7512V92.9985H42.9724V66.7512C42.9749 61.5388 43.9586 56.3734 45.8718 51.5248L51.5594 37.1091C55.251 27.7503 54.9431 15.2639 55.418 0.0078125H60.5435C60.1187 13.7705 59.9499 19.1614 59.8813 21.2984C59.8683 21.7609 60.0301 22.2113 60.3343 22.5599C60.6386 22.9085 61.063 23.1297 61.523 23.1794L78.7195 24.99C79.7898 25.1049 80.8712 24.9233 81.8453 24.465L87.6794 21.764C88.2206 21.4885 88.8491 21.4393 89.4266 21.6271C90.0041 21.815 90.4833 22.2246 90.7588 22.7658C91.0344 23.307 91.0836 23.9354 90.8957 24.5129C90.7079 25.0904 90.2983 25.5697 89.7571 25.8452L85.6018 28.1306C85.2945 28.3035 85.068 28.5908 84.9718 28.93C84.8755 29.2692 84.9173 29.6326 85.0879 29.9412L90.2765 39.1182Z" fill="#6E73E1"/>
<path d="M44.2023 33.2617C43.8554 33.2668 43.5193 33.3828 43.2432 33.5928C42.9672 33.8028 42.7656 34.0957 42.6681 34.4286C42.3917 35.3561 42.0838 36.2391 41.7406 37.1091L37.5333 47.7739C37.4355 48.016 37.3988 48.2785 37.4265 48.5381C37.4542 48.7977 37.5455 49.0466 37.6922 49.2626C37.8388 49.4786 38.0365 49.6551 38.2676 49.7766C38.4987 49.8981 38.7562 49.9608 39.0173 49.9592H40.7092C41.0267 49.9601 41.3373 49.8666 41.6016 49.6906C41.8659 49.5145 42.0718 49.2638 42.1932 48.9704C47.4375 35.6826 47.0015 36.8216 47.5061 35.4284C47.6505 35.0287 47.6301 34.588 47.4496 34.2032C47.269 33.8185 46.9431 33.5212 46.5433 33.3767C46.3695 33.3142 46.1864 33.2816 46.0017 33.2803L44.2023 33.2617Z" fill="#A5B9FF"/>
<path d="M54.4311 19.135C54.2116 19.2769 53.9449 19.3263 53.6892 19.2724C53.4335 19.2185 53.2094 19.0658 53.0657 18.8475C51.389 16.3078 50.5388 13.3115 50.6319 10.2696L50.9584 0H52.9377C52.9377 0.851475 53.0361 -2.9681 52.6113 10.329C52.5205 12.9805 53.257 15.5945 54.7186 17.8086C54.849 18.0247 54.8918 18.2824 54.8384 18.5289C54.7849 18.7755 54.6392 18.9923 54.4311 19.135Z" fill="#5F5FB9"/>
<path d="M48.0905 81.6206L56.6386 72.5679C57.6247 71.5214 58.8142 70.6875 60.1343 70.1175C61.4543 69.5474 62.877 69.2532 64.3149 69.2529H70.3995C71.7258 69.2573 73.0297 69.5949 74.1914 70.2348C75.3532 70.8746 76.3355 71.7962 77.048 72.9148L79.0886 76.1204C79.3593 76.4479 79.7394 76.6664 80.1587 76.7356C80.5779 76.8049 81.0081 76.7201 81.3697 76.497C81.7314 76.2739 82.0001 75.9275 82.1264 75.5218C82.2527 75.1161 82.2279 74.6783 82.0567 74.2894L78.9402 68.9097C78.5816 68.2922 78.3862 67.5935 78.3722 66.8795C78.3583 66.1655 78.5263 65.4597 78.8604 64.8286L81.8285 59.1484C81.9584 58.9169 82.0414 58.6622 82.0728 58.3987C82.1042 58.1352 82.0833 57.8681 82.0115 57.6126C81.9397 57.3572 81.8182 57.1184 81.6541 56.9098C81.49 56.7013 81.2864 56.5272 81.055 56.3973C80.8235 56.2675 80.5688 56.1845 80.3053 56.1531C80.0418 56.1217 79.7747 56.1425 79.5192 56.2143C79.2638 56.2862 79.025 56.4076 78.8164 56.5717C78.6079 56.7359 78.4338 56.9394 78.3039 57.1709L74.7515 63.2054C74.478 63.6632 74.0914 64.0429 73.6288 64.308C73.1661 64.5731 72.643 64.7147 72.1098 64.7191H64.8621C64.7082 64.7189 64.5571 64.6783 64.4238 64.6014C64.2905 64.5245 64.1797 64.414 64.1026 64.2808C64.0254 64.1477 63.9845 63.9966 63.984 63.8428C63.9835 63.6889 64.0234 63.5375 64.0997 63.4039L66.7413 58.744C66.9968 58.2662 67.0558 57.7076 66.9057 57.187C66.7556 56.6664 66.4082 56.2249 65.9375 55.9566C65.4668 55.6882 64.91 55.6142 64.3855 55.7502C63.8611 55.8862 63.4104 56.2216 63.1295 56.6849C58.8164 64.1849 58.8758 64.2646 57.965 65.1644L48.0719 75.0092L48.0905 81.6206Z" fill="#5F5FB9"/>
<path d="M44.8849 55.2643C44.7696 55.2041 44.6436 55.1674 44.514 55.1561C44.3845 55.1448 44.254 55.1592 44.1301 55.1985C44.0061 55.2378 43.8912 55.3012 43.7918 55.3851C43.6925 55.469 43.6106 55.5716 43.5511 55.6872C42.0559 58.5366 41.364 60.4065 38.2475 61.9796C38.4589 60.2278 38.7892 58.4924 39.2362 56.7854C39.2997 56.5308 39.2594 56.2614 39.1242 56.0365C38.9891 55.8116 38.7701 55.6496 38.5155 55.5861C38.2609 55.5227 37.9915 55.5629 37.7666 55.6981C37.5417 55.8332 37.3797 56.0522 37.3162 56.3068C35.5539 63.1706 36.0177 65.3799 36.0177 93.0019H37.9952V83.8471L40.7778 86.7559C40.9139 86.8992 41.09 86.9982 41.2832 87.0401C41.4763 87.0821 41.6776 87.0649 41.8609 86.9908C42.0442 86.9168 42.201 86.7894 42.3108 86.625C42.4207 86.4607 42.4786 86.2671 42.477 86.0695C42.4748 85.8166 42.3767 85.5739 42.2025 85.3905L37.9877 80.9792C37.9877 69.1068 37.9877 64.9811 38.0675 64.3096L39.3234 63.6751C42.9055 61.8553 43.9611 59.2341 45.3301 56.6018C45.4486 56.3678 45.4694 56.0963 45.388 55.847C45.3067 55.5976 45.1297 55.3908 44.896 55.2717H44.8849V55.2643Z" fill="#5F5FB9"/>
<path d="M48.723 43.1746C48.593 43.1738 48.4643 43.1474 48.3445 43.0968C48.2247 43.0462 48.116 42.9724 48.0248 42.8796C47.9336 42.7869 47.8617 42.677 47.8131 42.5563C47.7645 42.4357 47.7402 42.3066 47.7417 42.1765C47.742 42.0355 47.773 41.8962 47.8326 41.7684L50.7024 35.6152C50.8125 35.3807 51.0103 35.1989 51.2531 35.1087C51.4959 35.0186 51.7644 35.0273 52.0008 35.133C52.2373 35.2387 52.4228 35.433 52.5175 35.674C52.6123 35.9151 52.6086 36.1837 52.5074 36.4221C52.5032 36.4336 52.4982 36.4447 52.4925 36.4555L49.6135 42.6199C49.5317 42.7863 49.4049 42.9265 49.2475 43.0245C49.0901 43.1225 48.9084 43.1745 48.723 43.1746Z" fill="#5F5FB9"/>
<path d="M30.1037 86.5087C29.6474 86.5087 29.9052 86.5977 24.2454 82.4813C24.0389 82.3256 23.9016 82.095 23.863 81.8392C23.8245 81.5834 23.8877 81.3227 24.0392 81.113C24.1906 80.9032 24.4183 80.7612 24.6732 80.7174C24.9282 80.6736 25.1902 80.7314 25.403 80.8785L30.6862 84.7167C30.8555 84.8396 30.9814 85.0131 31.046 85.212C31.1107 85.411 31.1107 85.6253 31.046 85.8243C30.9813 86.0232 30.8553 86.1966 30.686 86.3196C30.5168 86.4425 30.3129 86.5087 30.1037 86.5087Z" fill="#8296FF"/>
<path d="M16.1536 85.2053V92.9966H14.1743V85.2053C14.1685 85.0718 14.1898 84.9384 14.2369 84.8133C14.2841 84.6882 14.356 84.5739 14.4485 84.4773C14.541 84.3808 14.652 84.3039 14.775 84.2514C14.8979 84.1989 15.0302 84.1719 15.1639 84.1719C15.2976 84.1719 15.4299 84.1989 15.5529 84.2514C15.6759 84.3039 15.7869 84.3808 15.8794 84.4773C15.9719 84.5739 16.0438 84.6882 16.091 84.8133C16.1381 84.9384 16.1594 85.0718 16.1536 85.2053Z" fill="#F7527B"/>
</g>
<defs>
<clipPath id="clip0_222_2066">
<rect width="90.5903" height="93" fill="white" transform="translate(0.409729)"/>
</clipPath>
</defs>
</svg>
