<svg width="80" height="93" viewBox="0 0 80 93" fill="none" xmlns="http://www.w3.org/2000/svg">
<g clip-path="url(#clip0_222_2042)">
<path d="M59.7652 41.1104H55.7982V14.6562H59.7652C60.2616 14.6567 60.7374 14.8542 61.0883 15.2054C61.4391 15.5565 61.6361 16.0326 61.6361 16.529V39.234C61.6361 39.7302 61.439 40.2061 61.0881 40.557C60.7373 40.9078 60.2614 41.1049 59.7652 41.1049V41.1104Z" fill="#B5ADB6"/>
<path d="M2.73915 25.7926H6.70436V14.6562H2.73915C2.24279 14.6567 1.76692 14.8542 1.41611 15.2054C1.0653 15.5565 0.868247 16.0326 0.868247 16.529V23.9127C0.867051 24.1591 0.91456 24.4034 1.00805 24.6314C1.10153 24.8594 1.23915 25.0668 1.413 25.2415C1.58685 25.4161 1.7935 25.5548 2.02108 25.6494C2.24866 25.7439 2.49269 25.7926 2.73915 25.7926Z" fill="#B5ADB6"/>
<path d="M2.73915 41.1099H6.70437V29.9844H2.73915C2.24296 29.9844 1.76709 30.1815 1.41623 30.5323C1.06537 30.8832 0.868256 31.3591 0.868256 31.8553V39.2335C0.868256 39.7297 1.06537 40.2056 1.41623 40.5564C1.76709 40.9073 2.24296 41.1044 2.73915 41.1044V41.1099Z" fill="#B5ADB6"/>
<path d="M51.6949 93H10.8258C10.0871 93.0022 9.35528 92.8585 8.6722 92.5773C7.98913 92.2961 7.36826 91.8829 6.84517 91.3613C6.32209 90.8398 5.90706 90.2201 5.62388 89.5378C5.34071 88.8556 5.19494 88.1242 5.19495 87.3855V5.6127C5.19518 4.87508 5.34076 4.14475 5.62337 3.46342C5.90597 2.78209 6.32006 2.16312 6.84197 1.64189C7.36388 1.12065 7.98338 0.707365 8.66507 0.425643C9.34677 0.143922 10.0773 -0.000713292 10.8149 2.64492e-06H51.6949C53.1835 2.64492e-06 54.6111 0.591338 55.6637 1.64392C56.7163 2.69651 57.3076 4.12412 57.3076 5.6127V87.3855C57.3079 88.1227 57.1629 88.8528 56.8809 89.5339C56.599 90.2151 56.1856 90.8341 55.6644 91.3554C55.1432 91.8768 54.5243 92.2904 53.8433 92.5726C53.1622 92.8548 52.4322 93 51.6949 93Z" fill="#7A6E79"/>
<path d="M57.3022 5.6127V87.3855C57.3027 88.8734 56.7123 90.3007 55.6608 91.3535C54.6094 92.4063 53.1829 92.9986 51.6949 93H45.3194C46.0566 93 46.7866 92.8548 47.4677 92.5726C48.1487 92.2904 48.7676 91.8768 49.2888 91.3554C49.81 90.8341 50.2234 90.2151 50.5053 89.5339C50.7873 88.8528 50.9323 88.1227 50.932 87.3855V5.6127C50.9323 4.8751 50.7871 4.1447 50.5048 3.46327C50.2225 2.78185 49.8085 2.16277 49.2867 1.64146C48.7649 1.12016 48.1454 0.706853 47.4637 0.425194C46.782 0.143535 46.0515 -0.000950459 45.3139 4.705e-06H51.6949C53.1827 0.000967905 54.6092 0.592787 55.6607 1.64532C56.7122 2.69785 57.3027 4.12492 57.3022 5.6127Z" fill="#685E67"/>
<path d="M52.6249 5.61305V87.3858C52.6249 87.6339 52.5264 87.8719 52.3509 88.0473C52.1755 88.2227 51.9376 88.3213 51.6895 88.3213H10.8258C10.7028 88.3215 10.581 88.2975 10.4672 88.2506C10.3535 88.2037 10.2502 88.1348 10.1631 88.0479C10.0761 87.9611 10.007 87.8579 9.9599 87.7442C9.91278 87.6306 9.88852 87.5088 9.88852 87.3858V5.61305C9.889 5.36478 9.98796 5.12685 10.1637 4.95147C10.3394 4.7761 10.5775 4.6776 10.8258 4.6776H21.1321C21.3181 4.67904 21.4994 4.73601 21.6528 4.84119C21.8062 4.94637 21.9247 5.09496 21.9931 5.26793L23.0629 7.99254C23.2031 8.34119 23.4448 8.63965 23.7567 8.84922C24.0687 9.05878 24.4363 9.16976 24.8121 9.16775H37.7086C38.0814 9.16662 38.4453 9.05414 38.7538 8.84474C39.0622 8.63535 39.301 8.3386 39.4396 7.99254L40.5095 5.26793C40.5784 5.09333 40.6982 4.9435 40.8534 4.83789C41.0085 4.73229 41.1919 4.67581 41.3796 4.67578H51.6949C51.9429 4.67626 52.1805 4.77497 52.3559 4.9503C52.5312 5.12563 52.6299 5.36328 52.6304 5.61123L52.6249 5.61305Z" fill="#EAF6FF"/>
<path d="M52.6249 63.9934V70.5906L52.1672 71.566C52.0537 71.8073 51.8739 72.0113 51.6487 72.1541C51.4235 72.2969 51.1623 72.3727 50.8957 72.3725H50.7958C50.5133 72.3521 50.2435 72.2469 50.0218 72.0706C49.8001 71.8942 49.6368 71.6551 49.5534 71.3844L43.9897 53.3166L42.3023 61.939C42.2406 62.2589 42.0694 62.5472 41.8181 62.7544C41.5668 62.9616 41.2511 63.0747 40.9254 63.0743H21.6152C21.2428 63.0743 20.8857 62.9264 20.6224 62.663C20.3591 62.3997 20.2112 62.0426 20.2112 61.6702C20.2112 61.2978 20.3591 60.9407 20.6224 60.6774C20.8857 60.4141 21.2428 60.2661 21.6152 60.2661H39.7793L42.3223 47.2788C42.379 46.9685 42.5388 46.6864 42.7757 46.4781C43.0126 46.2698 43.3129 46.1474 43.6279 46.1308C43.9429 46.1143 44.2543 46.2044 44.5118 46.3866C44.7693 46.5689 44.9578 46.8327 45.0469 47.1353L51.1918 67.0813L52.6249 63.9934Z" fill="#D9ECFD"/>
<path d="M52.6249 46.0487V81.6975L51.4297 82.8927C51.0786 83.2433 50.6027 83.4402 50.1065 83.4402C49.6103 83.4402 49.1344 83.2433 48.7832 82.8927L29.9071 64.0166C28.7368 62.8461 27.8084 61.4566 27.1751 59.9273C26.5417 58.398 26.2158 56.759 26.2159 55.1037C26.216 51.7609 27.5441 48.5549 29.908 46.1913C32.2719 43.8276 35.478 42.4998 38.8209 42.5C42.1638 42.5002 45.3697 43.8283 47.7333 46.1922L50.1056 48.5644L52.476 46.1922C52.525 46.1432 52.5759 46.0941 52.6249 46.0487Z" fill="#D9ECFD"/>
<path d="M52.6249 5.61123V87.384C52.6249 87.6321 52.5264 87.8701 52.351 88.0455C52.1755 88.2209 51.9376 88.3195 51.6895 88.3195H46.3438C46.5919 88.3195 46.8298 88.2209 47.0053 88.0455C47.1807 87.8701 47.2793 87.6321 47.2793 87.384V5.61123C47.2788 5.36328 47.1801 5.12563 47.0047 4.9503C46.8294 4.77497 46.5918 4.67626 46.3438 4.67578H51.6949C51.9419 4.6777 52.1782 4.77704 52.3524 4.95221C52.5265 5.12738 52.6245 5.36422 52.6249 5.61123Z" fill="#D9ECFD"/>
<path d="M30.8444 6.08069H27.0917C26.7283 6.06762 26.3842 5.91406 26.1317 5.65234C25.8792 5.39062 25.7381 5.04116 25.7381 4.67752C25.7381 4.31388 25.8792 3.96442 26.1317 3.7027C26.3842 3.44098 26.7283 3.28742 27.0917 3.27435H30.8444C31.0329 3.26756 31.2209 3.29883 31.397 3.3663C31.5732 3.43376 31.734 3.53602 31.8697 3.66699C32.0055 3.79796 32.1135 3.95494 32.1872 4.12856C32.261 4.30218 32.299 4.48888 32.299 4.67752C32.299 4.86616 32.261 5.05286 32.1872 5.22648C32.1135 5.4001 32.0055 5.55708 31.8697 5.68805C31.734 5.81902 31.5732 5.92128 31.397 5.98874C31.2209 6.0562 31.0329 6.08748 30.8444 6.08069Z" fill="#433F43"/>
<path d="M35.4109 6.09195C35.0388 6.09195 34.6819 5.94427 34.4187 5.68135C34.1554 5.41843 34.0073 5.06176 34.0068 4.68969V4.66971C34.0068 4.29732 34.1547 3.94019 34.418 3.67687C34.6813 3.41355 35.0385 3.26563 35.4109 3.26562C35.7832 3.26563 36.1404 3.41355 36.4037 3.67687C36.667 3.94019 36.8149 4.29732 36.8149 4.66971V4.68969C36.8145 5.06176 36.6663 5.41843 36.4031 5.68135C36.1398 5.94427 35.7829 6.09195 35.4109 6.09195Z" fill="#433F43"/>
<path d="M38.4679 83.6462H24.0347C23.6713 83.6331 23.3271 83.4796 23.0747 83.2178C22.8222 82.9561 22.6811 82.6067 22.6811 82.243C22.6811 81.8794 22.8222 81.5299 23.0747 81.2682C23.3271 81.0065 23.6713 80.8529 24.0347 80.8398H38.4679C38.8313 80.8529 39.1754 81.0065 39.4279 81.2682C39.6804 81.5299 39.8215 81.8794 39.8215 82.243C39.8215 82.6067 39.6804 82.9561 39.4279 83.2178C39.1754 83.4796 38.8313 83.6331 38.4679 83.6462Z" fill="#FB3A82"/>
<path d="M50.1056 42.9932L47.7334 40.621C46.5629 39.4506 45.1733 38.5222 43.6441 37.8889C42.1148 37.2555 40.4757 36.9296 38.8205 36.9297C35.4776 36.9299 32.2717 38.258 29.9081 40.6219C27.5444 42.9858 26.2166 46.1918 26.2168 49.5347C26.2169 52.8776 27.5451 56.0835 29.909 58.4472L48.7887 77.3215C49.1398 77.6721 49.6157 77.869 50.1119 77.869C50.6081 77.869 51.0841 77.6721 51.4352 77.3215L70.3022 58.4472C72.6661 56.0835 73.9942 52.8776 73.9944 49.5347C73.9946 46.1918 72.6668 42.9858 70.3031 40.6219C67.9395 38.258 64.7335 36.9299 61.3906 36.9297C58.0478 36.9295 54.8417 38.2573 52.4778 40.621L50.1056 42.9932Z" fill="#FB3A82"/>
<path d="M70.3022 58.4479L51.4297 77.3204C51.2561 77.4945 51.0499 77.6325 50.8228 77.7268C50.5958 77.821 50.3523 77.8695 50.1065 77.8695C49.8607 77.8695 49.6172 77.821 49.3902 77.7268C49.1631 77.6325 48.9569 77.4945 48.7832 77.3204L46.3965 74.9373L64.8784 56.459C66.1991 55.1356 67.2091 53.5352 67.8354 51.7736C68.4616 50.0119 68.6885 48.1331 68.4995 46.2731C68.3105 44.413 67.7105 42.6182 66.7428 41.0185C65.775 39.4188 64.4638 38.0542 62.904 37.0234C65.2519 37.3068 67.4728 38.245 69.3128 39.7308C71.1528 41.2165 72.5377 43.1899 73.3094 45.4254C74.081 47.661 74.2082 50.0685 73.6765 52.3729C73.1447 54.6773 71.9754 56.7857 70.3022 58.457V58.4479Z" fill="#FB1466"/>
<path d="M45.3375 25.076C45.1532 25.076 44.9707 25.0397 44.8005 24.9691C44.6302 24.8985 44.4755 24.7951 44.3453 24.6647C44.2151 24.5343 44.1118 24.3795 44.0415 24.2091C43.9711 24.0388 43.935 23.8563 43.9352 23.672V23.6538C43.9285 23.4653 43.9597 23.2773 44.0272 23.1012C44.0946 22.925 44.1969 22.7642 44.3279 22.6285C44.4588 22.4927 44.6158 22.3847 44.7894 22.311C44.9631 22.2372 45.1498 22.1992 45.3384 22.1992C45.527 22.1992 45.7138 22.2372 45.8874 22.311C46.061 22.3847 46.218 22.4927 46.3489 22.6285C46.4799 22.7642 46.5822 22.925 46.6496 23.1012C46.7171 23.2773 46.7484 23.4653 46.7416 23.6538V23.672C46.7416 24.0443 46.5937 24.4015 46.3303 24.6648C46.067 24.9281 45.7099 25.076 45.3375 25.076Z" fill="#8BBBD3"/>
<path d="M25.9456 29.803H24.0492C23.6858 29.79 23.3417 29.6364 23.0892 29.3747C22.8367 29.113 22.6956 28.7635 22.6956 28.3999C22.6956 28.0362 22.8367 27.6868 23.0892 27.425C23.3417 27.1633 23.6858 27.0098 24.0492 26.9967H25.9456C26.1457 27.0037 26.3451 26.9703 26.532 26.8985C26.719 26.8268 26.8895 26.7181 27.0335 26.579C27.1776 26.44 27.2921 26.2733 27.3703 26.089C27.4486 25.9047 27.4889 25.7065 27.4889 25.5063C27.4889 25.3061 27.4486 25.1079 27.3703 24.9236C27.2921 24.7393 27.1776 24.5727 27.0335 24.4336C26.8895 24.2945 26.719 24.1859 26.532 24.1141C26.3451 24.0424 26.1457 24.009 25.9456 24.016H25.0374C24.7571 24.0165 24.4831 23.9331 24.2507 23.7764C24.0184 23.6197 23.8383 23.397 23.7337 23.137C23.6291 22.877 23.6048 22.5916 23.664 22.3177C23.7231 22.0437 23.863 21.7938 24.0656 21.6001L25.1881 20.5212H24.0492C23.6858 20.5081 23.3417 20.3546 23.0892 20.0928C22.8367 19.8311 22.6956 19.4817 22.6956 19.118C22.6956 18.7544 22.8367 18.4049 23.0892 18.1432C23.3417 17.8815 23.6858 17.7279 24.0492 17.7148H28.6774C28.9577 17.7143 29.2317 17.7977 29.4641 17.9544C29.6964 18.1111 29.8765 18.3338 29.9811 18.5938C30.0857 18.8538 30.11 19.1392 30.0508 19.4131C29.9917 19.6871 29.8518 19.937 29.6492 20.1307L27.989 21.7255C28.83 22.1804 29.4952 22.9028 29.8794 23.7783C30.2637 24.6538 30.345 25.6325 30.1105 26.5594C29.876 27.4863 29.3391 28.3086 28.5848 28.8961C27.8304 29.4836 26.9017 29.8027 25.9456 29.803Z" fill="#FCA62F"/>
<path d="M33.8124 29.8033C33.5749 29.804 33.341 29.7445 33.1328 29.6303C32.9245 29.516 32.7486 29.3508 32.6216 29.1501C32.4946 28.9494 32.4205 28.7198 32.4064 28.4827C32.3923 28.2455 32.4386 28.0087 32.5409 27.7944L36.0193 20.5251H33.0768C32.7134 20.512 32.3692 20.3585 32.1167 20.0968C31.8643 19.835 31.7232 19.4856 31.7232 19.1219C31.7232 18.7583 31.8643 18.4088 32.1167 18.1471C32.3692 17.8854 32.7134 17.7318 33.0768 17.7188H38.2535C38.4911 17.718 38.7249 17.7775 38.9331 17.8918C39.1414 18.006 39.3173 18.1712 39.4443 18.3719C39.5713 18.5726 39.6454 18.8023 39.6595 19.0394C39.6736 19.2765 39.6273 19.5133 39.525 19.7277L35.0948 29.0095C34.9799 29.2492 34.7995 29.4514 34.5745 29.5929C34.3495 29.7343 34.0891 29.8091 33.8233 29.8088L33.8124 29.8033Z" fill="#FCA62F"/>
<path d="M19.3248 29.8031C18.9527 29.8031 18.5958 29.6555 18.3326 29.3925C18.0693 29.1296 17.9212 28.7729 17.9207 28.4009V21.1807L17.6736 21.2787C17.5018 21.3489 17.3178 21.3843 17.1322 21.383C16.9467 21.3816 16.7632 21.3434 16.5924 21.2707C16.4217 21.198 16.2671 21.0921 16.1375 20.9592C16.0079 20.8264 15.906 20.6691 15.8375 20.4966C15.7691 20.3241 15.7356 20.1397 15.7388 19.9542C15.7421 19.7686 15.7821 19.5856 15.8566 19.4156C15.9311 19.2456 16.0385 19.092 16.1727 18.9638C16.3068 18.8356 16.4651 18.7352 16.6383 18.6686L18.818 17.813C19.0309 17.7289 19.2612 17.6982 19.4888 17.7234C19.7163 17.7487 19.9342 17.8292 20.1235 17.958C20.3129 18.0867 20.4678 18.2599 20.5749 18.4622C20.682 18.6646 20.7379 18.8901 20.7379 19.119V28.4009C20.7379 28.5852 20.7016 28.7677 20.631 28.9379C20.5604 29.1082 20.457 29.2628 20.3266 29.3931C20.1962 29.5233 20.0414 29.6266 19.871 29.6969C19.7007 29.7673 19.5181 29.8034 19.3338 29.8031H19.3248Z" fill="#FCA62F"/>
<path d="M45.3375 29.8034H42.1806C41.9921 29.8101 41.8041 29.7789 41.628 29.7114C41.4518 29.6439 41.291 29.5417 41.1553 29.4107C41.0195 29.2797 40.9115 29.1228 40.8378 28.9491C40.764 28.7755 40.726 28.5888 40.726 28.4002C40.726 28.2115 40.764 28.0248 40.8378 27.8512C40.9115 27.6776 41.0195 27.5206 41.1553 27.3896C41.291 27.2587 41.4518 27.1564 41.628 27.089C41.8041 27.0215 41.9921 26.9902 42.1806 26.997H45.3375C45.526 26.9902 45.714 27.0215 45.8901 27.089C46.0663 27.1564 46.2271 27.2587 46.3628 27.3896C46.4986 27.5206 46.6066 27.6776 46.6803 27.8512C46.7541 28.0248 46.7921 28.2115 46.7921 28.4002C46.7921 28.5888 46.7541 28.7755 46.6803 28.9491C46.6066 29.1228 46.4986 29.2797 46.3628 29.4107C46.2271 29.5417 46.0663 29.6439 45.8901 29.7114C45.714 29.7789 45.526 29.8101 45.3375 29.8034Z" fill="#8BBBD3"/>
<path d="M50.8975 69.7639H50.7995C50.5169 69.7436 50.2471 69.6383 50.0254 69.462C49.8037 69.2857 49.6405 69.0465 49.557 68.7758L43.9897 50.708L42.3041 59.3414C42.2418 59.6609 42.0704 59.9488 41.8193 60.1559C41.5681 60.363 41.2528 60.4763 40.9273 60.4766H21.6152C21.4267 60.4834 21.2388 60.4522 21.0626 60.3847C20.8865 60.3172 20.7257 60.215 20.5899 60.084C20.4542 59.953 20.3462 59.7961 20.2724 59.6224C20.1987 59.4488 20.1607 59.2621 20.1607 59.0735C20.1607 58.8848 20.1987 58.6981 20.2724 58.5245C20.3462 58.3509 20.4542 58.1939 20.5899 58.0629C20.7257 57.932 20.8865 57.8297 21.0626 57.7622C21.2388 57.6948 21.4267 57.6635 21.6152 57.6703H39.7702L42.3132 44.6812C42.37 44.3709 42.5297 44.0887 42.7666 43.8804C43.0036 43.6721 43.3038 43.5498 43.6188 43.5332C43.9339 43.5166 44.2453 43.6067 44.5028 43.789C44.7603 43.9713 44.9488 44.235 45.0378 44.5377L51.1718 64.4836L57.7654 50.4664C57.8822 50.2182 58.0692 50.0097 58.3032 49.8666C58.5372 49.7235 58.808 49.6521 59.0822 49.6612C59.3563 49.6703 59.6218 49.7594 59.8459 49.9177C60.0699 50.076 60.2427 50.2964 60.3428 50.5518L63.1383 57.6667H78.5959C78.9593 57.6797 79.3035 57.8333 79.556 58.095C79.8084 58.3567 79.9495 58.7062 79.9495 59.0698C79.9495 59.4335 79.8084 59.7829 79.556 60.0447C79.3035 60.3064 78.9593 60.4599 78.5959 60.473H62.1738C61.8914 60.4729 61.6157 60.3875 61.3827 60.228C61.1497 60.0686 60.9702 59.8425 60.8678 59.5793L58.9188 54.606L52.1672 68.9556C52.0537 69.1969 51.8739 69.4009 51.6487 69.5437C51.4235 69.6865 51.1624 69.7623 50.8957 69.7621L50.8975 69.7639Z" fill="#FDA6C6"/>
</g>
<defs>
<clipPath id="clip0_222_2042">
<rect width="79.1317" height="93" fill="white" transform="translate(0.868256)"/>
</clipPath>
</defs>
</svg>
