<svg width="1068" height="59" viewBox="0 0 1068 59" fill="none" xmlns="http://www.w3.org/2000/svg">
<path d="M11.1466 13.523L6.80801 31.954L2.04069 52.839H0V8.38007H1.71486V46.4168L5.89913 28.2469L10.5636 8.38007H12.8443V52.852H11.1295L11.1466 13.523ZM31.725 13.3403L25.7744 52.7737H23.8709L17.8174 13.4447V52.852H16.1026V8.38007H18.8121L24.8484 47.7091L30.8675 8.38007H33.5942V52.852H31.8793L31.725 13.3403ZM38.7216 29.004H46.6271V31.6146H38.7902V50.1892H48.222V52.7998H36.9039V8.38007H48.222V10.9907H38.7902L38.7216 29.004ZM64.4446 8.02765C66.5367 8.02765 68.1315 9.05885 69.1605 11.0951C70.3453 13.7215 70.8859 16.4913 70.7553 19.2664V42.031C70.8895 44.819 70.3489 47.6022 69.1605 50.2414C68.1315 52.2777 66.5367 53.2697 64.4446 53.2697C62.3524 53.2697 60.7062 52.2777 59.6258 50.2414C58.476 47.5956 57.9477 44.8163 58.0653 42.031V32.0062H53.2294V52.8912H51.343V8.38007H53.2294V29.265H58.1853V19.2011C58.0713 16.4287 58.5996 13.6628 59.7458 11.0298C60.8262 8.99356 62.421 7.9624 64.5646 7.9624L64.4446 8.02765ZM64.4446 10.7297C61.4779 10.7297 59.9688 13.4969 59.9688 19.0836V42.2137C59.9688 47.8005 61.4779 50.6069 64.4446 50.6069C65.9537 50.6069 67.0683 49.8759 67.7886 48.3487C68.6073 46.3659 68.9728 44.2907 68.8689 42.2137V19.0314C68.9757 16.9629 68.6102 14.896 67.7886 12.9226C67.0683 11.4084 65.9537 10.6774 64.4446 10.6774V10.7297ZM81.2674 52.852H79.4325V11.0821H73.5505V8.47145H87.2694V11.0821H81.2674V52.852ZM91.3679 11.0821C92.3454 9.00663 93.9574 7.97543 96.0495 7.97543C98.1416 7.97543 99.7365 9.00663 100.748 11.0821C101.855 13.7077 102.366 16.4579 102.257 19.2142V22.9212H100.525V19.0053C100.597 16.9391 100.238 14.8773 99.4621 12.8965C98.7761 11.3823 97.7472 10.6513 96.1524 10.6513C94.5576 10.6513 93.5287 11.3823 92.8599 12.8965C92.0524 14.8723 91.6872 16.9373 91.7795 19.0053V42.1354C91.7795 47.6873 93.2371 50.4633 96.1524 50.4633C99.0677 50.4633 100.525 47.6873 100.525 42.1354V36.9142H102.326V41.9918C102.432 44.7609 101.922 47.5237 100.817 50.1631C99.8051 52.1993 98.2445 53.2305 96.1181 53.2305C93.9917 53.2305 92.414 52.1993 91.4365 50.1631C90.3009 47.5285 89.7786 44.7632 89.8932 41.9918V19.2142C89.7761 16.4555 90.2985 13.7027 91.4365 11.0821H91.3679ZM116.062 32.946H113.13C112.314 32.9145 111.504 33.0567 110.789 33.3564C110.074 33.6562 109.483 34.1017 109.082 34.6429C107.983 36.4863 107.517 38.5119 107.728 40.5299V47.5264C107.827 49.3151 107.614 51.106 107.093 52.852H105.104C105.68 51.1125 105.923 49.3187 105.824 47.5264V40.5821C105.824 35.4783 107.196 32.4369 109.957 31.5102C107.202 30.5529 105.824 27.4855 105.824 22.3077V18.3918C105.824 11.6956 107.865 8.36704 111.998 8.36704H118.034V52.852H116.131L116.062 32.946ZM116.062 11.0429H112.135C109.22 11.0429 107.813 13.6535 107.813 18.6659V22.8429C107.813 25.6885 108.259 27.6595 109.134 28.6907C109.553 29.2096 110.149 29.6319 110.859 29.9124C111.569 30.1929 112.366 30.3211 113.164 30.2832H116.216L116.062 11.0429ZM138.475 11.0429H129.558V52.8128H127.654V8.38007H140.499V52.852H138.544L138.475 11.0429ZM143.723 8.43229H149.656C153.789 8.43229 155.83 12.0219 155.83 19.2403V24.0438C155.83 31.0794 153.652 34.5907 149.176 34.5907H145.575V52.8651H143.791L143.723 8.43229ZM145.575 31.9279H149.176C149.955 31.9537 150.726 31.7924 151.378 31.4668C152.03 31.1412 152.532 30.6678 152.812 30.1135C153.735 28.2349 154.121 26.2278 153.943 24.2266V19.0053C153.943 13.6796 152.52 11.056 149.656 11.056H145.643L145.575 31.9279ZM158.556 42.031V19.2142C158.428 16.452 158.969 13.6954 160.151 11.0821C161.18 9.00663 162.775 7.97543 164.867 7.97543C166.959 7.97543 168.623 9.00663 169.634 11.0429C170.834 13.6667 171.381 16.4378 171.246 19.2142V41.9788C171.385 44.7681 170.838 47.5526 169.634 50.1892C168.623 52.2254 167.011 53.2175 164.867 53.2175C162.723 53.2175 161.18 52.1863 160.151 50.15C158.97 47.5229 158.43 44.7537 158.556 41.9788V42.031ZM160.443 19.0836V42.2137C160.339 44.2907 160.704 46.3659 161.523 48.3487C162.243 49.8759 163.358 50.6069 164.953 50.6069C166.548 50.6069 167.628 49.8759 168.382 48.3487C169.186 46.3635 169.545 44.2896 169.446 42.2137V19.0314C169.548 16.964 169.189 14.8984 168.382 12.9226C167.645 11.4084 166.479 10.6774 164.953 10.6774C163.427 10.6774 162.329 11.4084 161.523 12.9226C160.701 14.896 160.336 16.9629 160.443 19.0314V19.0836ZM181.707 52.852H179.821V11.0821H173.87V8.47145H187.589V11.0821H181.707V52.852ZM201.496 13.523L197.175 31.954L192.459 52.839H190.418V8.38007H192.133V46.4168L196.369 28.2469L200.982 8.38007H203.263V52.852H201.548L201.496 13.523ZM206.504 8.38007H212.523C213.505 8.34804 214.474 8.55643 215.289 8.97461C216.104 9.39278 216.721 9.9987 217.05 10.7035C218.113 12.9973 218.574 15.4277 218.405 17.8566V20.3628C218.506 22.371 218.229 24.3797 217.582 26.3281C217.397 26.9358 217.035 27.5039 216.521 27.9899C216.007 28.4759 215.356 28.8672 214.615 29.1345C217.53 30.0221 218.954 33.2071 218.954 38.6763V42.5923C218.954 49.4321 216.862 52.8781 212.677 52.8781H206.452L206.504 8.38007ZM208.407 27.9597H211.597C212.346 28.0031 213.096 27.8883 213.765 27.6281C214.433 27.3679 214.995 26.9722 215.387 26.4848C216.322 24.7271 216.704 22.8272 216.502 20.9372V18.0786C216.615 16.2654 216.319 14.4509 215.627 12.7137C215.417 12.2071 214.995 11.7668 214.425 11.4603C213.855 11.1538 213.169 10.998 212.472 11.0168H208.39L208.407 27.9597ZM208.407 50.15H212.677C215.593 50.15 217.05 47.5394 217.05 42.4487V38.4936C217.236 36.4396 216.82 34.3798 215.833 32.4631C215.488 31.9071 214.933 31.4417 214.24 31.1257C213.547 30.8097 212.747 30.6573 211.94 30.6879H208.407V50.15ZM221.921 41.9396V19.2142C221.792 16.452 222.333 13.6954 223.515 11.0821C224.579 9.00663 226.139 7.97543 228.231 7.97543C230.323 7.97543 231.97 9.00663 233.05 11.0429C234.189 13.6768 234.712 16.4426 234.593 19.2142V41.9788C234.716 44.7633 234.193 47.5425 233.05 50.1892C231.97 52.2254 230.375 53.2175 228.231 53.2175C226.088 53.2175 224.579 52.1863 223.515 50.15C222.335 47.5229 221.794 44.7537 221.921 41.9788V41.9396ZM223.807 18.9922V42.1223C223.732 44.1973 224.091 46.2682 224.87 48.2573C225.607 49.7845 226.722 50.5155 228.3 50.5155C229.877 50.5155 230.975 49.7845 231.73 48.2573C232.533 46.2721 232.892 44.1982 232.793 42.1223V19.0314C232.895 16.964 232.536 14.8984 231.73 12.9226C230.992 11.4084 229.826 10.6774 228.3 10.6774C226.774 10.6774 225.676 11.4084 224.87 12.9226C224.089 14.9025 223.73 16.9649 223.807 19.0314V18.9922ZM248.604 11.0038H239.601V52.7737H237.714V8.38007H250.542V52.852H248.604V11.0038ZM253.748 41.9396V19.2142C253.624 16.4511 254.171 13.6943 255.36 11.0821C256.389 9.00663 257.984 7.97543 260.076 7.97543C262.168 7.97543 263.763 9.00663 264.844 11.0429C266.028 13.6693 266.569 16.439 266.438 19.2142V41.9788C266.573 44.7669 266.032 47.5499 264.844 50.1892C263.763 52.2254 262.22 53.2175 260.076 53.2175C257.933 53.2175 256.389 52.1863 255.36 50.15C254.173 47.5238 253.627 44.7546 253.748 41.9788V41.9396ZM255.652 18.9922V42.1223C255.552 44.1982 255.912 46.2721 256.715 48.2573C257.452 49.7845 258.516 50.5155 260.145 50.5155C261.774 50.5155 262.769 49.7845 263.575 48.2573C264.399 46.2749 264.776 44.2006 264.689 42.1223V19.0314C264.779 16.9616 264.402 14.8954 263.575 12.9226C262.837 11.4084 261.722 10.6774 260.145 10.6774C258.567 10.6774 257.521 11.4084 256.715 12.9226C255.909 14.8984 255.549 16.964 255.652 19.0314V18.9922ZM281.375 52.8128L273.435 31.9279L271.446 36.7314V52.852H269.559V8.38007H271.446V31.8757L280.826 8.38007H282.832L274.567 29.0954L283.364 52.852L281.375 52.8128ZM297.889 42.9708H288.955L287.497 52.8128H285.782L292.058 8.2626H294.836L301.25 52.8128H299.347L297.889 42.9708ZM293.379 11.6433L289.246 40.3602H297.649L293.379 11.6433ZM305.572 10.9777C306.6 8.98054 308.144 7.94933 310.236 7.94933C312.328 7.94933 313.94 8.98054 314.952 11.0168C316.086 13.6511 316.597 16.4178 316.461 19.188V20.3367C316.508 22.2877 316.167 24.2329 315.449 26.1062C314.996 27.4483 313.985 28.6432 312.568 29.513C314.044 30.2662 315.086 31.4192 315.483 32.7372C316.195 34.6109 316.525 36.5568 316.461 38.5067V41.9527C316.601 44.7359 316.09 47.516 314.952 50.1631C313.94 52.1993 312.38 53.1914 310.236 53.1914C308.092 53.1914 306.6 52.1993 305.572 50.1631C304.442 47.5144 303.931 44.7356 304.062 41.9527V38.2847H305.863V42.1354C305.776 44.2004 306.124 46.2627 306.892 48.2443C307.612 49.7584 308.727 50.5285 310.322 50.5285C313.203 50.5285 314.66 47.6438 314.66 41.8743V38.4936C314.754 36.6296 314.357 34.7702 313.494 33.0243C312.654 31.719 311.591 30.9881 310.236 30.9881H308.624V28.3774H310.339C311.608 28.3774 312.671 27.6726 313.46 26.2237C314.341 24.5672 314.756 22.7885 314.677 21.0024V19.3316C314.677 13.5622 313.22 10.7166 310.339 10.7166C308.83 10.7166 307.715 11.4476 306.909 12.9617C306.088 14.9351 305.722 17.002 305.829 19.0706V21.5115H304.114V19.2272C303.994 16.4533 304.505 13.6845 305.623 11.0429L305.572 10.9777ZM331.432 42.9839H322.446L320.988 52.8259H319.273L325.533 8.27566H328.208L334.621 52.8259H332.718L331.432 42.9839ZM326.922 11.6564L322.737 40.3732H331.14L326.922 11.6564ZM348.495 31.9409H339.509V52.8259H337.605V8.38007H339.509V29.265H348.495V8.38007H350.45V52.852H348.443L348.495 31.9409ZM364.837 13.51L360.499 31.9409L355.783 52.8259H353.742V8.38007H355.457V46.4168L359.624 28.2469L364.22 8.38007H366.518V52.852H364.803L364.837 13.51ZM380.528 32.933H377.51C376.698 32.907 375.893 33.0515 375.182 33.3508C374.471 33.6501 373.882 34.0927 373.48 34.6299C372.369 36.4705 371.903 38.4984 372.125 40.5168V47.5133C372.216 49.3019 372.003 51.0919 371.491 52.839H369.553C370.08 51.0936 370.305 49.3031 370.222 47.5133V40.5821C370.222 35.4783 371.628 32.4369 374.406 31.5102C371.628 30.5573 370.222 27.4898 370.222 22.3077V18.3918C370.222 11.6956 372.263 8.36704 376.395 8.36704H382.432V52.852H380.528V32.933ZM380.528 11.0298H376.395C373.532 11.0298 372.074 13.6405 372.074 18.6529V22.8299C372.074 25.6754 372.503 27.6465 373.377 28.6777C373.8 29.1965 374.4 29.6186 375.112 29.899C375.825 30.1794 376.624 30.3076 377.424 30.2701H380.477L380.528 11.0298ZM385.724 47.2914H387.525V52.839H385.724V47.2914ZM408.138 11.0298H399.152V52.7998H397.248V8.38007H410.092V52.852H408.138V11.0298ZM415.237 28.9387H423.108V31.5493H415.237V50.1239H424.72V52.7345H413.351V8.38007H424.72V10.9907H415.237V28.9387ZM427.824 8.36704H433.758C437.89 8.36704 439.931 11.9566 439.931 19.175V23.9785C439.931 31.0142 437.753 34.5254 433.277 34.5254H429.676V52.7998H427.824V8.36704ZM429.676 31.8626H433.277C434.057 31.8884 434.827 31.7271 435.479 31.4015C436.132 31.076 436.633 30.6025 436.913 30.0482C437.837 28.1696 438.223 26.1626 438.045 24.1613V18.9401C438.045 13.6144 436.621 10.9907 433.758 10.9907H429.676V31.8626ZM444.698 28.9387H452.518V31.5493H444.647V50.1239H454.079V52.7345H442.743V8.38007H454.079V10.9907H444.647L444.698 28.9387ZM474.348 58.9608H472.462V52.852H458.743V59H456.823V50.1892H458.812C459.836 47.891 460.329 45.4754 460.269 43.0491L461.384 8.38007H471.931V50.15H474.314L474.348 58.9608ZM463.219 11.0038L462.156 43.0099C462.243 45.4324 461.779 47.848 460.784 50.15H470.027V10.9907L463.219 11.0038ZM494.618 11.0038H485.632V52.7737H483.729V8.38007H496.522V52.852H494.55L494.618 11.0038ZM499.763 8.39314H505.748C509.88 8.39314 511.921 11.9827 511.921 19.2011V24.0046C511.921 31.0403 509.692 34.5516 505.267 34.5516H501.666V52.8259H499.694L499.763 8.39314ZM501.666 31.8887H505.267C506.044 31.9049 506.809 31.7397 507.459 31.4154C508.109 31.091 508.613 30.6231 508.903 30.0744C509.801 28.1908 510.186 26.1878 510.035 24.1874V18.9662C510.035 13.6405 508.611 11.0168 505.748 11.0168H501.666V31.8887ZM525.88 13.5361L521.542 31.967L516.826 52.852H514.733V8.38007H516.448V46.4168L520.615 28.2469L525.417 8.38007H527.715V52.852H526L525.88 13.5361ZM546.458 13.3533L540.439 52.7868H538.536L532.465 13.4577V52.852H530.75V8.38007H533.46L539.548 47.7091L545.515 8.38007H548.242V52.852H546.441L546.458 13.3533ZM553.472 29.0171H561.429V31.6277H553.541V50.2022H563.007V52.8128H551.637V8.38007H563.007V10.9907H553.541L553.472 29.0171ZM576.897 32.0193H567.894V52.9042H566.008V8.38007H567.894V29.265H576.897V8.38007H578.835V52.852H576.897V32.0193ZM583.997 29.0171H591.868V31.6277H584.065V50.2022H593.531V52.8128H582.162V8.38007H593.531V10.9907H584.065L583.997 29.0171ZM607.422 32.0193H598.436V52.9042H596.532V8.38007H598.436V29.265H607.422V8.38007H609.445V52.852H607.508L607.422 32.0193ZM623.747 13.5883L619.426 32.0193L614.71 52.9042H612.618V8.38007H614.333V46.4168L618.517 28.2469L623.182 8.38007H625.462V52.852H623.747V13.5883ZM630.607 29.0171H638.598V31.6277H630.727V50.2022H640.21V52.8128H628.823V8.38007H640.159V10.9907H630.675L630.607 29.0171ZM658.851 13.3533L652.866 52.7868H650.979L644.857 13.4577V52.852H643.142V8.38007H645.869L651.905 47.7091L657.925 8.38007H660.651V52.852H658.799L658.851 13.3533ZM670.22 41.9918V19.2142C670.096 16.4511 670.643 13.6943 671.832 11.0821C672.844 9.00663 674.456 7.97543 676.548 7.97543C678.64 7.97543 680.235 9.00663 681.315 11.0429C682.5 13.6693 683.041 16.439 682.91 19.2142V41.9788C683.044 44.7669 682.504 47.5499 681.315 50.1892C680.235 52.2254 678.692 53.2175 676.548 53.2175C674.404 53.2175 672.844 52.1863 671.832 50.15C670.645 47.5238 670.099 44.7546 670.22 41.9788V41.9918ZM672.124 19.0445V42.1746C672.024 44.2505 672.383 46.3244 673.187 48.3095C673.924 49.8368 674.987 50.5677 676.617 50.5677C678.246 50.5677 679.24 49.8368 679.961 48.3095C680.8 46.3295 681.183 44.2539 681.092 42.1746V19.0314C681.186 16.9605 680.803 14.893 679.961 12.9226C679.24 11.4084 678.126 10.6774 676.617 10.6774C675.108 10.6774 673.993 11.4084 673.187 12.9226C672.381 14.8984 672.021 16.964 672.124 19.0314V19.0445ZM687.557 11.0168C688.569 9.0197 690.13 7.98849 692.222 7.98849C694.314 7.98849 695.909 9.0197 696.938 11.056C698.064 13.6917 698.575 16.4573 698.447 19.2272V20.3759C698.497 22.3279 698.15 24.2742 697.418 26.1454C696.97 27.4861 695.966 28.681 694.554 29.5522C696.025 30.3091 697.066 31.4605 697.469 32.7763C698.156 34.654 698.485 36.597 698.447 38.5458V41.9918C698.578 44.7747 698.067 47.5536 696.938 50.2022C695.909 52.2385 694.348 53.2305 692.222 53.2305C690.095 53.2305 688.569 52.2385 687.557 50.2022C686.399 47.558 685.871 44.7775 685.997 41.9918V38.3239H687.849V42.1746C687.758 44.2388 688.1 46.3009 688.861 48.2834C689.598 49.7976 690.661 50.5677 692.17 50.5677C695.086 50.5677 696.543 47.683 696.543 41.9135V38.4936C696.637 36.6296 696.24 34.7702 695.377 33.0243C694.554 31.719 693.474 30.9881 692.119 30.9881H690.524V28.3774H692.239C693.491 28.3774 694.571 27.6726 695.343 26.2237C696.224 24.5672 696.639 22.7885 696.56 21.0024V19.3316C696.56 13.5622 695.103 10.7166 692.188 10.7166C690.679 10.7166 689.615 11.4476 688.878 12.9617C688.072 14.9375 687.712 17.0032 687.815 19.0706V21.5115H686.1V19.2272C685.98 16.4533 686.49 13.6845 687.609 11.0429L687.557 11.0168ZM712.543 31.967H703.54V52.852H701.654V8.38007H703.54V29.265H712.543V8.38007H714.429V52.852H712.543V31.967ZM729.503 43.023H720.517L719.042 52.8651H717.328L723.604 8.31482H726.382L732.796 52.8651H730.892L729.503 43.023ZM724.924 11.6956L720.809 40.4124H729.211L724.924 11.6956ZM747.492 52.852L739.569 31.967L737.563 36.7706V52.852H735.677V8.38007H737.563V31.8757L746.96 8.38007H748.95L740.735 29.0954L749.481 52.852H747.492ZM752.208 41.9788V19.2142C752.091 16.4555 752.613 13.7027 753.751 11.0821C754.832 9.00663 756.426 7.97543 758.467 7.97543C760.508 7.97543 762.223 9.00663 763.286 11.0429C764.477 13.6683 765.024 16.4382 764.898 19.2142V41.9788C765.028 44.7677 764.481 47.551 763.286 50.1892C762.223 52.2254 760.611 53.2175 758.467 53.2175C756.323 53.2175 754.832 52.1863 753.751 50.15C752.616 47.5154 752.093 44.7502 752.208 41.9788ZM754.094 19.0314V42.1615C753.99 44.2385 754.356 46.3136 755.175 48.2965C755.895 49.8237 756.889 50.5547 758.467 50.5547C760.045 50.5547 761.142 49.8237 761.897 48.2965C762.721 46.3141 763.098 44.2397 763.011 42.1615V19.0314C763.101 16.9616 762.724 14.8954 761.897 12.9226C761.159 11.4084 760.045 10.6774 758.467 10.6774C756.889 10.6774 755.895 11.4084 755.175 12.9226C754.353 14.896 753.987 16.9629 754.094 19.0314ZM783.71 13.3403L777.674 52.7737H775.787L769.699 13.4447V52.852H767.985V8.38007H770.711L776.73 47.7091L782.767 8.38007H785.476V52.852H783.761L783.71 13.3403ZM790.707 26.6544H794.136C795.229 26.6443 796.299 26.8891 797.204 27.3558C798.108 27.8225 798.803 28.4888 799.195 29.265C800.505 31.7824 801.089 34.4842 800.91 37.1883V42.031C800.91 49.2493 798.869 52.839 794.685 52.839H788.803V8.38007H790.707V26.6544ZM790.707 50.15H794.651C797.566 50.15 798.972 47.5394 798.972 42.2007V36.9794C799.118 34.9802 798.739 32.979 797.857 31.0925C797.556 30.5418 797.042 30.0735 796.384 29.7496C795.726 29.4257 794.954 29.2613 794.171 29.2781H790.741L790.707 50.15ZM811.285 52.7606H809.381V10.9907H803.499V8.38007H817.218V10.9907H811.336L811.285 52.7606ZM821.831 28.8604H829.703V31.471H821.831V50.0456H831.315V52.6562H819.928V8.38007H831.315V10.9907H821.831V28.8604ZM835.807 11.0821C836.836 9.00663 838.397 7.97543 840.523 7.97543C842.65 7.97543 844.176 9.00663 845.188 11.0821C846.34 13.7004 846.869 16.4544 846.748 19.2142V22.9212H844.896V19.0053C844.981 16.9413 844.64 14.8799 843.884 12.8965C843.147 11.3823 842.17 10.6513 840.575 10.6513C838.98 10.6513 837.951 11.3823 837.265 12.8965C836.473 14.8746 836.114 16.9384 836.202 19.0053V42.1354C836.202 47.6873 837.659 50.4633 840.575 50.4633C843.439 50.4633 844.896 47.683 844.896 42.1354V36.9142H846.748V41.9918C846.866 44.7643 846.338 47.5308 845.188 50.1631C844.176 52.1993 842.615 53.2305 840.523 53.2305C838.431 53.2305 836.836 52.1993 835.807 50.1631C834.685 47.5266 834.175 44.7616 834.298 41.9918V19.2142C834.173 16.4572 834.684 13.7047 835.807 11.0821ZM851.704 26.6544H855.254C856.36 26.6346 857.447 26.8746 858.368 27.3417C859.288 27.8088 859.997 28.4803 860.399 29.265C861.708 31.7824 862.293 34.4842 862.113 37.1883V42.031C862.113 49.2493 860.021 52.839 855.906 52.839H849.972V8.38007H851.859L851.704 26.6544ZM851.704 50.15H855.751C858.615 50.15 860.073 47.5394 860.073 42.2007V36.9794C860.224 34.9768 859.827 32.9721 858.907 31.0925C858.605 30.547 858.096 30.0827 857.445 29.7593C856.794 29.436 856.031 29.2684 855.254 29.2781H851.704V50.15ZM872.797 10.9907C873.826 8.91525 875.438 7.88409 877.513 7.88409C879.588 7.88409 881.217 8.91525 882.194 10.9907C883.332 13.6113 883.855 16.3641 883.738 19.1228V22.8299H881.937V18.9139C882.009 16.8477 881.65 14.7859 880.874 12.8051C880.188 11.2909 879.159 10.56 877.564 10.56C875.97 10.56 874.941 11.2909 874.272 12.8051C873.464 14.7809 873.099 16.8459 873.191 18.9139V42.044C873.191 47.596 874.649 50.3719 877.564 50.3719C880.48 50.3719 881.937 47.596 881.937 42.044V36.8228H883.824V41.9005C883.938 44.6718 883.416 47.4371 882.28 50.0717C881.303 52.108 879.691 53.1392 877.599 53.1392C875.506 53.1392 873.912 52.108 872.883 50.0717C871.793 47.4299 871.289 44.6684 871.391 41.9005V19.2142C871.287 16.459 871.791 13.7101 872.883 11.0821L872.797 10.9907ZM904.299 13.4317L899.978 31.8626L895.262 52.7476H893.221V8.38007H894.936V46.4168L899.12 28.2469L903.785 8.38007H906.117V52.852H904.402L904.299 13.4317ZM920.144 31.8626H911.261V52.7476H909.358V8.38007H911.261V29.265H920.196V8.38007H922.151V52.852H920.196L920.144 31.8626ZM926.764 10.9777C927.776 8.90222 929.336 7.87102 931.48 7.87102C933.623 7.87102 935.167 8.90222 936.144 10.9777C937.296 13.596 937.825 16.3499 937.705 19.1097V22.8168H935.99V18.9009C936.056 16.834 935.691 14.7721 934.909 12.792C934.241 11.2779 933.195 10.5469 931.617 10.5469C930.039 10.5469 928.993 11.2779 928.307 12.792C927.507 14.7687 927.147 16.8337 927.244 18.9009V42.031C927.244 47.5829 928.702 50.3589 931.617 50.3589C934.532 50.3589 935.99 47.5829 935.99 42.031V36.8097H937.705V41.8874C937.822 44.6599 937.294 47.4264 936.144 50.0587C935.167 52.0949 933.572 53.1261 931.48 53.1261C929.387 53.1261 927.776 52.0949 926.764 50.0587C925.658 47.4193 925.148 44.6565 925.255 41.8874V19.2142C925.146 16.4579 925.657 13.7077 926.764 11.0821V10.9777ZM948.062 52.7476H946.159V10.9777H940.277V8.36704H953.996V10.9777H948.114L948.062 52.7476ZM956.757 8.27566H962.707C966.789 8.27566 968.881 11.8653 968.881 19.0836V23.8872C968.881 30.9184 966.64 34.4341 962.159 34.4341H958.609V52.7084H956.722L956.757 8.27566ZM958.643 31.7712H962.193C962.975 31.7978 963.748 31.6371 964.403 31.3116C965.058 30.986 965.563 30.5122 965.846 29.9568C966.776 28.0792 967.173 26.0729 967.012 24.0699V18.8487C967.012 13.523 965.554 10.8993 962.742 10.8993H958.643V31.7712ZM986.458 8.27566L979.016 44.498C978.746 46.7107 978.04 48.88 976.924 50.9332C976.572 51.5501 975.963 52.0619 975.191 52.3898C974.42 52.7176 973.528 52.8433 972.654 52.7476V50.137C973.22 50.1869 973.794 50.1035 974.296 49.8982C974.799 49.6929 975.207 49.3753 975.466 48.9883C976.235 47.7098 976.743 46.3498 976.975 44.9549L978.141 39.5509L971.282 8.28873H973.219L976.649 23.9525L979.17 35.8307L981.451 23.8741L984.572 8.21041L986.458 8.27566ZM1001.09 52.7476L993.112 31.8626L991.174 36.6662V52.852H989.271V8.38007H991.174V31.8757L1000.55 8.38007H1002.49L994.278 29.0954L1003.02 52.852L1001.09 52.7476ZM1021.54 58.8564H1019.71V52.852H1006.44V8.38007H1008.29V50.15H1017.22V8.38007H1019.18V50.15H1021.54V58.8564ZM1035.74 13.5752L1031.42 32.0062L1026.65 52.8912H1024.61V8.38007H1026.33V46.4168L1030.51 28.2469L1035.18 8.38007H1037.41V52.852H1035.69L1035.74 13.5752ZM1042.6 29.004H1050.47V31.6146H1042.6V50.1892H1052.09V52.7998H1040.7V8.38007H1052.09V10.9907H1042.6V29.004ZM1064.67 0.0260919H1065.94C1065.97 1.38843 1065.56 2.73497 1064.72 3.94202C1064.45 4.35717 1064.04 4.70911 1063.52 4.96152C1063.01 5.21392 1062.42 5.35766 1061.81 5.37787C1061.19 5.36457 1060.59 5.2241 1060.07 4.97132C1059.54 4.71853 1059.12 4.36284 1058.84 3.94202C1057.98 2.74491 1057.58 1.38861 1057.68 0.0260919H1058.98C1058.93 0.937753 1059.21 1.84216 1059.8 2.63671C1060.01 2.90422 1060.3 3.12665 1060.65 3.28224C1061 3.43783 1061.4 3.52124 1061.81 3.52431C1063.52 3.52431 1064.57 2.33651 1064.67 0V0.0260919ZM1066.27 13.5752L1062.17 31.1708L1057.26 52.852H1055.14V8.38007H1056.85V46.4168L1060.61 30.2049L1065.75 8.38007H1068V52.852H1066.29L1066.27 13.5752Z" fill="white" fill-opacity="0.6"/>
</svg>
