<svg width="345" height="67" viewBox="0 0 345 67" fill="none" xmlns="http://www.w3.org/2000/svg">
<path d="M4.69136 3.23295L2.86694 14.0094L0.86877 26.2352H0V0.222961H0.729767V22.482L2.50206 11.8541L4.46548 0.222961H5.42112V26.2352H4.69136V3.23295Z" fill="white" fill-opacity="0.6"/>
<path d="M13.4073 3.12146L10.8705 26.198H10.0712L7.49965 3.19579V26.2352H6.78726V0.222961H7.93404L10.4882 23.2252L13.025 0.222961H14.1718V26.2352H13.4073V3.12146Z" fill="white" fill-opacity="0.6"/>
<path d="M16.3591 12.2629H19.6778V13.8236H16.3591V24.6744H20.3554V26.2352H15.5598V0.222961H20.3554V1.78369H16.3591V12.2629Z" fill="white" fill-opacity="0.6"/>
<path d="M27.2289 0C28.1208 0 28.7869 0.594564 29.227 1.78369C29.6788 2.97282 29.9047 4.57072 29.9047 6.57737V19.8808C29.9047 21.8874 29.6788 23.4853 29.227 24.6744C28.7869 25.8636 28.1208 26.4581 27.2289 26.4581C26.3254 26.4581 25.6535 25.8636 25.2133 24.6744C24.7731 23.4853 24.5531 21.8874 24.5531 19.8808V14.0094H22.4506V26.2352H21.6514V0.222961H22.4506V12.4487H24.5531V6.57737C24.5531 4.57072 24.7731 2.97282 25.2133 1.78369C25.6535 0.594564 26.3254 0 27.2289 0ZM27.2289 1.56073C25.9778 1.56073 25.3523 3.19579 25.3523 6.46589V19.9922C25.3523 23.2623 25.9778 24.8974 27.2289 24.8974C27.866 24.8974 28.3351 24.4639 28.6363 23.5968C28.949 22.7049 29.1054 21.5034 29.1054 19.9922V6.46589C29.1054 4.9547 28.949 3.76558 28.6363 2.8985C28.3351 2.00666 27.866 1.56073 27.2289 1.56073Z" fill="white" fill-opacity="0.6"/>
<path d="M34.3138 26.2352H33.5146V1.78369H31.0299V0.222961H36.7985V1.78369H34.3138V26.2352Z" fill="white" fill-opacity="0.6"/>
<path d="M38.5655 1.82086C38.9941 0.606952 39.6544 0 40.5463 0C41.4382 0 42.0985 0.606952 42.5271 1.82086C42.9557 3.00998 43.17 4.59549 43.17 6.57737V8.73267H42.4055V6.46589C42.4055 4.97948 42.2549 3.79035 41.9537 2.8985C41.6641 2.00666 41.2008 1.56073 40.5637 1.56073C39.9266 1.56073 39.4574 2.00666 39.1563 2.8985C38.8667 3.79035 38.7219 4.97948 38.7219 6.46589V19.9922C38.7219 23.2376 39.3358 24.8602 40.5637 24.8602C41.7915 24.8602 42.4055 23.2376 42.4055 19.9922V16.9079H43.17V19.8808C43.17 21.8626 42.9557 23.4605 42.5271 24.6744C42.0985 25.8636 41.4382 26.4581 40.5463 26.4581C39.6544 26.4581 38.9941 25.8636 38.5655 24.6744C38.1369 23.4605 37.9226 21.8626 37.9226 19.8808V6.57737C37.9226 4.59549 38.1369 3.00998 38.5655 1.82086Z" fill="white" fill-opacity="0.6"/>
<path d="M48.9911 14.604H47.7227C46.9698 14.604 46.4022 14.9384 46.02 15.6073C45.6377 16.2514 45.4466 17.391 45.4466 19.0261V23.1137C45.4466 24.5506 45.3597 25.5911 45.1859 26.2352H44.3519C44.5488 25.5911 44.6473 24.5506 44.6473 23.1137V19.0632C44.6473 16.0656 45.2323 14.2943 46.4022 13.7493C45.2323 13.1795 44.6473 11.3834 44.6473 8.36106V6.09429C44.6473 2.18007 45.5161 0.222961 47.2536 0.222961H49.7904V26.2352H48.9911V14.604ZM48.9911 1.78369H47.271C46.0547 1.78369 45.4466 3.2701 45.4466 6.24293V8.69551C45.4466 10.3553 45.6319 11.4949 46.0026 12.1143C46.3733 12.7336 46.9408 13.0433 47.7054 13.0433H48.9911V1.78369Z" fill="white" fill-opacity="0.6"/>
<path d="M58.461 1.78369H54.6732V26.2352H53.8739V0.222961H59.2776V26.2352H58.461V1.78369Z" fill="white" fill-opacity="0.6"/>
<path d="M60.6612 0.222961H63.1806C64.9181 0.222961 65.7869 2.32871 65.7869 6.54021V9.36439C65.7869 13.4768 64.8486 15.533 62.9721 15.533H61.4604V26.2352H60.6612V0.222961ZM61.4604 13.9723H62.9721C63.6787 13.9723 64.1884 13.6254 64.5011 12.9318C64.8255 12.2133 64.9876 11.0614 64.9876 9.47587V6.42873C64.9876 3.33204 64.3853 1.78369 63.1806 1.78369H61.4604V13.9723Z" fill="white" fill-opacity="0.6"/>
<path d="M66.9382 19.8808V6.57737C66.9382 4.59549 67.1582 3.00998 67.5984 1.82086C68.0502 0.606952 68.7162 0 69.5966 0C70.5001 0 71.172 0.594564 71.6121 1.78369C72.0639 2.97282 72.2898 4.57072 72.2898 6.57737V19.8808C72.2898 21.8874 72.0639 23.4853 71.6121 24.6744C71.172 25.8636 70.5001 26.4581 69.5966 26.4581C68.7162 26.4581 68.0502 25.8636 67.5984 24.6744C67.1582 23.4605 66.9382 21.8626 66.9382 19.8808ZM67.7374 6.46589V19.9922C67.7374 21.5034 67.888 22.7049 68.1892 23.5968C68.4904 24.4639 68.9595 24.8974 69.5966 24.8974C70.2453 24.8974 70.7202 24.4639 71.0214 23.5968C71.3341 22.7049 71.4905 21.5034 71.4905 19.9922V6.46589C71.4905 4.9547 71.3341 3.76558 71.0214 2.8985C70.7202 2.00666 70.2453 1.56073 69.5966 1.56073C68.9595 1.56073 68.4904 2.00666 68.1892 2.8985C67.888 3.76558 67.7374 4.9547 67.7374 6.46589Z" fill="white" fill-opacity="0.6"/>
<path d="M76.6833 26.2352H75.884V1.78369H73.3994V0.222961H79.168V1.78369H76.6833V26.2352Z" fill="white" fill-opacity="0.6"/>
<path d="M85.0356 3.23295L83.2112 14.0094L81.213 26.2352H80.3442V0.222961H81.074V22.482L82.8463 11.8541L84.8097 0.222961H85.7654V26.2352H85.0356V3.23295Z" fill="white" fill-opacity="0.6"/>
<path d="M87.1315 0.222961H89.6857C90.5776 0.222961 91.2147 0.681271 91.597 1.59789C91.9792 2.51451 92.1704 3.90183 92.1704 5.75985V7.24626C92.1704 8.73267 92.0487 9.89702 91.8055 10.7393C91.5738 11.5568 91.1626 12.1019 90.5718 12.3744C91.7881 12.8946 92.3962 14.7526 92.3962 17.9484V20.2152C92.3962 24.2285 91.5101 26.2352 89.7378 26.2352H87.1315V0.222961ZM87.9308 11.7055H89.286C90.0274 11.7055 90.5602 11.4206 90.8846 10.8508C91.2089 10.2562 91.3711 9.1662 91.3711 7.5807V5.90848C91.3711 4.49639 91.2437 3.45591 90.9888 2.78702C90.734 2.11814 90.2938 1.78369 89.6683 1.78369H87.9308V11.7055ZM87.9308 24.6744H89.7378C90.9772 24.6744 91.597 23.1756 91.597 20.178V17.8369C91.597 16.1771 91.4232 15.0004 91.0757 14.3067C90.7282 13.6131 90.1838 13.2662 89.4424 13.2662H87.9308V24.6744Z" fill="white" fill-opacity="0.6"/>
<path d="M93.646 19.8808V6.57737C93.646 4.59549 93.8661 3.00998 94.3063 1.82086C94.7581 0.606952 95.4241 0 96.3045 0C97.208 0 97.8799 0.594564 98.32 1.78369C98.7718 2.97282 98.9977 4.57072 98.9977 6.57737V19.8808C98.9977 21.8874 98.7718 23.4853 98.32 24.6744C97.8799 25.8636 97.208 26.4581 96.3045 26.4581C95.4241 26.4581 94.7581 25.8636 94.3063 24.6744C93.8661 23.4605 93.646 21.8626 93.646 19.8808ZM94.4453 6.46589V19.9922C94.4453 21.5034 94.5959 22.7049 94.8971 23.5968C95.1982 24.4639 95.6674 24.8974 96.3045 24.8974C96.9532 24.8974 97.4281 24.4639 97.7293 23.5968C98.042 22.7049 98.1984 21.5034 98.1984 19.9922V6.46589C98.1984 4.9547 98.042 3.76558 97.7293 2.8985C97.4281 2.00666 96.9532 1.56073 96.3045 1.56073C95.6674 1.56073 95.1982 2.00666 94.8971 2.8985C94.5959 3.76558 94.4453 4.9547 94.4453 6.46589Z" fill="white" fill-opacity="0.6"/>
<path d="M104.903 1.78369H101.115V26.2352H100.316V0.222961H105.72V26.2352H104.903V1.78369Z" fill="white" fill-opacity="0.6"/>
<path d="M107.051 19.8808V6.57737C107.051 4.59549 107.271 3.00998 107.711 1.82086C108.163 0.606952 108.829 0 109.709 0C110.613 0 111.285 0.594564 111.725 1.78369C112.177 2.97282 112.403 4.57072 112.403 6.57737V19.8808C112.403 21.8874 112.177 23.4853 111.725 24.6744C111.285 25.8636 110.613 26.4581 109.709 26.4581C108.829 26.4581 108.163 25.8636 107.711 24.6744C107.271 23.4605 107.051 21.8626 107.051 19.8808ZM107.85 6.46589V19.9922C107.85 21.5034 108.001 22.7049 108.302 23.5968C108.603 24.4639 109.072 24.8974 109.709 24.8974C110.358 24.8974 110.833 24.4639 111.134 23.5968C111.447 22.7049 111.603 21.5034 111.603 19.9922V6.46589C111.603 4.9547 111.447 3.76558 111.134 2.8985C110.833 2.00666 110.358 1.56073 109.709 1.56073C109.072 1.56073 108.603 2.00666 108.302 2.8985C108.001 3.76558 107.85 4.9547 107.85 6.46589Z" fill="white" fill-opacity="0.6"/>
<path d="M118.707 26.2352L115.354 14.0094L114.52 16.8336V26.2352H113.721V0.222961H114.52V13.9723L118.481 0.222961H119.315L115.84 12.3372L119.541 26.2352H118.707Z" fill="white" fill-opacity="0.6"/>
<path d="M125.697 20.4753H121.91L121.301 26.2352H120.572L123.23 0.185801H124.394L127.105 26.2352H126.306L125.697 20.4753ZM123.786 2.1553L122.031 18.9889H125.576L123.786 2.1553Z" fill="white" fill-opacity="0.6"/>
<path d="M128.921 1.78369C129.35 0.594564 130.01 0 130.902 0C131.794 0 132.454 0.594564 132.883 1.78369C133.312 2.97282 133.526 4.57072 133.526 6.57737V7.24626C133.526 8.53448 133.381 9.66168 133.091 10.6278C132.802 11.5692 132.396 12.2257 131.875 12.5973C132.42 12.9194 132.831 13.5511 133.109 14.4925C133.387 15.4339 133.526 16.5611 133.526 17.8741V19.8808C133.526 21.8874 133.312 23.4853 132.883 24.6744C132.454 25.8636 131.794 26.4581 130.902 26.4581C130.01 26.4581 129.35 25.8636 128.921 24.6744C128.493 23.4853 128.278 21.8874 128.278 19.8808V17.7255H129.043V19.9922C129.043 21.4786 129.188 22.6678 129.477 23.5596C129.779 24.4515 130.248 24.8974 130.885 24.8974C132.113 24.8974 132.727 23.2128 132.727 19.8436V17.8369C132.727 16.4992 132.559 15.4339 132.223 14.6412C131.887 13.8484 131.429 13.452 130.85 13.452H130.172V11.8913H130.902C131.435 11.8913 131.869 11.4825 132.205 10.665C132.553 9.8227 132.727 8.7946 132.727 7.5807V6.61453C132.727 3.24533 132.113 1.56073 130.885 1.56073C130.248 1.56073 129.779 2.00666 129.477 2.8985C129.176 3.76558 129.026 4.9547 129.026 6.46589V7.87798H128.296V6.54021C128.296 4.53356 128.504 2.94805 128.921 1.78369Z" fill="white" fill-opacity="0.6"/>
<path d="M139.832 20.4753H136.044L135.436 26.2352H134.706L137.365 0.185801H138.529L141.239 26.2352H140.44L139.832 20.4753ZM137.921 2.1553L136.166 18.9889H139.71L137.921 2.1553Z" fill="white" fill-opacity="0.6"/>
<path d="M147.035 14.0094H143.247V26.2352H142.448V0.222961H143.247V12.4487H147.035V0.222961H147.851V26.2352H147.035V14.0094Z" fill="white" fill-opacity="0.6"/>
<path d="M153.926 3.23295L152.102 14.0094L150.104 26.2352H149.235V0.222961H149.965V22.482L151.737 11.8541L153.7 0.222961H154.656V26.2352H153.926V3.23295Z" fill="white" fill-opacity="0.6"/>
<path d="M160.54 14.604H159.271C158.518 14.604 157.951 14.9384 157.569 15.6073C157.186 16.2514 156.995 17.391 156.995 19.0261V23.1137C156.995 24.5506 156.908 25.5911 156.735 26.2352H155.901C156.098 25.5911 156.196 24.5506 156.196 23.1137V19.0632C156.196 16.0656 156.781 14.2943 157.951 13.7493C156.781 13.1795 156.196 11.3834 156.196 8.36106V6.09429C156.196 2.18007 157.065 0.222961 158.802 0.222961H161.339V26.2352H160.54V14.604ZM160.54 1.78369H158.82C157.603 1.78369 156.995 3.2701 156.995 6.24293V8.69551C156.995 10.3553 157.181 11.4949 157.551 12.1143C157.922 12.7336 158.49 13.0433 159.254 13.0433H160.54V1.78369Z" fill="white" fill-opacity="0.6"/>
<path d="M162.725 22.9651H163.507V26.2352H162.725V22.9651Z" fill="white" fill-opacity="0.6"/>
<path d="M4.5871 38.944H0.799268V63.3955H0V37.3832H5.40375V63.3955H4.5871V38.944Z" fill="white" fill-opacity="0.6"/>
<path d="M7.58653 49.4232H10.9052V50.9839H7.58653V61.8347H11.5829V63.3955H6.78726V37.3832H11.5829V38.944H7.58653V49.4232Z" fill="white" fill-opacity="0.6"/>
<path d="M12.8788 37.3832H15.3983C17.1358 37.3832 18.0046 39.489 18.0046 43.7005V46.5247C18.0046 50.6371 17.0663 52.6933 15.1898 52.6933H13.6781V63.3955H12.8788V37.3832ZM13.6781 51.1326H15.1898C15.8964 51.1326 16.406 50.7857 16.7188 50.0921C17.0431 49.3736 17.2053 48.2217 17.2053 46.6362V43.589C17.2053 40.4923 16.603 38.944 15.3983 38.944H13.6781V51.1326Z" fill="white" fill-opacity="0.6"/>
<path d="M20.0072 49.4232H23.3259V50.9839H20.0072V61.8347H24.0036V63.3955H19.208V37.3832H24.0036V38.944H20.0072V49.4232Z" fill="white" fill-opacity="0.6"/>
<path d="M32.5277 67H31.7284V63.3955H25.925V67H25.1431V61.8347H25.9772C26.3363 61.0172 26.539 59.6299 26.5853 57.6728L27.0718 37.3832H31.5199V61.8347H32.5277V67ZM27.819 38.944L27.3672 57.6728C27.3093 59.7042 27.1181 61.0915 26.7938 61.8347H30.7033V38.944H27.819Z" fill="white" fill-opacity="0.6"/>
<path d="M41.0856 38.944H37.2978V63.3955H36.4985V37.3832H41.9023V63.3955H41.0856V38.944Z" fill="white" fill-opacity="0.6"/>
<path d="M43.2858 37.3832H45.8052C47.5427 37.3832 48.4115 39.489 48.4115 43.7005V46.5247C48.4115 50.6371 47.4732 52.6933 45.5967 52.6933H44.085V63.3955H43.2858V37.3832ZM44.085 51.1326H45.5967C46.3033 51.1326 46.813 50.7857 47.1257 50.0921C47.4501 49.3736 47.6122 48.2217 47.6122 46.6362V43.589C47.6122 40.4923 47.0099 38.944 45.8052 38.944H44.085V51.1326Z" fill="white" fill-opacity="0.6"/>
<path d="M54.3063 40.3932L52.4818 51.1697L50.4837 63.3955H49.6149V37.3832H50.3447V59.6423L52.117 49.0144L54.0804 37.3832H55.036V63.3955H54.3063V40.3932Z" fill="white" fill-opacity="0.6"/>
<path d="M63.0222 40.2817L60.4854 63.3583H59.6861L57.1146 40.3561V63.3955H56.4022V37.3832H57.5489L60.1031 60.3855L62.6399 37.3832H63.7867V63.3955H63.0222V40.2817Z" fill="white" fill-opacity="0.6"/>
<path d="M65.974 49.4232H69.2927V50.9839H65.974V61.8347H69.9703V63.3955H65.1747V37.3832H69.9703V38.944H65.974V49.4232Z" fill="white" fill-opacity="0.6"/>
<path d="M75.8534 51.1697H72.0655V63.3955H71.2663V37.3832H72.0655V49.609H75.8534V37.3832H76.67V63.3955H75.8534V51.1697Z" fill="white" fill-opacity="0.6"/>
<path d="M78.8528 49.4232H82.1715V50.9839H78.8528V61.8347H82.8491V63.3955H78.0535V37.3832H82.8491V38.944H78.8528V49.4232Z" fill="white" fill-opacity="0.6"/>
<path d="M88.7322 51.1697H84.9444V63.3955H84.1451V37.3832H84.9444V49.609H88.7322V37.3832H89.5488V63.3955H88.7322V51.1697Z" fill="white" fill-opacity="0.6"/>
<path d="M95.6237 40.3932L93.7993 51.1697L91.8011 63.3955H90.9324V37.3832H91.6621V59.6423L93.4344 49.0144L95.3978 37.3832H96.3535V63.3955H95.6237V40.3932Z" fill="white" fill-opacity="0.6"/>
<path d="M98.5189 49.4232H101.838V50.9839H98.5189V61.8347H102.515V63.3955H97.7196V37.3832H102.515V38.944H98.5189V49.4232Z" fill="white" fill-opacity="0.6"/>
<path d="M110.431 40.2817L107.894 63.3583H107.095L104.524 40.3561V63.3955H103.811V37.3832H104.958L107.512 60.3855L110.049 37.3832H111.196V63.3955H110.431V40.2817Z" fill="white" fill-opacity="0.6"/>
<path d="M119.869 38.944H116.081V63.3955H115.282V37.3832H120.685V63.3955H119.869V38.944Z" fill="white" fill-opacity="0.6"/>
<path d="M122.069 37.3832H124.588C126.326 37.3832 127.195 39.489 127.195 43.7005V46.5247C127.195 50.6371 126.256 52.6933 124.38 52.6933H122.868V63.3955H122.069V37.3832ZM122.868 51.1326H124.38C125.086 51.1326 125.596 50.7857 125.909 50.0921C126.233 49.3736 126.395 48.2217 126.395 46.6362V43.589C126.395 40.4923 125.793 38.944 124.588 38.944H122.868V51.1326Z" fill="white" fill-opacity="0.6"/>
<path d="M128.346 57.041V43.7377C128.346 41.7558 128.566 40.1703 129.006 38.9811C129.458 37.7672 130.124 37.1603 131.004 37.1603C131.908 37.1603 132.58 37.7549 133.02 38.944C133.472 40.1331 133.698 41.731 133.698 43.7377V57.041C133.698 59.0477 133.472 60.6456 133.02 61.8347C132.58 63.0238 131.908 63.6184 131.004 63.6184C130.124 63.6184 129.458 63.0238 129.006 61.8347C128.566 60.6208 128.346 59.0229 128.346 57.041ZM129.145 43.6262V57.1525C129.145 58.6637 129.296 59.8652 129.597 60.7571C129.898 61.6241 130.367 62.0577 131.004 62.0577C131.653 62.0577 132.128 61.6241 132.429 60.7571C132.742 59.8652 132.898 58.6637 132.898 57.1525V43.6262C132.898 42.115 132.742 40.9259 132.429 40.0588C132.128 39.1669 131.653 38.721 131.004 38.721C130.367 38.721 129.898 39.1669 129.597 40.0588C129.296 40.9259 129.145 42.115 129.145 43.6262Z" fill="white" fill-opacity="0.6"/>
<path d="M140.002 63.3955L136.649 51.1697L135.815 53.9939V63.3955H135.016V37.3832H135.815V51.1326L139.777 37.3832H140.611L137.135 49.4975L140.836 63.3955H140.002Z" fill="white" fill-opacity="0.6"/>
<path d="M141.988 57.041V43.7377C141.988 41.7558 142.208 40.1703 142.649 38.9811C143.1 37.7672 143.766 37.1603 144.647 37.1603C145.55 37.1603 146.222 37.7549 146.662 38.944C147.114 40.1331 147.34 41.731 147.34 43.7377V57.041C147.34 59.0477 147.114 60.6456 146.662 61.8347C146.222 63.0238 145.55 63.6184 144.647 63.6184C143.766 63.6184 143.1 63.0238 142.649 61.8347C142.208 60.6208 141.988 59.0229 141.988 57.041ZM142.788 43.6262V57.1525C142.788 58.6637 142.938 59.8652 143.239 60.7571C143.541 61.6241 144.01 62.0577 144.647 62.0577C145.295 62.0577 145.77 61.6241 146.072 60.7571C146.384 59.8652 146.541 58.6637 146.541 57.1525V43.6262C146.541 42.115 146.384 40.9259 146.072 40.0588C145.77 39.1669 145.295 38.721 144.647 38.721C144.01 38.721 143.541 39.1669 143.239 40.0588C142.938 40.9259 142.788 42.115 142.788 43.6262Z" fill="white" fill-opacity="0.6"/>
<path d="M153.245 51.1697H149.457V63.3955H148.658V37.3832H149.457V49.609H153.245V37.3832H154.062V63.3955H153.245V51.1697Z" fill="white" fill-opacity="0.6"/>
<path d="M156.036 38.9811C156.465 37.7672 157.125 37.1603 158.017 37.1603C158.909 37.1603 159.569 37.7672 159.998 38.9811C160.426 40.1703 160.641 41.7558 160.641 43.7377V45.893H159.876V43.6262C159.876 42.1398 159.725 40.9506 159.424 40.0588C159.135 39.1669 158.671 38.721 158.034 38.721C157.397 38.721 156.928 39.1669 156.627 40.0588C156.337 40.9506 156.192 42.1398 156.192 43.6262V57.1525C156.192 60.3979 156.806 62.0205 158.034 62.0205C159.262 62.0205 159.876 60.3979 159.876 57.1525V54.0682H160.641V57.041C160.641 59.0229 160.426 60.6208 159.998 61.8347C159.569 63.0238 158.909 63.6184 158.017 63.6184C157.125 63.6184 156.465 63.0238 156.036 61.8347C155.607 60.6208 155.393 59.0229 155.393 57.041V43.7377C155.393 41.7558 155.607 40.1703 156.036 38.9811Z" fill="white" fill-opacity="0.6"/>
<path d="M168.164 37.3832L165.02 58.5646C164.799 60.2988 164.504 61.5622 164.133 62.355C163.763 63.1229 163.166 63.4698 162.344 63.3955V61.8719C162.877 61.8967 163.27 61.6737 163.525 61.203C163.78 60.7075 163.989 59.9148 164.151 58.8247L164.655 55.6661L161.736 37.3832H162.552L163.977 46.5618L165.037 53.5108L166.01 46.5247L167.33 37.3832H168.164Z" fill="white" fill-opacity="0.6"/>
<path d="M174.729 38.944H171.757L171.445 57.041C171.421 58.032 171.381 58.8743 171.323 59.5679C171.265 60.2368 171.161 60.8933 171.01 61.5374C170.871 62.1568 170.657 62.6275 170.367 62.9495C170.089 63.2468 169.736 63.4078 169.307 63.4326H169.151V61.8719C169.475 61.8719 169.742 61.7604 169.95 61.5374C170.159 61.2897 170.309 60.9181 170.402 60.4226C170.495 59.9024 170.553 59.4193 170.576 58.9734C170.611 58.5027 170.634 57.871 170.645 57.0782L171.01 37.3832H175.545V63.3955H174.729V38.944Z" fill="white" fill-opacity="0.6"/>
<path d="M177.76 48.0854H179.254C180.216 48.0854 180.928 48.5933 181.392 49.609C181.855 50.6247 182.087 52.173 182.087 54.254V57.0782C182.087 61.2897 181.212 63.3955 179.463 63.3955H176.961V37.3832H177.76V48.0854ZM177.76 61.8347H179.463C180.679 61.8347 181.287 60.2864 181.287 57.1897V54.1425C181.287 52.557 181.125 51.4175 180.801 50.7238C180.477 50.0054 179.961 49.6461 179.254 49.6461H177.76V61.8347Z" fill="white" fill-opacity="0.6"/>
<path d="M186.467 63.3955H185.668V38.944H183.183V37.3832H188.952V38.944H186.467V63.3955Z" fill="white" fill-opacity="0.6"/>
<path d="M194.82 40.3932L192.995 51.1697L190.997 63.3955H190.128V37.3832H190.858V59.6423L192.63 49.0144L194.594 37.3832H195.549V63.3955H194.82V40.3932Z" fill="white" fill-opacity="0.6"/>
<path d="M196.915 37.3832H199.435C201.172 37.3832 202.041 39.489 202.041 43.7005V46.5247C202.041 50.6371 201.103 52.6933 199.226 52.6933H197.715V63.3955H196.915V37.3832ZM197.715 51.1326H199.226C199.933 51.1326 200.443 50.7857 200.755 50.0921C201.08 49.3736 201.242 48.2217 201.242 46.6362V43.589C201.242 40.4923 200.64 38.944 199.435 38.944H197.715V51.1326Z" fill="white" fill-opacity="0.6"/>
<path d="M209.465 37.3832L206.32 58.5646C206.1 60.2988 205.805 61.5622 205.434 62.355C205.063 63.1229 204.467 63.4698 203.644 63.3955V61.8719C204.177 61.8967 204.571 61.6737 204.826 61.203C205.081 60.7075 205.289 59.9148 205.451 58.8247L205.955 55.6661L203.036 37.3832H203.853L205.278 46.5618L206.337 53.5108L207.31 46.5247L208.631 37.3832H209.465Z" fill="white" fill-opacity="0.6"/>
<path d="M214.656 32.4781H215.195C215.183 33.4443 215.016 34.2122 214.691 34.782C214.367 35.3518 213.95 35.6367 213.44 35.6367C212.93 35.6367 212.513 35.3642 212.189 34.8192C211.876 34.2494 211.714 33.469 211.703 32.4781H212.259C212.27 33.1717 212.386 33.692 212.606 34.0388C212.826 34.3609 213.104 34.5219 213.44 34.5219C214.216 34.5219 214.622 33.8406 214.656 32.4781ZM215.334 40.3932L213.597 50.7238L211.512 63.3955H210.643V37.3832H211.372V59.6423L212.954 50.1664L215.108 37.3832H216.064V63.3955H215.334V40.3932Z" fill="white" fill-opacity="0.6"/>
<path d="M220.522 63.3955H219.723V38.944H217.238V37.3832H223.007V38.944H220.522V63.3955Z" fill="white" fill-opacity="0.6"/>
<path d="M224.983 49.4232H228.301V50.9839H224.983V61.8347H228.979V63.3955H224.183V37.3832H228.979V38.944H224.983V49.4232Z" fill="white" fill-opacity="0.6"/>
<path d="M230.866 38.9811C231.294 37.7672 231.954 37.1603 232.846 37.1603C233.738 37.1603 234.399 37.7672 234.827 38.9811C235.256 40.1703 235.47 41.7558 235.47 43.7377V45.893H234.706V43.6262C234.706 42.1398 234.555 40.9506 234.254 40.0588C233.964 39.1669 233.501 38.721 232.864 38.721C232.227 38.721 231.758 39.1669 231.456 40.0588C231.167 40.9506 231.022 42.1398 231.022 43.6262V57.1525C231.022 60.3979 231.636 62.0205 232.864 62.0205C234.092 62.0205 234.706 60.3979 234.706 57.1525V54.0682H235.47V57.041C235.47 59.0229 235.256 60.6208 234.827 61.8347C234.399 63.0238 233.738 63.6184 232.846 63.6184C231.954 63.6184 231.294 63.0238 230.866 61.8347C230.437 60.6208 230.223 59.0229 230.223 57.041V43.7377C230.223 41.7558 230.437 40.1703 230.866 38.9811Z" fill="white" fill-opacity="0.6"/>
<path d="M237.573 48.0854H239.067C240.029 48.0854 240.741 48.5933 241.204 49.609C241.668 50.6247 241.899 52.173 241.899 54.254V57.0782C241.899 61.2897 241.025 63.3955 239.276 63.3955H236.774V37.3832H237.573V48.0854ZM237.573 61.8347H239.276C240.492 61.8347 241.1 60.2864 241.1 57.1897V54.1425C241.1 52.557 240.938 51.4175 240.614 50.7238C240.289 50.0054 239.774 49.6461 239.067 49.6461H237.573V61.8347Z" fill="white" fill-opacity="0.6"/>
<path d="M246.493 38.9811C246.922 37.7672 247.582 37.1603 248.474 37.1603C249.366 37.1603 250.026 37.7672 250.455 38.9811C250.883 40.1703 251.098 41.7558 251.098 43.7377V45.893H250.333V43.6262C250.333 42.1398 250.183 40.9506 249.882 40.0588C249.592 39.1669 249.129 38.721 248.491 38.721C247.854 38.721 247.385 39.1669 247.084 40.0588C246.794 40.9506 246.65 42.1398 246.65 43.6262V57.1525C246.65 60.3979 247.264 62.0205 248.491 62.0205C249.719 62.0205 250.333 60.3979 250.333 57.1525V54.0682H251.098V57.041C251.098 59.0229 250.883 60.6208 250.455 61.8347C250.026 63.0238 249.366 63.6184 248.474 63.6184C247.582 63.6184 246.922 63.0238 246.493 61.8347C246.065 60.6208 245.85 59.0229 245.85 57.041V43.7377C245.85 41.7558 246.065 40.1703 246.493 38.9811Z" fill="white" fill-opacity="0.6"/>
<path d="M252.349 57.041V43.7377C252.349 41.7558 252.569 40.1703 253.009 38.9811C253.461 37.7672 254.127 37.1603 255.008 37.1603C255.911 37.1603 256.583 37.7549 257.023 38.944C257.475 40.1331 257.701 41.731 257.701 43.7377V57.041C257.701 59.0477 257.475 60.6456 257.023 61.8347C256.583 63.0238 255.911 63.6184 255.008 63.6184C254.127 63.6184 253.461 63.0238 253.009 61.8347C252.569 60.6208 252.349 59.0229 252.349 57.041ZM253.149 43.6262V57.1525C253.149 58.6637 253.299 59.8652 253.6 60.7571C253.901 61.6241 254.371 62.0577 255.008 62.0577C255.656 62.0577 256.131 61.6241 256.432 60.7571C256.745 59.8652 256.902 58.6637 256.902 57.1525V43.6262C256.902 42.115 256.745 40.9259 256.432 40.0588C256.131 39.1669 255.656 38.721 255.008 38.721C254.371 38.721 253.901 39.1669 253.6 40.0588C253.299 40.9259 253.149 42.115 253.149 43.6262Z" fill="white" fill-opacity="0.6"/>
<path d="M262.308 38.9811C262.736 37.7672 263.397 37.1603 264.288 37.1603C265.18 37.1603 265.841 37.7672 266.269 38.9811C266.698 40.1703 266.912 41.7558 266.912 43.7377V45.893H266.148V43.6262C266.148 42.1398 265.997 40.9506 265.696 40.0588C265.406 39.1669 264.943 38.721 264.306 38.721C263.669 38.721 263.2 39.1669 262.898 40.0588C262.609 40.9506 262.464 42.1398 262.464 43.6262V57.1525C262.464 60.3979 263.078 62.0205 264.306 62.0205C265.534 62.0205 266.148 60.3979 266.148 57.1525V54.0682H266.912V57.041C266.912 59.0229 266.698 60.6208 266.269 61.8347C265.841 63.0238 265.18 63.6184 264.288 63.6184C263.397 63.6184 262.736 63.0238 262.308 61.8347C261.879 60.6208 261.665 59.0229 261.665 57.041V43.7377C261.665 41.7558 261.879 40.1703 262.308 38.9811Z" fill="white" fill-opacity="0.6"/>
<path d="M272.803 38.944H269.015V63.3955H268.216V37.3832H273.619V63.3955H272.803V38.944Z" fill="white" fill-opacity="0.6"/>
<path d="M275.802 49.4232H279.121V50.9839H275.802V61.8347H279.799V63.3955H275.003V37.3832H279.799V38.944H275.802V49.4232Z" fill="white" fill-opacity="0.6"/>
<path d="M287.715 66.8885H286.933V63.3955H281.32V37.3832H282.102V61.8347H285.89V37.3832H286.707V61.8347H287.715V66.8885Z" fill="white" fill-opacity="0.6"/>
<path d="M293.693 40.3932L291.869 51.1697L289.87 63.3955H289.002V37.3832H289.731V59.6423L291.504 49.0144L293.467 37.3832H294.423V63.3955H293.693V40.3932Z" fill="white" fill-opacity="0.6"/>
<path d="M300.741 57.6356H296.953L296.345 63.3955H295.615L298.274 37.3461H299.438L302.148 63.3955H301.349L300.741 57.6356ZM298.83 39.3156L297.075 56.1492H300.619L298.83 39.3156Z" fill="white" fill-opacity="0.6"/>
<path d="M308.743 38.944H305.772L305.459 57.041C305.436 58.032 305.395 58.8743 305.338 59.5679C305.28 60.2368 305.175 60.8933 305.025 61.5374C304.886 62.1568 304.671 62.6275 304.382 62.9495C304.104 63.2468 303.751 63.4078 303.322 63.4326H303.166V61.8719C303.49 61.8719 303.756 61.7604 303.965 61.5374C304.173 61.2897 304.324 60.9181 304.417 60.4226C304.509 59.9024 304.567 59.4193 304.59 58.9734C304.625 58.5027 304.648 57.871 304.66 57.0782L305.025 37.3832H309.56V63.3955H308.743V38.944Z" fill="white" fill-opacity="0.6"/>
<path d="M315.667 40.3932L313.842 51.1697L311.844 63.3955H310.975V37.3832H311.705V59.6423L313.478 49.0144L315.441 37.3832H316.397V63.3955H315.667V40.3932Z" fill="white" fill-opacity="0.6"/>
<path d="M318.353 38.9811C318.782 37.7672 319.442 37.1603 320.334 37.1603C321.226 37.1603 321.886 37.7672 322.315 38.9811C322.744 40.1703 322.958 41.7558 322.958 43.7377V45.893H322.193V43.6262C322.193 42.1398 322.043 40.9506 321.742 40.0588C321.452 39.1669 320.989 38.721 320.352 38.721C319.715 38.721 319.245 39.1669 318.944 40.0588C318.655 40.9506 318.51 42.1398 318.51 43.6262V57.1525C318.51 60.3979 319.124 62.0205 320.352 62.0205C321.579 62.0205 322.193 60.3979 322.193 57.1525V54.0682H322.958V57.041C322.958 59.0229 322.744 60.6208 322.315 61.8347C321.886 63.0238 321.226 63.6184 320.334 63.6184C319.442 63.6184 318.782 63.0238 318.353 61.8347C317.925 60.6208 317.711 59.0229 317.711 57.041V43.7377C317.711 41.7558 317.925 40.1703 318.353 38.9811Z" fill="white" fill-opacity="0.6"/>
<path d="M327.337 63.3955H326.538V38.944H324.053V37.3832H329.822V38.944H327.337V63.3955Z" fill="white" fill-opacity="0.6"/>
<path d="M330.946 57.041V43.7377C330.946 41.7558 331.166 40.1703 331.606 38.9811C332.058 37.7672 332.724 37.1603 333.604 37.1603C334.508 37.1603 335.18 37.7549 335.62 38.944C336.071 40.1331 336.297 41.731 336.297 43.7377V57.041C336.297 59.0477 336.071 60.6456 335.62 61.8347C335.18 63.0238 334.508 63.6184 333.604 63.6184C332.724 63.6184 332.058 63.0238 331.606 61.8347C331.166 60.6208 330.946 59.0229 330.946 57.041ZM331.745 43.6262V57.1525C331.745 58.6637 331.896 59.8652 332.197 60.7571C332.498 61.6241 332.967 62.0577 333.604 62.0577C334.253 62.0577 334.728 61.6241 335.029 60.7571C335.342 59.8652 335.498 58.6637 335.498 57.1525V43.6262C335.498 42.115 335.342 40.9259 335.029 40.0588C334.728 39.1669 334.253 38.721 333.604 38.721C332.967 38.721 332.498 39.1669 332.197 40.0588C331.896 40.9259 331.745 42.115 331.745 43.6262Z" fill="white" fill-opacity="0.6"/>
<path d="M344.235 40.2817L341.699 63.3583H340.899L338.328 40.3561V63.3955H337.615V37.3832H338.762L341.316 60.3855L343.853 37.3832H345V63.3955H344.235V40.2817Z" fill="white" fill-opacity="0.6"/>
</svg>
