<svg width="1068" height="59" viewBox="0 0 1068 59" fill="none" xmlns="http://www.w3.org/2000/svg">
<path d="M9.77453 13.4293L5.97332 31.8867L1.8101 52.8263H0V8.274H1.52048V46.3981L5.21308 28.1953L9.3039 8.274H11.295V52.8263H9.77453V13.4293Z" fill="white" fill-opacity="0.6"/>
<path d="M27.9343 13.2384L22.6488 52.7627H20.9836L15.6257 13.3657V52.8263H14.1414V8.274H16.5307L21.8524 47.671L27.1379 8.274H29.5272V52.8263H27.9343V13.2384Z" fill="white" fill-opacity="0.6"/>
<path d="M34.0844 28.8954H40.999V31.5685H34.0844V50.1532H42.4109V52.8263H32.4191V8.274H42.4109V10.9471H34.0844V28.8954Z" fill="white" fill-opacity="0.6"/>
<path d="M56.7319 7.89213C58.5902 7.89213 59.978 8.91046 60.8951 10.9471C61.8363 12.9838 62.307 15.7206 62.307 19.1575V41.9428C62.307 45.3797 61.8363 48.1165 60.8951 50.1532C59.978 52.1899 58.5902 53.2082 56.7319 53.2082C54.8493 53.2082 53.4495 52.1899 52.5324 50.1532C51.6153 48.1165 51.1568 45.3797 51.1568 41.9428V31.8867H46.7763V52.8263H45.111V8.274H46.7763V29.2136H51.1568V19.1575C51.1568 15.7206 51.6153 12.9838 52.5324 10.9471C53.4495 8.91046 54.8493 7.89213 56.7319 7.89213ZM56.7319 10.5653C54.1253 10.5653 52.822 13.3657 52.822 18.9666V42.1338C52.822 47.7346 54.1253 50.5351 56.7319 50.5351C58.0593 50.5351 59.0367 49.7925 59.6642 48.3074C60.3158 46.7799 60.6417 44.722 60.6417 42.1338V18.9666C60.6417 16.3783 60.3158 14.3416 59.6642 12.8565C59.0367 11.329 58.0593 10.5653 56.7319 10.5653Z" fill="white" fill-opacity="0.6"/>
<path d="M71.4935 52.8263H69.8282V10.9471H64.6513V8.274H76.6704V10.9471H71.4935V52.8263Z" fill="white" fill-opacity="0.6"/>
<path d="M80.3519 11.0108C81.2449 8.93168 82.6206 7.89213 84.479 7.89213C86.3373 7.89213 87.713 8.93168 88.606 11.0108C89.499 13.0475 89.9454 15.763 89.9454 19.1575V22.849H88.3526V18.9666C88.3526 16.4207 88.0388 14.384 87.4113 12.8565C86.8079 11.329 85.8426 10.5653 84.5152 10.5653C83.1877 10.5653 82.2103 11.329 81.5828 12.8565C80.9794 14.384 80.6777 16.4207 80.6777 18.9666V42.1338C80.6777 47.6922 81.9569 50.4714 84.5152 50.4714C87.0734 50.4714 88.3526 47.6922 88.3526 42.1338V36.8511H89.9454V41.9428C89.9454 45.3373 89.499 48.0741 88.606 50.1532C87.713 52.1899 86.3373 53.2082 84.479 53.2082C82.6206 53.2082 81.2449 52.1899 80.3519 50.1532C79.4589 48.0741 79.0125 45.3373 79.0125 41.9428V19.1575C79.0125 15.763 79.4589 13.0475 80.3519 11.0108Z" fill="white" fill-opacity="0.6"/>
<path d="M102.074 32.9051H99.4312C97.8625 32.9051 96.6799 33.4779 95.8834 34.6235C95.087 35.7267 94.6888 37.6785 94.6888 40.479V47.48C94.6888 49.941 94.5077 51.7231 94.1457 52.8263H92.408C92.8183 51.7231 93.0235 49.941 93.0235 47.48V40.5426C93.0235 35.4085 94.2423 32.3747 96.6799 31.4412C94.2423 30.4653 93.0235 27.3891 93.0235 22.2125V18.3301C93.0235 11.626 94.8336 8.274 98.4538 8.274H103.739V52.8263H102.074V32.9051ZM102.074 10.9471H98.49C95.9558 10.9471 94.6888 13.493 94.6888 18.5847V22.7853C94.6888 25.6282 95.0749 27.58 95.8472 28.6408C96.6195 29.7015 97.8021 30.2319 99.395 30.2319H102.074V10.9471Z" fill="white" fill-opacity="0.6"/>
<path d="M121.805 10.9471H113.913V52.8263H112.247V8.274H123.506V52.8263H121.805V10.9471Z" fill="white" fill-opacity="0.6"/>
<path d="M126.389 8.274H131.638C135.258 8.274 137.068 11.8806 137.068 19.0939V23.931C137.068 30.9745 135.113 34.4962 131.204 34.4962H128.054V52.8263H126.389V8.274ZM128.054 31.8231H131.204C132.676 31.8231 133.738 31.2291 134.389 30.041C135.065 28.8105 135.403 26.8375 135.403 24.1219V18.9029C135.403 13.5991 134.148 10.9471 131.638 10.9471H128.054V31.8231Z" fill="white" fill-opacity="0.6"/>
<path d="M139.467 41.9428V19.1575C139.467 15.763 139.925 13.0475 140.843 11.0108C141.784 8.93168 143.172 7.89213 145.006 7.89213C146.888 7.89213 148.288 8.91046 149.205 10.9471C150.146 12.9838 150.617 15.7206 150.617 19.1575V41.9428C150.617 45.3797 150.146 48.1165 149.205 50.1532C148.288 52.1899 146.888 53.2082 145.006 53.2082C143.172 53.2082 141.784 52.1899 140.843 50.1532C139.925 48.0741 139.467 45.3373 139.467 41.9428ZM141.132 18.9666V42.1338C141.132 44.722 141.446 46.7799 142.073 48.3074C142.701 49.7925 143.678 50.5351 145.006 50.5351C146.357 50.5351 147.347 49.7925 147.974 48.3074C148.626 46.7799 148.952 44.722 148.952 42.1338V18.9666C148.952 16.3783 148.626 14.3416 147.974 12.8565C147.347 11.329 146.357 10.5653 145.006 10.5653C143.678 10.5653 142.701 11.329 142.073 12.8565C141.446 14.3416 141.132 16.3783 141.132 18.9666Z" fill="white" fill-opacity="0.6"/>
<path d="M159.771 52.8263H158.106V10.9471H152.929V8.274H164.948V10.9471H159.771V52.8263Z" fill="white" fill-opacity="0.6"/>
<path d="M177.173 13.4293L173.336 32.1413L169.209 52.8263H167.399V8.274H168.919V46.3981L171.852 31.6958L176.703 8.274H178.694V52.8263H177.173V13.4293Z" fill="white" fill-opacity="0.6"/>
<path d="M181.54 8.274H186.862C188.72 8.274 190.048 9.05897 190.844 10.6289C191.64 12.1988 192.039 14.575 192.039 17.7573V20.3031C192.039 22.849 191.785 24.8432 191.278 26.2859C190.796 27.6861 189.939 28.6196 188.708 29.0863C191.242 29.9773 192.509 33.1597 192.509 38.6332V42.5156C192.509 49.3894 190.663 52.8263 186.97 52.8263H181.54V8.274ZM183.205 27.9407H186.029C187.574 27.9407 188.684 27.4527 189.36 26.4768C190.035 25.4585 190.373 23.5915 190.373 20.8759V18.0119C190.373 15.5933 190.108 13.8112 189.577 12.6656C189.046 11.52 188.129 10.9471 186.826 10.9471H183.205V27.9407ZM183.205 50.1532H186.97C189.553 50.1532 190.844 47.5861 190.844 42.452V38.4423C190.844 35.5994 190.482 33.584 189.758 32.3959C189.034 31.2078 187.9 30.6138 186.355 30.6138H183.205V50.1532Z" fill="white" fill-opacity="0.6"/>
<path d="M195.113 41.9428V19.1575C195.113 15.763 195.572 13.0475 196.489 11.0108C197.43 8.93168 198.818 7.89213 200.652 7.89213C202.535 7.89213 203.934 8.91046 204.852 10.9471C205.793 12.9838 206.263 15.7206 206.263 19.1575V41.9428C206.263 45.3797 205.793 48.1165 204.852 50.1532C203.934 52.1899 202.535 53.2082 200.652 53.2082C198.818 53.2082 197.43 52.1899 196.489 50.1532C195.572 48.0741 195.113 45.3373 195.113 41.9428ZM196.779 18.9666V42.1338C196.779 44.722 197.092 46.7799 197.72 48.3074C198.347 49.7925 199.325 50.5351 200.652 50.5351C202.004 50.5351 202.993 49.7925 203.621 48.3074C204.272 46.7799 204.598 44.722 204.598 42.1338V18.9666C204.598 16.3783 204.272 14.3416 203.621 12.8565C202.993 11.329 202.004 10.5653 200.652 10.5653C199.325 10.5653 198.347 11.329 197.72 12.8565C197.092 14.3416 196.779 16.3783 196.779 18.9666Z" fill="white" fill-opacity="0.6"/>
<path d="M218.567 10.9471H210.675V52.8263H209.01V8.274H220.269V52.8263H218.567V10.9471Z" fill="white" fill-opacity="0.6"/>
<path d="M223.042 41.9428V19.1575C223.042 15.763 223.501 13.0475 224.418 11.0108C225.359 8.93168 226.747 7.89213 228.581 7.89213C230.464 7.89213 231.864 8.91046 232.781 10.9471C233.722 12.9838 234.193 15.7206 234.193 19.1575V41.9428C234.193 45.3797 233.722 48.1165 232.781 50.1532C231.864 52.1899 230.464 53.2082 228.581 53.2082C226.747 53.2082 225.359 52.1899 224.418 50.1532C223.501 48.0741 223.042 45.3373 223.042 41.9428ZM224.708 18.9666V42.1338C224.708 44.722 225.022 46.7799 225.649 48.3074C226.277 49.7925 227.254 50.5351 228.581 50.5351C229.933 50.5351 230.922 49.7925 231.55 48.3074C232.202 46.7799 232.527 44.722 232.527 42.1338V18.9666C232.527 16.3783 232.202 14.3416 231.55 12.8565C230.922 11.329 229.933 10.5653 228.581 10.5653C227.254 10.5653 226.277 11.329 225.649 12.8565C225.022 14.3416 224.708 16.3783 224.708 18.9666Z" fill="white" fill-opacity="0.6"/>
<path d="M247.329 52.8263L240.342 31.8867L238.604 36.7238V52.8263H236.939V8.274H238.604V31.8231L246.858 8.274H248.596L241.356 29.0227L249.067 52.8263H247.329Z" fill="white" fill-opacity="0.6"/>
<path d="M261.893 42.9612H254.001L252.734 52.8263H251.213L256.752 8.21036H259.178L264.825 52.8263H263.16L261.893 42.9612ZM257.911 11.5836L254.254 40.4153H261.639L257.911 11.5836Z" fill="white" fill-opacity="0.6"/>
<path d="M268.61 10.9471C269.503 8.91046 270.879 7.89213 272.737 7.89213C274.595 7.89213 275.971 8.91046 276.864 10.9471C277.757 12.9838 278.204 15.7206 278.204 19.1575V20.3031C278.204 22.5095 277.902 24.4401 277.298 26.0949C276.695 27.7073 275.85 28.8317 274.764 29.4682C275.899 30.0198 276.755 31.1018 277.335 32.7141C277.914 34.3265 278.204 36.2571 278.204 38.5059V41.9428C278.204 45.3797 277.757 48.1165 276.864 50.1532C275.971 52.1899 274.595 53.2082 272.737 53.2082C270.879 53.2082 269.503 52.1899 268.61 50.1532C267.717 48.1165 267.271 45.3797 267.271 41.9428V38.2514H268.863V42.1338C268.863 44.6796 269.165 46.7163 269.768 48.2438C270.396 49.7713 271.373 50.5351 272.701 50.5351C275.259 50.5351 276.538 47.6498 276.538 41.8792V38.4423C276.538 36.151 276.188 34.3265 275.488 32.9687C274.788 31.6109 273.835 30.932 272.628 30.932H271.217V28.2589H272.737C273.847 28.2589 274.752 27.5588 275.452 26.1586C276.176 24.7159 276.538 22.9551 276.538 20.8759V19.2211C276.538 13.4506 275.259 10.5653 272.701 10.5653C271.373 10.5653 270.396 11.329 269.768 12.8565C269.141 14.3416 268.827 16.3783 268.827 18.9666V21.3851H267.307V19.0939C267.307 15.657 267.741 12.9414 268.61 10.9471Z" fill="white" fill-opacity="0.6"/>
<path d="M291.342 42.9612H283.45L282.183 52.8263H280.663L286.202 8.21036H288.627L294.275 52.8263H292.609L291.342 42.9612ZM287.36 11.5836L283.704 40.4153H291.089L287.36 11.5836Z" fill="white" fill-opacity="0.6"/>
<path d="M306.35 31.8867H298.458V52.8263H296.792V8.274H298.458V29.2136H306.35V8.274H308.051V52.8263H306.35V31.8867Z" fill="white" fill-opacity="0.6"/>
<path d="M320.708 13.4293L316.871 32.1413L312.744 52.8263H310.934V8.274H312.454V46.3981L315.387 31.6958L320.238 8.274H322.229V52.8263H320.708V13.4293Z" fill="white" fill-opacity="0.6"/>
<path d="M334.488 32.9051H331.845C330.276 32.9051 329.094 33.4779 328.297 34.6235C327.501 35.7267 327.102 37.6785 327.102 40.479V47.48C327.102 49.941 326.921 51.7231 326.559 52.8263H324.822C325.232 51.7231 325.437 49.941 325.437 47.48V40.5426C325.437 35.4085 326.656 32.3747 329.094 31.4412C326.656 30.4653 325.437 27.3891 325.437 22.2125V18.3301C325.437 11.626 327.247 8.274 330.867 8.274H336.153V52.8263H334.488V32.9051ZM334.488 10.9471H330.904C328.37 10.9471 327.102 13.493 327.102 18.5847V22.7853C327.102 25.6282 327.489 27.58 328.261 28.6408C329.033 29.7015 330.216 30.2319 331.809 30.2319H334.488V10.9471Z" fill="white" fill-opacity="0.6"/>
<path d="M339.04 47.2255H340.669V52.8263H339.04V47.2255Z" fill="white" fill-opacity="0.6"/>
<path d="M358.744 10.9471H350.852V52.8263H349.186V8.274H360.445V52.8263H358.744V10.9471Z" fill="white" fill-opacity="0.6"/>
<path d="M364.993 28.8954H371.907V31.5685H364.993V50.1532H373.319V52.8263H363.328V8.274H373.319V10.9471H364.993V28.8954Z" fill="white" fill-opacity="0.6"/>
<path d="M376.02 8.274H381.269C384.889 8.274 386.699 11.8806 386.699 19.0939V23.931C386.699 30.9745 384.744 34.4962 380.834 34.4962H377.685V52.8263H376.02V8.274ZM377.685 31.8231H380.834C382.307 31.8231 383.368 31.2291 384.02 30.041C384.696 28.8105 385.034 26.8375 385.034 24.1219V18.9029C385.034 13.5991 383.779 10.9471 381.269 10.9471H377.685V31.8231Z" fill="white" fill-opacity="0.6"/>
<path d="M390.872 28.8954H397.786V31.5685H390.872V50.1532H399.198V52.8263H389.206V8.274H399.198V10.9471H390.872V28.8954Z" fill="white" fill-opacity="0.6"/>
<path d="M416.958 59H415.293V52.8263H403.202V59H401.572V50.1532H403.31C404.058 48.753 404.481 46.3768 404.577 43.0248L405.591 8.274H414.859V50.1532H416.958V59ZM407.147 10.9471L406.206 43.0248C406.086 46.5041 405.687 48.8803 405.012 50.1532H413.157V10.9471H407.147Z" fill="white" fill-opacity="0.6"/>
<path d="M434.789 10.9471H426.897V52.8263H425.232V8.274H436.49V52.8263H434.789V10.9471Z" fill="white" fill-opacity="0.6"/>
<path d="M439.373 8.274H444.622C448.242 8.274 450.052 11.8806 450.052 19.0939V23.931C450.052 30.9745 448.098 34.4962 444.188 34.4962H441.038V52.8263H439.373V8.274ZM441.038 31.8231H444.188C445.66 31.8231 446.722 31.2291 447.374 30.041C448.049 28.8105 448.387 26.8375 448.387 24.1219V18.9029C448.387 13.5991 447.132 10.9471 444.622 10.9471H441.038V31.8231Z" fill="white" fill-opacity="0.6"/>
<path d="M462.334 13.4293L458.497 32.1413L454.37 52.8263H452.56V8.274H454.08V46.3981L457.013 31.6958L461.864 8.274H463.855V52.8263H462.334V13.4293Z" fill="white" fill-opacity="0.6"/>
<path d="M480.494 13.2384L475.209 52.7627H473.543L468.185 13.3657V52.8263H466.701V8.274H469.09L474.412 47.671L479.698 8.274H482.087V52.8263H480.494V13.2384Z" fill="white" fill-opacity="0.6"/>
<path d="M486.644 28.8954H493.559V31.5685H486.644V50.1532H494.971V52.8263H484.979V8.274H494.971V10.9471H486.644V28.8954Z" fill="white" fill-opacity="0.6"/>
<path d="M507.228 31.8867H499.336V52.8263H497.671V8.274H499.336V29.2136H507.228V8.274H508.93V52.8263H507.228V31.8867Z" fill="white" fill-opacity="0.6"/>
<path d="M513.477 28.8954H520.392V31.5685H513.477V50.1532H521.804V52.8263H511.812V8.274H521.804V10.9471H513.477V28.8954Z" fill="white" fill-opacity="0.6"/>
<path d="M534.061 31.8867H526.169V52.8263H524.504V8.274H526.169V29.2136H534.061V8.274H535.763V52.8263H534.061V31.8867Z" fill="white" fill-opacity="0.6"/>
<path d="M548.42 13.4293L544.583 32.1413L540.456 52.8263H538.645V8.274H540.166V46.3981L543.098 31.6958L547.949 8.274H549.94V52.8263H548.42V13.4293Z" fill="white" fill-opacity="0.6"/>
<path d="M554.452 28.8954H561.367V31.5685H554.452V50.1532H562.779V52.8263H552.787V8.274H562.779V10.9471H554.452V28.8954Z" fill="white" fill-opacity="0.6"/>
<path d="M579.272 13.2384L573.986 52.7627H572.321L566.963 13.3657V52.8263H565.479V8.274H567.868L573.19 47.671L578.475 8.274H580.865V52.8263H579.272V13.2384Z" fill="white" fill-opacity="0.6"/>
<path d="M598.935 10.9471H591.043V52.8263H589.378V8.274H600.636V52.8263H598.935V10.9471Z" fill="white" fill-opacity="0.6"/>
<path d="M603.519 8.274H608.768C612.389 8.274 614.199 11.8806 614.199 19.0939V23.931C614.199 30.9745 612.244 34.4962 608.334 34.4962H605.184V52.8263H603.519V8.274ZM605.184 31.8231H608.334C609.806 31.8231 610.868 31.2291 611.52 30.041C612.195 28.8105 612.533 26.8375 612.533 24.1219V18.9029C612.533 13.5991 611.278 10.9471 608.768 10.9471H605.184V31.8231Z" fill="white" fill-opacity="0.6"/>
<path d="M616.597 41.9428V19.1575C616.597 15.763 617.056 13.0475 617.973 11.0108C618.914 8.93168 620.302 7.89213 622.136 7.89213C624.019 7.89213 625.419 8.91046 626.336 10.9471C627.277 12.9838 627.747 15.7206 627.747 19.1575V41.9428C627.747 45.3797 627.277 48.1165 626.336 50.1532C625.419 52.1899 624.019 53.2082 622.136 53.2082C620.302 53.2082 618.914 52.1899 617.973 50.1532C617.056 48.0741 616.597 45.3373 616.597 41.9428ZM618.263 18.9666V42.1338C618.263 44.722 618.576 46.7799 619.204 48.3074C619.831 49.7925 620.809 50.5351 622.136 50.5351C623.488 50.5351 624.477 49.7925 625.105 48.3074C625.756 46.7799 626.082 44.722 626.082 42.1338V18.9666C626.082 16.3783 625.756 14.3416 625.105 12.8565C624.477 11.329 623.488 10.5653 622.136 10.5653C620.809 10.5653 619.831 11.329 619.204 12.8565C618.576 14.3416 618.263 16.3783 618.263 18.9666Z" fill="white" fill-opacity="0.6"/>
<path d="M640.884 52.8263L633.897 31.8867L632.159 36.7238V52.8263H630.494V8.274H632.159V31.8231L640.413 8.274H642.151L634.91 29.0227L642.621 52.8263H640.884Z" fill="white" fill-opacity="0.6"/>
<path d="M645.021 41.9428V19.1575C645.021 15.763 645.48 13.0475 646.397 11.0108C647.338 8.93168 648.726 7.89213 650.56 7.89213C652.443 7.89213 653.843 8.91046 654.76 10.9471C655.701 12.9838 656.172 15.7206 656.172 19.1575V41.9428C656.172 45.3797 655.701 48.1165 654.76 50.1532C653.843 52.1899 652.443 53.2082 650.56 53.2082C648.726 53.2082 647.338 52.1899 646.397 50.1532C645.48 48.0741 645.021 45.3373 645.021 41.9428ZM646.687 18.9666V42.1338C646.687 44.722 647.001 46.7799 647.628 48.3074C648.256 49.7925 649.233 50.5351 650.56 50.5351C651.912 50.5351 652.901 49.7925 653.529 48.3074C654.181 46.7799 654.506 44.722 654.506 42.1338V18.9666C654.506 16.3783 654.181 14.3416 653.529 12.8565C652.901 11.329 651.912 10.5653 650.56 10.5653C649.233 10.5653 648.256 11.329 647.628 12.8565C647.001 14.3416 646.687 16.3783 646.687 18.9666Z" fill="white" fill-opacity="0.6"/>
<path d="M668.475 31.8867H660.583V52.8263H658.918V8.274H660.583V29.2136H668.475V8.274H670.177V52.8263H668.475V31.8867Z" fill="white" fill-opacity="0.6"/>
<path d="M674.29 11.0108C675.183 8.93168 676.559 7.89213 678.417 7.89213C680.276 7.89213 681.651 8.93168 682.544 11.0108C683.437 13.0475 683.884 15.763 683.884 19.1575V22.849H682.291V18.9666C682.291 16.4207 681.977 14.384 681.35 12.8565C680.746 11.329 679.781 10.5653 678.453 10.5653C677.126 10.5653 676.149 11.329 675.521 12.8565C674.918 14.384 674.616 16.4207 674.616 18.9666V42.1338C674.616 47.6922 675.895 50.4714 678.453 50.4714C681.012 50.4714 682.291 47.6922 682.291 42.1338V36.8511H683.884V41.9428C683.884 45.3373 683.437 48.0741 682.544 50.1532C681.651 52.1899 680.276 53.2082 678.417 53.2082C676.559 53.2082 675.183 52.1899 674.29 50.1532C673.397 48.0741 672.951 45.3373 672.951 41.9428V19.1575C672.951 15.763 673.397 13.0475 674.29 11.0108Z" fill="white" fill-opacity="0.6"/>
<path d="M699.56 8.274L693.007 44.5523C692.549 47.5225 691.933 49.6864 691.161 51.0442C690.389 52.3596 689.146 52.9536 687.432 52.8263V50.2168C688.543 50.2593 689.363 49.8774 689.894 49.0712C690.425 48.2226 690.859 46.8648 691.197 44.9978L692.247 39.5879L686.165 8.274H687.867L690.835 23.9946L693.044 35.8964L695.071 23.931L697.822 8.274H699.56Z" fill="white" fill-opacity="0.6"/>
<path d="M713.236 10.9471H707.046L706.394 41.9428C706.346 43.6401 706.262 45.0827 706.141 46.2708C706.02 47.4164 705.803 48.5408 705.489 49.644C705.2 50.7048 704.753 51.511 704.15 52.0626C703.57 52.5717 702.834 52.8475 701.941 52.89H701.616V50.2168C702.291 50.2168 702.846 50.0259 703.281 49.644C703.715 49.2197 704.029 48.5832 704.222 47.7346C704.415 46.8436 704.536 46.0162 704.584 45.2524C704.657 44.4462 704.705 43.3643 704.729 42.0065L705.489 8.274H714.938V52.8263H713.236V10.9471Z" fill="white" fill-opacity="0.6"/>
<path d="M719.553 26.6041H722.666C724.669 26.6041 726.154 27.4739 727.119 29.2136C728.084 30.9533 728.567 33.6052 728.567 37.1694V42.0065C728.567 49.2197 726.745 52.8263 723.101 52.8263H717.888V8.274H719.553V26.6041ZM719.553 50.1532H723.101C725.635 50.1532 726.902 47.5013 726.902 42.1974V36.9784C726.902 34.2629 726.564 32.311 725.888 31.123C725.212 29.8925 724.138 29.2772 722.666 29.2772H719.553V50.1532Z" fill="white" fill-opacity="0.6"/>
<path d="M737.694 52.8263H736.029V10.9471H730.852V8.274H742.871V10.9471H737.694V52.8263Z" fill="white" fill-opacity="0.6"/>
<path d="M755.096 13.4293L751.259 32.1413L747.132 52.8263H745.322V8.274H746.842V46.3981L749.775 31.6958L754.626 8.274H756.617V52.8263H755.096V13.4293Z" fill="white" fill-opacity="0.6"/>
<path d="M759.463 8.274H764.712C768.333 8.274 770.143 11.8806 770.143 19.0939V23.931C770.143 30.9745 768.188 34.4962 764.278 34.4962H761.129V52.8263H759.463V8.274ZM761.129 31.8231H764.278C765.75 31.8231 766.812 31.2291 767.464 30.041C768.14 28.8105 768.478 26.8375 768.478 24.1219V18.9029C768.478 13.5991 767.222 10.9471 764.712 10.9471H761.129V31.8231Z" fill="white" fill-opacity="0.6"/>
<path d="M785.61 8.274L779.058 44.5523C778.599 47.5225 777.984 49.6864 777.211 51.0442C776.439 52.3596 775.196 52.9536 773.483 52.8263V50.2168C774.593 50.2593 775.413 49.8774 775.944 49.0712C776.475 48.2226 776.91 46.8648 777.248 44.9978L778.298 39.5879L772.216 8.274H773.917L776.886 23.9946L779.094 35.8964L781.121 23.931L783.873 8.274H785.61Z" fill="white" fill-opacity="0.6"/>
<path d="M796.427 0H797.549C797.525 1.69723 797.175 3.0338 796.499 4.00971C795.823 4.94319 794.955 5.40992 793.893 5.40992C792.831 5.40992 791.962 4.94319 791.286 4.00971C790.635 3.0338 790.297 1.69723 790.272 0H791.431C791.455 1.18806 791.696 2.07911 792.155 2.67314C792.614 3.26717 793.193 3.56419 793.893 3.56419C795.51 3.56419 796.354 2.37612 796.427 0ZM797.839 13.4293L789.874 52.8263H788.064V8.274H789.585V46.3981L792.77 30.5502L797.368 8.274H799.359V52.8263H797.839V13.4293Z" fill="white" fill-opacity="0.6"/>
<path d="M808.649 52.8263H806.983V10.9471H801.807V8.274H813.826V10.9471H808.649V52.8263Z" fill="white" fill-opacity="0.6"/>
<path d="M817.942 28.8954H824.856V31.5685H817.942V50.1532H826.268V52.8263H816.276V8.274H826.268V10.9471H817.942V28.8954Z" fill="white" fill-opacity="0.6"/>
<path d="M830.199 11.0108C831.092 8.93168 832.468 7.89213 834.326 7.89213C836.184 7.89213 837.56 8.93168 838.453 11.0108C839.346 13.0475 839.793 15.763 839.793 19.1575V22.849H838.2V18.9666C838.2 16.4207 837.886 14.384 837.258 12.8565C836.655 11.329 835.69 10.5653 834.362 10.5653C833.035 10.5653 832.057 11.329 831.43 12.8565C830.826 14.384 830.525 16.4207 830.525 18.9666V42.1338C830.525 47.6922 831.804 50.4714 834.362 50.4714C836.921 50.4714 838.2 47.6922 838.2 42.1338V36.8511H839.793V41.9428C839.793 45.3373 839.346 48.0741 838.453 50.1532C837.56 52.1899 836.184 53.2082 834.326 53.2082C832.468 53.2082 831.092 52.1899 830.199 50.1532C829.306 48.0741 828.859 45.3373 828.859 41.9428V19.1575C828.859 15.763 829.306 13.0475 830.199 11.0108Z" fill="white" fill-opacity="0.6"/>
<path d="M844.174 26.6041H847.287C849.29 26.6041 850.775 27.4739 851.74 29.2136C852.705 30.9533 853.188 33.6052 853.188 37.1694V42.0065C853.188 49.2197 851.366 52.8263 847.722 52.8263H842.508V8.274H844.174V26.6041ZM844.174 50.1532H847.722C850.256 50.1532 851.523 47.5013 851.523 42.1974V36.9784C851.523 34.2629 851.185 32.311 850.509 31.123C849.833 29.8925 848.759 29.2772 847.287 29.2772H844.174V50.1532Z" fill="white" fill-opacity="0.6"/>
<path d="M862.76 11.0108C863.653 8.93168 865.028 7.89213 866.887 7.89213C868.745 7.89213 870.121 8.93168 871.014 11.0108C871.907 13.0475 872.353 15.763 872.353 19.1575V22.849H870.76V18.9666C870.76 16.4207 870.446 14.384 869.819 12.8565C869.216 11.329 868.25 10.5653 866.923 10.5653C865.595 10.5653 864.618 11.329 863.99 12.8565C863.387 14.384 863.085 16.4207 863.085 18.9666V42.1338C863.085 47.6922 864.365 50.4714 866.923 50.4714C869.481 50.4714 870.76 47.6922 870.76 42.1338V36.8511H872.353V41.9428C872.353 45.3373 871.907 48.0741 871.014 50.1532C870.121 52.1899 868.745 53.2082 866.887 53.2082C865.028 53.2082 863.653 52.1899 862.76 50.1532C861.867 48.0741 861.42 45.3373 861.42 41.9428V19.1575C861.42 15.763 861.867 13.0475 862.76 11.0108Z" fill="white" fill-opacity="0.6"/>
<path d="M874.96 41.9428V19.1575C874.96 15.763 875.419 13.0475 876.336 11.0108C877.277 8.93168 878.665 7.89213 880.499 7.89213C882.382 7.89213 883.782 8.91046 884.699 10.9471C885.64 12.9838 886.111 15.7206 886.111 19.1575V41.9428C886.111 45.3797 885.64 48.1165 884.699 50.1532C883.782 52.1899 882.382 53.2082 880.499 53.2082C878.665 53.2082 877.277 52.1899 876.336 50.1532C875.419 48.0741 874.96 45.3373 874.96 41.9428ZM876.626 18.9666V42.1338C876.626 44.722 876.94 46.7799 877.567 48.3074C878.195 49.7925 879.172 50.5351 880.499 50.5351C881.851 50.5351 882.84 49.7925 883.468 48.3074C884.12 46.7799 884.445 44.722 884.445 42.1338V18.9666C884.445 16.3783 884.12 14.3416 883.468 12.8565C882.84 11.329 881.851 10.5653 880.499 10.5653C879.172 10.5653 878.195 11.329 877.567 12.8565C876.94 14.3416 876.626 16.3783 876.626 18.9666Z" fill="white" fill-opacity="0.6"/>
<path d="M895.709 11.0108C896.602 8.93168 897.978 7.89213 899.836 7.89213C901.694 7.89213 903.07 8.93168 903.963 11.0108C904.856 13.0475 905.302 15.763 905.302 19.1575V22.849H903.71V18.9666C903.71 16.4207 903.396 14.384 902.768 12.8565C902.165 11.329 901.2 10.5653 899.872 10.5653C898.545 10.5653 897.567 11.329 896.94 12.8565C896.336 14.384 896.035 16.4207 896.035 18.9666V42.1338C896.035 47.6922 897.314 50.4714 899.872 50.4714C902.43 50.4714 903.71 47.6922 903.71 42.1338V36.8511H905.302V41.9428C905.302 45.3373 904.856 48.0741 903.963 50.1532C903.07 52.1899 901.694 53.2082 899.836 53.2082C897.978 53.2082 896.602 52.1899 895.709 50.1532C894.816 48.0741 894.37 45.3373 894.37 41.9428V19.1575C894.37 15.763 894.816 13.0475 895.709 11.0108Z" fill="white" fill-opacity="0.6"/>
<path d="M917.576 10.9471H909.684V52.8263H908.018V8.274H919.277V52.8263H917.576V10.9471Z" fill="white" fill-opacity="0.6"/>
<path d="M923.825 28.8954H930.74V31.5685H923.825V50.1532H932.152V52.8263H922.16V8.274H932.152V10.9471H923.825V28.8954Z" fill="white" fill-opacity="0.6"/>
<path d="M948.645 58.8091H947.016V52.8263H935.322V8.274H936.951V50.1532H944.844V8.274H946.545V50.1532H948.645V58.8091Z" fill="white" fill-opacity="0.6"/>
<path d="M961.101 13.4293L957.264 32.1413L953.137 52.8263H951.326V8.274H952.847V46.3981L955.779 31.6958L960.63 8.274H962.621V52.8263H961.101V13.4293Z" fill="white" fill-opacity="0.6"/>
<path d="M975.785 42.9612H967.893L966.626 52.8263H965.106L970.645 8.21036H973.07L978.718 52.8263H977.053L975.785 42.9612ZM971.803 11.5836L968.147 40.4153H975.532L971.803 11.5836Z" fill="white" fill-opacity="0.6"/>
<path d="M992.458 10.9471H986.268L985.616 41.9428C985.568 43.6401 985.483 45.0827 985.363 46.2708C985.242 47.4164 985.025 48.5408 984.711 49.644C984.421 50.7048 983.975 51.511 983.371 52.0626C982.792 52.5717 982.056 52.8475 981.163 52.89H980.837V50.2168C981.513 50.2168 982.068 50.0259 982.503 49.644C982.937 49.2197 983.251 48.5832 983.444 47.7346C983.637 46.8436 983.758 46.0162 983.806 45.2524C983.878 44.4462 983.927 43.3643 983.951 42.0065L984.711 8.274H994.16V52.8263H992.458V10.9471Z" fill="white" fill-opacity="0.6"/>
<path d="M1006.88 13.4293L1003.05 32.1413L998.919 52.8263H997.109V8.274H998.63V46.3981L1001.56 31.6958L1006.41 8.274H1008.4V52.8263H1006.88V13.4293Z" fill="white" fill-opacity="0.6"/>
<path d="M1012.48 11.0108C1013.37 8.93168 1014.75 7.89213 1016.61 7.89213C1018.47 7.89213 1019.84 8.93168 1020.74 11.0108C1021.63 13.0475 1022.07 15.763 1022.07 19.1575V22.849H1020.48V18.9666C1020.48 16.4207 1020.17 14.384 1019.54 12.8565C1018.94 11.329 1017.97 10.5653 1016.64 10.5653C1015.32 10.5653 1014.34 11.329 1013.71 12.8565C1013.11 14.384 1012.81 16.4207 1012.81 18.9666V42.1338C1012.81 47.6922 1014.09 50.4714 1016.64 50.4714C1019.2 50.4714 1020.48 47.6922 1020.48 42.1338V36.8511H1022.07V41.9428C1022.07 45.3373 1021.63 48.0741 1020.74 50.1532C1019.84 52.1899 1018.47 53.2082 1016.61 53.2082C1014.75 53.2082 1013.37 52.1899 1012.48 50.1532C1011.59 48.0741 1011.14 45.3373 1011.14 41.9428V19.1575C1011.14 15.763 1011.59 13.0475 1012.48 11.0108Z" fill="white" fill-opacity="0.6"/>
<path d="M1031.2 52.8263H1029.53V10.9471H1024.36V8.274H1036.38V10.9471H1031.2V52.8263Z" fill="white" fill-opacity="0.6"/>
<path d="M1038.72 41.9428V19.1575C1038.72 15.763 1039.18 13.0475 1040.09 11.0108C1041.03 8.93168 1042.42 7.89213 1044.26 7.89213C1046.14 7.89213 1047.54 8.91046 1048.46 10.9471C1049.4 12.9838 1049.87 15.7206 1049.87 19.1575V41.9428C1049.87 45.3797 1049.4 48.1165 1048.46 50.1532C1047.54 52.1899 1046.14 53.2082 1044.26 53.2082C1042.42 53.2082 1041.03 52.1899 1040.09 50.1532C1039.18 48.0741 1038.72 45.3373 1038.72 41.9428ZM1040.38 18.9666V42.1338C1040.38 44.722 1040.7 46.7799 1041.32 48.3074C1041.95 49.7925 1042.93 50.5351 1044.26 50.5351C1045.61 50.5351 1046.6 49.7925 1047.23 48.3074C1047.88 46.7799 1048.2 44.722 1048.2 42.1338V18.9666C1048.2 16.3783 1047.88 14.3416 1047.23 12.8565C1046.6 11.329 1045.61 10.5653 1044.26 10.5653C1042.93 10.5653 1041.95 11.329 1041.32 12.8565C1040.7 14.3416 1040.38 16.3783 1040.38 18.9666Z" fill="white" fill-opacity="0.6"/>
<path d="M1066.41 13.2384L1061.12 52.7627H1059.46L1054.1 13.3657V52.8263H1052.61V8.274H1055L1060.33 47.671L1065.61 8.274H1068V52.8263H1066.41V13.2384Z" fill="white" fill-opacity="0.6"/>
</svg>
