<svg width="346" height="68" viewBox="0 0 346 68" fill="none" xmlns="http://www.w3.org/2000/svg">
<path d="M245.478 38.7604C246.006 37.4926 246.834 36.8628 247.899 36.8628C248.964 36.8628 249.801 37.4926 250.302 38.7604C250.887 40.3612 251.155 42.0427 251.095 43.7278V45.9922H250.17V43.6002C250.207 42.3381 250.023 41.0786 249.624 39.8687C249.272 38.9438 248.744 38.4973 247.925 38.4973C247.107 38.4973 246.578 38.9438 246.235 39.8687C245.82 41.0756 245.633 42.337 245.68 43.6002V57.7289C245.68 61.1202 246.429 62.8159 247.925 62.8159C249.422 62.8159 250.17 61.1202 250.17 57.7289V54.5396H251.139V57.6412C251.198 59.3341 250.929 61.0232 250.346 62.6325C249.845 63.8763 249.017 64.5062 247.943 64.5062C246.869 64.5062 246.05 63.8763 245.522 62.6325C244.962 61.0188 244.703 59.332 244.756 57.6412V43.7836C244.702 42.1006 244.961 40.4215 245.522 38.8162L245.478 38.7604ZM261.651 40.2514L259.432 51.5097L257.011 64.267H255.963V37.1657H256.844V60.4L258.992 49.3011L261.386 37.1657H262.584V64.3308H261.703L261.651 40.2514ZM269.785 51.5097H265.225V64.267H264.248V37.1657H265.225V49.923H269.812V37.1657H270.815V64.3308H269.812L269.785 51.5097ZM273.184 38.7524C273.703 37.4847 274.504 36.8548 275.605 36.8548C276.705 36.8548 277.498 37.4847 277.999 38.7524C278.591 40.3518 278.862 42.034 278.8 43.7198V45.9842H277.92V43.5922C277.954 42.3297 277.767 41.0702 277.365 39.8607C277.022 38.9358 276.485 38.4893 275.675 38.4893C274.865 38.4893 274.328 38.9358 273.976 39.8607C273.565 41.0682 273.38 42.3295 273.43 43.5922V57.7209C273.43 61.1123 274.178 62.8079 275.675 62.8079C277.172 62.8079 277.92 61.1123 277.92 57.7209V54.5316H278.8V57.6332C278.861 59.3268 278.59 61.0167 277.999 62.6245C277.498 63.8684 276.679 64.4983 275.605 64.4983C274.531 64.4983 273.703 63.8684 273.184 62.6245C272.616 61.0123 272.354 59.3247 272.409 57.6332V43.7836C272.353 42.0999 272.615 40.42 273.184 38.8162V38.7524ZM284.118 64.267H283.141V38.7524H280.121V37.1578H287.164V38.7524H284.144L284.118 64.267ZM288.582 37.102H291.637C293.732 37.102 294.806 39.2946 294.806 43.7039V46.638C294.806 50.933 293.656 53.0805 291.355 53.0805H289.532V64.2431H288.564L288.582 37.102ZM289.55 51.4539H291.372C291.774 51.4702 292.171 51.372 292.507 51.1731C292.843 50.9743 293.103 50.6849 293.248 50.3456C293.725 49.1987 293.929 47.9732 293.846 46.7497V43.5603C293.846 40.3072 293.098 38.7046 291.654 38.7046H289.55V51.4539ZM303.83 37.102L300.009 59.2279C299.87 60.5795 299.508 61.9046 298.935 63.1587C298.754 63.5356 298.442 63.8482 298.046 64.0485C297.65 64.2487 297.192 64.3255 296.743 64.267V62.6724C297.034 62.7029 297.328 62.652 297.586 62.5265C297.844 62.4011 298.054 62.2072 298.187 61.9707C298.581 61.1898 298.842 60.359 298.961 59.507L299.56 56.206L296.039 37.1099H297.033L298.794 46.6779L300.088 53.9336L301.259 46.6301L302.862 37.0621L303.83 37.102ZM311.34 64.267L307.246 51.5097L306.251 54.4439V64.3308H305.274V37.1657H306.251V51.5177L311.067 37.1657H312.062L307.845 49.8194L312.335 64.3308L311.34 64.267ZM321.843 67.9986H320.901V64.3308H314.086V37.1657H315.037V62.6803H319.624V37.1657H320.628V62.6803H321.843V67.9986ZM329.132 40.3391L326.914 51.5974L324.466 64.3547H323.419V37.1657H324.299V60.4L326.447 49.3011L328.842 37.1657H329.986V64.3308H329.106L329.132 40.3391ZM332.654 49.7636H336.695V51.3582H332.654V62.7043H337.522V64.2989H331.677V37.1657H337.522V38.7604H332.654V49.7636ZM343.985 32.0628H344.636C344.652 32.895 344.437 33.7175 344.011 34.4548C343.87 34.7084 343.657 34.9234 343.394 35.0776C343.131 35.2317 342.827 35.3195 342.514 35.3319C342.197 35.3238 341.887 35.2379 341.619 35.0835C341.351 34.9291 341.134 34.7119 340.991 34.4548C340.549 33.7236 340.342 32.8951 340.392 32.0628H341.062C341.035 32.6197 341.181 33.1721 341.484 33.6575C341.589 33.8209 341.74 33.9567 341.92 34.0518C342.101 34.1468 342.305 34.1978 342.514 34.1997C343.395 34.1997 343.932 33.4741 343.985 32.0469V32.0628ZM344.803 40.3391L342.699 51.0872L340.181 64.3308H339.09V37.1657H339.97V60.4L341.898 50.4971L344.539 37.1657H345.692V64.3308H344.812L344.803 40.3391Z" fill="white" fill-opacity="0.6"/>
<path d="M6.27942 38.7491H1.669V64.2182H0.692383V37.1334H7.28245V64.25H6.27942V38.7491ZM9.92199 49.669H13.9605V51.2608H9.92199V62.5866H14.7876V64.1784H8.95416V37.1334H14.7876V38.7253H9.92199V49.669ZM16.3801 37.1255H19.4244C21.5448 37.1255 22.5918 39.3143 22.5918 43.7156V46.6446C22.5918 50.9345 21.4744 53.0755 19.178 53.0755H17.3303V64.2182H16.3801V37.1255ZM17.3303 51.4518H19.178C19.5779 51.4676 19.9731 51.3692 20.3078 51.1707C20.6425 50.9722 20.8998 50.6835 21.0433 50.3455C21.5172 49.2001 21.7152 47.9763 21.624 46.756V43.5724C21.624 40.3251 20.8937 38.7253 19.4244 38.7253H17.3303V51.4518ZM25.0378 49.669H29.0499V51.2608H25.0114V62.5866H29.8506V64.1784H24.0348V37.1334H29.8506V38.7253H25.0114L25.0378 49.669ZM40.2504 67.9749H39.2825V64.25H32.2438V67.9988H31.2583V62.6264H32.279C32.8042 61.2251 33.0573 59.7522 33.0268 58.2728L33.5987 37.1334H39.0098V62.6025H40.2328L40.2504 67.9749ZM34.5402 38.7332L33.9946 58.2489C34.0393 59.7259 33.8011 61.1989 33.2908 62.6025H38.0332V38.7253L34.5402 38.7332ZM50.6502 38.7332H46.0398V64.2023H45.0631V37.1334H51.6268V64.25H50.615L50.6502 38.7332ZM53.2897 37.1414H56.3604C58.4808 37.1414 59.5279 39.3302 59.5279 43.7315V46.6605C59.5279 50.9504 58.3841 53.0914 56.1141 53.0914H54.2664V64.2341H53.2545L53.2897 37.1414ZM54.2664 51.4678H56.1141C56.5126 51.4776 56.905 51.3769 57.2384 51.1791C57.5719 50.9814 57.8304 50.696 57.9793 50.3615C58.4402 49.213 58.6378 47.9917 58.56 46.7719V43.5883C58.56 40.341 57.8298 38.7412 56.3604 38.7412H54.2664V51.4678ZM66.6898 40.2773L64.4638 51.5155L62.0442 64.25H60.9708V37.1334H61.8507V60.3262L63.9887 49.2472L66.4523 37.1334H67.6313V64.25H66.7514L66.6898 40.2773ZM77.248 40.1659L74.1598 64.2102H73.1831L70.0684 40.2295V64.25H69.1886V37.1334H70.5788L73.7022 61.1142L76.7641 37.1334H78.1631V64.25H77.2392L77.248 40.1659ZM80.8466 49.7168H84.9291V51.3086H80.8818V62.6343H85.7386V64.2262H79.9052V37.1334H85.7386V38.7253H80.8818L80.8466 49.7168ZM92.8653 51.5474H88.2461V64.2819H87.2783V37.1334H88.2461V49.868H92.8653V37.1334H93.8595V64.25H92.8653V51.5474ZM96.5079 49.7168H100.546V51.3086H96.5431V62.6343H101.4V64.2262H95.5664V37.1334H101.4V38.7253H96.5431L96.5079 49.7168ZM108.527 51.5474H103.916V64.2819H102.94V37.1334H103.916V49.868H108.527V37.1334H109.565V64.25H108.571L108.527 51.5474ZM116.903 40.3091L114.686 51.5474L112.266 64.2819H111.193V37.1334H112.072V60.3262L114.219 49.2472L116.612 37.1334H117.783V64.25H116.903V40.3091ZM120.422 49.7168H124.522V51.3086H120.484V62.6343H125.349V64.2262H119.507V37.1334H125.323V38.7253H120.457L120.422 49.7168ZM134.913 40.1659L131.843 64.2102H130.875L127.734 40.2295V64.25H126.854V37.1334H128.253L131.35 61.1142L134.438 37.1334H135.837V64.25H134.887L134.913 40.1659ZM140.747 57.6281V43.7395C140.683 42.0547 140.963 40.3738 141.574 38.781C142.093 37.5155 142.92 36.8867 143.993 36.8867C145.067 36.8867 145.885 37.5155 146.439 38.7571C147.047 40.3585 147.325 42.0474 147.258 43.7395V57.6201C147.326 59.3202 147.049 61.0171 146.439 62.6264C145.885 63.868 145.093 64.4729 143.993 64.4729C142.893 64.4729 142.093 63.8441 141.574 62.6025C140.965 61.0012 140.684 59.3126 140.747 57.6201V57.6281ZM141.723 43.636V57.7395C141.672 59.0053 141.857 60.2698 142.269 61.4803C142.647 62.4115 143.193 62.8572 144.029 62.8572C144.864 62.8572 145.375 62.4115 145.744 61.4803C146.175 60.273 146.371 59.0074 146.325 57.7395V43.6281C146.373 42.3653 146.176 41.1047 145.744 39.9032C145.375 38.98 144.803 38.5343 144.029 38.5343C143.254 38.5343 142.682 38.98 142.269 39.9032C141.855 41.1079 141.671 42.3675 141.723 43.6281V43.636ZM149.642 38.7412C150.161 37.5235 150.962 36.8947 152.035 36.8947C153.109 36.8947 153.927 37.5235 154.455 38.7651C155.032 40.3722 155.295 42.0585 155.229 43.7475V44.4478C155.255 45.6381 155.077 46.8248 154.701 47.9658C154.471 48.7833 153.956 49.5119 153.232 50.0431C153.986 50.5046 154.52 51.2067 154.727 52.009C155.08 53.1539 155.249 54.3386 155.229 55.5269V57.6281C155.296 59.3249 155.034 61.0193 154.455 62.6343C153.927 63.876 153.126 64.4809 152.035 64.4809C150.944 64.4809 150.161 63.876 149.642 62.6343C149.048 61.022 148.776 59.3266 148.841 57.6281V55.3916H149.792V57.7395C149.745 58.9982 149.92 60.2555 150.311 61.4644C150.689 62.3876 151.234 62.8572 152.009 62.8572C153.504 62.8572 154.252 61.0982 154.252 57.5803V55.495C154.3 54.3585 154.097 53.2247 153.654 52.1602C153.232 51.3643 152.677 50.9186 151.982 50.9186H151.164V49.3268H152.044C152.686 49.3268 153.241 48.897 153.636 48.0135C154.088 47.0035 154.301 45.9189 154.261 44.8299V43.8111C154.261 40.2932 153.513 38.5581 152.018 38.5581C151.243 38.5581 150.698 39.0038 150.319 39.9271C149.906 41.1318 149.721 42.3913 149.774 43.6519V45.1403H148.894V43.7475C148.833 42.0561 149.094 40.3678 149.668 38.7571L149.642 38.7412ZM162.461 51.5155H157.842V64.25H156.874V37.1334H157.842V49.868H162.461V37.1334H163.429V64.25H162.461V51.5155ZM171.163 58.2568H166.553L165.796 64.258H164.916L168.136 37.0937H169.562L172.852 64.258H171.876L171.163 58.2568ZM168.814 39.1551L166.702 56.665H171.013L168.814 39.1551ZM180.393 64.25L176.328 51.5155L175.298 54.4444V64.25H174.33V37.1334H175.298V51.4598L180.12 37.1334H181.141L176.926 49.7645L181.413 64.25H180.393ZM182.812 57.6201V43.7395C182.752 42.0574 183.02 40.3789 183.604 38.781C184.158 37.5155 184.977 36.8867 186.024 36.8867C187.071 36.8867 187.951 37.5155 188.496 38.7571C189.107 40.3579 189.388 42.0469 189.323 43.7395V57.6201C189.39 59.3207 189.109 61.0178 188.496 62.6264C187.951 63.868 187.123 64.4729 186.024 64.4729C184.924 64.4729 184.158 63.8441 183.604 62.6025C183.021 60.9961 182.753 59.31 182.812 57.6201ZM183.78 43.6281V57.7315C183.727 58.998 183.914 60.2633 184.334 61.4723C184.704 62.4035 185.214 62.8492 186.024 62.8492C186.833 62.8492 187.396 62.4035 187.783 61.4723C188.206 60.2636 188.4 58.9987 188.355 57.7315V43.6281C188.401 42.366 188.208 41.1062 187.783 39.9032C187.405 38.98 186.833 38.5343 186.024 38.5343C185.214 38.5343 184.704 38.98 184.334 39.9032C183.913 41.1065 183.725 42.3668 183.78 43.6281ZM198.975 40.1579L195.878 64.2023H194.91L191.787 40.2216V64.25H190.907V37.1334H192.306L195.394 61.1142L198.491 37.1334H199.881V64.25H199.001L198.975 40.1579ZM202.565 48.2762H204.325C204.885 48.27 205.434 48.4192 205.898 48.7038C206.362 48.9884 206.719 49.3946 206.92 49.868C207.592 51.4029 207.892 53.0504 207.8 54.6991V57.6519C207.8 62.0533 206.753 64.2421 204.606 64.2421H201.588V37.1334H202.565V48.2762ZM202.565 62.6025H204.588C206.084 62.6025 206.806 61.0107 206.806 57.7554V54.5718C206.88 53.3528 206.686 52.1326 206.234 50.9823C206.079 50.6464 205.816 50.3609 205.478 50.1634C205.14 49.9659 204.744 49.8657 204.342 49.8759H202.582L202.565 62.6025ZM213.123 64.1943H212.146V38.7253H209.128V37.1334H216.167V38.7253H213.149L213.123 64.1943ZM218.534 49.6212H222.573V51.2131H218.534V62.5388H223.4V64.1306H217.557V37.1334H223.4V38.7253H218.534V49.6212ZM225.705 38.781C226.233 37.5155 227.033 36.8867 228.124 36.8867C229.215 36.8867 229.998 37.5155 230.518 38.781C231.109 40.3775 231.38 42.0567 231.318 43.7395V45.9999H230.368V43.6121C230.412 42.3536 230.236 41.0967 229.849 39.8873C229.471 38.9641 228.969 38.5183 228.151 38.5183C227.333 38.5183 226.805 38.9641 226.453 39.8873C226.046 41.0934 225.862 42.3519 225.907 43.6121V57.7156C225.907 61.1009 226.655 62.7935 228.151 62.7935C229.62 62.7935 230.368 61.0982 230.368 57.7156V54.532H231.318V57.6281C231.379 59.3186 231.108 61.0054 230.518 62.6105C229.998 63.8521 229.198 64.4809 228.124 64.4809C227.051 64.4809 226.233 63.8521 225.705 62.6105C225.129 61.0029 224.867 59.3169 224.931 57.6281V43.7395C224.866 42.0584 225.128 40.3801 225.705 38.781ZM233.861 48.2762H235.682C236.25 48.2641 236.808 48.4104 237.28 48.6952C237.752 48.98 238.116 49.3895 238.322 49.868C238.994 51.4029 239.294 53.0504 239.202 54.6991V57.6519C239.202 62.0533 238.128 64.2421 236.017 64.2421H232.972V37.1334H233.94L233.861 48.2762ZM233.861 62.6025H235.937C237.407 62.6025 238.155 61.0107 238.155 57.7554V54.5718C238.232 53.3507 238.029 52.1284 237.556 50.9823C237.402 50.6497 237.141 50.3665 236.807 50.1694C236.473 49.9722 236.081 49.87 235.682 49.8759H233.861V62.6025Z" fill="white" fill-opacity="0.6"/>
<path d="M6.43409 4.33667L4.19924 15.5835L1.74356 28.3278H0.692383V1.19839H1.57572V24.409L3.73107 13.3214L6.13376 1.19839H7.3086V28.3358H6.42526L6.43409 4.33667ZM17.0342 4.22517L13.969 28.288H12.9885L9.87029 4.28888V28.3358H8.98695V1.19839H10.3826L13.492 25.1975L16.5925 1.19839H17.997V28.3358H17.1137L17.0342 4.22517ZM20.6382 13.7834H24.7104V15.3764H20.6735V26.7109H25.5319V28.3039H19.7019V1.19839H25.5319V2.79143H20.6735L20.6382 13.7834ZM33.8883 0.983336C34.966 0.983336 35.7875 1.61259 36.3175 2.85516C36.9278 4.4578 37.2063 6.14796 37.139 7.84138V21.7326C37.2081 23.434 36.9297 25.1323 36.3175 26.7428C35.7875 27.9853 34.966 28.5907 33.8883 28.5907C32.8106 28.5907 31.9626 27.9853 31.4061 26.7428C30.8138 25.1283 30.5417 23.4323 30.6023 21.7326V15.6154H28.1113V28.3597H27.1396V1.19839H28.1113V13.9427H30.6641V7.80154C30.6054 6.10981 30.8775 4.42196 31.4679 2.81532C32.0245 1.57275 32.846 0.94352 33.9501 0.94352L33.8883 0.983336ZM33.8883 2.63214C32.3601 2.63214 31.5828 4.32075 31.5828 7.72985V21.8442C31.5828 25.2533 32.3601 26.9658 33.8883 26.9658C34.6656 26.9658 35.2398 26.5197 35.6108 25.5878C36.0326 24.3779 36.2208 23.1116 36.1673 21.8442V7.69799C36.2223 6.43574 36.034 5.17448 35.6108 3.97028C35.2398 3.04632 34.6656 2.60027 33.8883 2.60027V2.63214ZM42.5539 28.3358H41.6087V2.84719H38.5788V1.25415H45.6456V2.84719H42.5539V28.3358ZM47.7567 2.84719C48.2602 1.58072 49.0906 0.951469 50.1683 0.951469C51.2459 0.951469 52.0674 1.58072 52.5886 2.84719C53.1589 4.44938 53.4217 6.12758 53.3659 7.80951V10.0716H52.4738V7.68206C52.5106 6.42122 52.3257 5.16307 51.9261 3.95436C51.5728 3.0304 51.0428 2.58435 50.2213 2.58435C49.3997 2.58435 48.8697 3.0304 48.5252 3.95436C48.1093 5.16002 47.9212 6.42015 47.9687 7.68206V21.7964C47.9687 25.1842 48.7196 26.8782 50.2213 26.8782C51.7229 26.8782 52.4738 25.1842 52.4738 21.7964V18.6103H53.4013V21.7088C53.4561 23.3985 53.1933 25.0844 52.6239 26.695C52.1028 27.9375 51.2989 28.5668 50.2036 28.5668C49.1082 28.5668 48.2956 27.9375 47.7921 26.695C47.2071 25.0873 46.9381 23.3999 46.9971 21.7088V7.80951C46.9368 6.12614 47.2059 4.44635 47.7921 2.84719H47.7567ZM60.4768 16.1889H58.9663C58.5464 16.1697 58.1289 16.2564 57.7607 16.4393C57.3924 16.6222 57.088 16.8941 56.8816 17.2244C56.3155 18.3492 56.0754 19.5853 56.1838 20.8167V25.086C56.235 26.1775 56.1251 27.2704 55.857 28.3358H54.8323C55.1292 27.2743 55.2542 26.1797 55.2033 25.086V20.8485C55.2033 17.7341 55.91 15.8782 57.3321 15.3127C55.9129 14.7286 55.2033 12.8568 55.2033 9.69725V7.3077C55.2033 3.22156 56.2545 1.19044 58.3833 1.19044H61.4927V28.3358H60.5122L60.4768 16.1889ZM60.4768 2.82329H58.454C56.9523 2.82329 56.228 4.41633 56.228 7.47496V10.0238C56.228 11.7602 56.4576 12.963 56.9081 13.5922C57.1238 13.9088 57.4309 14.1665 57.7966 14.3377C58.1623 14.5089 58.5728 14.5871 58.984 14.564H60.5563L60.4768 2.82329ZM72.0221 2.82329H67.4287V28.3119H66.4482V1.19839H73.0644V28.3358H72.0574L72.0221 2.82329ZM74.7251 1.23025H77.7815C79.9103 1.23025 80.9615 3.42068 80.9615 7.82543V10.7566C80.9615 15.0499 79.8396 17.1925 77.5341 17.1925H75.6791V28.3438H74.7604L74.7251 1.23025ZM75.6791 15.5676H77.5341C77.9356 15.5833 78.3324 15.4849 78.6684 15.2862C79.0044 15.0876 79.2628 14.7987 79.4068 14.4604C79.8826 13.3141 80.0814 12.0893 79.9898 10.8681V7.68206C79.9898 4.43227 79.2566 2.83127 77.7815 2.83127H75.7144L75.6791 15.5676ZM82.366 21.7326V7.80951C82.2999 6.12397 82.5784 4.44185 83.1875 2.84719C83.7175 1.58072 84.539 0.951469 85.6167 0.951469C86.6944 0.951469 87.5512 1.58072 88.0724 2.82329C88.6905 4.42437 88.9721 6.11535 88.9027 7.80951V21.7008C88.9741 23.4029 88.6925 25.102 88.0724 26.7109C87.5512 27.9535 86.7209 28.5588 85.6167 28.5588C84.5125 28.5588 83.7175 27.9296 83.1875 26.687C82.5793 25.0839 82.3009 23.3941 82.366 21.7008V21.7326ZM83.3377 7.72985V21.8442C83.2842 23.1116 83.4724 24.3779 83.8942 25.5878C84.2652 26.5197 84.8394 26.9658 85.6609 26.9658C86.4824 26.9658 87.0389 26.5197 87.4275 25.5878C87.8414 24.3764 88.0266 23.1109 87.9752 21.8442V7.69799C88.028 6.43642 87.8428 5.17594 87.4275 3.97028C87.0477 3.04632 86.447 2.60027 85.6609 2.60027C84.8747 2.60027 84.3093 3.04632 83.8942 3.97028C83.471 5.17448 83.2827 6.43574 83.3377 7.69799V7.72985ZM94.2911 28.3358H93.3194V2.84719H90.2542V1.25415H97.3209V2.84719H94.2911V28.3358ZM104.485 4.33667L102.259 15.5835L99.8296 28.3278H98.7785V1.19839H99.6618V24.409L101.844 13.3214L104.22 1.19839H105.395V28.3358H104.511L104.485 4.33667ZM107.064 1.19839H110.165C110.67 1.17884 111.17 1.30601 111.59 1.56118C112.009 1.81636 112.327 2.1861 112.497 2.61619C113.044 4.01588 113.281 5.49897 113.195 6.98112V8.51045C113.246 9.73584 113.104 10.9616 112.771 12.1505C112.675 12.5214 112.489 12.868 112.224 13.1646C111.959 13.4612 111.624 13.6999 111.242 13.8631C112.744 14.4047 113.477 16.3482 113.477 19.6856V22.0752C113.477 26.2489 112.4 28.3517 110.244 28.3517H107.038L107.064 1.19839ZM108.045 13.1462H109.688C110.073 13.1726 110.46 13.1026 110.804 12.9438C111.149 12.785 111.438 12.5436 111.64 12.2461C112.122 11.1736 112.318 10.0143 112.214 8.86092V7.11654C112.272 6.01012 112.12 4.90288 111.764 3.84284C111.656 3.53368 111.438 3.265 111.145 3.07797C110.851 2.89093 110.497 2.79588 110.138 2.80737H108.036L108.045 13.1462ZM108.045 26.687H110.244C111.746 26.687 112.497 25.094 112.497 21.9875V19.5741C112.592 18.3207 112.378 17.0638 111.87 15.8942C111.692 15.5549 111.406 15.2709 111.049 15.0781C110.692 14.8852 110.28 14.7923 109.864 14.8109H108.045V26.687ZM115.005 21.6769V7.80951C114.939 6.12397 115.218 4.44185 115.827 2.84719C116.375 1.58072 117.178 0.951469 118.256 0.951469C119.334 0.951469 120.182 1.58072 120.738 2.82329C121.325 4.43053 121.594 6.11828 121.533 7.80951V21.7008C121.596 23.4 121.327 25.0958 120.738 26.7109C120.182 27.9535 119.36 28.5588 118.256 28.5588C117.152 28.5588 116.375 27.9296 115.827 26.687C115.219 25.0839 114.94 23.3941 115.005 21.7008V21.6769ZM115.977 7.67409V21.7884C115.938 23.0546 116.123 24.3182 116.525 25.5321C116.905 26.464 117.479 26.91 118.291 26.91C119.104 26.91 119.669 26.464 120.058 25.5321C120.472 24.3207 120.657 23.0551 120.606 21.7884V7.69799C120.659 6.43642 120.473 5.17594 120.058 3.97028C119.678 3.04632 119.078 2.60027 118.291 2.60027C117.505 2.60027 116.94 3.04632 116.525 3.97028C116.122 5.17845 115.937 6.437 115.977 7.69799V7.67409ZM128.75 2.7994H124.113V28.288H123.141V1.19839H129.748V28.3358H128.75V2.7994ZM131.4 21.6769V7.80951C131.336 6.12345 131.618 4.44121 132.231 2.84719C132.761 1.58072 133.582 0.951469 134.66 0.951469C135.737 0.951469 136.559 1.58072 137.115 2.82329C137.726 4.42593 138.004 6.11609 137.937 7.80951V21.7008C138.006 23.4021 137.728 25.1004 137.115 26.7109C136.559 27.9535 135.764 28.5588 134.66 28.5588C133.556 28.5588 132.761 27.9296 132.231 26.687C131.619 25.0845 131.338 23.3946 131.4 21.7008V21.6769ZM132.381 7.67409V21.7884C132.329 23.0551 132.514 24.3207 132.928 25.5321C133.308 26.464 133.856 26.91 134.695 26.91C135.534 26.91 136.047 26.464 136.462 25.5321C136.886 24.3224 137.08 23.0566 137.036 21.7884V7.69799C137.082 6.43497 136.888 5.17416 136.462 3.97028C136.082 3.04632 135.508 2.60027 134.695 2.60027C133.882 2.60027 133.344 3.04632 132.928 3.97028C132.513 5.17594 132.328 6.43642 132.381 7.69799V7.67409ZM145.631 28.3119L141.541 15.5676L140.516 18.4988V28.3358H139.545V1.19839H140.516V15.5357L145.348 1.19839H146.382L142.124 13.8392L146.655 28.3358L145.631 28.3119ZM154.137 22.3061H149.535L148.784 28.3119H147.901L151.134 1.1267H152.565L155.869 28.3119H154.888L154.137 22.3061ZM151.814 3.18968L149.685 20.7131H154.014L151.814 3.18968ZM158.095 2.78348C158.625 1.5648 159.42 0.935547 160.497 0.935547C161.575 0.935547 162.405 1.5648 162.927 2.80737C163.511 4.41485 163.774 6.10311 163.704 7.79356V8.4945C163.728 9.68502 163.552 10.872 163.183 12.0151C162.949 12.8341 162.429 13.5632 161.699 14.094C162.459 14.5536 162.996 15.2572 163.2 16.0614C163.567 17.2048 163.737 18.3922 163.704 19.5821V21.6849C163.776 23.3832 163.513 25.0797 162.927 26.695C162.405 27.9375 161.602 28.5429 160.497 28.5429C159.393 28.5429 158.625 27.9375 158.095 26.695C157.513 25.0787 157.25 23.383 157.317 21.6849V19.4466H158.245V21.7964C158.2 23.0565 158.379 24.3149 158.775 25.5241C159.146 26.448 159.72 26.918 160.542 26.918C162.026 26.918 162.776 25.1577 162.776 21.6371V19.5741C162.824 18.4367 162.62 17.302 162.176 16.2367C161.743 15.4402 161.195 14.9941 160.497 14.9941H159.667V13.4011H160.55C161.204 13.4011 161.752 12.9709 162.158 12.0868C162.612 11.076 162.826 9.99062 162.785 8.90074V7.88119C162.785 4.36058 162.034 2.62416 160.55 2.62416C159.773 2.62416 159.199 3.07021 158.784 3.99418C158.361 5.19837 158.172 6.45964 158.227 7.72188V9.21139H157.344V7.81748C157.282 6.12481 157.545 4.43523 158.121 2.82329L158.095 2.78348ZM171.415 22.3141H166.787L166.036 28.3199H165.153L168.377 1.13468H169.755L173.059 28.3199H172.078L171.415 22.3141ZM169.092 3.19766L166.937 20.7211H171.265L169.092 3.19766ZM180.205 15.5756H175.576V28.3199H174.596V1.19839H175.576V13.9427H180.205V1.19839H181.212V28.3358H180.178L180.205 15.5756ZM188.623 4.32873L186.388 15.5756L183.959 28.3199H182.908V1.19839H183.791V24.409L185.938 13.3214L188.305 1.19839H189.489V28.3358H188.605L188.623 4.32873ZM196.706 16.1809H195.151C194.733 16.165 194.318 16.2532 193.952 16.4359C193.586 16.6185 193.282 16.8886 193.075 17.2164C192.503 18.3396 192.262 19.577 192.377 20.8087V25.078C192.424 26.1695 192.314 27.2618 192.05 28.3278H191.052C191.324 27.2628 191.44 26.1702 191.397 25.078V20.8485C191.397 17.7341 192.121 15.8782 193.552 15.3127C192.121 14.7312 191.397 12.8594 191.397 9.69725V7.3077C191.397 3.22156 192.448 1.19044 194.577 1.19044H197.686V28.3358H196.706V16.1809ZM196.706 2.81532H194.577C193.102 2.81532 192.351 4.40838 192.351 7.46701V10.0159C192.351 11.7523 192.572 12.955 193.022 13.5843C193.24 13.9009 193.549 14.1584 193.916 14.3295C194.283 14.5006 194.694 14.5789 195.107 14.556H196.679L196.706 2.81532ZM199.382 24.9426H200.31V28.3278H199.382V24.9426Z" fill="white" fill-opacity="0.6"/>
</svg>
