<svg width="345" height="149" viewBox="0 0 345 149" fill="none" xmlns="http://www.w3.org/2000/svg">
<path d="M1.05413 106.71C1.81816 104.877 3.01515 103.966 4.55594 103.966C6.09673 103.966 7.3064 104.877 8.03222 106.71C8.87724 109.026 9.2652 111.458 9.17828 113.895V117.17H7.84119V113.711C7.89423 111.885 7.62776 110.063 7.05168 108.313C6.54233 106.976 5.77839 106.33 4.59414 106.33C3.4099 106.33 2.64582 106.976 2.1492 108.313C1.54964 110.059 1.27843 111.883 1.34696 113.711V134.146C1.34696 139.051 2.4294 141.504 4.59414 141.504C6.75889 141.504 7.84119 139.051 7.84119 134.146V129.533H9.24196V134.019C9.32702 136.468 8.93917 138.911 8.0959 141.239C7.37007 143.038 6.17309 143.949 4.61957 143.949C3.06604 143.949 1.88179 143.038 1.11777 141.239C0.308378 138.905 -0.0659909 136.465 0.00996046 134.019V113.976C-0.0674693 111.542 0.306983 109.113 1.11777 106.791L1.05413 106.71ZM24.4461 108.867L21.2372 125.151L17.7354 143.603H16.22V104.404H17.4935V138.01L20.6005 121.956L24.0641 104.404H25.7959V143.695H24.5225L24.4461 108.867ZM36.2122 125.151H29.616V143.603H28.2026V104.404H29.616V122.856H36.2504V104.404H37.702V143.695H36.2504L36.2122 125.151ZM41.1274 106.699C41.8787 104.865 43.0375 103.954 44.6292 103.954C46.2209 103.954 47.367 104.865 48.0928 106.699C48.9485 109.012 49.3409 111.445 49.2516 113.884V117.159H47.9782V113.699C48.0271 111.873 47.7563 110.051 47.176 108.302C46.6793 106.964 45.9026 106.318 44.7311 106.318C43.5596 106.318 42.7828 106.964 42.2735 108.302C41.6789 110.048 41.412 111.873 41.484 113.699V134.135C41.484 139.04 42.5663 141.492 44.7311 141.492C46.8958 141.492 47.9782 139.04 47.9782 134.135V129.522H49.2516V134.008C49.3389 136.457 48.9466 138.901 48.0928 141.227C47.367 143.026 46.1827 143.937 44.6292 143.937C43.0757 143.937 41.8787 143.026 41.1274 141.227C40.3066 138.895 39.9277 136.454 40.0068 134.008V113.976C39.9264 111.541 40.3053 109.111 41.1274 106.791V106.699ZM56.9428 143.603H55.5293V106.699H51.1617V104.392H61.3487V106.699H56.981L56.9428 143.603ZM63.3989 104.312H67.8175C70.8481 104.312 72.4016 107.483 72.4016 113.86V118.104C72.4016 124.317 70.7378 127.423 67.41 127.423H64.7741V143.568H63.3734L63.3989 104.312ZM64.7996 125.07H67.4355C68.0159 125.094 68.5899 124.952 69.0765 124.664C69.5631 124.376 69.9378 123.958 70.1478 123.467C70.8386 121.808 71.1337 120.036 71.0137 118.266V113.653C71.0137 108.948 69.9313 106.63 67.843 106.63H64.7996V125.07ZM85.4538 104.312L79.9273 136.314C79.7268 138.269 79.2031 140.186 78.3738 142C78.1124 142.545 77.6605 142.997 77.0876 143.287C76.5147 143.576 75.8525 143.687 75.2031 143.603V141.296C75.6239 141.34 76.0496 141.267 76.4229 141.085C76.7962 140.904 77.0993 140.623 77.2915 140.281C77.8622 139.152 78.24 137.95 78.412 136.718L79.2779 131.943L74.1844 104.323H75.6233L78.1701 118.162L80.0419 128.657L81.7356 118.093L84.0531 104.254L85.4538 104.312ZM96.3158 143.603L90.3945 125.151L88.9556 129.395V143.695H87.5422V104.404H88.9556V125.162L95.921 104.404H97.3599L91.2604 122.706L97.7547 143.695L96.3158 143.603ZM111.507 149H110.145V143.695H100.289V104.404H101.664V141.308H108.298V104.404H109.75V141.308H111.507V149ZM122.051 108.994L118.842 125.278L115.302 143.73H113.787V104.404H115.06V138.01L118.167 121.956L121.631 104.404H123.286V143.695H122.013L122.051 108.994ZM127.144 122.625H132.989V124.932H127.144V141.342H134.186V143.649H125.731V104.404H134.186V106.71H127.144V122.625ZM143.533 97.0231H144.475C144.498 98.2267 144.188 99.4164 143.571 100.483C143.367 100.85 143.059 101.161 142.679 101.384C142.298 101.607 141.859 101.734 141.406 101.751C140.947 101.74 140.499 101.616 140.112 101.392C139.724 101.169 139.41 100.855 139.203 100.483C138.564 99.4251 138.264 98.2268 138.337 97.0231H139.305C139.267 97.8285 139.479 98.6276 139.916 99.3296C140.068 99.5659 140.286 99.7624 140.547 99.8999C140.808 100.037 141.104 100.111 141.406 100.114C142.68 100.114 143.456 99.0643 143.533 97V97.0231ZM144.717 108.994L141.674 124.54L138.032 143.695H136.453V104.404H137.726V138.01L140.515 123.686L144.335 104.404H146.003V143.695H144.73L144.717 108.994Z" fill="white" fill-opacity="0.6"/>
<path d="M8.08101 54.6938H1.41257V91.5318H0V52.3569H9.53178V91.5779H8.08101V54.6938ZM13.3496 70.4881H19.1908V72.7905H13.3496V89.1719H20.3871V91.4743H11.9497V52.3569H20.3871V54.6592H13.3496V70.4881ZM22.6905 52.3454H27.0937C30.1606 52.3454 31.675 55.5111 31.675 61.8772V66.1136C31.675 72.3185 30.0588 75.4152 26.7373 75.4152H24.0649V91.5318H22.6905V52.3454ZM24.0649 73.0668H26.7373C27.3157 73.0895 27.8873 72.9473 28.3714 72.6601C28.8556 72.373 29.2277 71.9555 29.4352 71.4666C30.1207 69.8098 30.4071 68.0398 30.2752 66.2748V61.67C30.2752 56.9732 29.2189 54.6592 27.0937 54.6592H24.0649V73.0668ZM35.2129 70.4881H41.0159V72.7905H35.1747V89.1719H42.174V91.4743H33.7621V52.3569H42.174V54.6592H35.1747L35.2129 70.4881ZM57.2161 96.9655H55.8163V91.5779H45.6355V97H44.2101V89.2295H45.6864C46.4461 87.2027 46.8121 85.0722 46.7681 82.9325L47.5953 52.3569H55.4218V89.1949H57.1907L57.2161 96.9655ZM48.957 54.6708L48.1679 82.8979C48.2325 85.0343 47.888 87.1647 47.1498 89.1949H54.0092V54.6592L48.957 54.6708ZM72.2583 54.6708H65.5898V91.5088H64.1772V52.3569H73.6708V91.5779H72.2074L72.2583 54.6708ZM76.0761 52.3684H80.5174C83.5844 52.3684 85.0988 55.5342 85.0988 61.9002V66.1366C85.0988 72.3415 83.4444 75.4382 80.1611 75.4382H77.4886V91.5549H76.0252L76.0761 52.3684ZM77.4886 73.0898H80.1611C80.7376 73.1041 81.3051 72.9584 81.7874 72.6723C82.2697 72.3863 82.6436 71.9736 82.859 71.4897C83.5256 69.8285 83.8114 68.062 83.6989 66.2978V61.693C83.6989 56.9962 82.6427 54.6823 80.5174 54.6823H77.4886V73.0898ZM95.4577 56.9041L92.2381 73.1589L88.7384 91.5779H87.1858V52.3569H88.4585V85.9025L91.5509 69.878L95.1142 52.3569H96.8195V91.5779H95.5468L95.4577 56.9041ZM110.729 56.7429L106.262 91.5204H104.85L100.345 56.835V91.5779H99.0719V52.3569H101.083L105.6 87.0422L110.029 52.3569H112.052V91.5779H110.716L110.729 56.7429ZM115.934 70.5572H121.839V72.8596H115.985V89.241H123.01V91.5434H114.572V52.3569H123.01V54.6592H115.985L115.934 70.5572ZM133.318 73.2049H126.636V91.624H125.237V52.3569H126.636V70.7759H133.318V52.3569H134.756V91.5779H133.318V73.2049ZM138.586 70.5572H144.427V72.8596H138.637V89.241H145.662V91.5434H137.225V52.3569H145.662V54.6592H138.637L138.586 70.5572ZM155.97 73.2049H149.301V91.624H147.889V52.3569H149.301V70.7759H155.97V52.3569H157.472V91.5779H156.034L155.97 73.2049ZM168.085 56.9501L164.878 73.2049L161.378 91.624H159.826V52.3569H161.098V85.9025L164.204 69.878L167.665 52.3569H169.358V91.5779H168.085V56.9501ZM173.175 70.5572H179.106V72.8596H173.265V89.241H180.302V91.5434H171.852V52.3569H180.264V54.6592H173.226L173.175 70.5572ZM194.135 56.7429L189.694 91.5204H188.294L183.751 56.835V91.5779H182.478V52.3569H184.502L188.981 87.0422L193.448 52.3569H195.471V91.5779H194.097L194.135 56.7429ZM202.573 82V61.9118C202.481 59.4749 202.886 57.0436 203.769 54.7398C204.52 52.9094 205.716 52 207.268 52C208.821 52 210.005 52.9094 210.806 54.7053C211.686 57.0216 212.087 59.4643 211.99 61.9118V81.9885C212.089 84.4474 211.688 86.9019 210.806 89.2295C210.005 91.0253 208.859 91.9002 207.268 91.9002C205.678 91.9002 204.52 90.9908 203.769 89.1949C202.888 86.8788 202.482 84.4365 202.573 81.9885V82ZM203.985 61.7621V82.1612C203.911 83.992 204.178 85.821 204.774 87.5718C205.321 88.9187 206.11 89.5633 207.319 89.5633C208.528 89.5633 209.266 88.9187 209.801 87.5718C210.424 85.8256 210.708 83.995 210.641 82.1612V61.7506C210.71 59.9242 210.426 58.1008 209.801 56.363C209.266 55.0276 208.439 54.383 207.319 54.383C206.199 54.383 205.372 55.0276 204.774 56.363C204.176 58.1055 203.909 59.9273 203.985 61.7506V61.7621ZM215.438 54.6823C216.189 52.921 217.347 52.0115 218.9 52.0115C220.453 52.0115 221.636 52.921 222.4 54.7168C223.235 57.0414 223.614 59.4804 223.52 61.9233V62.9363C223.557 64.6579 223.299 66.3743 222.756 68.0246C222.424 69.207 221.678 70.2608 220.631 71.0292C221.722 71.6967 222.495 72.7122 222.794 73.8726C223.304 75.5286 223.548 77.2421 223.52 78.9609V82C223.617 84.4543 223.238 86.9051 222.4 89.241C221.636 91.0368 220.478 91.9118 218.9 91.9118C217.322 91.9118 216.189 91.0368 215.438 89.241C214.579 86.909 214.187 84.4568 214.28 82V78.7652H215.655V82.1612C215.587 83.9817 215.841 85.8003 216.406 87.5487C216.953 88.8841 217.742 89.5633 218.862 89.5633C221.025 89.5633 222.107 87.0192 222.107 81.9309V78.9148C222.176 77.2709 221.882 75.6311 221.242 74.0913C220.631 72.9401 219.829 72.2955 218.824 72.2955H217.64V69.9931H218.913C219.842 69.9931 220.643 69.3715 221.216 68.0936C221.87 66.6328 222.178 65.0641 222.12 63.4889V62.0154C222.12 56.9271 221.038 54.4175 218.875 54.4175C217.755 54.4175 216.966 55.0622 216.418 56.3976C215.82 58.1401 215.553 59.9618 215.629 61.7851V63.9379H214.357V61.9233C214.268 59.4769 214.647 57.035 215.477 54.7053L215.438 54.6823ZM233.98 73.1589H227.299V91.5779H225.899V52.3569H227.299V70.7759H233.98V52.3569H235.38V91.5779H233.98V73.1589ZM246.566 82.9095H239.898L238.803 91.5894H237.531L242.189 52.2993H244.25L249.01 91.5894H247.597L246.566 82.9095ZM243.168 55.2809L240.114 80.6071H246.35L243.168 55.2809ZM259.916 91.5779L254.036 73.1589L252.548 77.3952V91.5779H251.148V52.3569H252.548V73.0783L259.521 52.3569H260.998L254.902 70.6263L261.392 91.5779H259.916ZM263.416 81.9885V61.9118C263.329 59.4788 263.716 57.0511 264.561 54.7398C265.363 52.9094 266.546 52 268.061 52C269.575 52 270.848 52.9094 271.637 54.7053C272.521 57.0207 272.926 59.4636 272.833 61.9118V81.9885C272.929 84.4482 272.524 86.9028 271.637 89.2295C270.848 91.0253 269.651 91.9002 268.061 91.9002C266.47 91.9002 265.363 90.9908 264.561 89.1949C263.718 86.8714 263.331 84.4327 263.416 81.9885ZM264.815 61.7506V82.1497C264.738 83.9814 265.01 85.8115 265.617 87.5603C266.152 88.9072 266.89 89.5518 268.061 89.5518C269.231 89.5518 270.046 88.9072 270.606 87.5603C271.217 85.812 271.497 83.9825 271.433 82.1497V61.7506C271.499 59.9252 271.22 58.103 270.606 56.363C270.059 55.0276 269.231 54.383 268.061 54.383C266.89 54.383 266.152 55.0276 265.617 56.363C265.007 58.1034 264.736 59.9263 264.815 61.7506ZM286.793 56.7314L282.314 91.5088H280.914L276.396 56.8235V91.5779H275.123V52.3569H277.147L281.614 87.0422L286.093 52.3569H288.104V91.5779H286.831L286.793 56.7314ZM291.985 68.4735H294.531C295.341 68.4646 296.136 68.6805 296.807 69.0921C297.478 69.5037 297.994 70.0913 298.285 70.7759C299.257 72.996 299.691 75.3789 299.557 77.7636V82.0345C299.557 88.4006 298.043 91.5664 294.938 91.5664H290.573V52.3569H291.985V68.4735ZM291.985 89.1949H294.912C297.076 89.1949 298.119 86.8926 298.119 82.1842V77.5794C298.227 75.8163 297.946 74.0514 297.292 72.3876C297.068 71.9019 296.687 71.4889 296.199 71.2032C295.71 70.9176 295.138 70.7726 294.556 70.7874H292.011L291.985 89.1949ZM307.257 91.4973H305.844V54.6592H301.479V52.3569H311.66V54.6592H307.295L307.257 91.4973ZM315.083 70.419H320.924V72.7214H315.083V89.1029H322.121V91.4052H313.671V52.3569H322.121V54.6592H315.083V70.419ZM325.455 54.7398C326.218 52.9094 327.376 52 328.954 52C330.533 52 331.665 52.9094 332.416 54.7398C333.271 57.049 333.663 59.4778 333.574 61.9118V65.1811H332.2V61.7276C332.263 59.9072 332.009 58.0892 331.449 56.34C330.902 55.0046 330.176 54.36 328.993 54.36C327.809 54.36 327.046 55.0046 326.537 56.34C325.949 58.0845 325.682 59.9047 325.748 61.7276V82.1266C325.748 87.023 326.829 89.4712 328.993 89.4712C331.118 89.4712 332.2 87.0192 332.2 82.1266V77.5219H333.574V82C333.661 84.4452 333.269 86.885 332.416 89.2065C331.665 91.0023 330.507 91.9118 328.954 91.9118C327.402 91.9118 326.218 91.0023 325.455 89.2065C324.622 86.8813 324.243 84.4427 324.335 82V61.9118C324.242 59.4803 324.621 57.0528 325.455 54.7398ZM337.252 68.4735H339.886C340.707 68.456 341.514 68.6677 342.197 69.0796C342.88 69.4916 343.406 70.0838 343.704 70.7759C344.676 72.996 345.11 75.3789 344.977 77.7636V82.0345C344.977 88.4006 343.424 91.5664 340.37 91.5664H335.967V52.3569H337.366L337.252 68.4735ZM337.252 89.1949H340.255C342.38 89.1949 343.462 86.8926 343.462 82.1842V77.5794C343.574 75.8133 343.28 74.0453 342.597 72.3876C342.373 71.9065 341.996 71.497 341.512 71.2118C341.029 70.9267 340.463 70.7788 339.886 70.7874H337.252V89.1949Z" fill="white" fill-opacity="0.6"/>
<path d="M8.30473 4.91934L5.07227 21.1867L1.5204 39.6198H0V0.380169H1.27765V33.9516L4.39512 17.9147L7.87033 0.380169H9.5696V39.6313H8.29195L8.30473 4.91934ZM23.6365 4.75807L19.2031 39.5622H17.7849L13.2748 4.85022V39.6313H11.9971V0.380169H14.0158L18.5132 35.0922L22.9977 0.380169H25.0292V39.6313H23.7515L23.6365 4.75807ZM28.8493 18.583H34.7393V20.8871H28.9005V37.2811H35.9275V39.5852H27.495V0.380169H35.9275V2.68432H28.9005L28.8493 18.583ZM48.0141 0.0691215C49.5728 0.0691215 50.7611 0.979267 51.5276 2.7765C52.4104 5.09454 52.8132 7.53916 52.7159 9.98849V30.0806C52.8159 32.5414 52.4131 34.9978 51.5276 37.3272C50.7611 39.1244 49.5728 40 48.0141 40C46.4554 40 45.2288 39.1244 44.4239 37.3272C43.5672 34.992 43.1737 32.539 43.2612 30.0806V21.2327H39.6583V39.6659H38.2528V0.380169H39.6583V18.8133H43.3507V9.93087C43.2657 7.48397 43.6593 5.04269 44.5133 2.71888C45.3183 0.921642 46.5065 0.011532 48.1035 0.011532L48.0141 0.0691215ZM48.0141 2.45392C45.8038 2.45392 44.6794 4.89631 44.6794 9.82719V30.2419C44.6794 35.1728 45.8038 37.6498 48.0141 37.6498C49.1384 37.6498 49.9689 37.0046 50.5055 35.6567C51.1156 33.9066 51.3878 32.0751 51.3104 30.2419V9.78109C51.39 7.95541 51.1176 6.13113 50.5055 4.3894C49.9689 3.05299 49.1384 2.40783 48.0141 2.40783V2.45392ZM60.5479 39.6313H59.1808V2.76497H54.7984V0.460822H65.0196V2.76497H60.5479V39.6313ZM68.0732 2.76497C68.8015 0.933173 70.0025 0.023029 71.5612 0.023029C73.1199 0.023029 74.3081 0.933173 75.062 2.76497C75.8868 5.08236 76.267 7.50968 76.1863 9.9424V13.2143H74.8959V9.75807C74.9491 7.93439 74.6817 6.11464 74.1037 4.36637C73.5927 3.02996 72.8261 2.3848 71.6379 2.3848C70.4496 2.3848 69.6831 3.02996 69.1848 4.36637C68.5832 6.11021 68.3111 7.93285 68.3799 9.75807V30.1728C68.3799 35.073 69.4659 37.523 71.6379 37.523C73.8099 37.523 74.8959 35.073 74.8959 30.1728V25.5645H76.2374V30.0461C76.3167 32.4901 75.9366 34.9285 75.1131 37.2581C74.3593 39.0553 73.1966 39.9654 71.6123 39.9654C70.028 39.9654 68.8526 39.0553 68.1243 37.2581C67.2782 34.9328 66.8891 32.4921 66.9744 30.0461V9.9424C66.8872 7.5076 67.2765 5.07797 68.1243 2.76497H68.0732ZM86.4714 22.0622H84.2866C83.6793 22.0344 83.0754 22.1599 82.5428 22.4244C82.0102 22.689 81.5699 23.0822 81.2713 23.5599C80.4525 25.1869 80.1052 26.9747 80.262 28.7558V34.9309C80.3361 36.5097 80.1771 38.0903 79.7893 39.6313H78.3072C78.7367 38.0961 78.9174 36.5128 78.8438 34.9309V28.8018C78.8438 24.2972 79.8659 21.6129 81.9229 20.7949C79.8702 19.9501 78.8438 17.2427 78.8438 12.6728V9.21659C78.8438 3.30645 80.3642 0.368672 83.4433 0.368672H87.9407V39.6313H86.5225L86.4714 22.0622ZM86.4714 2.73041H83.5456C81.3736 2.73041 80.3259 5.03455 80.3259 9.45851V13.1452C80.3259 15.6567 80.6581 17.3963 81.3097 18.3065C81.6216 18.7644 82.0658 19.1371 82.5947 19.3847C83.1237 19.6323 83.7173 19.7454 84.3121 19.712H86.5864L86.4714 2.73041ZM103.17 2.73041H96.5265V39.5968H95.1083V0.380169H104.678V39.6313H103.221L103.17 2.73041ZM107.08 0.426262H111.501C114.58 0.426262 116.1 3.59446 116.1 9.96543V14.2051C116.1 20.4147 114.477 23.5138 111.143 23.5138H108.46V39.6429H107.131L107.08 0.426262ZM108.46 21.1636H111.143C111.723 21.1863 112.297 21.044 112.783 20.7566C113.269 20.4693 113.643 20.0515 113.851 19.5622C114.54 17.9042 114.827 16.1327 114.695 14.3664V9.75807C114.695 5.0576 113.634 2.74194 111.501 2.74194H108.511L108.46 21.1636ZM118.132 30.0806V9.9424C118.036 7.50446 118.439 5.07147 119.32 2.76497C120.086 0.933173 121.275 0.023029 122.833 0.023029C124.392 0.023029 125.631 0.933174 126.385 2.73041C127.279 5.04618 127.686 7.49199 127.586 9.9424V30.0346C127.689 32.4964 127.282 34.954 126.385 37.2811C125.631 39.0783 124.43 39.9539 122.833 39.9539C121.236 39.9539 120.086 39.0438 119.32 37.2465C118.44 34.9278 118.037 32.4837 118.132 30.0346V30.0806ZM119.537 9.82719V30.2419C119.46 32.0751 119.732 33.9066 120.342 35.6567C120.879 37.0046 121.709 37.6498 122.897 37.6498C124.085 37.6498 124.89 37.0046 125.452 35.6567C126.051 33.9046 126.319 32.0741 126.245 30.2419V9.78109C126.321 7.95638 126.053 6.13324 125.452 4.3894C124.903 3.05299 124.034 2.40783 122.897 2.40783C121.76 2.40783 120.942 3.05299 120.342 4.3894C119.73 6.13113 119.457 7.95541 119.537 9.78109V9.82719ZM135.38 39.6313H133.974V2.76497H129.541V0.460822H139.762V2.76497H135.38V39.6313ZM150.124 4.91934L146.904 21.1867L143.391 39.6198H141.87V0.380169H143.148V33.9516L146.304 17.9147L149.741 0.380169H151.44V39.6313H150.162L150.124 4.91934ZM153.855 0.380169H158.339C159.071 0.351898 159.793 0.535829 160.4 0.904909C161.007 1.27399 161.467 1.80878 161.712 2.43086C162.504 4.45535 162.847 6.60047 162.722 8.74423V10.9562C162.797 12.7286 162.59 14.5015 162.108 16.2212C161.971 16.7576 161.7 17.259 161.318 17.6879C160.935 18.1169 160.45 18.4622 159.898 18.6982C162.07 19.4816 163.13 22.2926 163.13 27.1198V30.576C163.13 36.6129 161.572 39.6544 158.454 39.6544H153.816L153.855 0.380169ZM155.273 17.6613H157.649C158.207 17.6995 158.766 17.5983 159.264 17.3686C159.762 17.1389 160.181 16.7897 160.473 16.3595C161.17 14.8081 161.454 13.1313 161.303 11.4631V8.9401C161.388 7.33979 161.167 5.73829 160.652 4.20506C160.496 3.75791 160.181 3.36929 159.756 3.09876C159.332 2.82824 158.82 2.69076 158.301 2.70738H155.26L155.273 17.6613ZM155.273 37.2465H158.454C160.626 37.2465 161.712 34.9424 161.712 30.4493V26.9585C161.851 25.1456 161.541 23.3277 160.805 21.6359C160.548 21.1453 160.135 20.7345 159.619 20.4556C159.102 20.1766 158.506 20.0422 157.905 20.0691H155.273V37.2465ZM165.341 30V9.9424C165.245 7.50446 165.648 5.07147 166.529 2.76497C167.321 0.933173 168.484 0.023029 170.042 0.023029C171.601 0.023029 172.828 0.933174 173.633 2.73041C174.482 5.05509 174.871 7.49623 174.783 9.9424V30.0346C174.874 32.4922 174.485 34.9451 173.633 37.2811C172.828 39.0783 171.64 39.9539 170.042 39.9539C168.445 39.9539 167.321 39.0438 166.529 37.2465C165.649 34.9278 165.247 32.4837 165.341 30.0346V30ZM166.746 9.74653V30.1613C166.69 31.9927 166.958 33.8204 167.538 35.576C168.088 36.924 168.918 37.5691 170.094 37.5691C171.269 37.5691 172.087 36.924 172.649 35.576C173.248 33.8239 173.515 31.9935 173.441 30.1613V9.78109C173.517 7.95638 173.25 6.13324 172.649 4.3894C172.1 3.05299 171.231 2.40783 170.094 2.40783C168.956 2.40783 168.139 3.05299 167.538 4.3894C166.956 6.13688 166.689 7.95723 166.746 9.78109V9.74653ZM185.221 2.69585H178.513V39.5622H177.108V0.380169H186.665V39.6313H185.221V2.69585ZM189.054 30V9.9424C188.962 7.5037 189.369 5.07055 190.255 2.76497C191.022 0.933173 192.21 0.023029 193.768 0.023029C195.327 0.023029 196.515 0.933174 197.32 2.73041C198.203 5.04845 198.606 7.49306 198.509 9.9424V30.0346C198.609 32.4953 198.206 34.9517 197.32 37.2811C196.515 39.0783 195.366 39.9539 193.768 39.9539C192.171 39.9539 191.022 39.0438 190.255 37.2465C189.37 34.9287 188.963 32.4845 189.054 30.0346V30ZM190.472 9.74653V30.1613C190.398 31.9935 190.666 33.8239 191.264 35.576C191.814 36.924 192.606 37.5691 193.82 37.5691C195.033 37.5691 195.774 36.924 196.375 35.576C196.989 33.8264 197.27 31.9955 197.205 30.1613V9.78109C197.272 7.95428 196.991 6.13068 196.375 4.3894C195.825 3.05299 194.995 2.40783 193.82 2.40783C192.644 2.40783 191.865 3.05299 191.264 4.3894C190.664 6.13324 190.396 7.95638 190.472 9.78109V9.74653ZM209.637 39.5968L203.721 21.1636L202.239 25.4032V39.6313H200.834V0.380169H202.239V21.1175L209.228 0.380169H210.723L204.565 18.6636L211.119 39.6313L209.637 39.5968ZM221.941 30.9101H215.284L214.198 39.5968H212.92L217.597 0.276486H219.666L224.445 39.5968H223.027L221.941 30.9101ZM218.58 3.26035L215.501 28.606H221.762L218.58 3.26035ZM227.665 2.67282C228.431 0.910147 229.581 0 231.14 0C232.698 0 233.899 0.910145 234.653 2.70738C235.499 5.03241 235.879 7.47428 235.778 9.91934V10.9332C235.812 12.6551 235.558 14.3719 235.024 16.0253C234.686 17.2099 233.933 18.2645 232.877 19.0322C233.977 19.697 234.753 20.7146 235.049 21.8779C235.58 23.5316 235.825 25.2491 235.778 26.97V30.0115C235.882 32.468 235.501 34.9217 234.653 37.2581C233.899 39.0553 232.737 39.9309 231.14 39.9309C229.543 39.9309 228.431 39.0553 227.665 37.2581C226.823 34.9204 226.442 32.4677 226.54 30.0115V26.7742H227.882V30.1728C227.817 31.9954 228.076 33.8156 228.648 35.5645C229.185 36.9009 230.015 37.5806 231.204 37.5806C233.35 37.5806 234.436 35.0346 234.436 29.9424V26.9585C234.506 25.3134 234.21 23.6722 233.567 22.1313C232.941 20.9793 232.149 20.3341 231.14 20.3341H229.939V18.0299H231.216C232.162 18.0299 232.954 17.4078 233.542 16.129C234.198 14.667 234.507 13.0971 234.449 11.5207V10.0461C234.449 4.95392 233.363 2.44239 231.216 2.44239C230.092 2.44239 229.262 3.08755 228.661 4.42396C228.049 6.16569 227.777 7.98997 227.856 9.81566V11.9701H226.579V9.95393C226.489 7.50568 226.87 5.06189 227.703 2.73041L227.665 2.67282ZM246.931 30.9217H240.237L239.151 39.6083H237.873L242.536 0.288019H244.53L249.308 39.6083H247.89L246.931 30.9217ZM243.571 3.27189L240.454 28.6175H246.714L243.571 3.27189ZM259.644 21.1751H252.949V39.6083H251.531V0.380169H252.949V18.8133H259.644V0.380169H261.101V39.6313H259.606L259.644 21.1751ZM271.82 4.90785L268.588 21.1751L265.074 39.6083H263.554V0.380169H264.831V33.9516L267.936 17.9147L271.36 0.380169H273.072V39.6313H271.795L271.82 4.90785ZM283.511 22.0507H281.262C280.657 22.0277 280.057 22.1553 279.528 22.4195C278.998 22.6837 278.559 23.0743 278.259 23.5484C277.432 25.1729 277.084 26.9628 277.25 28.7443V34.9194C277.318 36.498 277.159 38.0779 276.777 39.6198H275.334C275.727 38.0793 275.894 36.4991 275.832 34.9194V28.8018C275.832 24.2972 276.88 21.6129 278.949 20.7949C276.88 19.9539 275.832 17.2465 275.832 12.6728V9.21659C275.832 3.30645 277.352 0.368672 280.431 0.368672H284.929V39.6313H283.511V22.0507ZM283.511 2.71888H280.431C278.298 2.71888 277.212 5.02306 277.212 9.44702V13.1336C277.212 15.6452 277.531 17.3848 278.183 18.2949C278.498 18.7529 278.944 19.1254 279.475 19.3729C280.006 19.6203 280.602 19.7335 281.198 19.7005H283.472L283.511 2.71888ZM287.382 34.7235H288.723V39.6198H287.382V34.7235Z" fill="white" fill-opacity="0.6"/>
</svg>
