<svg width="1920" height="365" viewBox="0 0 1920 365" fill="none" xmlns="http://www.w3.org/2000/svg">
<path fill-rule="evenodd" clip-rule="evenodd" d="M1920 6.10352e-05L4.38063e-07 7.62889e-05L-1.92343e-05 225.026C26.6538 231.577 47.12 236.736 65.2661 241.311C129.809 257.584 164.999 266.456 344.865 304.196C563.523 350.123 623.715 283.145 693.991 204.948C734.03 160.395 777.342 112.201 855.099 79.17C989.502 22.0226 1100.59 52.502 1170.8 86.2981C1194.27 97.5872 1210.47 108.257 1224.09 117.236C1261.62 141.968 1279.67 153.862 1376.74 130.487L1920 6.10352e-05ZM1920 365L-3.14712e-05 365L-3.14713e-05 365L1920 365L1920 365Z" fill="white"/>
</svg>
