<svg width="61" height="60" viewBox="0 0 61 60" fill="none" xmlns="http://www.w3.org/2000/svg">
<mask id="mask0_1264_2889" style="mask-type:alpha" maskUnits="userSpaceOnUse" x="0" y="0" width="61" height="60">
<rect x="0.333496" width="60" height="60" fill="#D9D9D9"/>
</mask>
<g mask="url(#mask0_1264_2889)">
<path d="M25.3335 38.9425L39.276 30L25.3335 21.0575V38.9425ZM30.3416 52.5C27.2304 52.5 24.3052 51.9096 21.566 50.7288C18.8272 49.5479 16.4447 47.9454 14.4185 45.9212C12.3922 43.8971 10.7883 41.5167 9.60662 38.78C8.42454 36.0438 7.8335 33.1198 7.8335 30.0081C7.8335 26.8969 8.42391 23.9717 9.60475 21.2325C10.7856 18.4937 12.3881 16.1112 14.4122 14.085C16.4364 12.0587 18.8168 10.4548 21.5535 9.27312C24.2897 8.09104 27.2137 7.5 30.3254 7.5C33.4366 7.5 36.3618 8.09042 39.101 9.27125C41.8397 10.4521 44.2222 12.0546 46.2485 14.0788C48.2747 16.1029 49.8787 18.4833 51.0604 21.22C52.2425 23.9563 52.8335 26.8802 52.8335 29.9919C52.8335 33.1031 52.2431 36.0283 51.0622 38.7675C49.8814 41.5062 48.2789 43.8888 46.2547 45.915C44.2306 47.9412 41.8502 49.5452 39.1135 50.7269C36.3772 51.909 33.4533 52.5 30.3416 52.5ZM30.3335 50C35.9168 50 40.646 48.0625 44.521 44.1875C48.396 40.3125 50.3335 35.5833 50.3335 30C50.3335 24.4167 48.396 19.6875 44.521 15.8125C40.646 11.9375 35.9168 10 30.3335 10C24.7502 10 20.021 11.9375 16.146 15.8125C12.271 19.6875 10.3335 24.4167 10.3335 30C10.3335 35.5833 12.271 40.3125 16.146 44.1875C20.021 48.0625 24.7502 50 30.3335 50Z" fill="#6F2782"/>
</g>
</svg>
