<svg width="60" height="60" viewBox="0 0 60 60" fill="none" xmlns="http://www.w3.org/2000/svg">
<mask id="mask0_1264_2882" style="mask-type:alpha" maskUnits="userSpaceOnUse" x="0" y="0" width="60" height="60">
<rect width="60" height="60" fill="#D9D9D9"/>
</mask>
<g mask="url(#mask0_1264_2882)">
<path d="M11.5387 50C10.3879 50 9.42708 49.6146 8.65625 48.8438C7.88542 48.0729 7.5 47.1121 7.5 45.9613V14.0387C7.5 12.8879 7.88542 11.9271 8.65625 11.1562C9.42708 10.3854 10.3879 10 11.5387 10H48.4613C49.6121 10 50.5729 10.3854 51.3438 11.1562C52.1146 11.9271 52.5 12.8879 52.5 14.0387V45.9613C52.5 47.1121 52.1146 48.0729 51.3438 48.8438C50.5729 49.6146 49.6121 50 48.4613 50H11.5387ZM11.5387 47.5H48.4613C48.8463 47.5 49.199 47.3398 49.5194 47.0194C49.8398 46.699 50 46.3463 50 45.9613V14.0387C50 13.6537 49.8398 13.301 49.5194 12.9806C49.199 12.6602 48.8463 12.5 48.4613 12.5H11.5387C11.1537 12.5 10.801 12.6602 10.4806 12.9806C10.1602 13.301 10 13.6537 10 14.0387V45.9613C10 46.3463 10.1602 46.699 10.4806 47.0194C10.801 47.3398 11.1537 47.5 11.5387 47.5ZM16.9231 40.5769H43.0769V38.0769H16.9231V40.5769ZM16.9231 31.25H25.3844V19.4231H16.9231V31.25ZM31.3463 31.25H43.0769V28.75H31.3463V31.25ZM31.3463 21.9231H43.0769V19.4231H31.3463V21.9231Z" fill="#6F2782"/>
</g>
</svg>
