<svg width="61" height="60" viewBox="0 0 61 60" fill="none" xmlns="http://www.w3.org/2000/svg">
<mask id="mask0_1264_2896" style="mask-type:alpha" maskUnits="userSpaceOnUse" x="0" y="0" width="61" height="60">
<rect x="0.666748" width="60" height="60" fill="#D9D9D9"/>
</mask>
<g mask="url(#mask0_1264_2896)">
<path d="M30.7367 43.0769C31.2892 43.0769 31.7555 42.886 32.1355 42.5044C32.5155 42.1227 32.7055 41.6556 32.7055 41.1031C32.7055 40.5502 32.5147 40.084 32.133 39.7044C31.7513 39.3244 31.284 39.1344 30.7311 39.1344C30.1786 39.1344 29.7124 39.3252 29.3324 39.7069C28.9528 40.0885 28.763 40.5558 28.763 41.1087C28.763 41.6612 28.9538 42.1275 29.3355 42.5075C29.7172 42.8871 30.1842 43.0769 30.7367 43.0769ZM29.4455 34.7981H31.8592C31.9234 33.7115 32.1276 32.8283 32.4717 32.1488C32.8163 31.4696 33.5255 30.6027 34.5992 29.5481C35.7147 28.4327 36.5449 27.4335 37.0899 26.5506C37.6349 25.6677 37.9074 24.6456 37.9074 23.4844C37.9074 21.514 37.2151 19.9438 35.8305 18.7738C34.4459 17.6042 32.808 17.0194 30.9167 17.0194C29.1188 17.0194 27.5924 17.5081 26.3374 18.4856C25.0828 19.4631 24.1638 20.5865 23.5805 21.8556L25.878 22.8075C26.2788 21.8975 26.8517 21.0931 27.5967 20.3944C28.3422 19.6956 29.4167 19.3462 30.8205 19.3462C32.4422 19.3462 33.6265 19.7908 34.3736 20.68C35.1203 21.5696 35.4936 22.5481 35.4936 23.6156C35.4936 24.481 35.2597 25.2542 34.7917 25.935C34.3238 26.6163 33.7149 27.3015 32.9649 27.9906C31.5161 29.3269 30.5674 30.4598 30.1186 31.3894C29.6699 32.319 29.4455 33.4552 29.4455 34.7981ZM30.6749 52.5C27.5636 52.5 24.6384 51.9096 21.8992 50.7288C19.1605 49.5479 16.778 47.9454 14.7517 45.9212C12.7255 43.8971 11.1215 41.5167 9.93987 38.78C8.75779 36.0438 8.16675 33.1198 8.16675 30.0081C8.16675 26.8969 8.75716 23.9717 9.938 21.2325C11.1188 18.4937 12.7213 16.1112 14.7455 14.085C16.7697 12.0587 19.1501 10.4548 21.8867 9.27312C24.623 8.09104 27.547 7.5 30.6586 7.5C33.7699 7.5 36.6951 8.09042 39.4342 9.27125C42.173 10.4521 44.5555 12.0546 46.5817 14.0788C48.608 16.1029 50.212 18.4833 51.3936 21.22C52.5757 23.9563 53.1667 26.8802 53.1667 29.9919C53.1667 33.1031 52.5763 36.0283 51.3955 38.7675C50.2147 41.5062 48.6122 43.8888 46.588 45.915C44.5638 47.9412 42.1834 49.5452 39.4467 50.7269C36.7105 51.909 33.7865 52.5 30.6749 52.5ZM30.6667 50C36.2501 50 40.9792 48.0625 44.8542 44.1875C48.7292 40.3125 50.6667 35.5833 50.6667 30C50.6667 24.4167 48.7292 19.6875 44.8542 15.8125C40.9792 11.9375 36.2501 10 30.6667 10C25.0834 10 20.3542 11.9375 16.4792 15.8125C12.6042 19.6875 10.6667 24.4167 10.6667 30C10.6667 35.5833 12.6042 40.3125 16.4792 44.1875C20.3542 48.0625 25.0834 50 30.6667 50Z" fill="#6F2782"/>
</g>
</svg>
