<svg width="76" height="77" viewBox="0 0 76 77" fill="none" xmlns="http://www.w3.org/2000/svg">
<mask id="mask0_184_1581" style="mask-type:alpha" maskUnits="userSpaceOnUse" x="0" y="0" width="76" height="77">
<rect y="0.4375" width="76" height="76" fill="#D9D9D9"/>
</mask>
<g mask="url(#mask0_184_1581)">
<path d="M26.9167 52.6875H49.0833V49.5208H26.9167V52.6875ZM34.675 42.5786L50.3744 26.8792L48.115 24.6564L34.6955 38.0964L27.8667 31.2881L25.6256 33.5292L34.675 42.5786ZM38.0106 66.9375C34.0695 66.9375 30.3643 66.1897 26.8948 64.694C23.4254 63.1983 20.4074 61.1684 17.8409 58.6043C15.2745 56.0403 13.2427 53.0252 11.7456 49.559C10.2485 46.0928 9.5 42.3891 9.5 38.4481C9.5 34.507 10.2478 30.8018 11.7435 27.3323C13.2392 23.8629 15.2691 20.8449 17.8332 18.2784C20.3972 15.712 23.4123 13.6802 26.8785 12.1831C30.3447 10.686 34.0484 9.9375 37.9894 9.9375C41.9305 9.9375 45.6357 10.6853 49.1052 12.181C52.5746 13.6767 55.5926 15.7066 58.1591 18.2707C60.7255 20.8347 62.7573 23.8498 64.2544 27.316C65.7515 30.7822 66.5 34.4859 66.5 38.4269C66.5 42.368 65.7522 46.0732 64.2565 49.5427C62.7608 53.0121 60.7309 56.0301 58.1668 58.5966C55.6028 61.163 52.5877 63.1948 49.1215 64.6919C45.6553 66.189 41.9516 66.9375 38.0106 66.9375ZM38 63.7708C45.0722 63.7708 51.0625 61.3167 55.9708 56.4083C60.8792 51.5 63.3333 45.5097 63.3333 38.4375C63.3333 31.3653 60.8792 25.375 55.9708 20.4667C51.0625 15.5583 45.0722 13.1042 38 13.1042C30.9278 13.1042 24.9375 15.5583 20.0292 20.4667C15.1208 25.375 12.6667 31.3653 12.6667 38.4375C12.6667 45.5097 15.1208 51.5 20.0292 56.4083C24.9375 61.3167 30.9278 63.7708 38 63.7708Z" fill="#EE8F9F"/>
</g>
</svg>
