<svg width="76" height="77" viewBox="0 0 76 77" fill="none" xmlns="http://www.w3.org/2000/svg">
<mask id="mask0_184_1599" style="mask-type:alpha" maskUnits="userSpaceOnUse" x="0" y="0" width="76" height="77">
<rect y="0.4375" width="76" height="76" fill="#D9D9D9"/>
</mask>
<g mask="url(#mask0_184_1599)">
<path d="M48.4887 34.0529C49.4738 34.0529 50.3064 33.7081 50.9864 33.0185C51.6664 32.3289 52.0064 31.4916 52.0064 30.5065C52.0064 29.5214 51.6616 28.6888 50.9721 28.0088C50.2825 27.3288 49.4452 26.9888 48.4601 26.9888C47.475 26.9888 46.6424 27.3336 45.9623 28.0231C45.2823 28.7127 44.9423 29.5501 44.9423 30.5352C44.9423 31.5203 45.2871 32.3528 45.9767 33.0329C46.6663 33.7129 47.5036 34.0529 48.4887 34.0529ZM27.5399 34.0529C28.525 34.0529 29.3576 33.7081 30.0377 33.0185C30.7177 32.3289 31.0577 31.4916 31.0577 30.5065C31.0577 29.5214 30.7129 28.6888 30.0233 28.0088C29.3337 27.3288 28.4964 26.9888 27.5113 26.9888C26.5262 26.9888 25.6936 27.3336 25.0136 28.0231C24.3336 28.7127 23.9936 29.5501 23.9936 30.5352C23.9936 31.5203 24.3384 32.3528 25.0279 33.0329C25.7175 33.7129 26.5548 34.0529 27.5399 34.0529ZM38 53.9055C41.0205 53.9055 43.8025 53.0722 46.346 51.4056C48.8895 49.7391 50.8007 47.5275 52.0795 44.7708H48.925C47.7639 46.7236 46.2201 48.2674 44.2938 49.4021C42.3674 50.5368 40.2694 51.1042 38 51.1042C35.7306 51.1042 33.6326 50.5368 31.7063 49.4021C29.7799 48.2674 28.2361 46.7236 27.075 44.7708H23.9205C25.1993 47.5275 27.1105 49.7391 29.654 51.4056C32.1975 53.0722 34.9795 53.9055 38 53.9055ZM38.0106 66.9375C34.0695 66.9375 30.3643 66.1897 26.8948 64.694C23.4254 63.1983 20.4074 61.1684 17.8409 58.6043C15.2745 56.0403 13.2427 53.0252 11.7456 49.559C10.2485 46.0928 9.5 42.3891 9.5 38.4481C9.5 34.507 10.2478 30.8018 11.7435 27.3323C13.2392 23.8629 15.2691 20.8449 17.8332 18.2784C20.3972 15.712 23.4123 13.6802 26.8785 12.1831C30.3447 10.686 34.0484 9.9375 37.9894 9.9375C41.9305 9.9375 45.6357 10.6853 49.1052 12.181C52.5746 13.6767 55.5926 15.7066 58.1591 18.2707C60.7255 20.8347 62.7573 23.8498 64.2544 27.316C65.7515 30.7822 66.5 34.4859 66.5 38.4269C66.5 42.368 65.7522 46.0732 64.2565 49.5427C62.7608 53.0121 60.7309 56.0301 58.1668 58.5966C55.6028 61.163 52.5877 63.1948 49.1215 64.6919C45.6553 66.189 41.9516 66.9375 38.0106 66.9375ZM38 63.7708C45.0722 63.7708 51.0625 61.3167 55.9708 56.4083C60.8792 51.5 63.3333 45.5097 63.3333 38.4375C63.3333 31.3653 60.8792 25.375 55.9708 20.4667C51.0625 15.5583 45.0722 13.1042 38 13.1042C30.9278 13.1042 24.9375 15.5583 20.0292 20.4667C15.1208 25.375 12.6667 31.3653 12.6667 38.4375C12.6667 45.5097 15.1208 51.5 20.0292 56.4083C24.9375 61.3167 30.9278 63.7708 38 63.7708Z" fill="#EE8F9F"/>
</g>
</svg>
