<svg width="76" height="77" viewBox="0 0 76 77" fill="none" xmlns="http://www.w3.org/2000/svg">
<mask id="mask0_184_1575" style="mask-type:alpha" maskUnits="userSpaceOnUse" x="0" y="0" width="76" height="77">
<rect y="0.4375" width="76" height="76" fill="#D9D9D9"/>
</mask>
<g mask="url(#mask0_184_1575)">
<path d="M19 70.4705V68.8871C19 61.5104 20.4899 55.7728 23.4698 51.6744C26.4498 47.576 30.4893 43.164 35.5884 38.4384C30.4487 33.7127 26.3889 29.3007 23.4089 25.2023C20.4291 21.1039 18.9391 15.3664 18.9391 7.98967V6.40625H22.1058V7.98967C22.1058 9.05736 22.1393 10.0753 22.2062 11.0436C22.2732 12.0119 22.394 12.9426 22.5686 13.8357H53.3705C53.5451 12.9426 53.6659 12.0119 53.7329 11.0436C53.7998 10.0753 53.8333 9.05736 53.8333 7.98967V6.40625H57V7.98967C57 15.3664 55.51 21.1039 52.5302 25.2023C49.5502 29.3007 45.5107 33.7127 40.4116 38.4384C45.5107 43.1234 49.5502 47.5253 52.5302 51.644C55.51 55.7627 57 61.5104 57 68.8871V70.4705H53.8333V68.8871C53.8333 67.8194 53.7998 66.8014 53.7329 65.8331C53.6659 64.8648 53.5451 63.9341 53.3705 63.041H22.6295C22.4549 63.9341 22.3341 64.8648 22.2671 65.8331C22.2002 66.8014 22.1667 67.8194 22.1667 68.8871V70.4705H19ZM27.6718 25.7717H48.2673C49.2376 24.4847 50.1054 23.1267 50.8707 21.6976C51.636 20.2685 52.25 18.7035 52.7128 17.0025H23.2263C23.7297 18.6914 24.3437 20.2432 25.0684 21.658C25.7931 23.0729 26.6609 24.4441 27.6718 25.7717ZM38 36.3313C39.4209 35.0281 40.7647 33.7655 42.0314 32.5434C43.2981 31.3215 44.4815 30.1198 45.5817 28.9384H30.3574C31.4576 30.1198 32.6512 31.3215 33.9381 32.5434C35.2251 33.7655 36.5791 35.0281 38 36.3313ZM30.4183 47.9384H45.5817C44.4815 46.7569 43.2981 45.5552 42.0314 44.3333C40.7647 43.1112 39.4209 41.8486 38 40.5455C36.5791 41.8486 35.2353 43.1112 33.9686 44.3333C32.7019 45.5552 31.5185 46.7569 30.4183 47.9384ZM23.2872 59.8742H52.7128C52.2094 58.1853 51.5954 56.6335 50.8707 55.2187C50.146 53.8038 49.2782 52.4326 48.2673 51.105H27.7327C26.7218 52.4326 25.8438 53.8008 25.0988 55.2095C24.3539 56.6183 23.75 58.1732 23.2872 59.8742Z" fill="#EE8F9F"/>
</g>
</svg>
