<svg width="53" height="40" viewBox="0 0 53 40" fill="none" xmlns="http://www.w3.org/2000/svg">
<path d="M46.7741 1.28933C46.5323 1.28755 46.2983 1.37478 46.1166 1.53441C45.935 1.69404 45.8184 1.91493 45.7891 2.15496C45.7891 13.8157 45.8488 25.4964 45.9681 37.1969C46.1412 37.5536 46.3621 37.885 46.6248 38.1819C47.0533 38.4251 47.5352 38.5584 48.0277 38.57C48.4493 38.5535 48.8571 38.415 49.2015 38.1713C49.5459 37.9275 49.8121 37.5891 49.9678 37.1969C50.1171 32.1824 50.1767 27.138 50.1469 22.1235H50.5349C50.9523 22.1528 51.3713 22.1528 51.7886 22.1235C51.935 22.1111 52.0763 22.064 52.2009 21.9862C52.3255 21.9083 52.4297 21.8019 52.5049 21.6758V6.03521C52.2281 4.71219 51.5104 3.52232 50.4694 2.66019C49.4283 1.79807 48.1256 1.31474 46.7741 1.28933ZM47.6695 20.3624V3.22951C48.3929 3.40548 49.054 3.77698 49.5804 4.30341C50.1068 4.82985 50.4784 5.49095 50.6544 6.21434C50.8036 10.9005 50.8334 15.5867 50.8036 20.2431H47.6099M47.968 36.7193C47.8463 36.7028 47.7321 36.651 47.6396 36.5701C47.6396 31.7049 47.6396 26.8694 47.6396 22.0041H48.3561C48.3561 26.7799 48.3561 31.5854 48.3561 36.3612C48.3561 36.6 48.177 36.7193 48.0576 36.7193" fill="#403AAC"/>
<path d="M7.87993 1.34912C7.40235 1.34912 7.13372 1.64758 7.04417 2.2147C7.04417 4.42348 7.04417 6.60244 7.04417 8.81122H6.32784C6.32784 6.48304 6.32784 4.125 6.32784 1.79683C6.27355 1.66889 6.18175 1.56046 6.0645 1.48585C5.94725 1.41123 5.81006 1.37395 5.67117 1.37895H5.49209C4.95482 1.37895 4.71607 1.64758 4.68622 2.2147C4.68622 4.42348 4.68622 6.60244 4.68622 8.81122H3.96979C3.96979 6.48304 3.96979 4.125 3.96979 1.79683C3.9155 1.66889 3.8237 1.56046 3.70645 1.48585C3.5892 1.41123 3.45202 1.37395 3.31313 1.37895H3.13404C2.59677 1.37895 2.35802 1.64758 2.32817 2.2147C2.32817 4.42348 2.32817 6.60244 2.32817 8.81122H1.61184C1.61184 6.48304 1.61184 4.125 1.61184 1.79683L1.43276 1.5282C1.23557 1.49032 1.03294 1.49032 0.835751 1.5282C0.674757 1.5345 0.51694 1.57502 0.372832 1.64708C0.228724 1.71913 0.101635 1.82106 0 1.94608V13.0795C0.152526 13.6334 0.439319 14.1411 0.835022 14.5577C1.23073 14.9742 1.72314 15.2867 2.26851 15.4674C2.26851 22.5116 2.31822 29.5658 2.41771 36.6299C2.42892 37.0643 2.56797 37.4857 2.81751 37.8414C3.06704 38.1971 3.41597 38.4714 3.82059 38.6298H4.5668C4.9965 38.6313 5.4162 38.5002 5.76873 38.2545C6.12126 38.0088 6.38948 37.6604 6.5368 37.2567C6.5368 29.9737 6.5368 22.6609 6.5368 15.3779C7.13483 15.273 7.6866 14.9882 8.11858 14.5615C8.55056 14.1349 8.84221 13.5867 8.95451 12.99C8.95451 9.28877 8.95451 5.58759 8.95451 1.85654C8.93796 1.76765 8.89484 1.68587 8.83091 1.62194C8.76697 1.558 8.68524 1.51493 8.59635 1.49837C8.44821 1.47275 8.29678 1.47275 8.14864 1.49837M3.76093 13.7959C1.70139 13.7959 0.776065 12.6915 1.31334 10.4529H6.98451C7.49193 12.6915 6.74576 13.7959 4.68622 13.7959H3.76093ZM4.14888 36.8388C4.14888 36.8388 3.91016 36.8389 3.85047 36.4807C3.85047 29.4663 3.85047 22.4519 3.85047 15.4077H4.5668C4.5668 22.5116 4.5668 29.5857 4.5668 36.6896C4.47434 36.7704 4.36021 36.8223 4.23851 36.8388" fill="#403AAC"/>
<path d="M26.0888 7.05073C23.6643 7.19265 21.3187 7.96424 19.2834 9.28936C17.1257 10.7673 15.4685 12.8665 14.5316 15.3082C13.5947 17.75 13.4224 20.4189 14.0377 22.9608C14.6529 25.5028 16.0265 27.7975 17.9763 29.5406C19.9261 31.2837 22.3598 32.3926 24.9545 32.7203H26.1187C28.7359 32.8208 31.3205 32.1126 33.5209 30.692C35.7213 29.2713 37.4306 27.2073 38.4162 24.7806C39.0851 22.9973 39.3749 21.0942 39.267 19.1926C39.159 17.2911 38.6558 15.4329 37.7894 13.7367C36.6314 11.6615 34.9309 9.9403 32.8698 8.7573C30.8087 7.5743 28.4648 6.97406 26.0888 7.02085M26.6858 30.8996C24.6987 30.9552 22.7341 30.4676 21.0037 29.4893C19.2732 28.511 17.8425 27.079 16.8656 25.3478C15.4532 22.8066 15.0938 19.8128 15.8647 17.0096C16.6355 14.2063 18.4751 11.8172 20.9882 10.3554C23.5013 8.89368 26.4875 8.47589 29.3053 9.19185C32.123 9.9078 34.5476 11.7004 36.0581 14.1845C36.9099 15.7184 37.4059 17.4242 37.5092 19.1758C37.6125 20.9273 37.3207 22.6796 36.6551 24.3031C35.8756 26.0621 34.6557 27.5905 33.1134 28.7408C31.571 29.891 29.7582 30.6243 27.8498 30.8697H26.6858" fill="#403AAC"/>
<path d="M42.5872 23.819C44.6964 14.8825 39.1618 5.92819 30.2253 3.81899C21.2888 1.70978 12.3345 7.24441 10.2253 16.1809C8.11608 25.1174 13.6507 34.0717 22.5872 36.1809C31.5237 38.2901 40.478 32.7555 42.5872 23.819Z" stroke="#403AAC" stroke-width="0.55"/>
</svg>
