<svg width="24" height="24" viewBox="0 0 24 24" fill="none" xmlns="http://www.w3.org/2000/svg">
<mask id="mask0_687_6899" style="mask-type:alpha" maskUnits="userSpaceOnUse" x="0" y="0" width="24" height="24">
<rect width="24" height="24" fill="#D9D9D9"/>
</mask>
<g mask="url(#mask0_687_6899)">
<path d="M7.30768 17.2694C5.84405 17.2694 4.60315 16.7569 3.58498 15.7319C2.5668 14.7069 2.05771 13.463 2.05771 12.0002C2.05771 10.5374 2.57021 9.29346 3.59521 8.26846C4.62019 7.24346 5.86409 6.73096 7.32691 6.73096H18.1346C19.187 6.73096 20.088 7.10568 20.8374 7.85513C21.5868 8.60456 21.9615 9.50548 21.9615 10.5579C21.9615 11.6103 21.5868 12.5112 20.8374 13.2606C20.088 14.0101 19.187 14.3848 18.1346 14.3848H8.38461C7.71693 14.3848 7.15257 14.1542 6.69153 13.6932C6.23052 13.2321 6.00001 12.6677 6.00001 11.9999C6.00001 11.3321 6.23052 10.7678 6.69153 10.3069C7.15257 9.84602 7.71693 9.61558 8.38461 9.61558H18.1346V10.8079H8.38461C8.04679 10.8079 7.76362 10.9221 7.53508 11.1507C7.30655 11.3792 7.19228 11.6624 7.19228 12.0002C7.19228 12.338 7.30655 12.6212 7.53508 12.8497C7.76362 13.0782 8.04679 13.1925 8.38461 13.1925H18.1346C18.8723 13.1925 19.4959 12.9377 20.0052 12.4282C20.5146 11.9187 20.7693 11.295 20.7693 10.5571C20.7693 9.81914 20.5146 9.19569 20.0052 8.68671C19.4959 8.17774 18.8723 7.92326 18.1346 7.92326H7.32691C6.20128 7.92326 5.24038 8.32133 4.44423 9.11748C3.64807 9.91363 3.24998 10.8729 3.24998 11.9954C3.24998 13.1179 3.64646 14.0788 4.43941 14.8781C5.23236 15.6774 6.18845 16.0771 7.30768 16.0771H18.1346V17.2694H7.30768Z" fill="#787B8E"/>
</g>
</svg>
