<svg width="38" height="38" viewBox="0 0 38 38" fill="none" xmlns="http://www.w3.org/2000/svg">
<mask id="mask0_687_6828" style="mask-type:alpha" maskUnits="userSpaceOnUse" x="0" y="0" width="38" height="38">
<rect width="38" height="38" fill="#D9D9D9"/>
</mask>
<g mask="url(#mask0_687_6828)">
<path d="M16.7225 25.1872L26.8497 15.06L25.7292 13.9394L16.7225 22.9461L12.21 18.4336L11.0894 19.5542L16.7225 25.1872ZM19.0053 33.25C17.0348 33.25 15.1821 32.8761 13.4474 32.1282C11.7127 31.3804 10.2037 30.3654 8.92046 29.0834C7.63725 27.8014 6.62137 26.2938 5.87282 24.5607C5.12427 22.8276 4.75 20.9758 4.75 19.0053C4.75 17.0348 5.12392 15.1821 5.87175 13.4474C6.61961 11.7127 7.63456 10.2037 8.91658 8.92046C10.1986 7.63725 11.7062 6.62137 13.4393 5.87282C15.1724 5.12427 17.0242 4.75 18.9947 4.75C20.9652 4.75 22.8179 5.12392 24.5526 5.87175C26.2873 6.61961 27.7963 7.63456 29.0795 8.91658C30.3628 10.1986 31.3786 11.7062 32.1272 13.4393C32.8757 15.1724 33.25 17.0242 33.25 18.9947C33.25 20.9652 32.8761 22.8179 32.1282 24.5526C31.3804 26.2873 30.3654 27.7963 29.0834 29.0795C27.8014 30.3628 26.2938 31.3786 24.5607 32.1272C22.8276 32.8757 20.9758 33.25 19.0053 33.25ZM19 31.6667C22.5361 31.6667 25.5312 30.4396 27.9854 27.9854C30.4396 25.5312 31.6667 22.5361 31.6667 19C31.6667 15.4639 30.4396 12.4688 27.9854 10.0146C25.5312 7.56042 22.5361 6.33333 19 6.33333C15.4639 6.33333 12.4688 7.56042 10.0146 10.0146C7.56042 12.4688 6.33333 15.4639 6.33333 19C6.33333 22.5361 7.56042 25.5312 10.0146 27.9854C12.4688 30.4396 15.4639 31.6667 19 31.6667Z" fill="#37AE35"/>
</g>
</svg>
