<svg width="38" height="38" viewBox="0 0 38 38" fill="none" xmlns="http://www.w3.org/2000/svg">
<mask id="mask0_687_6837" style="mask-type:alpha" maskUnits="userSpaceOnUse" x="0" y="0" width="38" height="38">
<rect width="38" height="38" fill="#D9D9D9"/>
</mask>
<g mask="url(#mask0_687_6837)">
<path d="M14.2865 33.6156L11.6436 29.1579L6.61346 28.0739L7.10671 22.8854L3.71474 19.0002L7.10671 15.1149L6.61346 9.92643L11.6436 8.84244L14.2865 4.38477L19 6.37613L23.7135 4.38477L26.3564 8.84244L31.3865 9.92643L30.8933 15.1149L34.2853 19.0002L30.8933 22.8854L31.3865 28.0739L26.3564 29.1579L23.7135 33.6156L19 31.6242L14.2865 33.6156ZM14.9625 31.5877L19 29.9069L23.0558 31.5877L25.3333 27.7877L29.6875 26.8194L29.2917 22.3252L32.2208 19.0002L29.2917 15.6569L29.6875 11.1627L25.3333 10.2127L23.0375 6.41266L19 8.09345L14.9442 6.41266L12.6667 10.2127L8.3125 11.1627L8.70833 15.6569L5.77917 19.0002L8.70833 22.3252L8.3125 26.8377L12.6667 27.7877L14.9625 31.5877ZM19 26.0643C19.2659 26.0643 19.4948 25.9684 19.6866 25.7765C19.8784 25.5847 19.9743 25.3558 19.9743 25.0899C19.9743 24.824 19.8784 24.5951 19.6866 24.4033C19.4948 24.2115 19.2659 24.1156 19 24.1156C18.7341 24.1156 18.5052 24.2115 18.3134 24.4033C18.1216 24.5951 18.0257 24.824 18.0257 25.0899C18.0257 25.3558 18.1216 25.5847 18.3134 25.7765C18.5052 25.9684 18.7341 26.0643 19 26.0643ZM18.2083 20.8271H19.7917V11.3271H18.2083V20.8271Z" fill="#BC3F46"/>
</g>
</svg>
