<svg width="1680" height="572" viewBox="0 0 1680 572" fill="none" xmlns="http://www.w3.org/2000/svg">
<g clip-path="url(#clip0_2632_11)">
<path d="M658 335.319C658 335.319 665.214 308.301 707.622 323.301C750.031 338.301 774.359 331.089 811.479 332.822C848.599 334.554 872.384 334.552 876.743 331.348C881.101 328.144 888.987 305.612 888.506 304.459C888.026 303.306 887.159 300.999 881.383 300.899C875.608 300.799 846.765 301.188 845.225 302.244C843.686 303.301 826.761 329.934 825.222 329.934C823.683 329.934 818.78 328.3 818.588 327.242C818.396 326.184 808.298 181.391 806.279 183.698C804.261 186.005 768.971 308.398 768.774 312.821C768.577 317.244 771.467 325.703 776.852 326.73C782.238 327.757 813.78 328.781 811.471 326.574C809.162 324.367 778.583 324.171 777.333 317.247C776.083 310.324 787.494 258.151 788.135 262.894C788.777 267.637 785.315 294.174 791.758 298.79C798.202 303.407 813.716 303.148 812.625 302.315C811.534 301.481 792.11 294.175 791.47 288.535C790.83 282.895 806.599 235.591 807.497 228.412C808.394 221.233 804.063 46.6023 805.029 42.7568C805.995 38.9112 808.714 37.6611 812.366 38.6225C816.017 39.5838 872.629 55.1659 873.11 58.9116C873.591 62.6573 878.784 246.362 878.271 247.515C877.757 248.668 823.906 325.97 822.751 324.559C821.596 323.148 811.468 54.7773 812.622 54.7773C813.775 54.7773 869.552 66.6995 869.936 68.8143C870.32 70.9291 874.649 227.549 873.494 230.146C872.339 232.743 825.7 290.525 825.7 291.101C825.7 291.677 824.932 314.56 828.009 311.292C831.086 308.024 870.128 253.989 870.898 253.989C871.668 253.989 1063.23 253.027 1064.96 254.374C1066.69 255.721 1072.14 264.18 1070.86 265.591C1069.57 267.002 1042.01 275.205 1044.83 276.744C1047.65 278.283 1052.39 279.692 1055.98 285.328C1059.57 290.964 1059.09 298.403 1058.61 298.884C1058.13 299.365 1050.05 304.365 1046.4 304.557C1042.74 304.749 1034.28 303.788 1033.9 301.48C1033.51 299.171 1030.66 292.763 1026.75 290.456C1022.84 288.15 1013.54 287.443 1009.63 292.186C1005.72 296.929 1004.12 304.621 1001.17 305.069C998.22 305.517 996.745 304.813 996.937 301.737C997.129 298.661 1004.18 282.957 1004.57 284.75C1004.95 286.544 996.361 292.571 995.201 295.903C994.042 299.235 992.509 305.267 990.713 304.621C988.918 303.975 986.481 290.968 989.11 285.136C991.739 279.303 1000.59 275.586 1003.92 275.264C1007.25 274.943 1013.54 271.227 1026.94 274.111C1040.34 276.995 1048.6 281.162 1050.59 284.238C1052.58 287.315 1055.02 301.544 1060.98 300.262C1066.94 298.981 1111.62 293.276 1112.78 289.559C1113.93 285.841 1109.32 241.742 1107.26 243.409C1105.21 245.076 1071.88 264.369 1073.9 265.522C1075.92 266.676 1106.78 249.947 1106.78 248.979C1106.78 248.011 1096.3 183.601 1102.07 177.063C1107.84 170.525 1106.24 179.434 1124.45 163.797C1142.65 148.161 1154.98 124.951 1164.47 121.621C1173.95 118.29 1154.14 112.071 1152.8 108.931C1151.45 105.791 1152.73 104.508 1150.3 104.249C1147.87 103.989 1133.7 103.031 1134.08 99.9551C1134.47 96.8789 1136.45 90.725 1133.63 85.0847C1130.81 79.4443 1120.75 80.3417 1117.03 87.0714C1113.31 93.8012 1114.14 99.6351 1111.45 106.941C1108.76 114.246 1111.07 119.185 1118.05 116.364C1125.04 113.544 1131.64 100.467 1131.64 93.4219C1131.64 86.3769 1123.89 83.3585 1121.07 87.9095C1118.25 92.4605 1108.18 102.074 1105.42 99.2543C1102.67 96.4341 1104.78 78.5188 1090.45 66.5981C1076.13 54.6774 1058.91 50.5416 1062.67 45.7346C1066.42 40.9276 1119.4 34.3883 1116.42 38.7114C1113.44 43.0346 1059.97 45.5379 1055.93 47.5575C1051.89 49.577 1040.16 41.3147 1035.35 25.0599C1030.54 8.80519 1113.05 -7.62904 1137.57 3.81249C1162.09 15.254 1174.47 38.5522 1169.34 53.8066C1164.21 69.0609 1154.08 82.394 1153.44 91.1074C1152.8 99.8208 1150.17 101.876 1145.75 99.4728C1141.32 97.0693 1137.67 97.3253 1137.99 95.4025C1138.31 93.4797 1143.64 79.0666 1141.9 78.4204C1140.16 77.7743 1133.82 82.138 1133.37 77.459C1132.92 72.7801 1133.05 66.1783 1129.91 66.6902C1126.77 67.2021 1130.07 49.1916 1126.42 53.6146C1122.77 58.0376 1090.84 56.8843 1107.66 49.577C1124.49 42.2698 1140.65 43.8024 1132.67 31.5977C1124.69 19.393 1119.4 11.6956 1119.11 19.4835C1118.82 27.2714 1121.51 28.8087 1116.9 28.9055C1112.28 29.0023 1102.57 15.1573 1099.01 21.8823C1095.45 28.6074 1100.64 30.5349 1094.78 30.9204C1088.91 31.3059 1053.52 39.8617 1050.16 51.1097C1046.79 62.3577 1045.42 65.2762 1046.18 70.9166C1046.95 76.557 1046.44 82.1974 1045.09 85.723C1043.74 89.2486 1037.33 98.2851 1038.55 101.939C1039.77 105.592 1045.35 105.288 1045.97 108.556C1046.6 111.824 1044.19 113.733 1046.37 116.008C1048.55 118.284 1048.74 120.013 1047.72 120.815C1046.69 121.618 1045.25 122.802 1045.57 124.661C1045.89 126.52 1047.08 125.558 1047.11 127.256C1047.14 128.955 1043.86 131.92 1046.02 137.353C1048.18 142.785 1064.91 144.22 1075.73 143.073C1086.55 141.926 1109.06 130.866 1107.28 131.35C1105.5 131.834 1082.62 138.609 1082.37 139.811C1082.13 141.013 1089.3 150.531 1095.02 156.396C1100.74 162.262 1104.54 170.911 1108.77 170.819C1113 170.727 1134.49 146.205 1144.4 137.072C1154.3 127.939 1155.94 112.747 1175.46 117.939C1194.99 123.132 1219.31 150.246 1223.54 162.453C1227.77 174.661 1226.24 181.009 1222.29 179.855C1218.35 178.702 1203.64 155.051 1180.37 156.108C1157.09 157.164 1143.64 180.333 1131.99 182.352C1120.35 184.372 1115.87 181.936 1115.42 183.475C1114.97 185.013 1115.45 245.23 1116.22 254.846C1116.99 264.461 1117.67 280.708 1119.59 277.44C1121.51 274.172 1119.3 188.313 1118.44 186.582C1117.57 184.851 1103.63 179.372 1107.28 178.699C1110.93 178.026 1129.69 175.623 1142.09 157.451C1154.5 139.28 1165.36 121.973 1187.77 130.626C1210.18 139.279 1228.45 193.409 1236.72 209.946C1244.99 226.483 1259.22 331.857 1248.07 368.008C1236.91 404.158 1189.79 391.275 1169.02 382.429C1148.24 373.583 1075.36 342.049 1065.16 341.279C1054.97 340.51 1054.49 341.952 1052.37 334.741C1050.26 327.531 1061.41 317.243 1057.66 312.436C1053.91 307.629 1021.89 299.841 1018.42 301.475C1014.96 303.109 1005.22 306.026 1006.82 306.667C1008.42 307.309 1015.15 308.526 1014.32 308.013C1013.49 307.499 995.601 305.256 992.267 307.949C988.932 310.641 978.484 317.692 980.091 318.846C981.697 319.999 992.593 311.602 999.324 312.244C1006.06 312.885 1014.13 314.358 1013.24 313.461C1012.34 312.564 980.348 318.782 980.86 322.627C981.372 326.473 989.708 324.422 997.593 322.563C1005.48 320.704 1013.36 320.512 1014.26 322.371C1015.16 324.23 988.425 326.73 985.862 327.948C983.299 329.165 984.259 332.818 988.618 333.844C992.978 334.869 1022.08 335.767 1021.95 336.856C1021.83 337.945 963.294 340.382 962.846 336.344C962.398 332.307 965.089 293.72 967.14 293.464C969.191 293.208 984.707 293.656 984.195 294.489C983.683 295.323 969.321 297.437 968.679 298.912C968.038 300.387 964.705 333.844 967.526 335.319C970.347 336.794 1017.02 335.959 1025.1 337.305C1033.17 338.652 1043.05 341.729 1048.75 341.601C1054.46 341.473 1047.35 335.575 1049.71 326.794C1052.08 318.014 1055.61 308.27 1062.54 308.27C1069.46 308.27 1082.8 309.296 1083.18 310.705C1083.56 312.114 1078.18 333.46 1077.92 331.216C1077.66 328.971 1077.86 307.693 1086.96 306.475C1096.07 305.258 1124.85 319.551 1125.36 316.603C1125.88 313.655 1119.98 297.501 1118.18 290.071C1116.39 282.64 1116.52 280.707 1116.2 281.674C1115.88 282.642 1114.14 294.814 1117.48 303.916C1120.81 313.018 1129.65 319.236 1137.29 319.812C1144.92 320.387 1174.21 318.017 1182.68 320.709C1191.14 323.401 1225.12 352.758 1216.39 352.245C1207.67 351.731 1186.52 328.144 1190.24 334.682C1193.96 341.22 1205.37 354.035 1199.47 351.861C1193.57 349.687 1182.67 332.118 1180.37 335.451C1178.06 338.785 1162.29 356.989 1163.57 351.861C1164.85 346.732 1175.62 331.22 1175.62 323.144C1175.62 315.067 1144.98 245.716 1153.05 214.18C1161.13 182.644 1195.75 175.233 1221.14 196.052C1246.53 216.872 1278.45 321.09 1284.22 377.629C1289.99 434.169 1248.07 463 1231.91 463C1215.75 463 1117.76 375.7 1131.9 374.163C1146.04 372.626 1189.98 414.927 1226.91 401.082C1263.84 387.237 1263.45 352.625 1264.99 334.935C1266.53 317.244 1254.6 273.402 1281.15 278.787C1307.69 284.171 1329.23 316.088 1328.84 342.62C1328.46 369.152 1269.22 445.302 1301.53 444.148C1333.85 442.995 1350.77 377.231 1377.7 394.922C1404.62 412.613 1410.39 402.229 1420 385.308C1427.33 369.983 1450.7 332.248 1485.5 303.916C1520.3 275.583 1602.33 279.719 1639 285.328" stroke="#880E67" stroke-width="3" stroke-miterlimit="10"/>
<path d="M464.5 467.309C425.5 515.976 327.1 602.709 245.5 560.309C143.5 507.309 135.5 400.809 0 458.809" stroke="#880E67" stroke-width="3"/>
</g>
<defs>
<clipPath id="clip0_2632_11">
<rect width="1680" height="572" fill="white"/>
</clipPath>
</defs>
</svg>
