<svg width="1920" height="126" viewBox="0 0 1920 126" fill="none" xmlns="http://www.w3.org/2000/svg">
<path d="M0.117174 34.9514C0.316597 35.5634 0.750856 36.0712 1.32447 36.363C1.89808 36.6548 2.56408 36.7068 3.17603 36.5076C119.49 -0.905691 191.994 30.9147 262.143 61.6894C292.162 74.8608 323.205 88.4804 356.625 95.7975C374.636 99.7408 391.974 101.621 409.599 101.543C428.771 101.459 447.855 99.0716 467.879 94.2724C469.025 97.3225 470.848 99.94 473.092 101.742C474.466 102.856 476.056 103.674 477.762 104.143C479.468 104.612 481.252 104.723 483.003 104.468C485.234 108.623 487.729 112.072 490.511 114.851C496.072 120.416 501.795 122.255 505.97 123.6L506.882 123.892C522.609 129.031 546.448 122.585 551.069 121.241L551.194 121.197C556.368 124.742 561.553 126.199 566.441 125.371C568.619 125 570.888 124.646 573.076 124.3C584.237 122.539 595.791 120.721 604.504 116.077C624.258 105.558 622.359 79.632 619.213 61.0452C615.327 38.098 607.252 23.4856 601.165 15.266C593.75 5.26606 584.303 0 577.311 0C577.146 0 576.999 0 576.822 0C564.244 0.504197 550.304 4.80232 534.77 13.6351C531.005 15.7733 527.703 18.9261 525.039 22.8663C524.999 22.8663 524.958 22.8818 524.918 22.8974C506.584 29.01 489.544 37.9984 486.622 40.3264C476.511 48.3749 472.202 59.3116 473.571 73.5288C467.873 76.6411 465.928 83.3108 466.725 89.551C383.33 109.529 325.405 84.1262 264.112 57.2357C216.11 36.1808 167.029 14.6435 103.773 14.6435C73.4737 14.6435 39.9196 19.5859 1.6855 31.892C1.38164 31.9899 1.10004 32.1466 0.856767 32.3533C0.613495 32.5601 0.413325 32.8127 0.267686 33.0968C0.122047 33.3809 0.0337914 33.6909 0.00796625 34.0091C-0.017859 34.3274 0.0192523 34.6476 0.117174 34.9514ZM537.15 17.8617C552.012 9.41169 565.19 5.33142 576.981 4.86146C577.08 4.86146 577.18 4.86146 577.292 4.86146C582.582 4.86146 590.925 9.64821 597.232 18.1604C603.011 25.9412 610.675 39.8565 614.4 61.8544C619.002 89.0344 615.125 104.901 602.202 111.782C594.204 116.04 583.077 117.795 572.313 119.492C570.11 119.84 567.835 120.198 565.623 120.572C558.705 121.745 550.59 116.482 542.767 105.754C534.944 95.0256 528.297 79.7347 524.591 63.8837C521.965 52.6637 522.133 42.2032 525.07 33.6411C527.519 26.5015 531.798 20.8993 537.15 17.8617ZM489.628 44.1328C491.75 42.4397 505.771 34.9826 521.57 29.2123C521.173 30.1377 520.808 31.0859 520.474 32.057C517.238 41.4842 517.027 52.8722 519.852 64.9854C523.704 81.4496 530.622 97.3536 538.834 108.614C541.112 111.784 543.684 114.733 546.517 117.419C538.943 119.333 520.499 123.217 508.385 119.261L507.452 118.95C499.24 116.311 487.994 112.691 480.298 83.4695C475.637 65.7075 478.683 52.8473 489.628 44.1328ZM474.315 78.9349C474.657 80.8023 475.087 82.7246 475.606 84.702C476.912 89.8278 478.614 94.8444 480.697 99.7065C476.154 99.4607 473.31 95.5578 472.108 91.6145C470.752 87.1701 471.209 81.8605 474.315 78.9349Z" fill="#880E67"/>
<path d="M574.469 98.0919C579.806 104.939 586.232 108.279 592.561 107.535C598.785 106.8 604.165 102.169 607.678 94.4909C615.059 78.3597 608.207 47.3858 597.437 29.6767C591.712 20.2588 583.008 14.4512 575.033 14.4512C574.094 14.4497 573.156 14.532 572.232 14.6971C567.757 15.5 559.804 19.157 556.888 34.4853C554.548 46.7696 557.059 59.5457 559.58 68.0984C562.915 79.4148 568.205 90.0683 574.469 98.0919ZM573.1 19.4838C579.706 18.2887 588.002 23.5298 593.283 32.2039C603.396 48.8362 609.81 78.145 603.241 92.4679C600.462 98.5432 596.46 102.175 591.979 102.704C591.596 102.748 591.21 102.77 590.825 102.77C588.043 102.77 585.183 101.603 582.445 99.3929C585.169 99.0334 587.696 97.7788 589.63 95.8261C595.324 90.2582 597.384 79.281 595.01 67.174C592.654 55.1667 588.619 44.2113 583.64 36.3309C578.393 28.0209 572.493 23.6512 566.5 23.5983C568.349 21.3481 570.567 19.9413 573.1 19.4838ZM561.671 35.3878C562.13 32.8341 562.881 30.3414 563.908 27.9587C564.154 28.1606 564.437 28.312 564.741 28.4044C565.046 28.4968 565.365 28.5283 565.682 28.4971C570.104 28.0676 575.033 31.7713 579.551 38.9266C584.218 46.3121 588.018 56.6668 590.261 68.1108C592.29 78.4687 590.719 87.9799 586.254 92.3465C584.206 94.3478 581.692 95.0387 578.785 94.3976C578.45 94.326 578.103 94.326 577.768 94.3976C567.073 80.2738 557.905 55.1138 561.671 35.3878Z" fill="#880E67"/>
<path d="M579.183 80.6509C580.503 79.9538 581.197 78.5345 581.25 76.4368C581.396 70.5701 577.935 66.3342 574.733 66.1973H574.572C572.705 66.1973 570.769 67.5605 570.589 70.6666C570.368 74.4014 572.91 78.7586 575.331 80.3148C577.105 81.4414 578.508 81.0119 579.183 80.6509Z" fill="#880E67"/>
<path d="M572.185 57.2051C573.355 56.5608 573.955 55.2692 573.968 53.3676C573.99 50.6972 572.611 47.6004 572.191 46.7134C569.991 42.1041 568.024 42.0449 567.38 42.0449H567.293C566.285 42.0449 564.147 42.5211 563.954 46.5049C563.777 50.2148 566.596 55.5742 568.911 57.0214C569.389 57.3465 569.946 57.5354 570.523 57.5677C571.099 57.6001 571.674 57.4747 572.185 57.2051Z" fill="#880E67"/>
<path d="M1301.88 62.9314C1307.12 61.6118 1312.61 60.3855 1318.03 59.2371C1319.21 68.2628 1321.79 78.0013 1325.36 87.1329C1318.68 88.0865 1312.09 89.6492 1305.69 91.8014C1305.11 92.0298 1304.64 92.4734 1304.38 93.0403C1304.11 93.6071 1304.08 94.2536 1304.28 94.8459C1304.48 95.4382 1304.9 95.9307 1305.45 96.2215C1306 96.5123 1306.65 96.5789 1307.25 96.4076C1314.59 93.9178 1320.96 92.6728 1327.27 91.7391C1334.12 107.351 1343.74 120.351 1353.79 123.432C1356.78 124.317 1359.96 124.334 1362.96 123.479C1363.23 123.534 1363.51 123.542 1363.78 123.504C1370.32 122.57 1379.97 120.475 1385.61 117.646C1389.13 115.888 1391.46 112.168 1392.99 107.768C1393.97 107.491 1395.28 107.145 1396.79 106.769C1407.37 104.064 1427.05 99.0313 1435.86 88.4401L1436.68 87.4628C1441.42 81.8606 1448.61 73.3359 1447.1 55.1382C1453.59 52.3993 1455.88 44.8675 1455.81 38.4499C1455.8 37.6562 1455.74 36.8641 1455.63 36.0783C1551.36 11.5749 1619.91 37.0462 1686.21 61.6834C1757.85 88.3093 1825.53 113.457 1918.58 70.734C1918.87 70.601 1919.13 70.4121 1919.35 70.1781C1919.57 69.9442 1919.74 69.6697 1919.85 69.3705C1919.96 69.0712 1920.01 68.753 1920 68.434C1919.99 68.115 1919.91 67.8014 1919.78 67.5112C1919.65 67.221 1919.46 66.9599 1919.22 66.7427C1918.99 66.5255 1918.71 66.3565 1918.42 66.2454C1918.12 66.1343 1917.8 66.0832 1917.48 66.0951C1917.16 66.1069 1916.85 66.1815 1916.56 66.3145C1825.33 108.194 1758.58 83.3888 1687.91 57.1238C1654.82 44.8613 1620.64 32.1536 1582.58 25.6862C1565.84 22.8027 1548.89 21.345 1531.91 21.3289C1528.65 21.3289 1525.38 21.3829 1522.1 21.4908C1499.65 22.2377 1477.45 25.4963 1454.26 31.4502C1451.23 24.821 1444.17 21.0644 1437.28 21.0644H1437.08C1436.99 21.0598 1436.91 21.0598 1436.83 21.0644C1429.63 7.99261 1419.73 0.52302 1408.49 0.0592832C1407.51 0.0177855 1406.54 -0.00192668 1405.57 0.000148201C1394.74 0.000148201 1384.48 2.50869 1368.36 6.45201L1366.22 6.97488C1363.18 4.48501 1360.29 3.13115 1357.75 3.13115C1351.19 3.13115 1342.36 5.58989 1336.25 9.10993C1333.97 9.63874 1331.85 10.6941 1330.06 12.1911C1322.79 18.0423 1318.18 30.42 1317.4 46.1498C1317.27 48.8907 1317.31 51.6368 1317.53 54.3725C1311.89 55.5614 1306.16 56.8375 1300.69 58.2163C1300.06 58.3735 1299.53 58.7727 1299.19 59.326C1298.86 59.8793 1298.77 60.5415 1298.92 61.1667C1299.08 61.792 1299.48 62.3292 1300.03 62.6602C1300.59 62.9911 1301.25 63.0887 1301.87 62.9314H1301.88ZM1450.95 38.5308C1451 42.8071 1449.8 47.681 1446.48 49.981C1445.7 45.2865 1444.59 40.6545 1443.14 36.1218C1442.08 32.6989 1440.81 29.3439 1439.33 26.0752C1444.68 26.8907 1450.86 30.8184 1450.95 38.5308ZM1408.3 4.91763C1421.16 5.45295 1432.17 17.3669 1438.5 37.5722C1447.7 66.9245 1438.84 77.41 1432.98 84.3442C1432.69 84.6897 1432.4 85.0227 1432.13 85.3495C1424.33 94.7301 1404.92 99.6943 1395.6 102.078L1394.46 102.368C1395.03 99.4812 1395.42 96.5611 1395.62 93.6252C1396.41 82.62 1395.17 69.349 1392.3 58.1447C1386.92 37.1115 1379.93 24.1674 1375.02 17.0121C1373.59 14.9073 1372.02 12.8949 1370.34 10.9867C1387 6.9033 1397.22 4.45701 1408.3 4.92075V4.91763ZM1371.02 19.7728C1375.71 26.6012 1382.39 39.0132 1387.59 59.3554C1393.53 82.5827 1391.48 109.321 1383.45 113.336C1380.85 114.633 1377.07 115.825 1373.09 116.796C1376.7 112.439 1380.38 104.82 1380.08 92.0224C1379.7 75.4741 1374.97 55.6828 1367.43 39.0879C1363.74 30.9585 1359.52 23.9775 1355.22 18.8982C1351.84 14.9082 1348.45 12.0884 1345.09 10.4638C1349.38 8.95744 1354.06 8.01129 1357.76 8.01129C1359.68 7.99573 1364.64 10.4731 1371.02 19.7728ZM1322.26 46.4081C1322.96 32.2719 1327.02 20.9025 1333.11 15.9944C1335.34 14.2017 1337.67 13.4485 1339.85 13.8158C1347.14 15.0327 1355.79 25.2349 1363 41.1016C1370.29 57.1332 1374.86 76.2117 1375.22 92.1438C1375.48 103.348 1372.4 111.982 1366.54 116.42C1363.08 119.044 1358.85 119.949 1355.22 118.835C1347.67 116.519 1339.13 106.165 1332.31 91.098L1333.95 90.8864C1340.25 90.0616 1346.77 89.2119 1354.45 87.4286C1354.76 87.3562 1355.05 87.2233 1355.31 87.0375C1355.57 86.8516 1355.79 86.6164 1355.96 86.3453C1356.13 86.0742 1356.24 85.7726 1356.29 85.4575C1356.35 85.1425 1356.34 84.8202 1356.26 84.5092C1356.19 84.1982 1356.06 83.9044 1355.87 83.6448C1355.69 83.3851 1355.45 83.1646 1355.18 82.9958C1354.91 82.827 1354.61 82.7133 1354.29 82.6611C1353.98 82.6089 1353.66 82.6193 1353.34 82.6916C1345.9 84.4189 1339.5 85.2562 1333.31 86.0623L1330.33 86.4544C1326.56 77.0739 1323.94 67.158 1322.82 58.2692C1326.18 57.5782 1329.49 56.9184 1332.66 56.2835C1337.67 55.2813 1342.41 54.3352 1346.42 53.4575C1347.01 53.3326 1347.53 52.9938 1347.88 52.5066C1348.24 52.0194 1348.4 51.4184 1348.33 50.82C1348.27 50.2216 1347.98 49.6683 1347.54 49.2672C1347.09 48.8662 1346.51 48.6459 1345.9 48.649C1345.73 48.6493 1345.56 48.6681 1345.38 48.705C1341.41 49.5733 1336.7 50.5164 1331.69 51.5061C1328.67 52.1099 1325.53 52.751 1322.33 53.3921C1322.17 51.0622 1322.15 48.7252 1322.26 46.3925V46.4081Z" fill="#880E67"/>
</svg>
