<svg width="449" height="213" viewBox="0 0 449 213" fill="none" xmlns="http://www.w3.org/2000/svg">
<path d="M1 153.813C1 153.813 4.28689 141.5 23.6106 148.336C42.9344 155.172 54.02 151.885 70.9338 152.675C87.8477 153.464 98.6857 153.463 100.672 152.003C102.658 150.543 106.251 140.275 106.032 139.749C105.813 139.223 105.418 138.172 102.786 138.127C100.155 138.081 87.012 138.258 86.3106 138.74C85.6093 139.221 77.8974 151.359 77.1961 151.359C76.4948 151.359 74.2606 150.614 74.1731 150.132C74.0856 149.65 69.4842 83.6642 68.5645 84.7154C67.6448 85.7666 51.5646 141.544 51.4749 143.56C51.3853 145.576 52.7019 149.431 55.1559 149.899C57.6099 150.367 71.9823 150.833 70.9303 149.828C69.8783 148.822 55.9447 148.732 55.375 145.577C54.8052 142.422 60.0048 118.646 60.2971 120.807C60.5895 122.969 59.0118 135.062 61.9481 137.166C64.8843 139.27 71.9531 139.152 71.4559 138.772C70.9587 138.392 62.1081 135.063 61.8165 132.492C61.5248 129.922 68.7103 108.364 69.1193 105.093C69.5283 101.821 67.5545 22.2378 67.9948 20.4853C68.4351 18.7327 69.6741 18.163 71.3379 18.6012C73.0016 19.0393 98.7974 26.1404 99.0165 27.8474C99.2356 29.5544 101.602 113.273 101.368 113.798C101.134 114.324 76.5965 149.552 76.0701 148.909C75.5437 148.266 70.9289 25.9633 71.4545 25.9633C71.9802 25.9633 97.3954 31.3966 97.5704 32.3603C97.7454 33.324 99.7178 104.699 99.1915 105.883C98.6651 107.066 77.4138 133.399 77.4138 133.662C77.4138 133.924 77.0638 144.352 78.4658 142.863C79.8677 141.374 97.6579 116.749 98.0086 116.749C98.3593 116.749 185.645 116.311 186.434 116.924C187.223 117.538 189.706 121.393 189.121 122.036C188.537 122.679 175.976 126.417 177.261 127.119C178.546 127.82 180.708 128.462 182.344 131.031C183.98 133.599 183.761 136.989 183.542 137.209C183.323 137.428 179.642 139.706 177.977 139.794C176.312 139.881 172.456 139.443 172.281 138.391C172.106 137.339 170.805 134.419 169.023 133.368C167.24 132.317 163.005 131.994 161.224 134.156C159.442 136.317 158.711 139.823 157.368 140.027C156.024 140.231 155.352 139.911 155.439 138.509C155.527 137.107 158.74 129.95 158.916 130.767C159.092 131.585 155.177 134.332 154.648 135.85C154.12 137.369 153.421 140.118 152.603 139.823C151.785 139.529 150.675 133.601 151.873 130.943C153.071 128.285 157.102 126.591 158.621 126.444C160.14 126.298 163.002 124.604 169.108 125.919C175.214 127.233 178.982 129.132 179.887 130.534C180.793 131.936 181.903 138.42 184.619 137.837C187.336 137.253 207.697 134.653 208.223 132.959C208.749 131.265 206.645 111.168 205.711 111.927C204.776 112.687 189.586 121.479 190.506 122.005C191.427 122.53 205.492 114.907 205.492 114.466C205.492 114.025 200.715 84.6713 203.344 81.6919C205.973 78.7125 205.243 82.7723 213.539 75.6463C221.835 68.5202 227.452 57.9433 231.775 56.4254C236.098 54.9076 227.072 52.0733 226.459 50.6423C225.845 49.2112 226.429 48.6266 225.32 48.5085C224.212 48.3905 217.754 47.9537 217.93 46.5519C218.106 45.15 219.011 42.3455 217.725 39.7751C216.44 37.2046 211.854 37.6136 210.159 40.6805C208.465 43.7474 208.845 46.4061 207.618 49.7354C206.391 53.0648 207.443 55.3152 210.627 54.03C213.812 52.7447 216.82 46.7852 216.82 43.5746C216.82 40.364 213.285 38.9884 212 41.0624C210.715 43.1364 206.128 47.5177 204.872 46.2325C203.616 44.9473 204.58 36.7828 198.051 31.3503C191.522 25.9178 183.679 24.033 185.39 21.8423C187.1 19.6517 211.243 16.6715 209.884 18.6417C208.525 20.6119 184.159 21.7527 182.319 22.6731C180.48 23.5934 175.135 19.8281 172.942 12.4204C170.749 5.01273 208.347 -2.47673 219.521 2.73744C230.694 7.95162 236.332 18.5692 233.995 25.5209C231.659 32.4727 227.043 38.5489 226.751 42.5198C226.459 46.4907 225.261 47.4274 223.245 46.3321C221.229 45.2368 219.565 45.3534 219.711 44.4772C219.856 43.6009 222.284 37.0325 221.492 36.738C220.701 36.4436 217.812 38.4322 217.607 36.2999C217.402 34.1676 217.461 31.159 216.03 31.3923C214.598 31.6256 216.101 23.4178 214.438 25.4334C212.775 27.4491 198.225 26.9235 205.893 23.5934C213.561 20.2634 220.923 20.9618 217.286 15.3998C213.649 9.83785 211.24 6.32997 211.107 9.8791C210.975 13.4282 212.203 14.1288 210.1 14.1729C207.996 14.217 203.571 7.90752 201.949 10.9723C200.328 14.0371 202.694 14.9155 200.022 15.0911C197.35 15.2668 181.224 19.1659 179.69 24.2919C178.157 29.4179 177.529 30.7479 177.879 33.3184C178.228 35.8888 177.996 38.4593 177.381 40.066C176.765 41.6727 173.846 45.7908 174.401 47.4559C174.956 49.1209 177.497 48.9822 177.782 50.4716C178.068 51.9609 176.972 52.8308 177.965 53.8678C178.959 54.9048 179.046 55.6929 178.578 56.0584C178.111 56.424 177.454 56.9639 177.6 57.811C177.746 58.6581 178.286 58.2199 178.301 58.9938C178.316 59.7676 176.819 61.119 177.803 63.5948C178.788 66.0707 186.413 66.7243 191.343 66.2016C196.272 65.6788 206.529 60.6389 205.718 60.8594C204.907 61.0799 194.479 64.1674 194.369 64.7151C194.259 65.2627 197.524 69.6006 200.131 72.2735C202.738 74.9464 204.47 78.8881 206.396 78.8462C208.323 78.8042 218.118 67.6291 222.631 63.4668C227.144 59.3046 227.889 52.3813 236.786 54.7476C245.683 57.1139 256.767 69.4705 258.694 75.0339C260.621 80.5973 259.921 83.4899 258.125 82.9643C256.329 82.4387 249.624 71.6604 239.02 72.1419C228.416 72.6235 222.284 83.182 216.979 84.1023C211.674 85.0227 209.632 83.9124 209.428 84.6137C209.224 85.315 209.442 112.757 209.793 117.139C210.144 121.521 210.45 128.925 211.326 127.436C212.203 125.947 211.195 86.8186 210.801 86.0298C210.407 85.241 204.053 82.7438 205.718 82.4373C207.383 82.1307 215.928 81.0354 221.58 72.7543C227.232 64.4732 232.184 56.5862 242.394 60.5294C252.604 64.4725 260.929 89.1408 264.697 96.6772C268.466 104.214 274.95 152.235 269.868 168.71C264.785 185.184 243.314 179.313 233.849 175.282C224.384 171.25 191.171 156.88 186.526 156.529C181.88 156.178 181.662 156.835 180.698 153.549C179.734 150.263 184.816 145.575 183.108 143.384C181.399 141.194 166.807 137.645 165.23 138.389C163.653 139.134 159.212 140.463 159.942 140.756C160.673 141.048 163.74 141.603 163.36 141.369C162.98 141.135 154.83 140.113 153.311 141.339C151.792 142.566 147.031 145.78 147.763 146.305C148.495 146.831 153.46 143.004 156.527 143.297C159.594 143.589 163.275 144.261 162.866 143.852C162.457 143.443 147.88 146.276 148.114 148.029C148.347 149.781 152.145 148.847 155.738 148C159.331 147.152 162.922 147.065 163.333 147.912C163.744 148.759 151.561 149.899 150.393 150.453C149.225 151.008 149.662 152.673 151.649 153.141C153.635 153.608 166.897 154.017 166.839 154.513C166.78 155.01 140.109 156.12 139.905 154.28C139.701 152.44 140.927 134.855 141.862 134.738C142.797 134.622 149.866 134.826 149.633 135.206C149.4 135.585 142.856 136.549 142.563 137.221C142.271 137.893 140.752 153.141 142.038 153.813C143.323 154.485 164.589 154.104 168.27 154.718C171.951 155.332 176.45 156.734 179.049 156.675C181.648 156.617 178.409 153.929 179.487 149.928C180.566 145.926 182.175 141.486 185.33 141.486C188.485 141.486 194.561 141.953 194.736 142.596C194.911 143.238 192.46 152.966 192.341 151.943C192.221 150.92 192.311 141.223 196.46 140.668C200.608 140.113 213.724 146.627 213.958 145.283C214.191 143.94 211.504 136.578 210.686 133.192C209.867 129.806 209.926 128.925 209.78 129.366C209.634 129.807 208.845 135.354 210.364 139.502C211.883 143.65 215.912 146.483 219.39 146.746C222.869 147.008 236.217 145.928 240.073 147.155C243.929 148.382 259.411 161.76 255.437 161.526C251.462 161.292 241.824 150.543 243.518 153.522C245.213 156.502 250.412 162.342 247.725 161.351C245.038 160.36 240.071 152.354 239.02 153.873C237.969 155.392 230.782 163.688 231.366 161.351C231.95 159.014 236.858 151.945 236.858 148.264C236.858 144.583 222.894 112.978 226.575 98.6068C230.256 84.2353 246.031 80.8576 257.598 90.3457C269.166 99.8337 283.714 147.328 286.343 173.095C288.972 198.861 269.87 212 262.506 212C255.143 212 210.491 172.216 216.935 171.515C223.379 170.814 243.402 190.092 260.228 183.783C277.054 177.473 276.879 161.7 277.579 153.638C278.28 145.576 272.847 125.596 284.941 128.05C297.035 130.504 306.849 145.049 306.675 157.14C306.501 169.231 279.508 203.934 294.231 203.409C308.954 202.883 316.666 172.913 328.935 180.975C341.204 189.037 343.833 184.305 348.211 176.594C351.552 169.61 362.2 152.413 378.057 139.502C393.913 126.59 431.293 128.474 448 131.031" stroke="#880E67" stroke-width="1.2" stroke-miterlimit="10"/>
</svg>
