<svg width="77" height="80" viewBox="0 0 77 80" fill="none" xmlns="http://www.w3.org/2000/svg">
<g clip-path="url(#clip0_137_2463)">
<path d="M74.4185 43.7224C69.7326 43.717 65.2402 41.8531 61.9268 38.5397C58.6134 35.2263 56.7495 30.7339 56.7441 26.048C56.7441 25.5545 56.5481 25.0813 56.1992 24.7324C55.8503 24.3835 55.3771 24.1875 54.8836 24.1875C54.3902 24.1875 53.917 24.3835 53.5681 24.7324C53.2192 25.0813 53.0232 25.5545 53.0232 26.048C53.0177 30.7339 51.1539 35.2263 47.8405 38.5397C44.527 41.8531 40.0346 43.717 35.3487 43.7224C34.8553 43.7224 34.3821 43.9184 34.0332 44.2673C33.6843 44.6162 33.4883 45.0894 33.4883 45.5828C33.4883 46.0763 33.6843 46.5495 34.0332 46.8984C34.3821 47.2473 34.8553 47.4433 35.3487 47.4433C40.0346 47.4487 44.527 49.3126 47.8405 52.626C51.1539 55.9394 53.0177 60.4318 53.0232 65.1177C53.0232 65.6112 53.2192 66.0844 53.5681 66.4333C53.917 66.7822 54.3902 66.9782 54.8836 66.9782C55.3771 66.9782 55.8503 66.7822 56.1992 66.4333C56.5481 66.0844 56.7441 65.6112 56.7441 65.1177C56.7495 60.4318 58.6134 55.9394 61.9268 52.626C65.2402 49.3126 69.7326 47.4487 74.4185 47.4433C74.9119 47.4433 75.3852 47.2473 75.7341 46.8984C76.083 46.5495 76.279 46.0763 76.279 45.5828C76.279 45.0894 76.083 44.6162 75.7341 44.2673C75.3852 43.9184 74.9119 43.7224 74.4185 43.7224ZM54.8836 56.3922C52.7236 51.5884 48.8781 47.7428 44.0743 45.5828C48.8781 43.4229 52.7236 39.5773 54.8836 34.7735C57.043 39.5777 60.8888 43.4234 65.6929 45.5828C60.8892 47.7428 57.0436 51.5884 54.8836 56.3922Z" fill="#EE8F9F"/>
<path d="M40 56.7431C36.5472 56.7392 33.237 55.3658 30.7955 52.9243C28.354 50.4828 26.9807 47.1726 26.9767 43.7198C26.9767 43.2264 26.7807 42.7532 26.4318 42.4043C26.0829 42.0554 25.6097 41.8594 25.1163 41.8594C24.6228 41.8594 24.1496 42.0554 23.8007 42.4043C23.4518 42.7532 23.2558 43.2264 23.2558 43.7198C23.2519 47.1726 21.8785 50.4828 19.437 52.9243C16.9955 55.3658 13.6853 56.7392 10.2325 56.7431C9.73911 56.7431 9.26589 56.9391 8.91699 57.288C8.56808 57.6369 8.37207 58.1101 8.37207 58.6036C8.37207 59.097 8.56808 59.5702 8.91699 59.9191C9.26589 60.268 9.73911 60.464 10.2325 60.464C13.6853 60.468 16.9955 61.8413 19.437 64.2828C21.8785 66.7243 23.2519 70.0345 23.2558 73.4873C23.2558 73.9807 23.4518 74.4539 23.8007 74.8028C24.1496 75.1517 24.6228 75.3477 25.1163 75.3477C25.6097 75.3477 26.0829 75.1517 26.4318 74.8028C26.7807 74.4539 26.9767 73.9807 26.9767 73.4873C26.9807 70.0345 28.354 66.7243 30.7955 64.2828C33.237 61.8413 36.5472 60.468 40 60.464C40.4934 60.464 40.9666 60.268 41.3155 59.9191C41.6644 59.5702 41.8604 59.097 41.8604 58.6036C41.8604 58.1101 41.6644 57.6369 41.3155 57.288C40.9666 56.9391 40.4934 56.7431 40 56.7431ZM25.1163 65.8203C23.5135 62.7273 20.9925 60.2064 17.8995 58.6036C20.9925 57.0008 23.5135 54.4798 25.1163 51.3868C26.7191 54.4798 29.24 57.0008 32.333 58.6036C29.24 60.2064 26.7191 62.7273 25.1163 65.8203Z" fill="#EE8F9F"/>
<path d="M26.0465 18.6047C29.4993 18.6086 32.8095 19.9819 35.251 22.4234C37.6925 24.8649 39.0658 28.1751 39.0698 31.6279C39.0698 32.1213 39.2658 32.5945 39.6147 32.9435C39.9636 33.2924 40.4368 33.4884 40.9302 33.4884C41.4236 33.4884 41.8969 33.2924 42.2458 32.9435C42.5947 32.5945 42.7907 32.1213 42.7907 31.6279C42.7946 28.1751 44.168 24.8649 46.6095 22.4234C49.0509 19.9819 52.3612 18.6086 55.8139 18.6047C56.3074 18.6047 56.7806 18.4086 57.1295 18.0597C57.4784 17.7108 57.6744 17.2376 57.6744 16.7442C57.6744 16.2508 57.4784 15.7775 57.1295 15.4286C56.7806 15.0797 56.3074 14.8837 55.8139 14.8837C52.3612 14.8798 49.0509 13.5064 46.6095 11.0649C44.168 8.62347 42.7946 5.31324 42.7907 1.86047C42.7907 1.36704 42.5947 0.893822 42.2458 0.544918C41.8969 0.196013 41.4236 0 40.9302 0C40.4368 0 39.9636 0.196013 39.6147 0.544918C39.2658 0.893822 39.0698 1.36704 39.0698 1.86047C39.0658 5.31324 37.6925 8.62347 35.251 11.0649C32.8095 13.5064 29.4993 14.8798 26.0465 14.8837C25.5531 14.8837 25.0799 15.0797 24.731 15.4286C24.382 15.7775 24.186 16.2508 24.186 16.7442C24.186 17.2376 24.382 17.7108 24.731 18.0597C25.0799 18.4086 25.5531 18.6047 26.0465 18.6047ZM40.9302 9.52744C42.533 12.6204 45.054 15.1414 48.147 16.7442C45.054 18.347 42.533 20.868 40.9302 23.9609C39.3274 20.868 36.8065 18.347 33.7135 16.7442C36.8065 15.1414 39.3274 12.6204 40.9302 9.52744Z" fill="#EE8F9F"/>
<path d="M14.8837 29.77C14.8837 28.2981 14.4473 26.8593 13.6295 25.6355C12.8118 24.4117 11.6496 23.4579 10.2897 22.8946C8.92992 22.3313 7.43361 22.184 5.99003 22.4711C4.54645 22.7583 3.22044 23.467 2.17967 24.5078C1.13891 25.5486 0.430142 26.8746 0.142997 28.3182C-0.144149 29.7617 0.00322444 31.258 0.566481 32.6179C1.12974 33.9777 2.08358 35.1399 3.30739 35.9577C4.5312 36.7754 5.97 37.2119 7.44186 37.2119C9.41557 37.2119 11.3084 36.4278 12.7041 35.0322C14.0997 33.6366 14.8837 31.7437 14.8837 29.77ZM7.44186 33.4909C6.70593 33.4909 5.98653 33.2727 5.37463 32.8638C4.76272 32.455 4.2858 31.8738 4.00417 31.1939C3.72254 30.514 3.64886 29.7659 3.79243 29.0441C3.936 28.3223 4.29039 27.6593 4.81077 27.1389C5.33115 26.6185 5.99416 26.2641 6.71595 26.1206C7.43774 25.977 8.18589 26.0507 8.8658 26.3323C9.54571 26.6139 10.1268 27.0908 10.5357 27.7028C10.9446 28.3147 11.1628 29.0341 11.1628 29.77C11.1628 30.7568 10.7708 31.7033 10.073 32.4011C9.37515 33.0989 8.42872 33.4909 7.44186 33.4909Z" fill="#EE8F9F"/>
<path d="M65.1163 68.8359C64.0124 68.8359 62.9333 69.1633 62.0155 69.7766C61.0976 70.3899 60.3822 71.2616 59.9598 72.2814C59.5373 73.3013 59.4268 74.4235 59.6422 75.5062C59.8575 76.5889 60.3891 77.5834 61.1697 78.364C61.9502 79.1446 62.9448 79.6761 64.0274 79.8915C65.1101 80.1068 66.2324 79.9963 67.2522 79.5739C68.2721 79.1514 69.1438 78.436 69.7571 77.5182C70.3704 76.6003 70.6977 75.5212 70.6977 74.4173C70.6977 72.9371 70.1097 71.5174 69.063 70.4707C68.0162 69.424 66.5966 68.8359 65.1163 68.8359ZM65.1163 76.2778C64.7483 76.2778 64.3886 76.1687 64.0827 75.9643C63.7767 75.7598 63.5383 75.4693 63.3975 75.1293C63.2567 74.7893 63.2198 74.4153 63.2916 74.0544C63.3634 73.6935 63.5406 73.362 63.8008 73.1018C64.061 72.8416 64.3925 72.6644 64.7534 72.5926C65.1142 72.5208 65.4883 72.5577 65.8283 72.6985C66.1682 72.8393 66.4588 73.0778 66.6632 73.3837C66.8677 73.6897 66.9768 74.0494 66.9768 74.4173C66.9768 74.9108 66.7808 75.384 66.4319 75.7329C66.083 76.0818 65.6097 76.2778 65.1163 76.2778Z" fill="#EE8F9F"/>
<path d="M68.8373 24.1862C69.9412 24.1862 71.0203 23.8589 71.9381 23.2456C72.856 22.6323 73.5714 21.7606 73.9938 20.7407C74.4162 19.7209 74.5268 18.5986 74.3114 17.516C74.0961 16.4333 73.5645 15.4388 72.7839 14.6582C72.0033 13.8776 71.0088 13.346 69.9261 13.1307C68.8434 12.9153 67.7212 13.0259 66.7013 13.4483C65.6815 13.8707 64.8098 14.5861 64.1965 15.504C63.5832 16.4218 63.2559 17.5009 63.2559 18.6048C63.2559 20.0851 63.8439 21.5048 64.8906 22.5515C65.9373 23.5982 67.357 24.1862 68.8373 24.1862ZM68.8373 16.7444C69.2052 16.7444 69.5649 16.8535 69.8709 17.0579C70.1768 17.2623 70.4153 17.5529 70.5561 17.8929C70.6969 18.2328 70.7338 18.6069 70.662 18.9678C70.5902 19.3287 70.413 19.6602 70.1528 19.9204C69.8926 20.1806 69.5611 20.3578 69.2002 20.4296C68.8393 20.5013 68.4652 20.4645 68.1253 20.3237C67.7853 20.1829 67.4948 19.9444 67.2903 19.6385C67.0859 19.3325 66.9768 18.9728 66.9768 18.6048C66.9768 18.1114 67.1728 17.6382 67.5217 17.2893C67.8706 16.9404 68.3438 16.7444 68.8373 16.7444Z" fill="#EE8F9F"/>
</g>
<defs>
<clipPath id="clip0_137_2463">
<rect width="76.2791" height="80" fill="white"/>
</clipPath>
</defs>
</svg>
