<svg width="81" height="80" viewBox="0 0 81 80" fill="none" xmlns="http://www.w3.org/2000/svg">
<g clip-path="url(#clip0_2371_107)">
<path d="M16.4478 80.0017C15.3322 80.0017 14.3572 79.8613 13.3805 79.4431C12.3869 79.0203 11.487 78.4047 10.7329 77.6318L2.37048 69.2694C1.61846 68.5194 1.02181 67.6285 0.614705 66.6475C0.207601 65.6666 -0.00195312 64.615 -0.00195312 63.5529C-0.00195312 62.4908 0.207601 61.4392 0.614705 60.4583C1.02181 59.4773 1.61846 58.5864 2.37048 57.8364L10.7329 49.3335L43.3464 3.76482C44.1509 2.51351 45.321 1.54011 46.6979 0.976798C47.9522 0.279385 49.4859 -0.00317383 50.8791 -0.00317383C52.0734 0.0127532 53.2545 0.249192 54.3629 0.694239C55.4784 1.11236 56.4535 1.80977 57.4302 2.65418L77.3563 22.5803C78.3067 23.5152 79.023 24.6612 79.4469 25.9252C79.865 27.1796 80.1443 28.5744 80.0055 29.8288C79.8654 31.1385 79.4873 32.4115 78.8899 33.5854C78.1925 34.6993 77.3563 35.8148 76.2424 36.5122L30.6737 69.2645L22.1708 77.7658C21.4053 78.5253 20.5082 79.1396 19.5232 79.5787C18.5433 79.9968 17.5633 79.9968 16.4576 79.9968L16.4478 80.0017ZM50.8725 3.34506C49.8926 3.34506 49.0612 3.62436 48.225 4.04248C47.3775 4.44658 46.6551 5.07247 46.1344 5.85379L13.3788 51.7083L4.73874 60.35C4.30587 60.7654 3.95971 61.2625 3.72028 61.8125C3.48086 62.3626 3.35293 62.9547 3.34391 63.5545C3.34391 64.8089 3.76203 65.9244 4.73874 66.7607L13.24 75.2619C13.6581 75.68 14.22 75.9593 14.7737 76.2419C15.8973 76.66 17.1338 76.66 18.2575 76.2419C18.8144 75.9626 19.373 75.6833 19.7911 75.2619L28.5684 66.4814L74.1371 33.8679C74.8329 33.4498 75.3914 32.754 75.8096 32.0566C76.2486 31.3428 76.4888 30.5246 76.5053 29.6867C76.5053 28.8505 76.5053 28.0142 76.2277 27.178C75.9819 26.3575 75.4961 25.6293 74.8329 25.0874L54.9068 5.16128C54.3999 4.62064 53.785 4.19271 53.102 3.90528C52.2657 3.62599 51.57 3.3467 50.8725 3.3467V3.34506Z" fill="#EE8F9F"/>
<path fill-rule="evenodd" clip-rule="evenodd" d="M16.4713 80.1016H16.4477C15.3231 80.1016 14.3337 79.96 13.341 79.535C12.3354 79.107 11.4247 78.4839 10.6614 77.7018C10.6614 77.7017 10.6615 77.7018 10.6614 77.7018L2.29976 69.3401C1.53843 68.5809 0.934391 67.6788 0.522245 66.6858C0.110099 65.6927 -0.102051 64.628 -0.102051 63.5528C-0.102051 62.4776 0.110099 61.4129 0.522245 60.4198C0.934353 59.4268 1.53832 58.5249 2.29955 57.7657C2.29962 57.7656 2.29948 57.7658 2.29955 57.7657L10.656 49.2689L43.2635 3.70855C44.078 2.44264 45.2617 1.45751 46.6544 0.886396C47.9267 0.18058 49.476 -0.103271 50.879 -0.103271H50.8803C52.0865 -0.0871853 53.2794 0.151553 54.399 0.600909C55.5302 1.02513 56.5154 1.73113 57.4955 2.57844L57.501 2.58319L77.4263 22.5089C77.4265 22.509 77.4261 22.5087 77.4263 22.5089C78.3877 23.4547 79.1128 24.6146 79.5416 25.8934C79.9618 27.1541 80.2459 28.5649 80.1048 29.8397C79.9634 31.1613 79.5818 32.446 78.979 33.6306L78.9749 33.6385C78.2763 34.7544 77.4306 35.8851 76.2981 36.5952L30.7386 69.3409L22.2414 77.8364C21.4673 78.6044 20.5599 79.2259 19.5639 79.6699L19.5624 79.6706C18.5678 80.0949 17.5743 80.0967 16.4811 80.0967L16.4713 80.1016ZM30.6736 69.2644L76.2423 36.5121C77.3562 35.8147 78.1924 34.6992 78.8898 33.5853C79.4873 32.4114 79.8653 31.1384 80.0054 29.8287C80.1442 28.5743 79.8649 27.1795 79.4468 25.9251C79.0229 24.6611 78.3066 23.5151 77.3562 22.5802L57.4301 2.65409C56.4534 1.80968 55.4783 1.11226 54.3628 0.694142C53.2544 0.249095 52.0733 0.0126556 50.879 -0.00327148C49.4858 -0.00327148 47.9521 0.279287 46.6978 0.9767C45.3209 1.54002 44.1508 2.51341 43.3463 3.76472L10.7328 49.3334L2.37038 57.8363C1.61836 58.5863 1.02171 59.4772 0.614607 60.4582C0.207504 61.4391 -0.00205078 62.4907 -0.00205078 63.5528C-0.00205078 64.6149 0.207504 65.6665 0.614607 66.6474C1.02171 67.6284 1.61836 68.5193 2.37038 69.2693L10.7328 77.6317C11.4869 78.4046 12.3868 79.0202 13.3804 79.443C14.3571 79.8612 15.3321 80.0016 16.4477 80.0016L16.4575 79.9967C17.5632 79.9967 18.5432 79.9967 19.5232 79.5786C20.5081 79.1395 21.4052 78.5252 22.1707 77.7657L30.6736 69.2644ZM50.8724 3.3466V3.34497C50.8389 3.34497 50.8056 3.34529 50.7724 3.34594C49.8356 3.36423 49.0325 3.63855 48.2249 4.04238C47.3774 4.44648 46.655 5.07237 46.1343 5.85369L13.3787 51.7082L4.73864 60.3499C4.30578 60.7653 3.95961 61.2624 3.72019 61.8124C3.48076 62.3625 3.35283 62.9546 3.34382 63.5544C3.34382 64.8088 3.76194 65.9243 4.73864 66.7606L13.2399 75.2618C13.6439 75.6658 14.182 75.9402 14.7173 76.2131L14.7736 76.2418C15.8972 76.6599 17.1337 76.6599 18.2574 76.2418L18.2637 76.2386C18.8185 75.9604 19.3745 75.6816 19.791 75.2618L28.5683 66.4813L74.137 33.8678C74.8328 33.4497 75.3913 32.7539 75.8095 32.0565C76.2485 31.3427 76.4887 30.5245 76.5052 29.6866C76.5052 28.8504 76.5052 28.0141 76.2276 27.1779C75.9818 26.3574 75.496 25.6292 74.8328 25.0873L54.9067 5.16118C54.3998 4.62055 53.7849 4.19261 53.1019 3.90518C52.9792 3.86422 52.8596 3.82326 52.7426 3.78318C52.0615 3.54997 51.4676 3.3466 50.8724 3.3466ZM53.0666 3.99882C52.9434 3.95766 52.8239 3.91677 52.7074 3.87694C52.0252 3.64356 51.4495 3.4466 50.8724 3.4466H50.7724C49.8562 3.46484 49.0686 3.73231 48.2696 4.13182L48.2679 4.13266C47.4367 4.52898 46.7282 5.14284 46.2175 5.90915L46.2157 5.91185L13.4553 51.7731L4.80789 60.4221C4.38456 60.8283 4.04602 61.3144 3.81188 61.8523C3.57783 62.3901 3.45273 62.9688 3.44382 63.5552C3.44398 64.7852 3.85303 65.8707 4.80368 66.6846L4.80956 66.6896L13.3106 75.1911C13.7031 75.5836 14.2286 75.8516 14.7688 76.1271L14.8138 76.1501C15.9118 76.5572 17.1194 76.5572 18.2174 76.15C18.7759 75.8699 19.3167 75.5979 19.72 75.1914L28.5034 66.4048L74.0853 33.7818C74.761 33.3758 75.3095 32.696 75.7237 32.0051L75.7243 32.0041C76.1538 31.3057 76.3889 30.5052 76.4052 29.6854C76.4052 28.8473 76.4043 28.0275 76.1327 27.2094L76.1317 27.2066C75.8917 26.4052 75.4173 25.694 74.7695 25.1647L74.7617 25.1583L54.8337 5.22961C54.3373 4.70013 53.7353 4.28079 53.0666 3.99882Z" fill="#EE8F9F"/>
<path d="M10.877 51.6705L13.3399 49.2075L30.7818 66.6478L28.3188 69.1124L10.877 51.6705Z" fill="#EE8F9F"/>
<path fill-rule="evenodd" clip-rule="evenodd" d="M10.7354 51.6706L13.3398 49.0662L30.923 66.6478L28.3187 69.2539L10.7354 51.6706ZM10.8768 51.6706L13.3398 49.2076L30.7816 66.6478L28.3186 69.1124L10.8768 51.6706Z" fill="#EE8F9F"/>
<path d="M27.2773 40.2001L29.7403 37.7371L42.2546 50.2513L39.7916 52.7143L27.2773 40.2001Z" fill="#EE8F9F"/>
<path fill-rule="evenodd" clip-rule="evenodd" d="M27.1357 40.1999L29.7402 37.5955L42.3958 50.2511L39.7914 52.8555L27.1357 40.1999ZM27.2772 40.1999L29.7402 37.7369L42.2544 50.2511L39.7914 52.7141L27.2772 40.1999Z" fill="#EE8F9F"/>
<path d="M22.0508 45.327L24.5138 42.864L37.028 55.3783L34.565 57.8413L22.0508 45.327Z" fill="#EE8F9F"/>
<path fill-rule="evenodd" clip-rule="evenodd" d="M21.9092 45.3268L24.5136 42.7224L37.1693 55.3781L34.5648 57.9825L21.9092 45.3268ZM22.0506 45.3268L24.5136 42.8638L37.0278 55.3781L34.5648 57.8411L22.0506 45.3268Z" fill="#EE8F9F"/>
</g>
<defs>
<clipPath id="clip0_2371_107">
<rect width="80.0376" height="80" fill="white"/>
</clipPath>
</defs>
</svg>
