<svg width="1500" height="292" viewBox="0 0 1500 292" fill="none" xmlns="http://www.w3.org/2000/svg">
<g clip-path="url(#clip0_2368_99)">
<path d="M1.07251 114.071C47.5859 92.672 95.605 70.8424 149.585 64.1043C203.566 57.3662 265.343 69.3194 295.149 103.471C325.676 138.454 315.26 185.498 337.764 223.711C371.303 280.631 471.507 301.507 551.849 284.939C632.19 268.37 696.236 223.988 754.301 179.375C794.11 148.746 843.924 114.425 899.884 123.209C923.481 126.901 943.572 137.977 965.292 145.746C1054.23 177.529 1161.25 151.423 1245.4 113.086C1329.56 74.7499 1405.47 23.9679 1499.36 1.53833" stroke="#C7CAD8" stroke-width="2" stroke-miterlimit="10"/>
</g>
<defs>
<clipPath id="clip0_2368_99">
<rect width="1500" height="292" fill="white"/>
</clipPath>
</defs>
</svg>
