<svg width="72" height="80" viewBox="0 0 72 80" fill="none" xmlns="http://www.w3.org/2000/svg">
<g clip-path="url(#clip0_137_2455)">
<path d="M50.8223 29.8777C51.2389 30.2944 51.4729 30.8596 51.4729 31.4488C51.4729 32.0381 51.2389 32.6032 50.8223 33.0199L33.7756 49.9977C33.7423 50.0355 33.7178 50.0755 33.6823 50.111C33.4759 50.3181 33.2307 50.4823 32.9607 50.5945C32.6907 50.7066 32.4013 50.7643 32.1089 50.7644H32.0867C31.7944 50.7643 31.5049 50.7066 31.235 50.5945C30.965 50.4823 30.7198 50.3181 30.5134 50.111C30.4778 50.0755 30.4534 50.0355 30.4201 49.9977L21.1889 40.8044C20.7711 40.3883 20.5356 39.8232 20.5344 39.2335C20.5331 38.6438 20.7662 38.0778 21.1823 37.6599C21.5984 37.2421 22.1634 37.0066 22.7531 37.0054C23.3428 37.0041 23.9089 37.2372 24.3267 37.6533L32.1045 45.3955L47.6934 29.8666C47.8998 29.66 48.1449 29.4961 48.4146 29.3842C48.6844 29.2724 48.9736 29.2148 49.2656 29.2148C49.5576 29.2148 49.8468 29.2724 50.1166 29.3842C50.3864 29.4961 50.6314 29.66 50.8378 29.8666L50.8223 29.8777ZM70.7756 59.9799C69.9289 61.4604 68.6806 62.6711 67.1749 63.4721C65.6692 64.2732 63.9676 64.6318 62.2667 64.5066L52.8156 63.8533C51.8932 63.7872 50.9722 63.9984 50.1707 64.4597C49.3693 64.921 48.724 65.6114 48.3178 66.4421L44.1623 74.9221C43.4117 76.447 42.249 77.7312 40.806 78.6292C39.3631 79.5272 37.6974 80.0032 35.9978 80.0032C34.2982 80.0032 32.6326 79.5272 31.1896 78.6292C29.7466 77.7312 28.584 76.447 27.8334 74.9221L23.6756 66.4421C23.2701 65.6113 22.6248 64.9211 21.823 64.4608C21.0212 64.0005 20.0998 63.7912 19.1778 63.8599L9.72672 64.5133C8.03168 64.6352 6.33653 64.2779 4.83489 63.4822C3.33325 62.6865 2.08567 61.4846 1.23465 60.0136C0.383624 58.5426 -0.0365213 56.8619 0.0221989 55.1635C0.0809191 53.4651 0.616137 51.8175 1.56672 50.4088L6.85783 42.5799C7.37517 41.8202 7.65185 40.9224 7.65185 40.0033C7.65185 39.0841 7.37517 38.1863 6.85783 37.4266L1.56228 29.5999C0.612452 28.1909 0.0779296 26.5432 0.0197236 24.8449C-0.0384824 23.1466 0.381973 21.4662 1.2331 19.9955C2.08422 18.5247 3.33171 17.3229 4.83318 16.5272C6.33464 15.7315 8.02957 15.374 9.7245 15.4955L19.1756 16.1466C20.0993 16.2155 21.0223 16.005 21.8248 15.5425C22.6272 15.0801 23.2721 14.387 23.6756 13.5533L27.8334 5.07325C28.584 3.54839 29.7466 2.26421 31.1896 1.36618C32.6326 0.468159 34.2982 -0.0078125 35.9978 -0.0078125C37.6974 -0.0078125 39.3631 0.468159 40.806 1.36618C42.249 2.26421 43.4117 3.54839 44.1623 5.07325L48.3201 13.5533C48.7267 14.3832 49.3723 15.0725 50.1738 15.5326C50.9753 15.9928 51.8961 16.2027 52.8178 16.1355L62.2689 15.4821C63.964 15.3602 65.6591 15.7175 67.1608 16.5132C68.6624 17.3089 69.91 18.5108 70.761 19.9818C71.612 21.4528 72.0322 23.1335 71.9735 24.8319C71.9147 26.5303 71.3795 28.1779 70.4289 29.5866L65.1378 37.4155C64.6205 38.1752 64.3438 39.073 64.3438 39.9921C64.3438 40.9113 64.6205 41.8091 65.1378 42.5688L70.4423 50.4021C71.3986 51.803 71.9385 53.4462 71.9995 55.1412C72.0604 56.8363 71.6399 58.514 70.7867 59.9799H70.7756ZM66.7489 52.8866L61.4556 45.0644C60.4381 43.5706 59.8939 41.8051 59.8939 39.9977C59.8939 38.1903 60.4381 36.4248 61.4556 34.931L66.7489 27.1088C67.2419 26.3991 67.5205 25.5626 67.5517 24.699C67.5828 23.8354 67.3651 22.9811 66.9245 22.2377C66.4947 21.4781 65.8568 20.857 65.086 20.4476C64.3152 20.0382 63.4434 19.8574 62.5734 19.9266L53.1223 20.5799C51.3191 20.7095 49.5183 20.297 47.9514 19.3953C46.3845 18.4937 45.1229 17.1441 44.3289 15.5199L40.1712 7.03992C39.7864 6.26171 39.1917 5.60658 38.4543 5.14852C37.7168 4.69047 36.866 4.44773 35.9978 4.44773C35.1297 4.44773 34.2789 4.69047 33.5414 5.14852C32.8039 5.60658 32.2093 6.26171 31.8245 7.03992L27.6667 15.5199C26.8727 17.1441 25.6112 18.4937 24.0443 19.3953C22.4773 20.297 20.6766 20.7095 18.8734 20.5799L9.42228 19.9266C8.55196 19.8555 7.6795 20.0354 6.90832 20.445C6.13714 20.8547 5.49956 21.4768 5.07116 22.2377C4.63056 22.9811 4.41287 23.8354 4.44399 24.699C4.47511 25.5626 4.75375 26.3991 5.24672 27.1088L10.5401 34.9355C11.5575 36.4292 12.1017 38.1948 12.1017 40.0021C12.1017 41.8095 11.5575 43.575 10.5401 45.0688L5.24672 52.8866C4.75375 53.5963 4.47511 54.4328 4.44399 55.2964C4.41287 56.16 4.63056 57.0143 5.07116 57.7577C5.49935 58.5188 6.13689 59.1411 6.90812 59.5507C7.67936 59.9604 8.55192 60.1402 9.42228 60.0688L18.8734 59.4155C19.0956 59.3999 19.3023 59.3933 19.5134 59.3933C21.2125 59.3895 22.8783 59.8641 24.3202 60.7629C25.7622 61.6617 26.9219 62.9483 27.6667 64.4755L31.8245 72.9555C32.2093 73.7337 32.8039 74.3888 33.5414 74.8469C34.2789 75.3049 35.1297 75.5477 35.9978 75.5477C36.866 75.5477 37.7168 75.3049 38.4543 74.8469C39.1917 74.3888 39.7864 73.7337 40.1712 72.9555L44.3289 64.4755C45.122 62.8506 46.3833 61.5003 47.9505 60.5985C49.5177 59.6966 51.3189 59.2846 53.1223 59.4155L62.5734 60.0688C63.4379 60.1342 64.3034 59.9548 65.0707 59.5511C65.8381 59.1474 66.4761 58.5358 66.9119 57.7862C67.3477 57.0367 67.5635 56.1795 67.5347 55.313C67.5059 54.4464 67.2336 53.6055 66.7489 52.8866Z" fill="#EE8F9F"/>
</g>
<defs>
<clipPath id="clip0_137_2455">
<rect width="71.9933" height="80" fill="white"/>
</clipPath>
</defs>
</svg>
