<svg width="72" height="80" viewBox="0 0 72 80" fill="none" xmlns="http://www.w3.org/2000/svg">
<g clip-path="url(#clip0_137_2418)">
<path d="M50.1815 0C49.7682 0 49.3718 0.16462 49.0795 0.457646C48.7872 0.750671 48.623 1.1481 48.623 1.5625V8.75C48.623 9.1644 48.7872 9.56183 49.0795 9.85485C49.3718 10.1479 49.7682 10.3125 50.1815 10.3125C50.5948 10.3125 50.9912 10.1479 51.2835 9.85485C51.5757 9.56183 51.7399 9.1644 51.7399 8.75V1.5625C51.7399 1.1481 51.5757 0.750671 51.2835 0.457646C50.9912 0.16462 50.5948 0 50.1815 0Z" fill="#EE8F9F"/>
<path d="M14.3377 48.75C14.0295 48.75 13.7282 48.8416 13.4719 49.0133C13.2156 49.185 13.0159 49.429 12.8979 49.7146C12.78 50.0001 12.7491 50.3142 12.8092 50.6173C12.8694 50.9204 13.0178 51.1988 13.2358 51.4174C13.4537 51.6359 13.7314 51.7847 14.0337 51.845C14.336 51.9053 14.6494 51.8743 14.9341 51.7561C15.2189 51.6378 15.4623 51.4375 15.6335 51.1806C15.8048 50.9236 15.8962 50.6215 15.8962 50.3125C15.8962 49.8981 15.732 49.5007 15.4397 49.2076C15.1475 48.9146 14.7511 48.75 14.3377 48.75Z" fill="#EE8F9F"/>
<path d="M71.9998 45.6271C71.9998 43.9694 71.3431 42.3797 70.174 41.2076C69.0049 40.0355 67.4194 39.3771 65.7661 39.3771H54.1323C55.9323 34.7521 56.6617 29.3067 56.5214 24.4614C56.4949 23.5364 56.4591 23.0005 56.4123 22.6645C56.3916 21.0069 55.715 19.4255 54.5314 18.268C53.3477 17.1106 51.7539 16.472 50.1006 16.4927C48.4473 16.5134 46.8699 17.1917 45.7155 18.3785C44.5611 19.5653 43.9241 21.1632 43.9448 22.8208V24.3833C43.9448 34.2661 31.2887 39.8177 21.737 42.1958C21.3742 41.3591 20.7757 40.6467 20.015 40.146C19.2543 39.6453 18.3644 39.3781 17.4544 39.3771H1.86996C1.45664 39.3771 1.06024 39.5417 0.76798 39.8347C0.475716 40.1277 0.311523 40.5252 0.311523 40.9396V78.4396C0.311523 78.854 0.475716 79.2514 0.76798 79.5444C1.06024 79.8374 1.45664 80.0021 1.86996 80.0021H17.4544C18.3583 80.0017 19.2427 79.7387 20.0005 79.2448C20.7584 78.7509 21.3572 78.0473 21.7245 77.2192C22.5162 77.4224 23.2507 77.6135 23.9281 77.7927C29.3687 79.2208 32.3655 80.0021 39.6559 80.0021H56.4154C57.5443 80.0016 58.6519 79.6937 59.6199 79.1114C60.588 78.5291 61.3801 77.6941 61.9118 76.6957C62.4435 75.6972 62.6948 74.5727 62.6388 73.4423C62.5829 72.3118 62.2218 71.2178 61.5941 70.2771C62.4907 69.9598 63.3032 69.4416 63.9699 68.762C64.6366 68.0824 65.1399 67.2593 65.4415 66.3554C65.7431 65.4514 65.835 64.4903 65.7103 63.5453C65.5856 62.6003 65.2476 61.6963 64.7219 60.9021C65.6188 60.5852 66.4314 60.0668 67.0977 59.3866C67.764 58.7064 68.2662 57.8823 68.566 56.9776C68.8657 56.0728 68.9551 55.1112 68.8271 54.1665C68.6992 53.2218 68.3574 52.3189 67.8279 51.5271C69.0475 51.0985 70.1041 50.3005 70.8515 49.2435C71.5989 48.1865 72.0002 46.9227 71.9998 45.6271ZM19.0128 75.3146C19.0128 75.729 18.8486 76.1264 18.5564 76.4194C18.2641 76.7124 17.8677 76.8771 17.4544 76.8771H3.42841V42.5021H17.4544C17.8677 42.5021 18.2641 42.6667 18.5564 42.9597C18.8486 43.2527 19.0128 43.6502 19.0128 44.0646V75.3146ZM65.7661 48.7521H57.9739C57.5605 48.7521 57.1641 48.9167 56.8719 49.2097C56.5796 49.5027 56.4154 49.9002 56.4154 50.3146C56.4154 50.729 56.5796 51.1264 56.8719 51.4194C57.1641 51.7124 57.5605 51.8771 57.9739 51.8771H62.6492C63.4758 51.8771 64.2686 52.2063 64.8532 52.7923C65.4377 53.3784 65.7661 54.1733 65.7661 55.0021C65.7661 55.8309 65.4377 56.6257 64.8532 57.2118C64.2686 57.7978 63.4758 58.1271 62.6492 58.1271H54.857C54.4437 58.1271 54.0473 58.2917 53.755 58.5847C53.4627 58.8777 53.2985 59.2752 53.2985 59.6896C53.2985 60.104 53.4627 60.5014 53.755 60.7944C54.0473 61.0874 54.4437 61.2521 54.857 61.2521H59.5323C60.359 61.2521 61.1517 61.5813 61.7363 62.1673C62.3208 62.7534 62.6492 63.5483 62.6492 64.3771C62.6492 65.2059 62.3208 66.0007 61.7363 66.5868C61.1517 67.1728 60.359 67.5021 59.5323 67.5021H51.7401C51.3268 67.5021 50.9304 67.6667 50.6381 67.9597C50.3458 68.2527 50.1817 68.6502 50.1817 69.0646C50.1817 69.479 50.3458 69.8764 50.6381 70.1694C50.9304 70.4624 51.3268 70.6271 51.7401 70.6271H56.4154C57.2421 70.6271 58.0349 70.9563 58.6194 71.5423C59.2039 72.1284 59.5323 72.9233 59.5323 73.7521C59.5323 74.5809 59.2039 75.3757 58.6194 75.9618C58.0349 76.5478 57.2421 76.8771 56.4154 76.8771H39.6559C32.7661 76.8771 30.0762 76.1724 24.7152 74.7692C23.9297 74.5609 23.0679 74.3369 22.1297 74.0974V45.3146C33.4081 42.6224 47.0648 36.0474 47.0648 24.3771V22.8146C47.0648 21.9857 47.3932 21.1909 47.9777 20.6048C48.5622 20.0188 49.355 19.6896 50.1817 19.6896C51.0083 19.6896 51.8011 20.0188 52.3856 20.6048C52.9702 21.1909 53.2985 21.9857 53.2985 22.8146C53.2985 23.4942 54.1432 31.8271 50.7536 39.3771H45.5063C45.093 39.3771 44.6966 39.5417 44.4043 39.8347C44.1121 40.1277 43.9479 40.5252 43.9479 40.9396C43.9479 41.354 44.1121 41.7514 44.4043 42.0444C44.6966 42.3374 45.093 42.5021 45.5063 42.5021H65.7661C66.5927 42.5021 67.3855 42.8313 67.97 43.4173C68.5546 44.0034 68.8829 44.7983 68.8829 45.6271C68.8829 46.4559 68.5546 47.2507 67.97 47.8368C67.3855 48.4228 66.5927 48.7521 65.7661 48.7521Z" fill="#EE8F9F"/>
<path d="M14.3377 55C13.9244 55 13.528 55.1646 13.2358 55.4576C12.9435 55.7507 12.7793 56.1481 12.7793 56.5625V69.0625C12.7793 69.4769 12.9435 69.8743 13.2358 70.1674C13.528 70.4604 13.9244 70.625 14.3377 70.625C14.7511 70.625 15.1475 70.4604 15.4397 70.1674C15.732 69.8743 15.8962 69.4769 15.8962 69.0625V56.5625C15.8962 56.1481 15.732 55.7507 15.4397 55.4576C15.1475 55.1646 14.7511 55 14.3377 55Z" fill="#EE8F9F"/>
<path d="M37.7141 19.6875H31.4803C31.067 19.6875 30.6706 19.8521 30.3783 20.1451C30.0861 20.4382 29.9219 20.8356 29.9219 21.25C29.9219 21.6644 30.0861 22.0618 30.3783 22.3549C30.6706 22.6479 31.067 22.8125 31.4803 22.8125H37.7141C38.1274 22.8125 38.5238 22.6479 38.8161 22.3549C39.1083 22.0618 39.2725 21.6644 39.2725 21.25C39.2725 20.8356 39.1083 20.4382 38.8161 20.1451C38.5238 19.8521 38.1274 19.6875 37.7141 19.6875Z" fill="#EE8F9F"/>
<path d="M68.883 19.6875H62.6493C62.2359 19.6875 61.8395 19.8521 61.5473 20.1451C61.255 20.4382 61.0908 20.8356 61.0908 21.25C61.0908 21.6644 61.255 22.0618 61.5473 22.3549C61.8395 22.6479 62.2359 22.8125 62.6493 22.8125H68.883C69.2964 22.8125 69.6927 22.6479 69.985 22.3549C70.2773 22.0618 70.4415 21.6644 70.4415 21.25C70.4415 20.8356 70.2773 20.4382 69.985 20.1451C69.6927 19.8521 69.2964 19.6875 68.883 19.6875Z" fill="#EE8F9F"/>
<path d="M64.5066 6.88717C64.2144 6.59424 63.818 6.42969 63.4048 6.42969C62.9915 6.42969 62.5952 6.59424 62.303 6.88717L57.8957 11.3059C57.7468 11.4501 57.6281 11.6225 57.5464 11.8131C57.4648 12.0037 57.4218 12.2088 57.42 12.4162C57.4182 12.6237 57.4576 12.8294 57.536 13.0215C57.6143 13.2135 57.73 13.388 57.8764 13.5347C58.0227 13.6814 58.1967 13.7974 58.3882 13.876C58.5798 13.9545 58.785 13.994 58.9919 13.9922C59.1988 13.9904 59.4033 13.9473 59.5935 13.8654C59.7836 13.7836 59.9556 13.6645 60.0993 13.5153L64.5066 9.09654C64.7988 8.80353 64.9629 8.40617 64.9629 7.99185C64.9629 7.57754 64.7988 7.18018 64.5066 6.88717Z" fill="#EE8F9F"/>
<path d="M42.4673 11.3027L38.0601 6.88393C37.7661 6.5993 37.3725 6.44181 36.9638 6.44537C36.5552 6.44893 36.1644 6.61326 35.8754 6.90296C35.5865 7.19266 35.4226 7.58455 35.419 7.99424C35.4155 8.40392 35.5725 8.79861 35.8564 9.0933L40.2637 13.512C40.4075 13.6613 40.5794 13.7803 40.7696 13.8622C40.9597 13.9441 41.1642 13.9872 41.3711 13.989C41.578 13.9908 41.7833 13.9513 41.9748 13.8727C42.1663 13.7941 42.3403 13.6781 42.4866 13.5314C42.633 13.3847 42.7487 13.2103 42.8271 13.0182C42.9054 12.8262 42.9448 12.6205 42.943 12.413C42.9412 12.2055 42.8983 12.0005 42.8166 11.8099C42.7349 11.6192 42.6162 11.4468 42.4673 11.3027Z" fill="#EE8F9F"/>
</g>
<defs>
<clipPath id="clip0_137_2418">
<rect width="71.6883" height="80" fill="white" transform="translate(0.311523)"/>
</clipPath>
</defs>
</svg>
