<svg width="49" height="228" viewBox="0 0 49 228" fill="none" xmlns="http://www.w3.org/2000/svg">
<path d="M18.16 214.9C19.56 216.3 20.26 218.013 20.26 220.04C20.26 222.067 19.56 223.787 18.16 225.2C16.7467 226.6 15.0267 227.3 13 227.3C10.9733 227.3 9.26 226.6 7.86 225.2C6.44667 223.787 5.74 222.067 5.74 220.04C5.74 218.013 6.44667 216.3 7.86 214.9C9.26 213.487 10.9733 212.78 13 212.78C15.0267 212.78 16.7467 213.487 18.16 214.9ZM16.6 223.58C17.5467 222.62 18.02 221.44 18.02 220.04C18.02 218.64 17.5467 217.467 16.6 216.52C15.64 215.56 14.44 215.08 13 215.08C11.56 215.08 10.3667 215.56 9.42 216.52C8.46 217.467 7.98 218.64 7.98 220.04C7.98 221.44 8.46 222.62 9.42 223.58C10.3667 224.527 11.56 225 13 225C14.44 225 15.64 224.527 16.6 223.58ZM20.26 206.182C20.26 207.715 19.7667 208.969 18.78 209.942C17.78 210.902 16.5067 211.382 14.96 211.382C13.2667 211.382 11.96 211.129 11.04 210.622C10.1067 210.115 9.26 209.089 8.5 207.542C8.38 207.289 8.20666 206.915 7.98 206.422C7.75333 205.915 7.59333 205.569 7.5 205.382C7.39333 205.195 7.24667 204.962 7.06 204.682C6.86 204.402 6.65333 204.195 6.44 204.062C6.21333 203.929 5.94666 203.822 5.64 203.742L6.66 201.982C6.95333 202.035 7.22666 202.122 7.48 202.242C7.72 202.362 7.94666 202.535 8.16 202.762C8.37333 202.989 8.54666 203.189 8.68 203.362C8.81333 203.522 8.97333 203.795 9.16 204.182C9.34667 204.569 9.48 204.855 9.56 205.042C9.64 205.215 9.78 205.549 9.98 206.042C10.3267 206.922 10.6867 207.569 11.06 207.982C11.42 208.382 11.8733 208.662 12.42 208.822C11.5133 208.022 11.06 206.935 11.06 205.562C11.06 204.389 11.48 203.369 12.32 202.502C13.16 201.622 14.2467 201.182 15.58 201.182C16.94 201.182 18.06 201.649 18.94 202.582C19.82 203.502 20.26 204.702 20.26 206.182ZM18.24 206.202C18.24 205.362 17.9933 204.675 17.5 204.142C16.9933 203.609 16.3533 203.342 15.58 203.342C14.7933 203.342 14.1467 203.609 13.64 204.142C13.1333 204.662 12.88 205.342 12.88 206.182C12.88 206.929 13.12 207.602 13.6 208.202C14.0667 208.802 14.6933 209.102 15.48 209.102C16.28 209.102 16.94 208.822 17.46 208.262C17.98 207.702 18.24 207.015 18.24 206.202ZM17.96 185.674L17.96 184.334L22.68 184.334L22.68 186.454L20 186.454L20 199.474L10 199.474L10 197.314L17.96 197.314L17.96 193.654L10 193.654L10 191.494L17.96 191.494L17.96 187.834L10 187.834L10 185.674L17.96 185.674ZM10 175.05L10 172.89L20 172.89L20 175.05L18.56 175.05C19.6933 175.864 20.26 177.03 20.26 178.55C20.26 179.924 19.7533 181.097 18.74 182.07C17.7133 183.044 16.4667 183.53 15 183.53C13.52 183.53 12.2733 183.044 11.26 182.07C10.2467 181.097 9.74 179.924 9.74 178.55C9.74 177.03 10.3 175.864 11.42 175.05L10 175.05ZM17.3 180.47C17.9 179.87 18.2 179.117 18.2 178.21C18.2 177.304 17.9 176.55 17.3 175.95C16.6867 175.35 15.92 175.05 15 175.05C14.08 175.05 13.32 175.35 12.72 175.95C12.1067 176.55 11.8 177.304 11.8 178.21C11.8 179.117 12.1067 179.87 12.72 180.47C13.32 181.07 14.08 181.37 15 181.37C15.92 181.37 16.6867 181.07 17.3 180.47ZM10 162.633L20 162.633L20 164.753L16.64 164.753L16.64 165.953L20 168.493L20 171.033L16.44 168.333C16.2133 169.026 15.8133 169.586 15.24 170.013C14.6667 170.426 14.0267 170.633 13.32 170.633C12.4 170.633 11.62 170.306 10.98 169.653C10.3267 168.986 10 168.133 10 167.093L10 162.633ZM14.78 166.973L14.78 164.753L11.96 164.753L11.96 166.973C11.96 167.413 12.0867 167.779 12.34 168.073C12.5933 168.366 12.94 168.513 13.38 168.513C13.8067 168.513 14.1467 168.366 14.4 168.073C14.6533 167.779 14.78 167.413 14.78 166.973ZM20 146.179L20 148.679L16.58 151.159L20 153.659L20 156.179L14.86 152.419L10 155.979L10 153.479L13.16 151.179L10 148.879L10 146.359L14.88 149.919L20 146.179ZM10 137.531L10 135.371L20 135.371L20 137.531L18.56 137.531C19.6933 138.344 20.26 139.511 20.26 141.031C20.26 142.404 19.7533 143.578 18.74 144.551C17.7133 145.524 16.4667 146.011 15 146.011C13.52 146.011 12.2733 145.524 11.26 144.551C10.2467 143.578 9.74 142.404 9.74 141.031C9.74 139.511 10.3 138.344 11.42 137.531L10 137.531ZM17.3 142.951C17.9 142.351 18.2 141.598 18.2 140.691C18.2 139.784 17.9 139.031 17.3 138.431C16.6867 137.831 15.92 137.531 15 137.531C14.08 137.531 13.32 137.831 12.72 138.431C12.1067 139.031 11.8 139.784 11.8 140.691C11.8 141.598 12.1067 142.351 12.72 142.951C13.32 143.551 14.08 143.851 15 143.851C15.92 143.851 16.6867 143.551 17.3 142.951ZM9.74 127.193C9.74 125.82 10.2533 124.647 11.28 123.673C12.2933 122.7 13.5333 122.213 15 122.213C16.48 122.213 17.7267 122.7 18.74 123.673C19.7533 124.647 20.26 125.82 20.26 127.193C20.26 128.713 19.7 129.88 18.58 130.693L24 130.693L24 132.853L10 132.853L10 130.693L11.44 130.693C10.3067 129.88 9.74 128.713 9.74 127.193ZM17.3 129.793C17.9 129.193 18.2 128.44 18.2 127.533C18.2 126.627 17.9 125.873 17.3 125.273C16.6867 124.673 15.92 124.373 15 124.373C14.08 124.373 13.32 124.673 12.72 125.273C12.1067 125.873 11.8 126.627 11.8 127.533C11.8 128.44 12.1067 129.193 12.72 129.793C13.32 130.393 14.08 130.693 15 130.693C15.92 130.693 16.6867 130.393 17.3 129.793ZM9.99999 112.336L9.99999 110.176L20 110.176L20 112.336L18.56 112.336C19.6933 113.149 20.26 114.316 20.26 115.836C20.26 117.209 19.7533 118.382 18.74 119.356C17.7133 120.329 16.4667 120.816 15 120.816C13.52 120.816 12.2733 120.329 11.26 119.356C10.2467 118.382 9.73999 117.209 9.73999 115.836C9.73999 114.316 10.3 113.149 11.42 112.336L9.99999 112.336ZM17.3 117.756C17.9 117.156 18.2 116.402 18.2 115.496C18.2 114.589 17.9 113.836 17.3 113.236C16.6867 112.636 15.92 112.336 15 112.336C14.08 112.336 13.32 112.636 12.72 113.236C12.1067 113.836 11.8 114.589 11.8 115.496C11.8 116.402 12.1067 117.156 12.72 117.756C13.32 118.356 14.08 118.656 15 118.656C15.92 118.656 16.6867 118.356 17.3 117.756ZM20 98.818L20 101.398L15.38 105.498L20 105.498L20 107.658L9.99999 107.658L9.99999 105.498L14.42 105.498L9.99999 101.618L9.99999 98.978L14.9 103.378L20 98.818ZM9.99999 89.725L12.08 89.725L12.08 92.985L20 92.985L20 95.145L12.08 95.145L12.08 98.425L9.99999 98.425L9.99999 89.725ZM15.92 86.9541C16.68 86.7941 17.2667 86.4274 17.68 85.8541C18.08 85.2807 18.28 84.5807 18.28 83.7541C18.28 82.6074 17.8667 81.7474 17.04 81.1741L18.08 79.3941C19.5333 80.3807 20.26 81.8407 20.26 83.7741C20.26 85.4007 19.7667 86.7141 18.78 87.7141C17.78 88.7141 16.52 89.2141 15 89.2141C13.5067 89.2141 12.26 88.7207 11.26 87.7341C10.2467 86.7474 9.73999 85.4807 9.73999 83.9341C9.73999 82.4674 10.2533 81.2674 11.28 80.3341C12.3067 79.3874 13.5533 78.9141 15.02 78.9141C15.2467 78.9141 15.5467 78.9407 15.92 78.9941L15.92 86.9541ZM14.16 86.9741L14.16 81.0941C13.3467 81.2407 12.7333 81.5807 12.32 82.1141C11.9067 82.6341 11.7 83.2474 11.7 83.9541C11.7 84.7541 11.92 85.4207 12.36 85.9541C12.8 86.4874 13.4 86.8274 14.16 86.9741ZM9.73999 71.3534C9.73999 69.9801 10.2533 68.8068 11.28 67.8334C12.2933 66.8601 13.5333 66.3734 15 66.3734C16.48 66.3734 17.7267 66.8601 18.74 67.8334C19.7533 68.8068 20.26 69.9801 20.26 71.3534C20.26 72.8734 19.7 74.0401 18.58 74.8534L24 74.8534L24 77.0134L9.99999 77.0134L9.99999 74.8534L11.44 74.8534C10.3067 74.0401 9.73999 72.8734 9.73999 71.3534ZM17.3 73.9534C17.9 73.3534 18.2 72.6001 18.2 71.6934C18.2 70.7868 17.9 70.0334 17.3 69.4334C16.6867 68.8334 15.92 68.5334 15 68.5334C14.08 68.5334 13.32 68.8334 12.72 69.4334C12.1067 70.0334 11.8 70.7868 11.8 71.6934C11.8 72.6001 12.1067 73.3534 12.72 73.9534C13.32 74.5534 14.08 74.8534 15 74.8534C15.92 74.8534 16.6867 74.5534 17.3 73.9534ZM9.99999 57.1758L9.99999 55.5158L20 55.5158L20 57.6358L13.64 57.6358L20 62.7558L20 64.4158L9.99999 64.4158L9.99999 62.2958L16.34 62.2958L9.99999 57.1758ZM20.26 48.2895C20.26 49.7962 19.7533 51.0562 18.74 52.0695C17.7267 53.0695 16.48 53.5695 15 53.5695C13.5067 53.5695 12.26 53.0695 11.26 52.0695C10.2467 51.0562 9.73999 49.7962 9.73999 48.2895C9.73999 47.3162 9.97333 46.4295 10.44 45.6295C10.9067 44.8295 11.5333 44.2295 12.32 43.8295L13.4 45.6895C12.92 45.9162 12.5467 46.2629 12.28 46.7295C12 47.1829 11.86 47.7095 11.86 48.3095C11.86 49.1895 12.16 49.9295 12.76 50.5295C13.36 51.1162 14.1067 51.4095 15 51.4095C15.8933 51.4095 16.64 51.1162 17.24 50.5295C17.84 49.9295 18.14 49.1895 18.14 48.3095C18.14 47.7229 18 47.1962 17.72 46.7295C17.44 46.2495 17.0667 45.8895 16.6 45.6495L17.66 43.7895C18.46 44.2162 19.0933 44.8295 19.56 45.6295C20.0267 46.4295 20.26 47.3162 20.26 48.2895ZM9.99999 34.6859L12.08 34.6859L12.08 37.9459L20 37.9459L20 40.1059L12.08 40.1059L12.08 43.3859L9.99999 43.3859L9.99999 34.6859ZM9.99999 25.9844L9.99999 24.3244L20 24.3244L20 26.4444L13.64 26.4444L20 31.5644L20 33.2244L9.99999 33.2244L9.99999 31.1044L16.34 31.1044L9.99999 25.9844ZM20 12.9781L20 15.5581L15.38 19.6581L20 19.6581L20 21.8181L9.99999 21.8181L9.99999 19.6581L14.42 19.6581L9.99999 15.7781L9.99999 13.1381L14.9 17.5381L20 12.9781ZM9.99999 4.40594L9.99999 2.24594L20 2.24594L20 4.40594L18.56 4.40594C19.6933 5.21927 20.26 6.38594 20.26 7.90594C20.26 9.27927 19.7533 10.4526 18.74 11.4259C17.7133 12.3993 16.4667 12.8859 15 12.8859C13.52 12.8859 12.2733 12.3993 11.26 11.4259C10.2467 10.4526 9.73999 9.27927 9.73999 7.90594C9.73999 6.38594 10.3 5.21927 11.42 4.40594L9.99999 4.40594ZM17.3 9.82594C17.9 9.22594 18.2 8.4726 18.2 7.56594C18.2 6.65927 17.9 5.90594 17.3 5.30594C16.6867 4.70594 15.92 4.40594 15 4.40594C14.08 4.40594 13.32 4.70594 12.72 5.30594C12.1067 5.90594 11.8 6.65927 11.8 7.56594C11.8 8.4726 12.1067 9.22594 12.72 9.82594C13.32 10.4259 14.08 10.7259 15 10.7259C15.92 10.7259 16.6867 10.4259 17.3 9.82594Z" fill="white"/>
<path d="M36 211.82L44 211.82L44 212.876L37.024 212.876L37.024 216.492L40.592 216.492C41.9253 216.492 42.8427 216.748 43.344 217.26C43.8453 217.761 44.064 218.455 44 219.34L43.008 219.34C43.072 218.732 42.928 218.284 42.576 217.996C42.224 217.697 41.5627 217.548 40.592 217.548L36 217.548L36 211.82ZM35.808 205.887C35.808 204.703 36.2293 203.748 37.072 203.023C37.904 202.287 38.8907 201.919 40.032 201.919C40.1493 201.919 40.3147 201.93 40.528 201.951L40.528 208.975C41.3387 208.868 41.984 208.527 42.464 207.951C42.9333 207.364 43.168 206.644 43.168 205.791C43.168 205.183 43.0453 204.66 42.8 204.223C42.544 203.775 42.2133 203.439 41.808 203.215L42.352 202.287C42.9173 202.639 43.3653 203.119 43.696 203.727C44.0267 204.335 44.192 205.028 44.192 205.807C44.192 207.066 43.7973 208.09 43.008 208.879C42.2187 209.668 41.216 210.063 40 210.063C38.8053 210.063 37.808 209.674 37.008 208.895C36.208 208.116 35.808 207.114 35.808 205.887ZM36.832 205.887C36.832 206.719 37.0827 207.418 37.584 207.983C38.0747 208.538 38.7147 208.868 39.504 208.975L39.504 203.007C38.6613 203.114 38.0053 203.439 37.536 203.983C37.0667 204.527 36.832 205.162 36.832 205.887ZM44 193.775L44 195.183L40.144 199.183L44 199.183L44 200.239L36 200.239L36 199.183L39.536 199.183L36 195.375L36 193.935L39.84 198.063L44 193.775ZM36 186.25L36 185.194L44 185.194L44 186.25L42.432 186.25C43.6053 186.986 44.192 188.063 44.192 189.482C44.192 190.623 43.7867 191.599 42.976 192.41C42.1653 193.21 41.1733 193.61 40 193.61C38.8267 193.61 37.8347 193.21 37.024 192.41C36.2133 191.599 35.808 190.623 35.808 189.482C35.808 188.063 36.3947 186.986 37.568 186.25L36 186.25ZM42.256 191.642C42.864 191.034 43.168 190.287 43.168 189.402C43.168 188.517 42.864 187.77 42.256 187.162C41.6373 186.554 40.8853 186.25 40 186.25C39.1147 186.25 38.368 186.554 37.76 187.162C37.1413 187.77 36.832 188.517 36.832 189.402C36.832 190.287 37.1413 191.034 37.76 191.642C38.368 192.25 39.1147 192.554 40 192.554C40.8853 192.554 41.6373 192.25 42.256 191.642ZM35.808 178.67C35.808 177.529 36.2133 176.558 37.024 175.758C37.8347 174.947 38.8267 174.542 40 174.542C41.1733 174.542 42.1653 174.947 42.976 175.758C43.7867 176.558 44.192 177.529 44.192 178.67C44.192 180.089 43.6053 181.166 42.432 181.902L47.2 181.902L47.2 182.958L36 182.958L36 181.902L37.568 181.902C36.3947 181.166 35.808 180.089 35.808 178.67ZM42.256 180.99C42.864 180.382 43.168 179.635 43.168 178.75C43.168 177.865 42.864 177.118 42.256 176.51C41.6373 175.902 40.8853 175.598 40 175.598C39.1147 175.598 38.368 175.902 37.76 176.51C37.1413 177.118 36.832 177.865 36.832 178.75C36.832 179.635 37.1413 180.382 37.76 180.99C38.368 181.598 39.1147 181.902 40 181.902C40.8853 181.902 41.6373 181.598 42.256 180.99ZM44.192 169.058C44.192 170.264 43.792 171.266 42.992 172.066C42.1813 172.866 41.184 173.266 40 173.266C38.816 173.266 37.824 172.866 37.024 172.066C36.2133 171.266 35.808 170.264 35.808 169.058C35.808 168.269 36 167.56 36.384 166.93C36.7573 166.301 37.264 165.842 37.904 165.554L38.4 166.418C37.92 166.632 37.5413 166.978 37.264 167.458C36.976 167.928 36.832 168.461 36.832 169.058C36.832 169.944 37.1413 170.69 37.76 171.298C38.368 171.906 39.1147 172.21 40 172.21C40.8853 172.21 41.6373 171.906 42.256 171.298C42.864 170.69 43.168 169.944 43.168 169.058C43.168 168.461 43.0293 167.928 42.752 167.458C42.464 166.989 42.08 166.621 41.6 166.354L42.112 165.474C42.752 165.805 43.2587 166.29 43.632 166.93C44.0053 167.57 44.192 168.28 44.192 169.058ZM36 158.354L37.024 158.354L37.024 161.186L44 161.186L44 162.242L37.024 162.242L37.024 165.074L36 165.074L36 158.354ZM39.888 151.979C40.208 151.105 40.832 150.667 41.76 150.667C42.4107 150.667 42.9493 150.886 43.376 151.323C43.792 151.75 44 152.369 44 153.179L44 157.067L36 157.067L36 153.499C36 152.721 36.2027 152.118 36.608 151.691C37.0027 151.265 37.5147 151.051 38.144 151.051C38.944 151.051 39.5253 151.361 39.888 151.979ZM37.024 153.499L37.024 156.011L39.456 156.011L39.456 153.499C39.456 152.571 39.04 152.107 38.208 152.107C37.8347 152.107 37.5467 152.23 37.344 152.475C37.1307 152.71 37.024 153.051 37.024 153.499ZM42.976 153.179C42.976 152.71 42.864 152.353 42.64 152.107C42.416 151.851 42.1013 151.723 41.696 151.723C41.3227 151.723 41.0293 151.851 40.816 152.107C40.592 152.353 40.48 152.71 40.48 153.179L40.48 156.011L42.976 156.011L42.976 153.179ZM35.808 145.371C35.808 144.187 36.2293 143.233 37.072 142.507C37.904 141.771 38.8907 141.403 40.032 141.403C40.1493 141.403 40.3147 141.414 40.528 141.435L40.528 148.459C41.3387 148.353 41.984 148.011 42.464 147.435C42.9333 146.849 43.168 146.129 43.168 145.275C43.168 144.667 43.0453 144.145 42.8 143.707C42.544 143.259 42.2133 142.923 41.808 142.699L42.352 141.771C42.9173 142.123 43.3653 142.603 43.696 143.211C44.0267 143.819 44.192 144.513 44.192 145.291C44.192 146.55 43.7973 147.574 43.008 148.363C42.2187 149.153 41.216 149.547 40 149.547C38.8053 149.547 37.808 149.158 37.008 148.379C36.208 147.601 35.808 146.598 35.808 145.371ZM36.832 145.371C36.832 146.203 37.0827 146.902 37.584 147.467C38.0747 148.022 38.7147 148.353 39.504 148.459L39.504 142.491C38.6613 142.598 38.0053 142.923 37.536 143.467C37.0667 144.011 36.832 144.646 36.832 145.371ZM36 134.06L36 133.004L44 133.004L44 134.06L40.512 134.06L40.512 138.668L44 138.668L44 139.724L36 139.724L36 138.668L39.488 138.668L39.488 134.06L36 134.06ZM36 125.107L36 124.051L44 124.051L44 125.107L40.512 125.107L40.512 129.715L44 129.715L44 130.771L36 130.771L36 129.715L39.488 129.715L39.488 125.107L36 125.107ZM42.992 115.113C43.792 115.924 44.192 116.916 44.192 118.089C44.192 119.263 43.792 120.26 42.992 121.081C42.1813 121.892 41.184 122.297 40 122.297C38.816 122.297 37.824 121.892 37.024 121.081C36.2133 120.26 35.808 119.263 35.808 118.089C35.808 116.916 36.2133 115.924 37.024 115.113C37.824 114.292 38.816 113.881 40 113.881C41.184 113.881 42.1813 114.292 42.992 115.113ZM42.256 120.329C42.864 119.721 43.168 118.975 43.168 118.089C43.168 117.204 42.864 116.457 42.256 115.849C41.6373 115.241 40.8853 114.937 40 114.937C39.1147 114.937 38.368 115.241 37.76 115.849C37.1413 116.457 36.832 117.204 36.832 118.089C36.832 118.975 37.1413 119.721 37.76 120.329C38.368 120.937 39.1147 121.241 40 121.241C40.8853 121.241 41.6373 120.937 42.256 120.329ZM36 106.994L37.024 106.994L37.024 111.058L44 111.058L44 112.114L36 112.114L36 106.994ZM42.992 99.3166C43.792 100.127 44.192 101.119 44.192 102.293C44.192 103.466 43.792 104.463 42.992 105.285C42.1813 106.095 41.184 106.501 40 106.501C38.816 106.501 37.824 106.095 37.024 105.285C36.2133 104.463 35.808 103.466 35.808 102.293C35.808 101.119 36.2133 100.127 37.024 99.3166C37.824 98.4953 38.816 98.0846 40 98.0846C41.184 98.0846 42.1813 98.4953 42.992 99.3166ZM42.256 104.533C42.864 103.925 43.168 103.178 43.168 102.293C43.168 101.407 42.864 100.661 42.256 100.053C41.6373 99.4446 40.8853 99.1406 40 99.1406C39.1147 99.1406 38.368 99.4446 37.76 100.053C37.1413 100.661 36.832 101.407 36.832 102.293C36.832 103.178 37.1413 103.925 37.76 104.533C38.368 105.141 39.1147 105.445 40 105.445C40.8853 105.445 41.6373 105.141 42.256 104.533ZM36 85.5975L44 85.5975L44 86.6535L37.024 86.6535L37.024 91.2615L44 91.2615L44 92.3175L36 92.3175L36 85.5975ZM35.808 79.0764C35.808 77.935 36.2133 76.9644 37.024 76.1644C37.8347 75.3537 38.8267 74.9484 40 74.9484C41.1733 74.9484 42.1653 75.3537 42.976 76.1644C43.7867 76.9644 44.192 77.935 44.192 79.0764C44.192 80.495 43.6053 81.5724 42.432 82.3084L47.2 82.3084L47.2 83.3644L36 83.3644L36 82.3084L37.568 82.3084C36.3947 81.5724 35.808 80.495 35.808 79.0764ZM42.256 81.3964C42.864 80.7884 43.168 80.0417 43.168 79.1564C43.168 78.271 42.864 77.5244 42.256 76.9164C41.6373 76.3084 40.8853 76.0044 40 76.0044C39.1147 76.0044 38.368 76.3084 37.76 76.9164C37.1413 77.5244 36.832 78.271 36.832 79.1564C36.832 80.0417 37.1413 80.7884 37.76 81.3964C38.368 82.0044 39.1147 82.3084 40 82.3084C40.8853 82.3084 41.6373 82.0044 42.256 81.3964ZM35.808 69.4965C35.808 68.3125 36.2293 67.3578 37.072 66.6325C37.904 65.8965 38.8907 65.5285 40.032 65.5285C40.1493 65.5285 40.3147 65.5392 40.528 65.5605L40.528 72.5845C41.3387 72.4778 41.984 72.1365 42.464 71.5605C42.9333 70.9738 43.168 70.2538 43.168 69.4005C43.168 68.7925 43.0453 68.2698 42.8 67.8325C42.544 67.3845 42.2133 67.0485 41.808 66.8245L42.352 65.8965C42.9173 66.2485 43.3653 66.7285 43.696 67.3365C44.0267 67.9445 44.192 68.6378 44.192 69.4165C44.192 70.6752 43.7973 71.6992 43.008 72.4885C42.2187 73.2778 41.216 73.6725 40 73.6725C38.8053 73.6725 37.808 73.2832 37.008 72.5045C36.208 71.7258 35.808 70.7232 35.808 69.4965ZM36.832 69.4965C36.832 70.3285 37.0827 71.0272 37.584 71.5925C38.0747 72.1472 38.7147 72.4778 39.504 72.5845L39.504 66.6165C38.6613 66.7232 38.0053 67.0485 37.536 67.5925C37.0667 68.1365 36.832 68.7712 36.832 69.4965ZM36 57.1287L44 57.1287L44 58.1847L37.024 58.1847L37.024 62.7927L44 62.7927L44 63.8487L36 63.8487L36 57.1287ZM36 48.0156L36 46.9596L44 46.9596L44 48.0156L42.432 48.0156C43.6053 48.7516 44.192 49.829 44.192 51.2476C44.192 52.389 43.7867 53.365 42.976 54.1756C42.1653 54.9756 41.1733 55.3756 40 55.3756C38.8267 55.3756 37.8347 54.9756 37.024 54.1756C36.2133 53.365 35.808 52.389 35.808 51.2476C35.808 49.829 36.3947 48.7516 37.568 48.0156L36 48.0156ZM42.256 53.4076C42.864 52.7996 43.168 52.053 43.168 51.1676C43.168 50.2823 42.864 49.5356 42.256 48.9276C41.6373 48.3196 40.8853 48.0156 40 48.0156C39.1147 48.0156 38.368 48.3196 37.76 48.9276C37.1413 49.5356 36.832 50.2823 36.832 51.1676C36.832 52.053 37.1413 52.7996 37.76 53.4076C38.368 54.0156 39.1147 54.3196 40 54.3196C40.8853 54.3196 41.6373 54.0156 42.256 53.4076ZM35.808 40.4357C35.808 39.2944 36.2133 38.3237 37.024 37.5237C37.8347 36.7131 38.8267 36.3077 40 36.3077C41.1733 36.3077 42.1653 36.7131 42.976 37.5237C43.7867 38.3237 44.192 39.2944 44.192 40.4357C44.192 41.8544 43.6053 42.9317 42.432 43.6677L47.2 43.6677L47.2 44.7237L36 44.7237L36 43.6677L37.568 43.6677C36.3947 42.9317 35.808 41.8544 35.808 40.4357ZM42.256 42.7557C42.864 42.1477 43.168 41.4011 43.168 40.5157C43.168 39.6304 42.864 38.8837 42.256 38.2757C41.6373 37.6677 40.8853 37.3637 40 37.3637C39.1147 37.3637 38.368 37.6677 37.76 38.2757C37.1413 38.8837 36.832 39.6304 36.832 40.5157C36.832 41.4011 37.1413 42.1477 37.76 42.7557C38.368 43.3637 39.1147 43.6677 40 43.6677C40.8853 43.6677 41.6373 43.3637 42.256 42.7557ZM36 27.6719L36 26.6159L44 26.6159L44 27.6719L42.432 27.6719C43.6053 28.4079 44.192 29.4852 44.192 30.9039C44.192 32.0452 43.7867 33.0212 42.976 33.8319C42.1653 34.6319 41.1733 35.0319 40 35.0319C38.8267 35.0319 37.8347 34.6319 37.024 33.8319C36.2133 33.0212 35.808 32.0452 35.808 30.9039C35.808 29.4852 36.3947 28.4079 37.568 27.6719L36 27.6719ZM42.256 33.0639C42.864 32.4559 43.168 31.7092 43.168 30.8239C43.168 29.9385 42.864 29.1919 42.256 28.5839C41.6373 27.9759 40.8853 27.6719 40 27.6719C39.1147 27.6719 38.368 27.9759 37.76 28.5839C37.1413 29.1919 36.832 29.9385 36.832 30.8239C36.832 31.7092 37.1413 32.4559 37.76 33.0639C38.368 33.6719 39.1147 33.9759 40 33.9759C40.8853 33.9759 41.6373 33.6719 42.256 33.0639ZM36 18.62L37.024 18.62L37.024 21.452L44 21.452L44 22.508L37.024 22.508L37.024 25.34L36 25.34L36 18.62ZM36 10.7656L36 9.70962L44 9.70962L44 10.7656L42.432 10.7656C43.6053 11.5016 44.192 12.579 44.192 13.9976C44.192 15.139 43.7867 16.115 42.976 16.9256C42.1653 17.7256 41.1733 18.1256 40 18.1256C38.8267 18.1256 37.8347 17.7256 37.024 16.9256C36.2133 16.115 35.808 15.139 35.808 13.9976C35.808 12.579 36.3947 11.5016 37.568 10.7656L36 10.7656ZM42.256 16.1576C42.864 15.5496 43.168 14.803 43.168 13.9176C43.168 13.0323 42.864 12.2856 42.256 11.6776C41.6373 11.0696 40.8853 10.7656 40 10.7656C39.1147 10.7656 38.368 11.0696 37.76 11.6776C37.1413 12.2856 36.832 13.0323 36.832 13.9176C36.832 14.803 37.1413 15.5496 37.76 16.1576C38.368 16.7656 39.1147 17.0696 40 17.0696C40.8853 17.0696 41.6373 16.7656 42.256 16.1576Z" fill="white"/>
</svg>
