<svg width="180" height="31" viewBox="0 0 180 31" fill="none" xmlns="http://www.w3.org/2000/svg">
<path d="M10.5042 10.512C9.38419 11.6427 8.01352 12.208 6.39219 12.208C4.77085 12.208 3.40019 11.6427 2.28019 10.512C1.16019 9.38133 0.600188 8.01067 0.600188 6.4C0.600188 4.77867 1.16019 3.408 2.28019 2.288C3.40019 1.15733 4.77085 0.591999 6.39219 0.591999C8.01352 0.591999 9.38419 1.15733 10.5042 2.288C11.6349 3.408 12.2002 4.77867 12.2002 6.4C12.2002 8.01067 11.6349 9.38133 10.5042 10.512ZM3.30419 9.504C4.13619 10.336 5.16552 10.752 6.39219 10.752C7.61885 10.752 8.64285 10.336 9.46419 9.504C10.2962 8.66133 10.7122 7.62667 10.7122 6.4C10.7122 5.16267 10.2962 4.128 9.46419 3.296C8.64285 2.45333 7.61885 2.032 6.39219 2.032C5.16552 2.032 4.13619 2.45333 3.30419 3.296C2.48285 4.128 2.07219 5.16267 2.07219 6.4C2.07219 7.62667 2.48285 8.66133 3.30419 9.504ZM17.4771 12.208C16.2931 12.208 15.3171 11.8187 14.5491 11.04C13.7811 10.2613 13.3971 9.25867 13.3971 8.032C13.3971 6.66667 13.5944 5.616 13.9891 4.88C14.3944 4.144 15.2157 3.47733 16.4531 2.88C16.6771 2.77333 16.9811 2.63467 17.3651 2.464C17.7597 2.29333 18.0477 2.16533 18.2291 2.08C18.4104 1.984 18.6131 1.86133 18.8371 1.712C19.0611 1.552 19.2264 1.38133 19.3331 1.2C19.4504 1.008 19.5357 0.789333 19.5891 0.544L20.7091 1.184C20.6771 1.35467 20.6344 1.51467 20.5811 1.664C20.5277 1.80267 20.4477 1.94133 20.3411 2.08C20.2451 2.208 20.1597 2.32 20.0851 2.416C20.0104 2.512 19.8824 2.61867 19.7011 2.736C19.5304 2.84267 19.4024 2.92267 19.3171 2.976C19.2424 3.02933 19.0877 3.10933 18.8531 3.216C18.6291 3.32267 18.4744 3.39733 18.3891 3.44C18.3144 3.472 18.1384 3.54667 17.8611 3.664C17.5837 3.77067 17.4131 3.84 17.3491 3.872C16.6237 4.18133 16.0904 4.496 15.7491 4.816C15.4184 5.136 15.1784 5.54133 15.0291 6.032C15.3704 5.60533 15.7971 5.29067 16.3091 5.088C16.8211 4.88533 17.3331 4.784 17.8451 4.784C18.8477 4.784 19.6957 5.12533 20.3891 5.808C21.0931 6.49067 21.4451 7.37067 21.4451 8.448C21.4451 9.536 21.0717 10.4373 20.3251 11.152C19.5784 11.856 18.6291 12.208 17.4771 12.208ZM15.6051 10.16C16.1064 10.6293 16.7304 10.864 17.4771 10.864C18.2237 10.864 18.8371 10.6347 19.3171 10.176C19.8077 9.71733 20.0531 9.14133 20.0531 8.448C20.0531 7.73333 19.8184 7.152 19.3491 6.704C18.8904 6.24533 18.2824 6.016 17.5251 6.016C16.8424 6.016 16.2237 6.23467 15.6691 6.672C15.1251 7.09867 14.8531 7.664 14.8531 8.368C14.8531 9.09333 15.1037 9.69067 15.6051 10.16ZM33.8032 10.672H34.9072V14.144H33.5312V12H22.9232V4H24.3152V10.672H27.6752V4H29.0672V10.672H32.4112V4H33.8032V10.672ZM42.7191 4H44.1111V12H42.7191V10.624C42.0257 11.68 41.0177 12.208 39.6951 12.208C38.5751 12.208 37.6204 11.8027 36.8311 10.992C36.0417 10.1707 35.6471 9.17333 35.6471 8C35.6471 6.82667 36.0417 5.83467 36.8311 5.024C37.6204 4.20267 38.5751 3.792 39.6951 3.792C41.0177 3.792 42.0257 4.32 42.7191 5.376V4ZM39.8711 10.864C40.6817 10.864 41.3591 10.592 41.9031 10.048C42.4471 9.49333 42.7191 8.81067 42.7191 8C42.7191 7.18933 42.4471 6.512 41.9031 5.968C41.3591 5.41333 40.6817 5.136 39.8711 5.136C39.0711 5.136 38.3991 5.41333 37.8551 5.968C37.3111 6.512 37.0391 7.18933 37.0391 8C37.0391 8.81067 37.3111 9.49333 37.8551 10.048C38.3991 10.592 39.0711 10.864 39.8711 10.864ZM52.2041 4V12H50.8281V9.12H49.6601L47.4201 12H45.7241L48.0601 9.04C47.4627 8.89067 46.9774 8.592 46.6041 8.144C46.2307 7.696 46.0441 7.17333 46.0441 6.576C46.0441 5.84 46.3054 5.22667 46.8281 4.736C47.3507 4.24533 48.0067 4 48.7961 4H52.2041ZM48.8441 7.872H50.8281V5.296H48.8441C48.4494 5.296 48.1134 5.41333 47.8361 5.648C47.5587 5.88267 47.4201 6.19733 47.4201 6.592C47.4201 6.976 47.5587 7.28533 47.8361 7.52C48.1134 7.75467 48.4494 7.872 48.8441 7.872ZM65.2578 12H63.6258L61.3858 8.976L59.1298 12H57.4978L60.5698 7.888L57.6738 4H59.3218L61.3858 6.784L63.4498 4H65.0818L62.2018 7.872L65.2578 12ZM72.6097 4H74.0017V12H72.6097V10.624C71.9164 11.68 70.9084 12.208 69.5857 12.208C68.4657 12.208 67.511 11.8027 66.7217 10.992C65.9324 10.1707 65.5377 9.17333 65.5377 8C65.5377 6.82667 65.9324 5.83467 66.7217 5.024C67.511 4.20267 68.4657 3.792 69.5857 3.792C70.9084 3.792 71.9164 4.32 72.6097 5.376V4ZM69.7617 10.864C70.5724 10.864 71.2497 10.592 71.7937 10.048C72.3377 9.49333 72.6097 8.81067 72.6097 8C72.6097 7.18933 72.3377 6.512 71.7937 5.968C71.2497 5.41333 70.5724 5.136 69.7617 5.136C68.9617 5.136 68.2897 5.41333 67.7457 5.968C67.2017 6.512 66.9297 7.18933 66.9297 8C66.9297 8.81067 67.2017 9.49333 67.7457 10.048C68.2897 10.592 68.9617 10.864 69.7617 10.864ZM80.5267 3.792C81.6467 3.792 82.6014 4.20267 83.3907 5.024C84.18 5.83467 84.5747 6.82667 84.5747 8C84.5747 9.17333 84.18 10.1707 83.3907 10.992C82.6014 11.8027 81.6467 12.208 80.5267 12.208C79.204 12.208 78.196 11.68 77.5027 10.624V15.2H76.1107V4H77.5027V5.376C78.196 4.32 79.204 3.792 80.5267 3.792ZM80.3507 10.864C81.1507 10.864 81.8227 10.592 82.3667 10.048C82.9107 9.49333 83.1827 8.81067 83.1827 8C83.1827 7.18933 82.9107 6.512 82.3667 5.968C81.8227 5.41333 81.1507 5.136 80.3507 5.136C79.54 5.136 78.8627 5.41333 78.3187 5.968C77.7747 6.512 77.5027 7.18933 77.5027 8C77.5027 8.81067 77.7747 9.49333 78.3187 10.048C78.8627 10.592 79.54 10.864 80.3507 10.864ZM92.8597 4H94.2517V12H92.8597V10.624C92.1664 11.68 91.1584 12.208 89.8357 12.208C88.7157 12.208 87.761 11.8027 86.9717 10.992C86.1824 10.1707 85.7877 9.17333 85.7877 8C85.7877 6.82667 86.1824 5.83467 86.9717 5.024C87.761 4.20267 88.7157 3.792 89.8357 3.792C91.1584 3.792 92.1664 4.32 92.8597 5.376V4ZM90.0117 10.864C90.8224 10.864 91.4997 10.592 92.0437 10.048C92.5877 9.49333 92.8597 8.81067 92.8597 8C92.8597 7.18933 92.5877 6.512 92.0437 5.968C91.4997 5.41333 90.8224 5.136 90.0117 5.136C89.2117 5.136 88.5397 5.41333 87.9957 5.968C87.4517 6.512 87.1797 7.18933 87.1797 8C87.1797 8.81067 87.4517 9.49333 87.9957 10.048C88.5397 10.592 89.2117 10.864 90.0117 10.864ZM103.129 12H101.401L97.7527 8.208V12H96.3607V4H97.7527V7.536L101.209 4H103.001L99.1767 7.872L103.129 12ZM110.375 4V5.344H107.655V12H106.263V5.344H103.527V4H110.375ZM112.259 8.64C112.397 9.35467 112.723 9.90933 113.235 10.304C113.757 10.6987 114.397 10.896 115.155 10.896C116.211 10.896 116.979 10.5067 117.459 9.728L118.643 10.4C117.864 11.6053 116.691 12.208 115.123 12.208C113.853 12.208 112.819 11.8133 112.019 11.024C111.229 10.224 110.835 9.216 110.835 8C110.835 6.79467 111.224 5.792 112.003 4.992C112.781 4.192 113.789 3.792 115.027 3.792C116.2 3.792 117.155 4.208 117.891 5.04C118.637 5.86133 119.011 6.85333 119.011 8.016C119.011 8.21867 118.995 8.42667 118.963 8.64H112.259ZM115.027 5.104C114.28 5.104 113.661 5.31733 113.171 5.744C112.68 6.16 112.376 6.72 112.259 7.424H117.603C117.485 6.66667 117.187 6.09067 116.707 5.696C116.227 5.30133 115.667 5.104 115.027 5.104ZM125.027 3.792C126.147 3.792 127.101 4.20267 127.891 5.024C128.68 5.83467 129.075 6.82667 129.075 8C129.075 9.17333 128.68 10.1707 127.891 10.992C127.101 11.8027 126.147 12.208 125.027 12.208C123.704 12.208 122.696 11.68 122.003 10.624V15.2H120.611V4H122.003V5.376C122.696 4.32 123.704 3.792 125.027 3.792ZM124.851 10.864C125.651 10.864 126.323 10.592 126.867 10.048C127.411 9.49333 127.683 8.81067 127.683 8C127.683 7.18933 127.411 6.512 126.867 5.968C126.323 5.41333 125.651 5.136 124.851 5.136C124.04 5.136 123.363 5.41333 122.819 5.968C122.275 6.512 122.003 7.18933 122.003 8C122.003 8.81067 122.275 9.49333 122.819 10.048C123.363 10.592 124.04 10.864 124.851 10.864ZM136.544 4H137.664V12H136.288V6.384L131.856 12H130.736V4H132.112V9.616L136.544 4ZM143.543 12.208C142.337 12.208 141.335 11.808 140.535 11.008C139.735 10.1973 139.335 9.19467 139.335 8C139.335 6.80533 139.735 5.808 140.535 5.008C141.335 4.19733 142.337 3.792 143.543 3.792C144.332 3.792 145.041 3.984 145.671 4.368C146.3 4.74133 146.769 5.248 147.079 5.888L145.911 6.56C145.708 6.13333 145.393 5.792 144.967 5.536C144.551 5.28 144.076 5.152 143.543 5.152C142.743 5.152 142.071 5.424 141.527 5.968C140.993 6.512 140.727 7.18933 140.727 8C140.727 8.8 140.993 9.472 141.527 10.016C142.071 10.56 142.743 10.832 143.543 10.832C144.076 10.832 144.556 10.7093 144.983 10.464C145.409 10.208 145.735 9.86667 145.959 9.44L147.143 10.128C146.801 10.7573 146.311 11.264 145.671 11.648C145.031 12.0213 144.321 12.208 143.543 12.208ZM154.344 4V5.344H151.624V12H150.232V5.344H147.496V4H154.344ZM161.372 4H162.492V12H161.116V6.384L156.684 12H155.564V4H156.94V9.616L161.372 4ZM171.379 12H169.651L166.003 8.208V12H164.611V4H166.003V7.536L169.459 4H171.251L167.427 7.872L171.379 12ZM178.563 4H179.955V12H178.563V10.624C177.869 11.68 176.861 12.208 175.539 12.208C174.419 12.208 173.464 11.8027 172.675 10.992C171.885 10.1707 171.491 9.17333 171.491 8C171.491 6.82667 171.885 5.83467 172.675 5.024C173.464 4.20267 174.419 3.792 175.539 3.792C176.861 3.792 177.869 4.32 178.563 5.376V4ZM175.715 10.864C176.525 10.864 177.203 10.592 177.747 10.048C178.291 9.49333 178.563 8.81067 178.563 8C178.563 7.18933 178.291 6.512 177.747 5.968C177.203 5.41333 176.525 5.136 175.715 5.136C174.915 5.136 174.243 5.41333 173.699 5.968C173.155 6.512 172.883 7.18933 172.883 8C172.883 8.81067 173.155 9.49333 173.699 10.048C174.243 10.592 174.915 10.864 175.715 10.864ZM17.0714 22V28H16.0274V23.008H13.6634V25.456C13.6634 26.44 13.4634 27.128 13.0634 27.52C12.6714 27.904 12.1154 28.064 11.3954 28V27.016C11.8034 27.072 12.1074 26.984 12.3074 26.752C12.5154 26.512 12.6194 26.072 12.6194 25.432V22H17.0714ZM19.3853 25.48C19.4893 26.016 19.7333 26.432 20.1173 26.728C20.5093 27.024 20.9893 27.172 21.5573 27.172C22.3493 27.172 22.9253 26.88 23.2853 26.296L24.1733 26.8C23.5893 27.704 22.7093 28.156 21.5333 28.156C20.5813 28.156 19.8053 27.86 19.2053 27.268C18.6133 26.668 18.3173 25.912 18.3173 25C18.3173 24.096 18.6093 23.344 19.1933 22.744C19.7773 22.144 20.5333 21.844 21.4613 21.844C22.3413 21.844 23.0573 22.156 23.6093 22.78C24.1693 23.396 24.4493 24.14 24.4493 25.012C24.4493 25.164 24.4373 25.32 24.4133 25.48H19.3853ZM21.4613 22.828C20.9013 22.828 20.4373 22.988 20.0693 23.308C19.7013 23.62 19.4733 24.04 19.3853 24.568H23.3933C23.3053 24 23.0813 23.568 22.7213 23.272C22.3613 22.976 21.9413 22.828 21.4613 22.828ZM30.7254 28H29.4294L26.6934 25.156V28H25.6494V22H26.6934V24.652L29.2854 22H30.6294L27.7614 24.904L30.7254 28ZM36.1135 22H37.1575V28H36.1135V26.968C35.5935 27.76 34.8375 28.156 33.8455 28.156C33.0055 28.156 32.2895 27.852 31.6975 27.244C31.1055 26.628 30.8095 25.88 30.8095 25C30.8095 24.12 31.1055 23.376 31.6975 22.768C32.2895 22.152 33.0055 21.844 33.8455 21.844C34.8375 21.844 35.5935 22.24 36.1135 23.032V22ZM33.9775 27.148C34.5855 27.148 35.0935 26.944 35.5015 26.536C35.9095 26.12 36.1135 25.608 36.1135 25C36.1135 24.392 35.9095 23.884 35.5015 23.476C35.0935 23.06 34.5855 22.852 33.9775 22.852C33.3775 22.852 32.8735 23.06 32.4655 23.476C32.0575 23.884 31.8535 24.392 31.8535 25C31.8535 25.608 32.0575 26.12 32.4655 26.536C32.8735 26.944 33.3775 27.148 33.9775 27.148ZM42.0513 21.844C42.8913 21.844 43.6073 22.152 44.1993 22.768C44.7913 23.376 45.0873 24.12 45.0873 25C45.0873 25.88 44.7913 26.628 44.1993 27.244C43.6073 27.852 42.8913 28.156 42.0513 28.156C41.0593 28.156 40.3033 27.76 39.7833 26.968V30.4H38.7393V22H39.7833V23.032C40.3033 22.24 41.0593 21.844 42.0513 21.844ZM41.9193 27.148C42.5193 27.148 43.0233 26.944 43.4313 26.536C43.8393 26.12 44.0433 25.608 44.0433 25C44.0433 24.392 43.8393 23.884 43.4313 23.476C43.0233 23.06 42.5193 22.852 41.9193 22.852C41.3113 22.852 40.8033 23.06 40.3953 23.476C39.9873 23.884 39.7833 24.392 39.7833 25C39.7833 25.608 39.9873 26.12 40.3953 26.536C40.8033 26.944 41.3113 27.148 41.9193 27.148ZM49.153 28.156C48.249 28.156 47.497 27.856 46.897 27.256C46.297 26.648 45.997 25.896 45.997 25C45.997 24.104 46.297 23.356 46.897 22.756C47.497 22.148 48.249 21.844 49.153 21.844C49.745 21.844 50.277 21.988 50.749 22.276C51.221 22.556 51.573 22.936 51.805 23.416L50.929 23.92C50.777 23.6 50.541 23.344 50.221 23.152C49.909 22.96 49.553 22.864 49.153 22.864C48.553 22.864 48.049 23.068 47.641 23.476C47.241 23.884 47.041 24.392 47.041 25C47.041 25.6 47.241 26.104 47.641 26.512C48.049 26.92 48.553 27.124 49.153 27.124C49.553 27.124 49.913 27.032 50.233 26.848C50.553 26.656 50.797 26.4 50.965 26.08L51.853 26.596C51.597 27.068 51.229 27.448 50.749 27.736C50.269 28.016 49.737 28.156 49.153 28.156ZM57.254 22V23.008H55.214V28H54.17V23.008H52.118V22H57.254ZM62.165 24.916C62.781 25.172 63.089 25.636 63.089 26.308C63.089 26.804 62.921 27.212 62.585 27.532C62.257 27.844 61.785 28 61.169 28H58.169V22H60.929C61.529 22 61.993 22.152 62.321 22.456C62.649 22.752 62.813 23.144 62.813 23.632C62.813 24.208 62.597 24.636 62.165 24.916ZM60.881 22.936H59.189V24.508H60.881C61.489 24.508 61.793 24.24 61.793 23.704C61.793 23.192 61.489 22.936 60.881 22.936ZM61.109 27.052C61.413 27.052 61.645 26.98 61.805 26.836C61.973 26.692 62.057 26.488 62.057 26.224C62.057 25.976 61.973 25.784 61.805 25.648C61.645 25.504 61.413 25.432 61.109 25.432H59.189V27.052H61.109ZM64.9478 25.48C65.0518 26.016 65.2958 26.432 65.6798 26.728C66.0718 27.024 66.5518 27.172 67.1198 27.172C67.9118 27.172 68.4878 26.88 68.8478 26.296L69.7358 26.8C69.1518 27.704 68.2718 28.156 67.0958 28.156C66.1438 28.156 65.3678 27.86 64.7678 27.268C64.1758 26.668 63.8798 25.912 63.8798 25C63.8798 24.096 64.1718 23.344 64.7558 22.744C65.3398 22.144 66.0958 21.844 67.0238 21.844C67.9038 21.844 68.6198 22.156 69.1718 22.78C69.7318 23.396 70.0118 24.14 70.0118 25.012C70.0118 25.164 69.9998 25.32 69.9758 25.48H64.9478ZM67.0238 22.828C66.4638 22.828 65.9998 22.988 65.6318 23.308C65.2638 23.62 65.0358 24.04 64.9478 24.568H68.9558C68.8678 24 68.6438 23.568 68.2838 23.272C67.9238 22.976 67.5038 22.828 67.0238 22.828ZM75.3639 22H76.4079V28H75.3639V25.492H72.2559V28H71.2119V22H72.2559V24.496H75.3639V22ZM82.1491 22H83.1931V28H82.1491V25.492H79.0411V28H77.9971V22H79.0411V24.496H82.1491V22ZM89.8462 27.244C89.2302 27.852 88.4822 28.156 87.6022 28.156C86.7222 28.156 85.9742 27.852 85.3582 27.244C84.7502 26.636 84.4462 25.888 84.4462 25C84.4462 24.112 84.7502 23.364 85.3582 22.756C85.9742 22.148 86.7222 21.844 87.6022 21.844C88.4822 21.844 89.2302 22.148 89.8462 22.756C90.4622 23.364 90.7702 24.112 90.7702 25C90.7702 25.888 90.4622 26.636 89.8462 27.244ZM87.6022 27.136C88.2022 27.136 88.7062 26.932 89.1142 26.524C89.5222 26.116 89.7262 25.608 89.7262 25C89.7262 24.392 89.5222 23.884 89.1142 23.476C88.7062 23.068 88.2022 22.864 87.6022 22.864C87.0102 22.864 86.5102 23.068 86.1022 23.476C85.6942 23.884 85.4902 24.392 85.4902 25C85.4902 25.608 85.6942 26.116 86.1022 26.524C86.5102 26.932 87.0102 27.136 87.6022 27.136ZM95.937 22V23.008H93.045V28H92.001V22H95.937ZM101.682 27.244C101.066 27.852 100.318 28.156 99.4382 28.156C98.5582 28.156 97.8102 27.852 97.1942 27.244C96.5862 26.636 96.2822 25.888 96.2822 25C96.2822 24.112 96.5862 23.364 97.1942 22.756C97.8102 22.148 98.5582 21.844 99.4382 21.844C100.318 21.844 101.066 22.148 101.682 22.756C102.298 23.364 102.606 24.112 102.606 25C102.606 25.888 102.298 26.636 101.682 27.244ZM99.4382 27.136C100.038 27.136 100.542 26.932 100.95 26.524C101.358 26.116 101.562 25.608 101.562 25C101.562 24.392 101.358 23.884 100.95 23.476C100.542 23.068 100.038 22.864 99.4382 22.864C98.8462 22.864 98.3462 23.068 97.9382 23.476C97.5302 23.884 97.3262 24.392 97.3262 25C97.3262 25.608 97.5302 26.116 97.9382 26.524C98.3462 26.932 98.8462 27.136 99.4382 27.136ZM112.033 22V28H110.989V22.996H107.881V28H106.837V22H112.033ZM116.934 21.844C117.774 21.844 118.49 22.152 119.082 22.768C119.674 23.376 119.97 24.12 119.97 25C119.97 25.88 119.674 26.628 119.082 27.244C118.49 27.852 117.774 28.156 116.934 28.156C115.942 28.156 115.186 27.76 114.666 26.968V30.4H113.622V22H114.666V23.032C115.186 22.24 115.942 21.844 116.934 21.844ZM116.802 27.148C117.402 27.148 117.906 26.944 118.314 26.536C118.722 26.12 118.926 25.608 118.926 25C118.926 24.392 118.722 23.884 118.314 23.476C117.906 23.06 117.402 22.852 116.802 22.852C116.194 22.852 115.686 23.06 115.278 23.476C114.87 23.884 114.666 24.392 114.666 25C114.666 25.608 114.87 26.12 115.278 26.536C115.686 26.944 116.194 27.148 116.802 27.148ZM121.948 25.48C122.052 26.016 122.296 26.432 122.68 26.728C123.072 27.024 123.552 27.172 124.12 27.172C124.912 27.172 125.488 26.88 125.848 26.296L126.736 26.8C126.152 27.704 125.272 28.156 124.096 28.156C123.144 28.156 122.368 27.86 121.768 27.268C121.176 26.668 120.88 25.912 120.88 25C120.88 24.096 121.172 23.344 121.756 22.744C122.34 22.144 123.096 21.844 124.024 21.844C124.904 21.844 125.62 22.156 126.172 22.78C126.732 23.396 127.012 24.14 127.012 25.012C127.012 25.164 127 25.32 126.976 25.48H121.948ZM124.024 22.828C123.464 22.828 123 22.988 122.632 23.308C122.264 23.62 122.036 24.04 121.948 24.568H125.956C125.868 24 125.644 23.568 125.284 23.272C124.924 22.976 124.504 22.828 124.024 22.828ZM133.408 22V28H132.364V22.996H129.256V28H128.212V22H133.408ZM139.965 22H141.009V28H139.965V26.968C139.445 27.76 138.689 28.156 137.697 28.156C136.857 28.156 136.141 27.852 135.549 27.244C134.957 26.628 134.661 25.88 134.661 25C134.661 24.12 134.957 23.376 135.549 22.768C136.141 22.152 136.857 21.844 137.697 21.844C138.689 21.844 139.445 22.24 139.965 23.032V22ZM137.829 27.148C138.437 27.148 138.945 26.944 139.353 26.536C139.761 26.12 139.965 25.608 139.965 25C139.965 24.392 139.761 23.884 139.353 23.476C138.945 23.06 138.437 22.852 137.829 22.852C137.229 22.852 136.725 23.06 136.317 23.476C135.909 23.884 135.705 24.392 135.705 25C135.705 25.608 135.909 26.12 136.317 26.536C136.725 26.944 137.229 27.148 137.829 27.148ZM145.903 21.844C146.743 21.844 147.459 22.152 148.051 22.768C148.643 23.376 148.939 24.12 148.939 25C148.939 25.88 148.643 26.628 148.051 27.244C147.459 27.852 146.743 28.156 145.903 28.156C144.911 28.156 144.155 27.76 143.635 26.968V30.4H142.591V22H143.635V23.032C144.155 22.24 144.911 21.844 145.903 21.844ZM145.771 27.148C146.371 27.148 146.875 26.944 147.283 26.536C147.691 26.12 147.895 25.608 147.895 25C147.895 24.392 147.691 23.884 147.283 23.476C146.875 23.06 146.371 22.852 145.771 22.852C145.163 22.852 144.655 23.06 144.247 23.476C143.839 23.884 143.635 24.392 143.635 25C143.635 25.608 143.839 26.12 144.247 26.536C144.655 26.944 145.163 27.148 145.771 27.148ZM155.153 22H156.197V28H155.153V26.968C154.633 27.76 153.877 28.156 152.885 28.156C152.045 28.156 151.329 27.852 150.737 27.244C150.145 26.628 149.849 25.88 149.849 25C149.849 24.12 150.145 23.376 150.737 22.768C151.329 22.152 152.045 21.844 152.885 21.844C153.877 21.844 154.633 22.24 155.153 23.032V22ZM153.017 27.148C153.625 27.148 154.133 26.944 154.541 26.536C154.949 26.12 155.153 25.608 155.153 25C155.153 24.392 154.949 23.884 154.541 23.476C154.133 23.06 153.625 22.852 153.017 22.852C152.417 22.852 151.913 23.06 151.505 23.476C151.097 23.884 150.893 24.392 150.893 25C150.893 25.608 151.097 26.12 151.505 26.536C151.913 26.944 152.417 27.148 153.017 27.148ZM162.242 22V23.008H160.202V28H159.158V23.008H157.106V22H162.242ZM167.891 22H168.935V28H167.891V26.968C167.371 27.76 166.615 28.156 165.623 28.156C164.783 28.156 164.067 27.852 163.475 27.244C162.883 26.628 162.587 25.88 162.587 25C162.587 24.12 162.883 23.376 163.475 22.768C164.067 22.152 164.783 21.844 165.623 21.844C166.615 21.844 167.371 22.24 167.891 23.032V22ZM165.755 27.148C166.363 27.148 166.871 26.944 167.279 26.536C167.687 26.12 167.891 25.608 167.891 25C167.891 24.392 167.687 23.884 167.279 23.476C166.871 23.06 166.363 22.852 165.755 22.852C165.155 22.852 164.651 23.06 164.243 23.476C163.835 23.884 163.631 24.392 163.631 25C163.631 25.608 163.835 26.12 164.243 26.536C164.651 26.944 165.155 27.148 165.755 27.148Z" fill="white"/>
</svg>
