<svg width="30" height="110" viewBox="0 0 30 110" fill="none" xmlns="http://www.w3.org/2000/svg">
<path d="M0 6C0 2.68629 2.68629 0 6 0H30V110H6C2.68629 110 0 107.314 0 104V6Z" fill="#2E3238"/>
<path d="M20.182 85.758C20.182 86.7007 19.9673 87.5033 19.538 88.166C19.1087 88.8193 18.5207 89.2767 17.774 89.538L16.962 88.152C18.0633 87.76 18.614 86.948 18.614 85.716C18.614 85.1093 18.4973 84.6567 18.264 84.358C18.0213 84.05 17.7087 83.896 17.326 83.896C16.9247 83.896 16.6213 84.0593 16.416 84.386C16.2013 84.7127 15.968 85.2913 15.716 86.122C15.576 86.5887 15.4453 86.9667 15.324 87.256C15.2027 87.5453 15.0347 87.8533 14.82 88.18C14.596 88.4973 14.3207 88.7353 13.994 88.894C13.6673 89.0527 13.2847 89.132 12.846 89.132C11.978 89.132 11.292 88.824 10.788 88.208C10.2747 87.592 10.018 86.85 10.018 85.982C10.018 85.198 10.2093 84.512 10.592 83.924C10.9747 83.336 11.502 82.8833 12.174 82.566L12.958 83.924C12.0433 84.3347 11.586 85.0207 11.586 85.982C11.586 86.4487 11.698 86.822 11.922 87.102C12.1367 87.382 12.4307 87.522 12.804 87.522C13.168 87.522 13.4573 87.382 13.672 87.102C13.8773 86.8127 14.0967 86.2947 14.33 85.548C14.4513 85.1747 14.5447 84.904 14.61 84.736C14.666 84.5587 14.7593 84.316 14.89 84.008C15.0207 83.6907 15.1513 83.4527 15.282 83.294C15.4127 83.1353 15.576 82.9673 15.772 82.79C15.968 82.6033 16.192 82.4727 16.444 82.398C16.696 82.3233 16.9807 82.286 17.298 82.286C18.1847 82.286 18.8893 82.608 19.412 83.252C19.9253 83.8867 20.182 84.722 20.182 85.758ZM12.818 73.3392C12.818 72.5459 13.0747 71.9066 13.588 71.4212C14.1013 70.9359 14.792 70.6932 15.66 70.6932L20 70.6932L20 72.2052L15.758 72.2052C15.2727 72.2052 14.8993 72.3266 14.638 72.5692C14.3673 72.8119 14.232 73.1432 14.232 73.5632C14.232 74.0299 14.386 74.4032 14.694 74.6832C15.002 74.9539 15.464 75.0892 16.08 75.0892L20 75.0892L20 76.6012L15.758 76.6012C15.2727 76.6012 14.8993 76.7179 14.638 76.9512C14.3673 77.1752 14.232 77.4972 14.232 77.9172C14.232 78.3746 14.3907 78.7479 14.708 79.0372C15.016 79.3266 15.4733 79.4712 16.08 79.4712L20 79.4712L20 80.9832L13 80.9832L13 79.4712L13.84 79.4712C13.1587 79.0232 12.818 78.3559 12.818 77.4692C12.818 76.5732 13.1867 75.9106 13.924 75.4812C13.1867 75.0146 12.818 74.3006 12.818 73.3392ZM13 63.531L13 62.019L20 62.019L20 63.531L18.992 63.531C19.7853 64.1004 20.182 64.917 20.182 65.981C20.182 66.9424 19.8273 67.7637 19.118 68.445C18.3993 69.1264 17.5267 69.467 16.5 69.467C15.464 69.467 14.5913 69.1264 13.882 68.445C13.1727 67.7637 12.818 66.9424 12.818 65.981C12.818 64.917 13.21 64.1004 13.994 63.531L13 63.531ZM18.11 67.325C18.53 66.905 18.74 66.3777 18.74 65.743C18.74 65.1084 18.53 64.581 18.11 64.161C17.6807 63.741 17.144 63.531 16.5 63.531C15.856 63.531 15.324 63.741 14.904 64.161C14.4747 64.581 14.26 65.1084 14.26 65.743C14.26 66.3777 14.4747 66.905 14.904 67.325C15.324 67.745 15.856 67.955 16.5 67.955C17.144 67.955 17.6807 67.745 18.11 67.325ZM14.176 58.7447C13.308 58.362 12.874 57.6433 12.874 56.5887L14.512 56.5887C14.4747 57.1673 14.6147 57.6713 14.932 58.1007C15.24 58.53 15.7533 58.7447 16.472 58.7447L20 58.7447L20 60.2567L13 60.2567L13 58.7447L14.176 58.7447ZM14.456 51.3878L14.456 53.1238L17.816 53.1238C18.1053 53.1238 18.3153 53.0584 18.446 52.9278C18.5673 52.7971 18.6373 52.6058 18.656 52.3538C18.6653 52.0924 18.6607 51.7704 18.642 51.3878L20 51.3878C20.14 52.5451 20.042 53.3758 19.706 53.8798C19.3607 54.3838 18.7307 54.6358 17.816 54.6358L14.456 54.6358L14.456 55.9238L13 55.9238L13 54.6358L11.488 54.6358L11.04 53.1238L13 53.1238L13 51.3878L14.456 51.3878ZM18.46 48.2401L18.46 44.2501L20 44.2501L20 49.8501L10.2 49.8501L10.2 48.2401L18.46 48.2401ZM17.144 42.1819C17.676 42.0699 18.0867 41.8132 18.376 41.4119C18.656 41.0106 18.796 40.5206 18.796 39.9419C18.796 39.1392 18.5067 38.5372 17.928 38.1359L18.656 36.8899C19.6733 37.5806 20.182 38.6026 20.182 39.9559C20.182 41.0946 19.8367 42.0139 19.146 42.7139C18.446 43.4139 17.564 43.7639 16.5 43.7639C15.4547 43.7639 14.582 43.4186 13.882 42.7279C13.1727 42.0372 12.818 41.1506 12.818 40.0679C12.818 39.0412 13.1773 38.2012 13.896 37.5479C14.6147 36.8852 15.4873 36.5539 16.514 36.5539C16.6727 36.5539 16.8827 36.5726 17.144 36.6099L17.144 42.1819ZM15.912 42.1959L15.912 38.0799C15.3427 38.1826 14.9133 38.4206 14.624 38.7939C14.3347 39.1579 14.19 39.5872 14.19 40.0819C14.19 40.6419 14.344 41.1086 14.652 41.4819C14.96 41.8552 15.38 42.0932 15.912 42.1959ZM13 29.6925L13 28.2085L19.678 28.2085C20.742 28.2085 21.5587 28.5585 22.128 29.2585C22.6973 29.9585 22.982 30.8078 22.982 31.8065C22.982 33.4212 22.4173 34.5272 21.288 35.1245L20.532 33.8225C21.2507 33.4585 21.61 32.7772 21.61 31.7785C21.61 31.1252 21.4373 30.6165 21.092 30.2525C20.756 29.8792 20.2847 29.6925 19.678 29.6925L18.824 29.6925C19.636 30.2618 20.042 31.0738 20.042 32.1285C20.042 33.1178 19.692 33.9532 18.992 34.6345C18.2827 35.3158 17.4287 35.6565 16.43 35.6565C15.4313 35.6565 14.582 35.3158 13.882 34.6345C13.1727 33.9532 12.818 33.1178 12.818 32.1285C12.818 31.0738 13.224 30.2618 14.036 29.6925L13 29.6925ZM17.998 33.5145C18.418 33.0852 18.628 32.5532 18.628 31.9185C18.628 31.2838 18.418 30.7565 17.998 30.3365C17.578 29.9072 17.0553 29.6925 16.43 29.6925C15.8047 29.6925 15.282 29.9072 14.862 30.3365C14.442 30.7565 14.232 31.2838 14.232 31.9185C14.232 32.5532 14.442 33.0852 14.862 33.5145C15.282 33.9345 15.8047 34.1445 16.43 34.1445C17.0553 34.1445 17.578 33.9345 17.998 33.5145ZM9.9096 26.1437C9.316 25.5501 9.0192 24.8333 9.0192 23.9933C9.0192 23.1533 9.316 22.4365 9.9096 21.8429C10.5032 21.2493 11.22 20.9525 12.06 20.9525C12.9 20.9525 13.6168 21.2493 14.2104 21.8429C14.804 22.4365 15.1008 23.1533 15.1008 23.9933C15.1008 24.8333 14.804 25.5501 14.2104 26.1437C13.6168 26.7373 12.9 27.0341 12.06 27.0341C11.22 27.0341 10.5032 26.7373 9.9096 26.1437ZM14.832 23.9933C14.832 23.2317 14.5632 22.5849 14.0256 22.0529C13.4824 21.5153 12.8272 21.2465 12.06 21.2465C11.2928 21.2465 10.6404 21.5153 10.1028 22.0529C9.5596 22.5849 9.288 23.2317 9.288 23.9933C9.288 24.7493 9.5596 25.3961 10.1028 25.9337C10.6404 26.4713 11.2928 26.7401 12.06 26.7401C12.8216 26.7401 13.474 26.4713 14.0172 25.9337C14.5604 25.3961 14.832 24.7493 14.832 23.9933ZM11.5224 22.7165C11.9424 22.7165 12.2504 22.8817 12.4464 23.2121L13.614 22.5737L13.614 23.4137L12.6312 23.9093L12.6312 24.2873L13.614 24.2873L13.614 25.0601L10.506 25.0601L10.506 23.9093C10.506 23.5621 10.604 23.2765 10.8 23.0525C10.9904 22.8285 11.2312 22.7165 11.5224 22.7165ZM11.22 24.2873L11.9592 24.2873L11.9592 23.9513C11.9592 23.8057 11.9256 23.6937 11.8584 23.6153C11.7912 23.5313 11.7016 23.4893 11.5896 23.4893C11.3432 23.4893 11.22 23.6433 11.22 23.9513L11.22 24.2873Z" fill="white"/>
</svg>
