<svg width="76" height="140" viewBox="0 0 76 140" fill="none" xmlns="http://www.w3.org/2000/svg">
<path d="M0 12C0 5.37258 5.37258 0 12 0H76V140H12C5.37258 140 0 134.627 0 128V12Z" fill="#2E3238"/>
<path d="M40.26 113.94C40.26 115.287 39.9533 116.433 39.34 117.38C38.7267 118.313 37.8867 118.967 36.82 119.34L35.66 117.36C37.2333 116.8 38.02 115.64 38.02 113.88C38.02 113.013 37.8533 112.367 37.52 111.94C37.1733 111.5 36.7267 111.28 36.18 111.28C35.6067 111.28 35.1733 111.513 34.88 111.98C34.5733 112.447 34.24 113.273 33.88 114.46C33.68 115.127 33.4933 115.667 33.32 116.08C33.1467 116.493 32.9067 116.933 32.6 117.4C32.28 117.853 31.8867 118.193 31.42 118.42C30.9533 118.647 30.4067 118.76 29.78 118.76C28.54 118.76 27.56 118.32 26.84 117.44C26.1067 116.56 25.74 115.5 25.74 114.26C25.74 113.14 26.0133 112.16 26.56 111.32C27.1067 110.48 27.86 109.833 28.82 109.38L29.94 111.32C28.6333 111.907 27.98 112.887 27.98 114.26C27.98 114.927 28.14 115.46 28.46 115.86C28.7667 116.26 29.1867 116.46 29.72 116.46C30.24 116.46 30.6533 116.26 30.96 115.86C31.2533 115.447 31.5667 114.707 31.9 113.64C32.0733 113.107 32.2067 112.72 32.3 112.48C32.38 112.227 32.5133 111.88 32.7 111.44C32.8867 110.987 33.0733 110.647 33.26 110.42C33.4467 110.193 33.68 109.953 33.96 109.7C34.24 109.433 34.56 109.247 34.92 109.14C35.28 109.033 35.6867 108.98 36.14 108.98C37.4067 108.98 38.4133 109.44 39.16 110.36C39.8933 111.267 40.26 112.46 40.26 113.94ZM29.74 96.1989C29.74 95.0656 30.1067 94.1522 30.84 93.4589C31.5733 92.7656 32.56 92.4189 33.8 92.4189L40 92.4189L40 94.5789L33.94 94.5789C33.2467 94.5789 32.7133 94.7522 32.34 95.0989C31.9533 95.4456 31.76 95.9189 31.76 96.5189C31.76 97.1856 31.98 97.7189 32.42 98.1189C32.86 98.5056 33.52 98.6989 34.4 98.6989L40 98.6989L40 100.859L33.94 100.859C33.2467 100.859 32.7133 101.026 32.34 101.359C31.9533 101.679 31.76 102.139 31.76 102.739C31.76 103.392 31.9867 103.926 32.44 104.339C32.88 104.752 33.5333 104.959 34.4 104.959L40 104.959L40 107.119L30 107.119L30 104.959L31.2 104.959C30.2267 104.319 29.74 103.366 29.74 102.099C29.74 100.819 30.2667 99.8722 31.32 99.2589C30.2667 98.5922 29.74 97.5722 29.74 96.1989ZM30 82.1872L30 80.0272L40 80.0272L40 82.1872L38.56 82.1872C39.6933 83.0005 40.26 84.1672 40.26 85.6872C40.26 87.0605 39.7533 88.2339 38.74 89.2072C37.7133 90.1805 36.4667 90.6672 35 90.6672C33.52 90.6672 32.2733 90.1805 31.26 89.2072C30.2467 88.2339 29.74 87.0605 29.74 85.6872C29.74 84.1672 30.3 83.0005 31.42 82.1872L30 82.1872ZM37.3 87.6072C37.9 87.0072 38.2 86.2539 38.2 85.3472C38.2 84.4405 37.9 83.6872 37.3 83.0872C36.6867 82.4872 35.92 82.1872 35 82.1872C34.08 82.1872 33.32 82.4872 32.72 83.0872C32.1067 83.6872 31.8 84.4405 31.8 85.3472C31.8 86.2539 32.1067 87.0072 32.72 87.6072C33.32 88.2072 34.08 88.5072 35 88.5072C35.92 88.5072 36.6867 88.2072 37.3 87.6072ZM31.68 75.3495C30.44 74.8029 29.82 73.7762 29.82 72.2695L32.16 72.2695C32.1067 73.0962 32.3067 73.8162 32.76 74.4295C33.2 75.0429 33.9333 75.3495 34.96 75.3495L40 75.3495L40 77.5095L30 77.5095L30 75.3495L31.68 75.3495ZM32.08 64.8397L32.08 67.3197L36.88 67.3197C37.2933 67.3197 37.5933 67.2264 37.78 67.0397C37.9533 66.853 38.0533 66.5797 38.08 66.2197C38.0933 65.8464 38.0867 65.3864 38.06 64.8397L40 64.8397C40.2 66.493 40.06 67.6797 39.58 68.3997C39.0867 69.1197 38.1867 69.4797 36.88 69.4797L32.08 69.4797L32.08 71.3197L30 71.3197L30 69.4797L27.84 69.4797L27.2 67.3197L30 67.3197L30 64.8397L32.08 64.8397ZM37.8 60.343L37.8 54.643L40 54.643L40 62.643L26 62.643L26 60.343L37.8 60.343ZM35.92 51.6884C36.68 51.5284 37.2667 51.1618 37.68 50.5884C38.08 50.0151 38.28 49.3151 38.28 48.4884C38.28 47.3418 37.8667 46.4818 37.04 45.9084L38.08 44.1284C39.5333 45.1151 40.26 46.5751 40.26 48.5084C40.26 50.1351 39.7667 51.4484 38.78 52.4484C37.78 53.4484 36.52 53.9484 35 53.9484C33.5067 53.9484 32.26 53.4551 31.26 52.4684C30.2467 51.4818 29.74 50.2151 29.74 48.6684C29.74 47.2018 30.2533 46.0018 31.28 45.0684C32.3067 44.1218 33.5533 43.6484 35.02 43.6484C35.2467 43.6484 35.5467 43.6751 35.92 43.7284L35.92 51.6884ZM34.16 51.7084L34.16 45.8284C33.3467 45.9751 32.7333 46.3151 32.32 46.8484C31.9067 47.3684 31.7 47.9818 31.7 48.6884C31.7 49.4884 31.92 50.1551 32.36 50.6884C32.8 51.2218 33.4 51.5618 34.16 51.7084ZM30 33.8464L30 31.7264L39.54 31.7264C41.06 31.7264 42.2267 32.2264 43.04 33.2264C43.8533 34.2264 44.26 35.4397 44.26 36.8664C44.26 39.1731 43.4533 40.7531 41.84 41.6064L40.76 39.7464C41.7867 39.2264 42.3 38.2531 42.3 36.8264C42.3 35.8931 42.0533 35.1664 41.56 34.6464C41.08 34.1131 40.4067 33.8464 39.54 33.8464L38.32 33.8464C39.48 34.6597 40.06 35.8197 40.06 37.3264C40.06 38.7397 39.56 39.9331 38.56 40.9064C37.5467 41.8797 36.3267 42.3664 34.9 42.3664C33.4733 42.3664 32.26 41.8797 31.26 40.9064C30.2467 39.9331 29.74 38.7397 29.74 37.3264C29.74 35.8197 30.32 34.6597 31.48 33.8464L30 33.8464ZM37.14 39.3064C37.74 38.6931 38.04 37.9331 38.04 37.0264C38.04 36.1197 37.74 35.3664 37.14 34.7664C36.54 34.1531 35.7933 33.8464 34.9 33.8464C34.0067 33.8464 33.26 34.1531 32.66 34.7664C32.06 35.3664 31.76 36.1197 31.76 37.0264C31.76 37.9331 32.06 38.6931 32.66 39.3064C33.26 39.9064 34.0067 40.2064 34.9 40.2064C35.7933 40.2064 36.54 39.9064 37.14 39.3064ZM25.728 28.7767C24.88 27.9287 24.456 26.9047 24.456 25.7047C24.456 24.5047 24.88 23.4807 25.728 22.6327C26.576 21.7847 27.6 21.3607 28.8 21.3607C30 21.3607 31.024 21.7847 31.872 22.6327C32.72 23.4807 33.144 24.5047 33.144 25.7047C33.144 26.9047 32.72 27.9287 31.872 28.7767C31.024 29.6247 30 30.0487 28.8 30.0487C27.6 30.0487 26.576 29.6247 25.728 28.7767ZM32.76 25.7047C32.76 24.6167 32.376 23.6927 31.608 22.9327C30.832 22.1647 29.896 21.7807 28.8 21.7807C27.704 21.7807 26.772 22.1647 26.004 22.9327C25.228 23.6927 24.84 24.6167 24.84 25.7047C24.84 26.7847 25.228 27.7087 26.004 28.4767C26.772 29.2447 27.704 29.6287 28.8 29.6287C29.888 29.6287 30.82 29.2447 31.596 28.4767C32.372 27.7087 32.76 26.7847 32.76 25.7047ZM28.032 23.8807C28.632 23.8807 29.072 24.1167 29.352 24.5887L31.02 23.6767L31.02 24.8767L29.616 25.5847L29.616 26.1247L31.02 26.1247L31.02 27.2287L26.58 27.2287L26.58 25.5847C26.58 25.0887 26.72 24.6807 27 24.3607C27.272 24.0407 27.616 23.8807 28.032 23.8807ZM27.6 26.1247L28.656 26.1247L28.656 25.6447C28.656 25.4367 28.608 25.2767 28.512 25.1647C28.416 25.0447 28.288 24.9847 28.128 24.9847C27.776 24.9847 27.6 25.2047 27.6 25.6447L27.6 26.1247Z" fill="white"/>
</svg>
