<svg version="1.1" xmlns="http://www.w3.org/2000/svg" xmlns:xlink="http://www.w3.org/1999/xlink">

    <symbol viewBox="0 0 199 30" id="logo">
        <path d="M140.376 10.2252V5.38919H141.912C142.352 5.38919 142.716 5.44119 143.004 5.54519C143.292 5.64119 143.504 5.79719 143.64 6.01319C143.776 6.22119 143.844 6.48519 143.844 6.80519C143.844 7.09319 143.764 7.34519 143.604 7.56119C143.452 7.77719 143.232 7.95319 142.944 8.08919L144.336 10.2252H143.088L141.996 8.37719H141.468V10.2252H140.376ZM141.468 7.56119H141.888C142.152 7.56119 142.356 7.50519 142.5 7.39319C142.652 7.27319 142.728 7.08919 142.728 6.84119C142.728 6.61719 142.656 6.45719 142.512 6.36119C142.376 6.26519 142.164 6.21719 141.876 6.21719H141.468V7.56119ZM141.984 13.0092C141.264 13.0092 140.588 12.8732 139.956 12.6012C139.332 12.3372 138.78 11.9692 138.3 11.4972C137.828 11.0172 137.456 10.4652 137.184 9.84119C136.92 9.20919 136.788 8.53319 136.788 7.81319C136.788 7.09319 136.92 6.42119 137.184 5.79719C137.456 5.16519 137.828 4.61319 138.3 4.14119C138.78 3.66119 139.332 3.28919 139.956 3.02519C140.588 2.75319 141.264 2.61719 141.984 2.61719C142.704 2.61719 143.376 2.75319 144 3.02519C144.632 3.28919 145.184 3.66119 145.656 4.14119C146.136 4.61319 146.508 5.16519 146.772 5.79719C147.044 6.42119 147.18 7.09319 147.18 7.81319C147.18 8.53319 147.044 9.20919 146.772 9.84119C146.508 10.4652 146.136 11.0172 145.656 11.4972C145.184 11.9692 144.632 12.3372 144 12.6012C143.376 12.8732 142.704 13.0092 141.984 13.0092ZM141.984 11.9412C142.56 11.9412 143.096 11.8372 143.592 11.6292C144.088 11.4132 144.524 11.1172 144.9 10.7412C145.284 10.3572 145.58 9.91719 145.788 9.42119C146.004 8.91719 146.112 8.38119 146.112 7.81319C146.112 7.23719 146.004 6.70119 145.788 6.20519C145.58 5.70919 145.284 5.27319 144.9 4.89719C144.524 4.51319 144.084 4.21719 143.58 4.00919C143.084 3.79319 142.552 3.68519 141.984 3.68519C141.408 3.68519 140.872 3.79319 140.376 4.00919C139.88 4.21719 139.44 4.51319 139.056 4.89719C138.68 5.27319 138.384 5.71319 138.168 6.21719C137.96 6.71319 137.856 7.24519 137.856 7.81319C137.856 8.38919 137.96 8.92519 138.168 9.42119C138.384 9.91719 138.68 10.3572 139.056 10.7412C139.44 11.1172 139.88 11.4132 140.376 11.6292C140.88 11.8372 141.416 11.9412 141.984 11.9412Z" />
        <path d="M65.6145 0.337392L64.0845 0.977392C62.0438 1.78115 60.068 2.74064 58.1745 3.84739C55.8545 5.34739 54.5645 7.56739 54.0545 10.9774C53.8187 13.5371 53.772 16.1108 53.9145 18.6774C53.9934 19.9024 54.3629 21.0909 54.9924 22.1447C55.6219 23.1985 56.4933 24.0873 57.5345 24.7374C59.6445 26.0074 62.7445 25.7374 65.1645 24.0174C66.4145 23.1174 67.2445 21.5274 67.6545 19.1774C67.8394 17.6931 67.8394 16.1917 67.6545 14.7074C67.5369 13.4698 67.069 12.2914 66.3057 11.3102C65.5423 10.329 64.5151 9.58571 63.3445 9.16739C62.7665 8.95287 62.1494 8.86422 61.5345 8.90739C60.5504 8.86718 59.5717 9.06981 58.6845 9.49739C57.8093 9.87458 57.0698 10.5094 56.5645 11.3174C55.8745 12.3174 55.7645 12.3174 55.9045 11.2574C56.1747 9.84163 56.7478 8.50101 57.5845 7.32739C58.5045 6.20739 59.5045 5.61739 62.9745 4.16739C66.4445 2.71739 67.5045 2.16739 67.5045 1.83739C67.4064 1.31144 67.1948 0.813203 66.8845 0.377392C66.6045 0.0373919 66.3545 0.0273919 65.6145 0.337392ZM62.3645 11.2474C63.7145 11.7574 64.4945 13.0374 64.8645 15.3774C65.1282 16.7687 65.0701 18.202 64.6945 19.5674C64.5705 20.5712 64.1491 21.515 63.4845 22.2774C63.0732 22.6987 62.5634 23.0108 62.0012 23.1854C61.4389 23.36 60.842 23.3916 60.2645 23.2774C58.6345 23.0974 57.7245 22.1574 57.1345 20.0974C56.9296 19.2877 56.8586 18.45 56.9245 17.6174C56.8644 16.6569 56.9487 15.6929 57.1745 14.7574C57.2988 14.1765 57.4831 13.6102 57.7245 13.0674C58.139 12.2468 58.8412 11.6075 59.6971 11.2718C60.553 10.9361 61.5026 10.9274 62.3645 11.2474Z" />
        <path d="M8.11408 0.798072C7.98408 0.918072 7.98408 1.31807 7.98408 2.41807C7.98408 3.70807 7.98408 3.90807 7.82408 4.00807C7.44257 4.12937 7.0444 4.19011 6.64408 4.18807C5.15944 4.17072 3.70959 4.63762 2.51408 5.51807C1.20178 6.70471 0.378291 8.33742 0.204076 10.0981C-0.00803921 11.642 -0.054971 13.2042 0.0640756 14.7581C0.0911974 16.4129 0.664218 18.0124 1.69408 19.3081C2.10807 19.8822 2.64949 20.3525 3.27585 20.6822C3.90221 21.0119 4.59645 21.1919 5.30408 21.2081C5.96408 21.2781 6.78408 21.3481 7.11408 21.3481H7.72408L7.78408 21.9681C7.78408 22.3181 7.84408 23.1581 7.84408 23.8581V25.0981H10.7141V23.2281V21.3581L12.0041 21.2581C14.2041 21.0881 14.7241 20.9581 15.6741 20.3281C16.555 19.6857 17.2657 18.8378 17.7441 17.8581C19.0641 15.1281 18.9841 9.85807 17.5941 7.20807C17.3848 6.85608 17.1474 6.52165 16.8841 6.20807C15.7141 4.82807 14.5441 4.34807 12.0841 4.20807L10.8941 4.09807V2.52807C10.8941 1.20807 10.8941 0.918072 10.7541 0.798072C9.88723 0.582934 8.98093 0.582934 8.11408 0.798072ZM7.69408 6.48807C7.85014 6.65744 7.95125 6.87011 7.98408 7.09807C8.06408 7.59807 7.98408 18.7481 7.85408 18.9681C7.72408 19.1881 5.85408 18.9681 5.10408 18.5581C4.58897 18.2574 4.16947 17.8171 3.89408 17.2881C3.31667 15.3439 3.10309 13.3098 3.26408 11.2881C3.54408 8.28807 4.45408 6.97807 6.45408 6.54807C7.13408 6.34807 7.49408 6.33807 7.69408 6.48807ZM13.1141 6.69807C13.5411 6.82937 13.9201 7.08321 14.2041 7.42807C15.3041 8.51807 15.4741 9.24807 15.4741 12.5881C15.5336 13.6142 15.4799 14.6437 15.3141 15.6581C15.2014 16.4759 14.854 17.2436 14.3141 17.8681C13.5547 18.6174 12.5309 19.0377 11.4641 19.0381L10.8341 19.0981V15.8981C10.8341 14.1281 10.8341 11.2781 10.9041 9.56807V6.43807L11.7441 6.50807C12.2053 6.53218 12.6637 6.59575 13.1141 6.69807Z" />
        <path d="M163.553 3.88795C161.492 3.97856 159.543 4.85109 158.103 6.32795C156.413 8.11795 155.283 10.958 154.883 14.468C154.726 16.2247 154.779 17.994 155.043 19.738C155.863 23.218 157.733 24.888 160.843 24.888C162.362 24.9229 163.846 24.4311 165.044 23.496C166.242 22.5609 167.079 21.2401 167.413 19.758C167.802 18.4526 167.854 17.0699 167.563 15.7391C167.273 14.4083 166.65 13.1728 165.753 12.148C164.77 11.2131 163.465 10.6918 162.108 10.6918C160.751 10.6918 159.446 11.2131 158.463 12.148C158.242 12.4019 157.978 12.6152 157.683 12.778C157.882 11.5508 158.299 10.3689 158.913 9.28795C159.298 8.53329 159.838 7.86867 160.498 7.33781C161.158 6.80694 161.923 6.42188 162.743 6.20795C163.348 6.05994 163.975 6.02267 164.593 6.09795C166.783 6.21795 166.513 6.27795 166.863 5.58795C167.403 4.58795 167.283 4.30795 166.103 4.02795C165.27 3.81673 164.404 3.76918 163.553 3.88795ZM163.553 13.488C164.723 14.058 165.383 15.368 165.383 17.158C165.383 19.868 163.873 22.158 161.793 22.498C161.279 22.604 160.747 22.5668 160.253 22.3904C159.759 22.214 159.323 21.9053 158.993 21.498C157.273 19.608 157.283 16.028 159.053 14.318C159.454 13.9166 159.94 13.6089 160.474 13.417C161.008 13.2251 161.578 13.1537 162.143 13.208C162.613 13.1821 163.082 13.2785 163.503 13.488H163.553Z" />
        <path d="M174.984 3.92806C174.046 4.1372 173.159 4.53489 172.379 5.097C171.598 5.65911 170.94 6.37392 170.444 7.19806C169.254 9.19806 168.724 11.8381 168.814 15.3981C168.736 17.4626 169.14 19.517 169.994 21.3981C170.317 22.1416 170.794 22.8079 171.394 23.3528C171.994 23.8976 172.703 24.3085 173.474 24.5581C175.047 25.0312 176.732 24.9678 178.264 24.3781C181.264 23.0281 182.874 18.8581 182.724 13.0781C182.791 11.0134 182.384 8.96099 181.534 7.07806C181.133 6.29382 180.568 5.60444 179.878 5.05603C179.188 4.50763 178.389 4.11283 177.534 3.89806C176.691 3.74063 175.824 3.75083 174.984 3.92806ZM176.754 6.09806C177.475 6.31969 178.119 6.74052 178.61 7.31201C179.102 7.8835 179.423 8.58238 179.534 9.32806C179.882 11.8437 179.925 14.392 179.664 16.9181C179.559 18.0422 179.321 19.1499 178.954 20.2181C178.561 21.1274 177.865 21.8727 176.984 22.3281C176.562 22.5758 176.071 22.681 175.584 22.6281C174.924 22.6569 174.271 22.4799 173.716 22.1216C173.161 21.7634 172.73 21.2415 172.484 20.6281C171.718 18.7844 171.376 16.7918 171.484 14.7981C171.402 12.5588 171.815 10.329 172.694 8.26806C173.245 7.2677 174.152 6.51096 175.234 6.14806C175.72 5.95464 176.257 5.93695 176.754 6.09806Z" />
        <path d="M189.984 3.96782C188.589 4.35198 187.342 5.14631 186.404 6.24782C185.106 8.03329 184.333 10.1463 184.174 12.3478C183.992 14.3456 184.026 16.3572 184.274 18.3478C184.924 21.7978 186.604 23.9478 189.274 24.6678C190.297 24.9112 191.363 24.9047 192.383 24.6488C193.403 24.3929 194.347 23.8953 195.134 23.1978C197.134 21.3478 198.014 18.4878 198.014 13.5678C198.014 10.1978 197.744 8.78782 196.754 6.86782C196.215 5.75052 195.297 4.86092 194.164 4.35782C193.729 4.1518 193.278 3.98449 192.814 3.85782C191.872 3.7132 190.911 3.75054 189.984 3.96782ZM192.744 6.27782C193.914 6.78782 194.634 8.15782 195.004 10.6078C195.185 12.6906 195.185 14.7851 195.004 16.8678C194.584 20.5178 193.314 22.3878 191.004 22.6378C188.894 22.8678 187.564 21.3078 187.004 17.9278C186.814 15.7353 186.814 13.5304 187.004 11.3378C187.141 9.76983 187.771 8.28553 188.804 7.09782C189.306 6.59699 189.943 6.25286 190.637 6.10729C191.331 5.96171 192.053 6.02096 192.714 6.27782H192.744Z" />
        <path d="M117.044 8.52706C116.184 8.72706 116.044 8.76706 115.774 9.12706C115.043 10.0659 114.401 11.0701 113.854 12.1271C113.424 12.8671 112.774 13.9671 112.394 14.5671C112.014 15.1671 111.064 16.7771 110.304 18.1171C109.544 19.4571 108.854 20.6671 108.774 20.7971L108.624 21.0171V20.6571C108.594 20.1408 108.594 19.6233 108.624 19.1071C108.724 17.4271 108.754 8.65706 108.684 8.56706C107.864 8.6373 107.05 8.75752 106.244 8.92706C106.244 8.92706 106.174 11.6671 106.124 14.9871C106.074 18.3071 105.994 21.9071 105.964 22.9871L105.904 24.9871H108.504L108.984 24.0971C109.244 23.6671 109.874 22.6471 110.374 21.8071L113.494 16.6471L115.694 13.0071V14.0071C115.694 14.5371 115.694 17.1971 115.594 19.9071C115.494 22.6171 115.464 24.8471 115.474 24.8571H116.824H118.164L118.224 22.7871C118.354 19.1071 118.454 8.54706 118.374 8.37706C118.294 8.20706 118.194 8.26706 117.044 8.52706Z" />
        <path d="M127.445 8.39803C126.166 8.58584 124.922 8.96333 123.755 9.51803C123.435 9.70803 123.435 9.92803 123.755 10.798L124.065 11.628L124.355 11.568C124.505 11.568 125.025 11.388 125.505 11.238C126.927 10.676 128.471 10.4933 129.985 10.708C130.52 10.9108 130.967 11.297 131.245 11.798C131.597 12.6482 131.708 13.579 131.565 14.488V14.828H130.665C128.762 14.8785 126.888 15.3104 125.155 16.098C124.545 16.3973 124.003 16.8177 123.561 17.3335C123.119 17.8492 122.787 18.4496 122.585 19.098C122.35 20.1559 122.32 21.2487 122.495 22.318C122.787 23.2885 123.401 24.1309 124.235 24.7069C125.069 25.2829 126.074 25.5583 127.085 25.488C128.426 25.4614 129.716 24.9701 130.735 24.098C131.08 23.8407 131.448 23.6164 131.835 23.428C131.835 23.428 132.085 23.888 132.345 24.428C132.735 25.218 132.855 25.378 133.025 25.378C133.563 25.2566 134.07 25.025 134.515 24.698C135.105 24.318 135.145 24.198 134.815 23.558C134.641 23.1914 134.49 22.8139 134.365 22.428C134.141 21.6519 134.087 20.837 134.205 20.038C134.275 17.268 134.205 12.778 134.125 11.858C134.099 11.065 133.786 10.3082 133.245 9.72803C132.175 8.59803 129.905 8.09803 127.445 8.39803ZM131.445 18.948C131.445 21.328 131.445 21.378 130.595 21.948C128.595 23.438 126.655 23.628 125.675 22.428C125.287 21.9529 125.054 21.3703 125.008 20.7588C124.961 20.1474 125.103 19.5363 125.415 19.008C126.075 17.788 128.125 16.948 130.505 16.938H131.445V18.948Z" />
        <path d="M43.404 8.52727C41.7356 8.94434 40.2477 9.89184 39.164 11.2273C37.284 13.8073 37.024 18.5773 38.604 21.8073C39.2175 23.1481 40.3033 24.216 41.654 24.8073C42.856 25.348 44.1657 25.6066 45.483 25.5633C46.8003 25.52 48.0902 25.1759 49.254 24.5573C50.474 24.0073 50.504 23.9173 49.944 22.7273L49.584 21.9573L49.234 22.0273C48.79 22.1466 48.3581 22.3073 47.944 22.5073C47.1272 22.9742 46.2049 23.2255 45.264 23.2373C44.4314 23.2575 43.6095 23.0467 42.8894 22.6284C42.1692 22.2101 41.579 21.6005 41.184 20.8673C40.7277 20.1052 40.4827 19.2354 40.474 18.3473V17.5673L41.534 17.5073C42.124 17.5073 44.344 17.5073 46.484 17.5073C49.624 17.5073 50.414 17.5073 50.604 17.4273C51.004 17.2073 51.024 16.8173 50.754 14.8173C50.424 12.5273 50.194 11.8173 49.394 10.7573C48.542 9.64388 47.3414 8.84818 45.984 8.49727C45.1285 8.36132 44.2561 8.37146 43.404 8.52727ZM45.314 10.7373C45.9123 10.9167 46.4467 11.2637 46.854 11.7373C47.5693 12.5667 47.9286 13.6446 47.854 14.7373V15.4373H40.484L40.544 14.7273C40.5916 14.2952 40.6718 13.8673 40.784 13.4473C41.0243 12.7645 41.402 12.1382 41.894 11.6073C42.3494 11.1935 42.8993 10.8978 43.4956 10.7461C44.0919 10.5944 44.7163 10.5914 45.314 10.7373Z" />
        <path d="M76.2936 8.61641C75.5736 8.83018 74.8966 9.16865 74.2936 9.61641C73.3173 10.3236 72.5026 11.2303 71.9036 12.2764C71.0898 14.5768 70.8327 17.0374 71.1536 19.4564C71.6236 22.3564 73.1536 24.3964 75.5836 25.1864C76.2843 25.4236 77.0274 25.5088 77.7636 25.4364C78.913 25.5446 80.0693 25.3189 81.0936 24.7864C82.1815 24.2007 83.0721 23.3066 83.6536 22.2164C84.3784 20.7861 84.7682 19.2096 84.7936 17.6064C85.1636 12.7964 83.3236 9.51641 79.7936 8.60641C78.6428 8.33098 77.4428 8.33441 76.2936 8.61641ZM79.4136 10.7864C79.9408 11.0381 80.4065 11.4021 80.778 11.853C81.1494 12.304 81.4176 12.8308 81.5636 13.3964C81.9191 14.6228 82.0379 15.9056 81.9136 17.1764C81.9514 18.0797 81.8708 18.9841 81.6736 19.8664C81.547 20.551 81.2659 21.1978 80.8517 21.7575C80.4376 22.3172 79.9013 22.7751 79.2836 23.0964C78.395 23.4836 77.3904 23.5087 76.4836 23.1664C75.8999 22.8747 75.3914 22.4523 74.9977 21.9319C74.6039 21.4116 74.3356 20.8074 74.2136 20.1664C73.8277 18.062 73.8481 15.9032 74.2736 13.8064C74.4358 13.0441 74.7998 12.3394 75.3275 11.7659C75.8552 11.1924 76.5274 10.7712 77.2736 10.5464C77.9926 10.3672 78.7521 10.4524 79.4136 10.7864Z" />
        <path d="M24.8247 8.91761C24.6526 8.92528 24.4848 8.97323 24.3347 9.05761C24.1853 9.71318 24.1447 10.3889 24.2147 11.0576C24.2147 12.1276 24.1547 13.8176 24.0847 14.8076C24.0147 15.7976 23.9047 17.2676 23.8447 18.0776C23.6847 20.4876 23.4247 21.3676 22.5547 22.3676C22.3549 22.6158 22.1043 22.8183 21.8197 22.9615C21.535 23.1046 21.223 23.1852 20.9047 23.1976C20.1847 23.2976 20.0547 23.3976 20.0547 23.7876C20.1311 24.394 20.3283 24.9788 20.6347 25.5076C21.1213 25.6258 21.6315 25.6015 22.1047 25.4376C22.853 25.2458 23.5447 24.8781 24.1222 24.365C24.6997 23.8518 25.1462 23.2082 25.4247 22.4876C26.1847 20.6676 26.4247 19.0876 26.7747 12.2576L26.8247 11.1476L27.4447 11.0776C27.7847 11.0776 28.6947 11.0776 29.4447 11.0776H30.8447V17.7276C30.8447 21.3976 30.8447 24.5476 30.9147 24.7276L30.9847 25.0976L32.2447 25.0276L33.5247 24.9476C33.5847 24.8876 33.7047 9.06761 33.6247 8.94761C33.5447 8.82761 25.5747 8.83761 24.8247 8.91761Z" />
        <path d="M90.8444 8.96789C90.8444 9.02789 90.7444 10.2779 90.7044 11.7579C90.7212 13.883 90.5438 16.0051 90.1744 18.0979C89.7744 20.2279 89.0844 22.2979 88.6244 22.6679C88.3655 22.7812 88.0869 22.8424 87.8044 22.8479C87.5618 22.8584 87.3207 22.8919 87.0844 22.9479C87.0844 22.9479 86.9844 24.5179 86.9844 26.3879C86.9844 29.2379 86.9844 29.7679 87.0644 29.8079C87.4857 29.8596 87.91 29.883 88.3344 29.8779H89.4644L89.5244 28.6079C89.5244 27.8979 89.5844 26.8179 89.5944 26.1879V25.0979H99.7944V29.8879H102.354L102.414 28.3479C102.414 27.5079 102.474 25.9379 102.474 24.8479V22.8479H100.554L100.484 21.8479C100.414 20.8479 100.584 10.6979 100.684 9.74789C100.684 9.29789 100.684 9.19789 100.544 9.02789C100.404 8.85789 100.314 8.83789 95.6344 8.83789C91.9844 8.85789 90.9044 8.87789 90.8444 8.96789ZM97.8444 16.8479C97.8444 20.0779 97.7644 22.7479 97.7344 22.7879C97.7044 22.8279 91.5044 22.8779 91.5044 22.7879C91.5044 22.6979 91.7344 22.0379 92.0144 21.2179C92.517 19.8465 92.8528 18.4196 93.0144 16.9679C93.1444 15.8279 93.3044 13.1179 93.3044 11.9179V10.9779H97.9544L97.8444 16.8479Z" />
    </symbol>

    <symbol viewBox="0 0 23 24" id="footer-contacts-phone">
        <path d="M18.6315 20.1451C16.8254 20.1451 15.011 19.7253 13.1883 18.8855C11.3657 18.0457 9.69106 16.861 8.1645 15.3314C6.63792 13.8017 5.45475 12.1271 4.61497 10.3075C3.7752 8.48791 3.35532 6.67507 3.35532 4.86899C3.35532 4.57885 3.45115 4.33708 3.64282 4.14365C3.83448 3.95023 4.07407 3.85352 4.36157 3.85352H7.48717C7.72921 3.85352 7.94269 3.93246 8.1276 4.09034C8.31251 4.24823 8.43015 4.44328 8.48051 4.67548L9.0297 7.49516C9.0678 7.75686 9.05981 7.9817 9.00575 8.16968C8.9517 8.35766 8.85463 8.51554 8.71456 8.64331L6.50119 10.7977C6.8575 11.4501 7.26449 12.0672 7.72215 12.649C8.17982 13.2307 8.67526 13.7864 9.20848 14.3159C9.73435 14.8418 10.2934 15.3302 10.8856 15.7811C11.4778 16.232 12.1173 16.6516 12.8041 17.0398L14.9548 14.8707C15.1047 14.7146 15.2862 14.6053 15.4994 14.5426C15.7126 14.48 15.934 14.4646 16.1638 14.4966L18.825 15.0384C19.067 15.1023 19.2645 15.2257 19.4175 15.4088C19.5705 15.5919 19.6469 15.7995 19.6469 16.0317V19.1389C19.6469 19.4264 19.5502 19.666 19.3568 19.8576C19.1634 20.0493 18.9216 20.1451 18.6315 20.1451ZM5.82116 9.43765L7.53142 7.80111C7.56214 7.77653 7.5821 7.74274 7.59132 7.69974C7.60053 7.65673 7.599 7.6168 7.58672 7.57995L7.1702 5.43843C7.15792 5.38929 7.13642 5.35243 7.10571 5.32786C7.07499 5.30328 7.03506 5.29099 6.98591 5.29099H4.93654C4.89969 5.29099 4.86898 5.30328 4.8444 5.32786C4.81982 5.35243 4.80753 5.38314 4.80753 5.42001C4.85667 6.07487 4.96387 6.74018 5.12912 7.41593C5.29438 8.09168 5.52506 8.76559 5.82116 9.43765ZM14.1586 17.7198C14.7938 18.0159 15.4564 18.2423 16.1463 18.399C16.8362 18.5556 17.4809 18.6487 18.0804 18.6782C18.1173 18.6782 18.148 18.6659 18.1726 18.6413C18.1972 18.6167 18.2095 18.586 18.2095 18.5492V16.533C18.2095 16.4838 18.1972 16.4439 18.1726 16.4132C18.148 16.3825 18.1112 16.361 18.062 16.3487L16.0495 15.9395C16.0127 15.9273 15.9804 15.9257 15.9528 15.9349C15.9251 15.9442 15.8959 15.9641 15.8652 15.9948L14.1586 17.7198Z" />
    </symbol>

    <symbol viewBox="0 0 23 24" id="footer-contacts-email">
        <path d="M4.12706 19.1875C3.64297 19.1875 3.23322 19.0197 2.89781 18.6843C2.56239 18.3489 2.39468 17.9392 2.39468 17.4551V6.54488C2.39468 6.06079 2.56239 5.65104 2.89781 5.31563C3.23322 4.98021 3.64297 4.8125 4.12706 4.8125H18.8706C19.3547 4.8125 19.7644 4.98021 20.0998 5.31563C20.4353 5.65104 20.603 6.06079 20.603 6.54488V17.4551C20.603 17.9392 20.4353 18.3489 20.0998 18.6843C19.7644 19.0197 19.3547 19.1875 18.8706 19.1875H4.12706ZM11.4988 12.5344L3.83216 7.63216V17.4551C3.83216 17.5411 3.8598 17.6117 3.9151 17.667C3.9704 17.7223 4.04105 17.75 4.12706 17.75H18.8706C18.9566 17.75 19.0273 17.7223 19.0825 17.667C19.1378 17.6117 19.1655 17.5411 19.1655 17.4551V7.63216L11.4988 12.5344ZM11.4988 11.0416L19.0181 6.24998H3.9796L11.4988 11.0416ZM3.83216 7.63216V6.24998V17.4551C3.83216 17.5411 3.8598 17.6117 3.9151 17.667C3.9704 17.7223 4.04105 17.75 4.12706 17.75H3.83216V7.63216Z" />
    </symbol>

    <symbol viewBox="0 0 20 20" id="breadcrumbs">
        <path d="M12.3718 5.28851L17.0833 10L12.3718 14.7115L11.4936 13.8334L14.702 10.625L2.91671 10.625L2.91671 9.37505L14.702 9.37505L11.4936 6.16669L12.3718 5.28851Z" />
    </symbol>

    <symbol viewBox="0 0 16 17" id="breadcrumbs-mobile">
        <path d="M6.6347 12.2689L2.86548 8.49969L6.6347 4.73047L7.33725 5.45354L4.79108 7.9997H13.1347V8.99967H4.79108L7.33725 11.5458L6.6347 12.2689Z" />
    </symbol>

    <symbol viewBox="0 0 23 24" id="article-view">
        <path d="M11.5052 15.4278C12.5911 15.4278 13.5134 15.0478 14.272 14.2877C15.0307 13.5275 15.4101 12.6045 15.4101 11.5186C15.4101 10.4328 15.03 9.51048 14.2699 8.7518C13.5097 7.99312 12.5867 7.61378 11.5008 7.61378C10.415 7.61378 9.49269 7.99384 8.73401 8.75396C7.97533 9.51409 7.59599 10.4371 7.59599 11.523C7.59599 12.6089 7.97605 13.5311 8.73617 14.2898C9.4963 15.0485 10.4193 15.4278 11.5052 15.4278ZM11.503 14.1083C10.7843 14.1083 10.1733 13.8567 9.67021 13.3536C9.16708 12.8505 8.91552 12.2396 8.91552 11.5208C8.91552 10.8021 9.16708 10.1911 9.67021 9.688C10.1733 9.18487 10.7843 8.93331 11.503 8.93331C12.2218 8.93331 12.8327 9.18487 13.3358 9.688C13.839 10.1911 14.0905 10.8021 14.0905 11.5208C14.0905 12.2396 13.839 12.8505 13.3358 13.3536C12.8327 13.8567 12.2218 14.1083 11.503 14.1083ZM11.5043 18.2291C9.30054 18.2291 7.29252 17.6213 5.48028 16.4055C3.66806 15.1898 2.33377 13.5616 1.47742 11.5208C2.33377 9.48006 3.66762 7.85182 5.47899 6.63609C7.29033 5.42036 9.2979 4.8125 11.5017 4.8125C13.7055 4.8125 15.7135 5.42036 17.5258 6.63609C19.338 7.85182 20.6723 9.48006 21.5286 11.5208C20.6723 13.5616 19.3384 15.1898 17.5271 16.4055C15.7157 17.6213 13.7081 18.2291 11.5043 18.2291ZM11.503 16.7916C13.3079 16.7916 14.965 16.3165 16.4744 15.3661C17.9838 14.4158 19.1377 13.134 19.9364 11.5208C19.1377 9.90762 17.9838 8.62584 16.4744 7.6755C14.965 6.72515 13.3079 6.24998 11.503 6.24998C9.69816 6.24998 8.04104 6.72515 6.53167 7.6755C5.02229 8.62584 3.8683 9.90762 3.06969 11.5208C3.8683 13.134 5.02229 14.4158 6.53167 15.3661C8.04104 16.3165 9.69816 16.7916 11.503 16.7916Z" />
    </symbol>

    <symbol viewBox="0 0 24 25" id="notices-more">
        <path d="M8.92501 14.5442L12 11.4692L15.075 14.5442L16.1442 13.5L12 9.35578L7.85581 13.5L8.92501 14.5442ZM12.0017 22C10.6877 22 9.45271 21.7506 8.29658 21.252C7.14043 20.7533 6.13475 20.0765 5.27953 19.2217C4.4243 18.3669 3.74724 17.3616 3.24836 16.206C2.74947 15.0504 2.50003 13.8156 2.50003 12.5017C2.50003 11.1877 2.74936 9.95268 3.24803 8.79655C3.7467 7.6404 4.42345 6.63472 5.27828 5.7795C6.13313 4.92427 7.13837 4.24721 8.29401 3.74833C9.44962 3.24944 10.6844 3 11.9983 3C13.3123 3 14.5473 3.24933 15.7034 3.748C16.8596 4.24667 17.8653 4.92342 18.7205 5.77825C19.5757 6.6331 20.2528 7.63834 20.7517 8.79398C21.2505 9.94959 21.5 11.1844 21.5 12.4983C21.5 13.8122 21.2506 15.0473 20.752 16.2034C20.2533 17.3596 19.5766 18.3652 18.7217 19.2205C17.8669 20.0757 16.8616 20.7527 15.706 21.2516C14.5504 21.7505 13.3156 22 12.0017 22ZM12 20.5C14.2333 20.5 16.125 19.725 17.675 18.175C19.225 16.625 20 14.7333 20 12.5C20 10.2666 19.225 8.37498 17.675 6.82498C16.125 5.27498 14.2333 4.49998 12 4.49998C9.76667 4.49998 7.87501 5.27498 6.32501 6.82498C4.77501 8.37498 4.00001 10.2666 4.00001 12.5C4.00001 14.7333 4.77501 16.625 6.32501 18.175C7.87501 19.725 9.76667 20.5 12 20.5Z" />
    </symbol>

    <symbol viewBox="0 0 24 24" id="varicose-alarm">
        <path d="M12 21.9996C10.75 21.9996 9.57917 21.7621 8.4875 21.2871C7.39583 20.8121 6.44583 20.1704 5.6375 19.3621C4.82917 18.5538 4.1875 17.6038 3.7125 16.5121C3.2375 15.4204 3 14.2496 3 12.9996C3 11.7496 3.2375 10.5788 3.7125 9.48711C4.1875 8.39544 4.82917 7.44544 5.6375 6.63711C6.44583 5.82878 7.39583 5.18711 8.4875 4.71211C9.57917 4.23711 10.75 3.99961 12 3.99961C13.25 3.99961 14.4208 4.23711 15.5125 4.71211C16.6042 5.18711 17.5542 5.82878 18.3625 6.63711C19.1708 7.44544 19.8125 8.39544 20.2875 9.48711C20.7625 10.5788 21 11.7496 21 12.9996C21 14.2496 20.7625 15.4204 20.2875 16.5121C19.8125 17.6038 19.1708 18.5538 18.3625 19.3621C17.5542 20.1704 16.6042 20.8121 15.5125 21.2871C14.4208 21.7621 13.25 21.9996 12 21.9996ZM14.8 17.1996L16.2 15.7996L13 12.5996V7.99961H11V13.3996L14.8 17.1996ZM5.6 2.34961L7 3.74961L2.75 7.99961L1.35 6.59961L5.6 2.34961ZM18.4 2.34961L22.65 6.59961L21.25 7.99961L17 3.74961L18.4 2.34961Z" />
    </symbol>

    <symbol viewBox="0 0 24 24" id="varicose-calendar">
        <path d="M10.95 18.35L7.4 14.8L8.85 13.35L10.95 15.45L15.15 11.25L16.6 12.7L10.95 18.35ZM5 22C4.45 22 3.97917 21.8042 3.5875 21.4125C3.19583 21.0208 3 20.55 3 20V6C3 5.45 3.19583 4.97917 3.5875 4.5875C3.97917 4.19583 4.45 4 5 4H6V2H8V4H16V2H18V4H19C19.55 4 20.0208 4.19583 20.4125 4.5875C20.8042 4.97917 21 5.45 21 6V20C21 20.55 20.8042 21.0208 20.4125 21.4125C20.0208 21.8042 19.55 22 19 22H5ZM5 20H19V10H5V20Z" />
    </symbol>

    <symbol viewBox="0 0 24 24" id="varicose-night">
        <path d="M6 14C6.8 14 7.53333 14.2167 8.2 14.65C8.86667 15.0833 9.35833 15.675 9.675 16.425L9.925 17H10.55C11.25 17 11.8333 17.2458 12.3 17.7375C12.7667 18.2292 13 18.8167 13 19.5C13 20.2 12.7583 20.7917 12.275 21.275C11.7917 21.7583 11.2 22 10.5 22H6C4.9 22 3.95833 21.6083 3.175 20.825C2.39167 20.0417 2 19.1 2 18C2 16.8833 2.39167 15.9375 3.175 15.1625C3.95833 14.3875 4.9 14 6 14ZM11.25 3C10.95 4.65 11.0417 6.2625 11.525 7.8375C12.0083 9.4125 12.8417 10.7917 14.025 11.975C15.2083 13.1583 16.5875 13.9917 18.1625 14.475C19.7375 14.9583 21.35 15.05 23 14.75C22.5667 17.1167 21.4417 19.0708 19.625 20.6125C17.8083 22.1542 15.7083 22.95 13.325 23C13.8583 22.5667 14.2708 22.0458 14.5625 21.4375C14.8542 20.8292 15 20.1833 15 19.5C15 18.3667 14.6458 17.3875 13.9375 16.5625C13.2292 15.7375 12.325 15.2417 11.225 15.075C10.6917 14.125 9.9625 13.375 9.0375 12.825C8.1125 12.275 7.1 12 6 12C5.46667 12 4.94583 12.0667 4.4375 12.2C3.92917 12.3333 3.45 12.5333 3 12.8C3.03333 10.3833 3.82083 8.25833 5.3625 6.425C6.90417 4.59167 8.86667 3.45 11.25 3Z" />
    </symbol>

    <symbol viewBox="0 0 24 24" id="icon-info">
        <path d="M11.25 16.75H12.75V11H11.25V16.75ZM12 9.28845C12.2288 9.28845 12.4207 9.21105 12.5755 9.05625C12.7303 8.90145 12.8077 8.70963 12.8077 8.48078C12.8077 8.25194 12.7303 8.06012 12.5755 7.9053C12.4207 7.7505 12.2288 7.6731 12 7.6731C11.7711 7.6731 11.5793 7.7505 11.4245 7.9053C11.2697 8.06012 11.1923 8.25194 11.1923 8.48078C11.1923 8.70963 11.2697 8.90145 11.4245 9.05625C11.5793 9.21105 11.7711 9.28845 12 9.28845ZM12.0017 21.5C10.6877 21.5 9.45271 21.2506 8.29657 20.752C7.14042 20.2533 6.13474 19.5765 5.27952 18.7217C4.42429 17.8669 3.74723 16.8616 3.24835 15.706C2.74946 14.5504 2.50002 13.3156 2.50002 12.0017C2.50002 10.6877 2.74936 9.45268 3.24802 8.29655C3.74669 7.1404 4.42344 6.13472 5.27827 5.2795C6.13312 4.42427 7.13836 3.74721 8.294 3.24833C9.44962 2.74944 10.6844 2.5 11.9983 2.5C13.3123 2.5 14.5473 2.74933 15.7034 3.248C16.8596 3.74667 17.8653 4.42342 18.7205 5.27825C19.5757 6.1331 20.2528 7.13834 20.7516 8.29398C21.2505 9.44959 21.5 10.6844 21.5 11.9983C21.5 13.3122 21.2506 14.5473 20.752 15.7034C20.2533 16.8596 19.5766 17.8652 18.7217 18.7205C17.8669 19.5757 16.8616 20.2527 15.706 20.7516C14.5504 21.2505 13.3156 21.5 12.0017 21.5ZM12 20C14.2333 20 16.125 19.225 17.675 17.675C19.225 16.125 20 14.2333 20 12C20 9.76664 19.225 7.87498 17.675 6.32498C16.125 4.77498 14.2333 3.99998 12 3.99998C9.76666 3.99998 7.875 4.77498 6.325 6.32498C4.775 7.87498 4 9.76664 4 12C4 14.2333 4.775 16.125 6.325 17.675C7.875 19.225 9.76666 20 12 20Z" />
    </symbol>

    <symbol viewBox="0 0 16 16" id="pager-prev">
        <path fill-rule="evenodd" clip-rule="evenodd" d="M4.20503 7.52859C3.93166 7.78894 3.93166 8.21105 4.20503 8.4714L9.80502 13.8047C10.0784 14.0651 10.5216 14.0651 10.795 13.8047C11.0683 13.5444 11.0683 13.1223 10.795 12.8619L5.68995 8L10.795 3.13807C11.0683 2.87772 11.0683 2.45561 10.795 2.19526C10.5216 1.93491 10.0784 1.93491 9.80503 2.19526L4.20503 7.52859Z" />
    </symbol>

    <symbol viewBox="0 0 16 16" id="pager-next">
        <path fill-rule="evenodd" clip-rule="evenodd" d="M11.795 8.4714C12.0683 8.21105 12.0683 7.78895 11.795 7.5286L6.19498 2.19526C5.92161 1.93491 5.47839 1.93491 5.20503 2.19526C4.93166 2.45561 4.93166 2.87772 5.20503 3.13807L10.3101 8L5.20503 12.8619C4.93166 13.1223 4.93166 13.5444 5.20503 13.8047C5.47839 14.0651 5.92161 14.0651 6.19497 13.8047L11.795 8.4714Z" />
    </symbol>

    <symbol viewBox="0 0 24 25" id="article-share">
        <path d="M18.0011 22.25C17.2375 22.25 16.5881 21.9826 16.0529 21.4479C15.5176 20.9132 15.25 20.2639 15.25 19.5C15.25 19.3751 15.2599 19.2459 15.2798 19.1121C15.2997 18.9784 15.3295 18.8551 15.3692 18.7423L7.97305 14.4115C7.70895 14.6743 7.40831 14.8798 7.07113 15.0279C6.73394 15.1759 6.37689 15.25 5.99997 15.25C5.23609 15.25 4.58679 14.9827 4.05207 14.4482C3.51736 13.9137 3.25 13.2647 3.25 12.5011C3.25 11.7375 3.51736 11.0881 4.05207 10.5529C4.58679 10.0176 5.23609 9.75 5.99997 9.75C6.37689 9.75 6.73394 9.82403 7.07113 9.9721C7.40831 10.1202 7.70895 10.3256 7.97305 10.5885L15.3692 6.25768C15.3295 6.14486 15.2997 6.02157 15.2798 5.88783C15.2599 5.75409 15.25 5.62481 15.25 5.49998C15.25 4.73609 15.5173 4.08679 16.0518 3.55208C16.5863 3.01736 17.2353 2.75 17.9989 2.75C18.7624 2.75 19.4118 3.01725 19.9471 3.55175C20.4823 4.08625 20.75 4.73528 20.75 5.49885C20.75 6.26242 20.4826 6.91182 19.9479 7.44707C19.4132 7.98233 18.7639 8.24995 18 8.24995C17.6231 8.24995 17.266 8.17592 16.9288 8.02785C16.5916 7.87977 16.291 7.67432 16.0269 7.4115L8.63073 11.7423C8.67048 11.8551 8.70028 11.9782 8.72015 12.1115C8.74002 12.2447 8.74995 12.3736 8.74995 12.498C8.74995 12.6224 8.74002 12.7519 8.72015 12.8865C8.70028 13.0211 8.67048 13.1449 8.63073 13.2577L16.0269 17.5885C16.291 17.3256 16.5916 17.1202 16.9288 16.9721C17.266 16.824 17.6231 16.75 18 16.75C18.7639 16.75 19.4132 17.0173 19.9479 17.5518C20.4826 18.0863 20.75 18.7353 20.75 19.4989C20.75 20.2624 20.4827 20.9118 19.9482 21.4471C19.4137 21.9823 18.7647 22.25 18.0011 22.25ZM18 6.74998C18.3474 6.74998 18.6426 6.6285 18.8856 6.38555C19.1285 6.14258 19.25 5.84738 19.25 5.49995C19.25 5.15252 19.1285 4.85732 18.8856 4.61435C18.6426 4.37142 18.3474 4.24995 18 4.24995C17.6525 4.24995 17.3573 4.37143 17.1144 4.61438C16.8714 4.85734 16.75 5.15254 16.75 5.49998C16.75 5.84741 16.8714 6.14261 17.1144 6.38558C17.3573 6.62853 17.6525 6.74998 18 6.74998ZM5.99997 13.75C6.34741 13.75 6.64261 13.6285 6.88558 13.3856C7.12853 13.1426 7.25 12.8474 7.25 12.5C7.25 12.1525 7.12853 11.8573 6.88558 11.6144C6.64261 11.3714 6.34741 11.25 5.99997 11.25C5.65254 11.25 5.35734 11.3714 5.11438 11.6144C4.87143 11.8573 4.74995 12.1525 4.74995 12.5C4.74995 12.8474 4.87143 13.1426 5.11438 13.3856C5.35734 13.6285 5.65254 13.75 5.99997 13.75ZM18 20.75C18.3474 20.75 18.6426 20.6285 18.8856 20.3855C19.1285 20.1426 19.25 19.8474 19.25 19.5C19.25 19.1525 19.1285 18.8573 18.8856 18.6144C18.6426 18.3714 18.3474 18.25 18 18.25C17.6525 18.25 17.3573 18.3714 17.1144 18.6144C16.8714 18.8573 16.75 19.1525 16.75 19.5C16.75 19.8474 16.8714 20.1426 17.1144 20.3856C17.3573 20.6285 17.6525 20.75 18 20.75Z" />
    </symbol>

    <symbol viewBox="0 0 50 50" id="icon-info-big">
        <path d="M23.9583 34.375H26.0417V22.9167H23.9583V34.375ZM25 19.9519C25.3633 19.9519 25.6678 19.8291 25.9135 19.5833C26.1592 19.3376 26.282 19.0331 26.282 18.6698C26.282 18.3066 26.1592 18.0021 25.9135 17.7564C25.6678 17.5107 25.3633 17.3878 25 17.3878C24.6367 17.3878 24.3322 17.5107 24.0865 17.7564C23.8408 18.0021 23.718 18.3066 23.718 18.6698C23.718 19.0331 23.8408 19.3376 24.0865 19.5833C24.3322 19.8291 24.6367 19.9519 25 19.9519ZM25.007 43.75C22.4142 43.75 19.9765 43.258 17.694 42.274C15.4114 41.29 13.4259 39.9545 11.7374 38.2677C10.049 36.5808 8.71233 34.5972 7.7274 32.3168C6.74247 30.0364 6.25 27.5998 6.25 25.007C6.25 22.4142 6.742 19.9765 7.72599 17.694C8.71002 15.4114 10.0455 13.4259 11.7323 11.7374C13.4192 10.049 15.4028 8.71233 17.6832 7.7274C19.9636 6.74247 22.4002 6.25 24.993 6.25C27.5858 6.25 30.0235 6.742 32.306 7.72599C34.5886 8.71002 36.5741 10.0455 38.2626 11.7323C39.951 13.4192 41.2877 15.4028 42.2726 17.6832C43.2575 19.9636 43.75 22.4002 43.75 24.993C43.75 27.5858 43.258 30.0235 42.274 32.306C41.29 34.5886 39.9545 36.5741 38.2677 38.2626C36.5808 39.951 34.5972 41.2877 32.3168 42.2726C30.0364 43.2575 27.5998 43.75 25.007 43.75ZM25 41.6667C29.6528 41.6667 33.5938 40.0521 36.8229 36.8229C40.0521 33.5938 41.6667 29.6528 41.6667 25C41.6667 20.3472 40.0521 16.4062 36.8229 13.1771C33.5938 9.94792 29.6528 8.33333 25 8.33333C20.3472 8.33333 16.4062 9.94792 13.1771 13.1771C9.94792 16.4062 8.33333 20.3472 8.33333 25C8.33333 29.6528 9.94792 33.5938 13.1771 36.8229C16.4062 40.0521 20.3472 41.6667 25 41.6667Z" />
    </symbol>

    <symbol viewBox="0 0 16 17" id="back-link">
        <path d="M6.6347 12.2728L2.86548 8.50359L6.6347 4.73438L7.33725 5.45744L4.79108 8.00361H13.1347V9.00357H4.79108L7.33725 11.5497L6.6347 12.2728Z" />
    </symbol>

    <symbol viewBox="0 0 26 26" id="faq-plus">
        <path d="M12.1877 13.8151H5.9585V12.1901H12.1877V5.96094H13.8126V12.1901H20.0418V13.8151H13.8126V20.0442H12.1877V13.8151Z" />
    </symbol>

    <symbol viewBox="0 0 26 26" id="faq-minus">
        <path d="M12.1877 13.8124H5.9585V12.1875H12.1877L13.8126 12.1875L20.0418 12.1875V13.8124H13.8126H12.1877Z" />
    </symbol>

    <symbol viewBox="0 0 57 56" id="experts-status-digit">
        <path d="M24.977 37.118L39.9013 22.1936L38.25 20.5423L24.977 33.8154L18.327 27.1654L16.6757 28.8167L24.977 37.118ZM28.3412 49C25.4372 49 22.707 48.449 20.1506 47.3469C17.5941 46.2448 15.3704 44.7491 13.4793 42.8598C11.5882 40.9705 10.0911 38.7488 8.98803 36.1948C7.8849 33.6407 7.33334 30.9117 7.33334 28.0078C7.33334 25.1039 7.88438 22.3737 8.98645 19.8172C10.0886 17.2608 11.5843 15.037 13.4736 13.1459C15.3629 11.2549 17.5845 9.75781 20.1386 8.65469C22.6926 7.55156 25.4216 7 28.3255 7C31.2295 7 33.9597 7.55104 36.5161 8.65311C39.0725 9.75522 41.2963 11.2509 43.1874 13.1402C45.0784 15.0295 46.5755 17.2512 47.6787 19.8052C48.7818 22.3593 49.3333 25.0883 49.3333 27.9922C49.3333 30.8961 48.7823 33.6263 47.6802 36.1828C46.5781 38.7392 45.0824 40.963 43.1931 42.8541C41.3038 44.7451 39.0822 46.2422 36.5281 47.3453C33.9741 48.4484 31.2451 49 28.3412 49ZM28.3333 46.6667C33.5445 46.6667 37.9583 44.8583 41.575 41.2417C45.1917 37.625 47 33.2111 47 28C47 22.7889 45.1917 18.375 41.575 14.7583C37.9583 11.1417 33.5445 9.33333 28.3333 9.33333C23.1222 9.33333 18.7083 11.1417 15.0917 14.7583C11.475 18.375 9.66668 22.7889 9.66668 28C9.66668 33.2111 11.475 37.625 15.0917 41.2417C18.7083 44.8583 23.1222 46.6667 28.3333 46.6667Z" />
    </symbol>

    <symbol viewBox="0 0 12 7" id="up-link">
        <path fill-rule="evenodd" clip-rule="evenodd" d="M6.4714 0.205078C6.21106 -0.068289 5.78895 -0.068289 5.5286 0.205078L0.195262 5.80508C-0.0650874 6.07844 -0.0650874 6.52166 0.195262 6.79503C0.455611 7.06839 0.877722 7.06839 1.13807 6.79503L6 1.69L10.8619 6.79503C11.1223 7.06839 11.5444 7.06839 11.8047 6.79503C12.0651 6.52166 12.0651 6.07845 11.8047 5.80508L6.4714 0.205078Z" />
    </symbol>

    <symbol viewBox="0 0 36 36" id="menu-mobile-link">
        <path d="M7.5 21.75V20.25H28.5V21.75H7.5ZM7.5 15.75V14.25H28.5V15.75H7.5Z" />
    </symbol>

    <symbol viewBox="0 0 36 36" id="menu-mobile-close">
        <path d="M9.60002 27.9808L8.01929 26.4L16.4193 18L8.01929 9.60003L9.60002 8.01929L18 16.4193L26.4 8.01929L27.9808 9.60003L19.5808 18L27.9808 26.4L26.4 27.9808L18 19.5808L9.60002 27.9808Z" />
    </symbol>

    <symbol viewBox="0 0 24 24" id="hemorrhoids-about-list-prev">
        <path d="M10.1539 6.34469L11.2077 7.42929L7.38845 11.2485L19.5 11.2485L19.5 12.7485L7.38845 12.7485L11.2077 16.5677L10.1539 17.6523L4.50005 11.9985L10.1539 6.34469Z" />
    </symbol>

    <symbol viewBox="0 0 24 25" id="hemorrhoids-about-list-prev-desktop">
        <path d="M14 18.1553L8.34619 12.5015L14 6.84766L15.0538 7.90148L10.4538 12.5015L15.0538 17.1015L14 18.1553Z" />
    </symbol>

    <symbol viewBox="0 0 24 24" id="hemorrhoids-about-list-next">
        <path d="M13.8461 17.6553L12.7923 16.5707L16.6116 12.7515L4.5 12.7515V11.2515L16.6116 11.2515L12.7923 7.43226L13.8461 6.34766L19.5 12.0015L13.8461 17.6553Z" />
    </symbol>

    <symbol viewBox="0 0 24 25" id="hemorrhoids-about-list-next-desktop">
        <path d="M10.0006 6.84469L15.6544 12.4985L10.0006 18.1523L8.94677 17.0985L13.5468 12.4985L8.94677 7.89852L10.0006 6.84469Z" />
    </symbol>

    <symbol viewBox="0 0 36 36" id="section-articles-list-prev">
        <path d="M15.2308 9.51899L16.8116 11.1459L11.0827 16.8748L29.25 16.8748L29.25 19.1247L11.0827 19.1247L16.8116 24.8536L15.2308 26.4805L6.75007 17.9997L15.2308 9.51899Z" />
    </symbol>

    <symbol viewBox="0 0 36 36" id="section-articles-list-next">
        <path d="M20.7692 26.4849L19.1884 24.858L24.9173 19.1291H6.75V16.8792L24.9173 16.8792L19.1884 11.1503L20.7692 9.52344L29.2499 18.0042L20.7692 26.4849Z" />
    </symbol>

    <symbol viewBox="0 0 30 31" id="disclaimer-close">
        <path d="M7.9999 23.8182L6.68262 22.5009L13.6826 15.5009L6.68262 8.50088L7.9999 7.18359L14.9999 14.1836L21.9999 7.18359L23.3172 8.50088L16.3172 15.5009L23.3172 22.5009L21.9999 23.8182L14.9999 16.8182L7.9999 23.8182Z" />
    </symbol>

    <symbol viewBox="0 0 24 25" id="text-more-link">
        <path d="M15.075 10.4558L12 13.5308L8.92503 10.4558L7.85582 11.5L12 15.6442L16.1442 11.5L15.075 10.4558ZM11.9984 3.00005C13.3123 3.00005 14.5473 3.24938 15.7035 3.74805C16.8596 4.24672 17.8653 4.92346 18.7205 5.7783C19.5757 6.63315 20.2528 7.63839 20.7517 8.79402C21.2506 9.94964 21.5 11.1844 21.5 12.4983C21.5 13.8123 21.2507 15.0473 20.752 16.2034C20.2533 17.3596 19.5766 18.3653 18.7218 19.2205C17.8669 20.0757 16.8617 20.7528 15.706 21.2517C14.5504 21.7506 13.3156 22 12.0017 22C10.6878 22 9.45273 21.7507 8.2966 21.252C7.14045 20.7533 6.13477 20.0766 5.27955 19.2217C4.42431 18.3669 3.74726 17.3617 3.24837 16.206C2.74949 15.0504 2.50005 13.8156 2.50005 12.5017C2.50005 11.1878 2.74938 9.95273 3.24805 8.7966C3.74672 7.64045 4.42347 6.63476 5.2783 5.77955C6.13315 4.92431 7.13839 4.24726 8.29403 3.74837C9.44964 3.24949 10.6844 3.00005 11.9984 3.00005ZM12 4.50002C9.76669 4.50002 7.87502 5.27502 6.32502 6.82502C4.77502 8.37502 4.00002 10.2667 4.00002 12.5C4.00002 14.7334 4.77502 16.625 6.32502 18.175C7.87502 19.725 9.76669 20.5 12 20.5C14.2334 20.5 16.125 19.725 17.675 18.175C19.225 16.625 20 14.7334 20 12.5C20 10.2667 19.225 8.37502 17.675 6.82502C16.125 5.27502 14.2334 4.50002 12 4.50002Z" />
    </symbol>

    <symbol viewBox="0 0 36 37" id="window-close">
        <path d="M9.60002 28.563L8.01929 26.9823L16.4193 18.5823L8.01929 10.1823L9.60002 8.60156L18 17.0016L26.4 8.60156L27.9808 10.1823L19.5808 18.5823L27.9808 26.9823L26.4 28.563L18 20.163L9.60002 28.563Z" />
    </symbol>

    <symbol viewBox="0 0 9 18" id="articles-all-mobile">
        <path d="M0.615469 4.75087L1.93272 3.43359L9 10.5009L1.93272 17.5682L0.615468 16.2509L6.36547 10.5009L0.615469 4.75087Z" />
    </symbol>

    <symbol viewBox="0 0 20 20" id="share-icon-vk">
        <path d="M0 9.6C0 5.0745 0 2.81177 1.40589 1.40589C2.81177 0 5.0745 0 9.6 0H10.4C14.9255 0 17.1882 0 18.5941 1.40589C20 2.81177 20 5.0745 20 9.6V10.4C20 14.9255 20 17.1882 18.5941 18.5941C17.1882 20 14.9255 20 10.4 20H9.6C5.0745 20 2.81177 20 1.40589 18.5941C0 17.1882 0 14.9255 0 10.4V9.6Z" fill="#0077FF" />
        <path d="M10.6416 14.4109C6.08329 14.4109 3.48333 11.2859 3.375 6.08594H5.65833C5.73333 9.9026 7.41663 11.5193 8.74996 11.8526V6.08594H10.9V9.3776C12.2167 9.23594 13.5999 7.73594 14.0665 6.08594H16.2166C15.8582 8.11927 14.3582 9.61927 13.2916 10.2359C14.3582 10.7359 16.0667 12.0443 16.7167 14.4109H14.3499C13.8416 12.8276 12.575 11.6026 10.9 11.4359V14.4109H10.6416Z" fill="white" />
    </symbol>

    <symbol viewBox="0 0 21 20" id="share-icon-whatsapp">
        <path d="M0.333496 20L1.73933 14.8641C0.871828 13.3608 0.415996 11.6566 0.416829 9.90915C0.419329 4.44582 4.86515 0 10.3276 0C12.9785 0.000833332 15.4668 1.03333 17.3385 2.90666C19.2093 4.77999 20.2393 7.26998 20.2385 9.91831C20.236 15.3825 15.7901 19.8283 10.3276 19.8283C8.66931 19.8275 7.03515 19.4116 5.58765 18.6216L0.333496 20ZM5.83098 16.8275C7.22765 17.6566 8.56098 18.1533 10.3243 18.1541C14.8643 18.1541 18.5626 14.4591 18.5651 9.91665C18.5668 5.36499 14.886 1.675 10.331 1.67333C5.78765 1.67333 2.09183 5.36832 2.09016 9.90998C2.08933 11.7641 2.63266 13.1525 3.54516 14.605L2.71266 17.645L5.83098 16.8275ZM15.3201 12.2741C15.2585 12.1708 15.0935 12.1091 14.8451 11.985C14.5976 11.8608 13.3801 11.2616 13.1526 11.1791C12.926 11.0966 12.761 11.055 12.5951 11.3033C12.4301 11.5508 11.9551 12.1091 11.811 12.2741C11.6668 12.4391 11.5218 12.46 11.2743 12.3358C11.0268 12.2116 10.2285 11.9508 9.28264 11.1066C8.54681 10.45 8.04931 9.63915 7.90515 9.39081C7.76098 9.14331 7.89015 9.00915 8.01348 8.88581C8.12514 8.77498 8.26098 8.59665 8.38514 8.45165C8.51098 8.30832 8.55181 8.20498 8.63514 8.03915C8.71764 7.87415 8.67681 7.72915 8.61431 7.60498C8.55181 7.48165 8.05681 6.26249 7.85098 5.76665C7.64931 5.28416 7.44515 5.34915 7.29348 5.34165L6.81848 5.33332C6.65348 5.33332 6.38515 5.39499 6.15848 5.64332C5.93182 5.89165 5.29182 6.48999 5.29182 7.70915C5.29182 8.92831 6.17932 10.1058 6.30265 10.2708C6.42682 10.4358 8.04848 12.9375 10.5326 14.01C11.1235 14.265 11.5851 14.4175 11.9443 14.5316C12.5376 14.72 13.0776 14.6933 13.5043 14.63C13.9801 14.5591 14.9693 14.0308 15.176 13.4525C15.3826 12.8733 15.3826 12.3775 15.3201 12.2741Z" fill="#25D366" />
    </symbol>

    <symbol viewBox="0 0 21 20" id="share-icon-telegram">
        <path d="M10.6665 20C16.1894 20 20.6665 15.5228 20.6665 10C20.6665 4.47715 16.1894 0 10.6665 0C5.14366 0 0.666504 4.47715 0.666504 10C0.666504 15.5228 5.14366 20 10.6665 20Z" fill="#2AABEE" />
        <path fill-rule="evenodd" clip-rule="evenodd" d="M5.19286 9.89787C8.10806 8.62777 10.052 7.79044 11.0246 7.38588C13.8017 6.23079 14.3788 6.03013 14.7549 6.02351C14.8376 6.02205 15.0226 6.04255 15.1424 6.13977C15.2436 6.22186 15.2714 6.33275 15.2847 6.41058C15.2981 6.48841 15.3146 6.66571 15.3015 6.80425C15.151 8.38548 14.4998 12.2227 14.1685 13.9937C14.0283 14.7431 13.7523 14.9944 13.4851 15.019C12.9044 15.0724 12.4634 14.6352 11.901 14.2665C11.0208 13.6896 10.5236 13.3304 9.66929 12.7674C8.68198 12.1168 9.32201 11.7592 9.88468 11.1748C10.0319 11.0219 12.5906 8.69456 12.6401 8.48344C12.6463 8.45704 12.6521 8.35861 12.5936 8.30664C12.5351 8.25467 12.4488 8.27244 12.3865 8.28658C12.2983 8.30661 10.8922 9.23594 8.16848 11.0746C7.76939 11.3486 7.4079 11.4821 7.08402 11.4751C6.72697 11.4674 6.04014 11.2732 5.52956 11.1073C4.90331 10.9037 4.40558 10.7961 4.44892 10.4504C4.47149 10.2703 4.71947 10.0861 5.19286 9.89787Z" fill="white" />
    </symbol>

    <symbol viewBox="0 0 20 20" id="share-icon-facebook">
        <path d="M20 10C20 4.4772 15.5228 0 10 0C4.4772 0 0 4.4772 0 10C0 14.6896 3.2288 18.6248 7.5844 19.7056V13.056H5.5224V10H7.5844V8.6832C7.5844 5.2796 9.1248 3.702 12.4664 3.702C13.1 3.702 14.1932 3.8264 14.6404 3.9504V6.7204C14.4044 6.6956 13.9944 6.6832 13.4852 6.6832C11.8456 6.6832 11.212 7.3044 11.212 8.9192V10H14.4784L13.9172 13.056H11.212V19.9268C16.1636 19.3288 20.0004 15.1128 20.0004 10H20Z" fill="#0866FF" />
        <path d="M13.9168 13.0571L14.478 10.0011H11.2116V8.92032C11.2116 7.30552 11.8452 6.68432 13.4848 6.68432C13.994 6.68432 14.404 6.69672 14.64 6.72152V3.95152C14.1928 3.82712 13.0996 3.70312 12.466 3.70312C9.12437 3.70312 7.58397 5.28073 7.58397 8.68432V10.0011H5.52197V13.0571H7.58397V19.7067C8.35757 19.8987 9.16677 20.0011 9.99957 20.0011C10.4096 20.0011 10.814 19.9759 11.2112 19.9279V13.0571H13.9164H13.9168Z" fill="white" />
    </symbol>

    <symbol viewBox="0 0 20 20" id="icon-doc">
        <path d="M4.99999 18.3334C4.54166 18.3334 4.1493 18.1702 3.82291 17.8438C3.49652 17.5174 3.33333 17.1251 3.33333 16.6667V3.33341C3.33333 2.87508 3.49652 2.48272 3.82291 2.15633C4.1493 1.82994 4.54166 1.66675 4.99999 1.66675H11.6667L16.6667 6.66675V16.6667C16.6667 17.1251 16.5035 17.5174 16.1771 17.8438C15.8507 18.1702 15.4583 18.3334 15 18.3334H4.99999ZM10.8333 7.50008V3.33341H4.99999V16.6667H15V7.50008H10.8333Z" />
    </symbol>

    <symbol viewBox="0 0 48 48" id="slider-prev">
        <path d="M18.3077 35.3077L7 24L18.3077 12.6924L20.4153 14.8L12.7153 22.5001H40.9999V25.5H12.7153L20.4153 33.2L18.3077 35.3077Z" />
    </symbol>

    <symbol viewBox="0 0 48 48" id="slider-next">
        <path d="M29.6924 12.6923L41 24L29.6923 35.3076L27.5847 33.2L35.2848 25.4999L7.0001 25.4999L7.0001 22.5L35.2848 22.5L27.5847 14.8L29.6924 12.6923Z" />
    </symbol>

    <symbol viewBox="0 0 24 24" id="window-photo-close">
        <path d="M6.40002 18.6538L5.34619 17.6L10.9462 12L5.34619 6.40002L6.40002 5.34619L12 10.9462L17.6 5.34619L18.6538 6.40002L13.0538 12L18.6538 17.6L17.6 18.6538L12 13.0538L6.40002 18.6538Z" />
    </symbol>

    <symbol viewBox="0 0 24 24" id="window-photo-download">
        <path d="M12 15.7884L7.7308 11.5193L8.78462 10.4347L11.25 12.9V4.5H12.7499V12.9L15.2153 10.4347L16.2692 11.5193L12 15.7884ZM6.3077 19.5C5.80257 19.5 5.375 19.325 5.025 18.975C4.675 18.625 4.5 18.1974 4.5 17.6923V14.9808H5.99997V17.6923C5.99997 17.7692 6.03202 17.8397 6.09612 17.9038C6.16024 17.9679 6.23077 18 6.3077 18H17.6922C17.7692 18 17.8397 17.9679 17.9038 17.9038C17.9679 17.8397 18 17.7692 18 17.6923V14.9808H19.5V17.6923C19.5 18.1974 19.325 18.625 18.975 18.975C18.625 19.325 18.1974 19.5 17.6922 19.5H6.3077Z" />
    </symbol>

    <symbol viewBox="0 0 24 24" id="window-photo-share">
        <path d="M18.0011 21.75C17.2375 21.75 16.5881 21.4826 16.0529 20.9479C15.5176 20.4132 15.25 19.7639 15.25 19C15.25 18.8751 15.2599 18.7459 15.2798 18.6121C15.2997 18.4784 15.3295 18.3551 15.3692 18.2423L7.97305 13.9115C7.70895 14.1743 7.40831 14.3798 7.07113 14.5279C6.73394 14.6759 6.37689 14.75 5.99997 14.75C5.23609 14.75 4.58679 14.4827 4.05207 13.9482C3.51736 13.4137 3.25 12.7647 3.25 12.0011C3.25 11.2375 3.51736 10.5881 4.05207 10.0529C4.58679 9.51763 5.23609 9.25 5.99997 9.25C6.37689 9.25 6.73394 9.32403 7.07113 9.4721C7.40831 9.62018 7.70895 9.82563 7.97305 10.0885L15.3692 5.75768C15.3295 5.64486 15.2997 5.52157 15.2798 5.38783C15.2599 5.25409 15.25 5.12481 15.25 4.99998C15.25 4.23609 15.5173 3.58679 16.0518 3.05208C16.5863 2.51736 17.2353 2.25 17.9989 2.25C18.7624 2.25 19.4118 2.51725 19.9471 3.05175C20.4823 3.58625 20.75 4.23528 20.75 4.99885C20.75 5.76242 20.4826 6.41182 19.9479 6.94707C19.4132 7.48233 18.7639 7.74995 18 7.74995C17.6231 7.74995 17.266 7.67592 16.9288 7.52785C16.5916 7.37977 16.291 7.17432 16.0269 6.9115L8.63073 11.2423C8.67048 11.3551 8.70028 11.4782 8.72015 11.6115C8.74002 11.7447 8.74995 11.8736 8.74995 11.998C8.74995 12.1224 8.74002 12.2519 8.72015 12.3865C8.70028 12.5211 8.67048 12.6449 8.63073 12.7577L16.0269 17.0885C16.291 16.8256 16.5916 16.6202 16.9288 16.4721C17.266 16.324 17.6231 16.25 18 16.25C18.7639 16.25 19.4132 16.5173 19.9479 17.0518C20.4826 17.5863 20.75 18.2353 20.75 18.9989C20.75 19.7624 20.4827 20.4118 19.9482 20.9471C19.4137 21.4823 18.7647 21.75 18.0011 21.75ZM18 6.24998C18.3474 6.24998 18.6426 6.1285 18.8856 5.88555C19.1285 5.64258 19.25 5.34738 19.25 4.99995C19.25 4.65252 19.1285 4.35732 18.8856 4.11435C18.6426 3.87142 18.3474 3.74995 18 3.74995C17.6525 3.74995 17.3573 3.87143 17.1144 4.11438C16.8714 4.35734 16.75 4.65254 16.75 4.99998C16.75 5.34741 16.8714 5.64261 17.1144 5.88558C17.3573 6.12853 17.6525 6.24998 18 6.24998ZM5.99997 13.25C6.34741 13.25 6.64261 13.1285 6.88558 12.8856C7.12853 12.6426 7.25 12.3474 7.25 12C7.25 11.6525 7.12853 11.3573 6.88558 11.1144C6.64261 10.8714 6.34741 10.75 5.99997 10.75C5.65254 10.75 5.35734 10.8714 5.11438 11.1144C4.87143 11.3573 4.74995 11.6525 4.74995 12C4.74995 12.3474 4.87143 12.6426 5.11438 12.8856C5.35734 13.1285 5.65254 13.25 5.99997 13.25ZM18 20.25C18.3474 20.25 18.6426 20.1285 18.8856 19.8855C19.1285 19.6426 19.25 19.3474 19.25 19C19.25 18.6525 19.1285 18.3573 18.8856 18.1144C18.6426 17.8714 18.3474 17.75 18 17.75C17.6525 17.75 17.3573 17.8714 17.1144 18.1144C16.8714 18.3573 16.75 18.6525 16.75 19C16.75 19.3474 16.8714 19.6426 17.1144 19.8856C17.3573 20.1285 17.6525 20.25 18 20.25Z" />
    </symbol>

    <symbol viewBox="0 0 24 24" id="file-remove">
        <path d="M7.3077 20.4993C6.80898 20.4993 6.38302 20.3227 6.02982 19.9695C5.67661 19.6163 5.5 19.1903 5.5 18.6916V5.99932H4.5V4.49935H8.99997V3.61475H15V4.49935H19.5V5.99932H18.5V18.6916C18.5 19.1967 18.325 19.6243 17.975 19.9743C17.625 20.3243 17.1974 20.4993 16.6922 20.4993H7.3077ZM17 5.99932H6.99997V18.6916C6.99997 18.7813 7.02883 18.8551 7.08652 18.9128C7.14422 18.9705 7.21795 18.9993 7.3077 18.9993H16.6922C16.7692 18.9993 16.8397 18.9673 16.9038 18.9032C16.9679 18.8391 17 18.7685 17 18.6916V5.99932ZM9.40385 16.9993H10.9038V7.99932H9.40385V16.9993ZM13.0961 16.9993H14.5961V7.99932H13.0961V16.9993Z" />
    </symbol>

</svg>