<svg version="1.1" xmlns="http://www.w3.org/2000/svg" xmlns:xlink="http://www.w3.org/1999/xlink">

    <symbol viewBox="0 0 185 40" id="logo">
        <path d="M65.6301 0.239736L64.1001 0.879736C62.0594 1.68349 60.0836 2.64299 58.1901 3.74974C55.8701 5.24974 54.5801 7.46974 54.0701 10.8797C53.8344 13.4395 53.7876 16.0131 53.9301 18.5797C54.009 19.8047 54.3785 20.9933 55.008 22.0471C55.6375 23.1009 56.5089 23.9896 57.5501 24.6397C59.6601 25.9097 62.7601 25.6397 65.1801 23.9197C66.4301 23.0197 67.2601 21.4297 67.6701 19.0797C67.855 17.5955 67.855 16.094 67.6701 14.6097C67.5525 13.3722 67.0846 12.1937 66.3213 11.2125C65.5579 10.2314 64.5308 9.48805 63.3601 9.06974C62.7822 8.85521 62.1651 8.76657 61.5501 8.80974C60.5661 8.76952 59.5873 8.97215 58.7001 9.39974C57.8249 9.77693 57.0854 10.4118 56.5801 11.2197C55.8901 12.2197 55.7801 12.2197 55.9201 11.1597C56.1903 9.74397 56.7634 8.40336 57.6001 7.22974C58.5201 6.10974 59.5201 5.51974 62.9901 4.06974C66.4601 2.61974 67.5201 2.06974 67.5201 1.73974C67.422 1.21379 67.2104 0.715547 66.9001 0.279736C66.6201 -0.0602643 66.3701 -0.0702644 65.6301 0.239736ZM62.3801 11.1497C63.7301 11.6597 64.5101 12.9397 64.8801 15.2797C65.1439 16.6711 65.0857 18.1043 64.7101 19.4697C64.5861 20.4735 64.1647 21.4173 63.5001 22.1797C63.0889 22.601 62.579 22.9131 62.0168 23.0877C61.4546 23.2623 60.8576 23.294 60.2801 23.1797C58.6501 22.9997 57.7401 22.0597 57.1501 19.9997C56.9452 19.1901 56.8743 18.3523 56.9401 17.5197C56.8801 16.5593 56.9643 15.5952 57.1901 14.6597C57.3144 14.0789 57.4988 13.5125 57.7401 12.9697C58.1546 12.1491 58.8568 11.5099 59.7127 11.1742C60.5686 10.8385 61.5182 10.8298 62.3801 11.1497Z" />
        <path d="M8.1297 0.700416C7.9997 0.820416 7.9997 1.22042 7.9997 2.32042C7.9997 3.61042 7.9997 3.81042 7.8397 3.91042C7.45819 4.03172 7.06002 4.09245 6.6597 4.09042C5.17507 4.07307 3.72521 4.53997 2.5297 5.42042C1.2174 6.60705 0.393916 8.23977 0.219701 10.0004C0.00758579 11.5444 -0.039346 13.1065 0.0797006 14.6604C0.106822 16.3153 0.679843 17.9148 1.7097 19.2104C2.12369 19.7845 2.66512 20.2549 3.29148 20.5845C3.91783 20.9142 4.61207 21.0942 5.3197 21.1104C5.9797 21.1804 6.7997 21.2504 7.1297 21.2504H7.7397L7.7997 21.8704C7.7997 22.2204 7.8597 23.0604 7.8597 23.7604V25.0004H10.7297V23.1304V21.2604L12.0197 21.1604C14.2197 20.9904 14.7397 20.8604 15.6897 20.2304C16.5707 19.5881 17.2813 18.7401 17.7597 17.7604C19.0797 15.0304 18.9997 9.76042 17.6097 7.11042C17.4005 6.75843 17.163 6.424 16.8997 6.11042C15.7297 4.73042 14.5597 4.25042 12.0997 4.11042L10.9097 4.00042V2.43042C10.9097 1.11042 10.9097 0.820416 10.7697 0.700416C9.90285 0.485278 8.99655 0.485278 8.1297 0.700416ZM7.7097 6.39042C7.86577 6.55979 7.96687 6.77246 7.9997 7.00042C8.0797 7.50042 7.9997 18.6504 7.8697 18.8704C7.7397 19.0904 5.8697 18.8704 5.1197 18.4604C4.6046 18.1598 4.1851 17.7195 3.9097 17.1904C3.33229 15.2462 3.11871 13.2121 3.2797 11.1904C3.5597 8.19041 4.4697 6.88042 6.4697 6.45042C7.1497 6.25042 7.5097 6.24042 7.7097 6.39042ZM13.1297 6.60042C13.5567 6.73171 13.9357 6.98555 14.2197 7.33042C15.3197 8.42042 15.4897 9.15042 15.4897 12.4904C15.5492 13.5165 15.4956 14.5461 15.3297 15.5604C15.217 16.3783 14.8697 17.1459 14.3297 17.7704C13.5703 18.5197 12.5465 18.94 11.4797 18.9404L10.8497 19.0004V15.8004C10.8497 14.0304 10.8497 11.1804 10.9197 9.47042V6.34042L11.7597 6.41042C12.221 6.43452 12.6793 6.49809 13.1297 6.60042Z" />
        <path d="M150.569 3.7903C148.508 3.8809 146.559 4.75343 145.119 6.2303C143.429 8.0203 142.299 10.8603 141.899 14.3703C141.741 16.127 141.795 17.8963 142.059 19.6403C142.879 23.1203 144.749 24.7903 147.859 24.7903C149.378 24.8253 150.862 24.3334 152.06 23.3983C153.257 22.4632 154.094 21.1425 154.429 19.6603C154.818 18.3549 154.869 16.9723 154.579 15.6415C154.289 14.3107 153.666 13.0752 152.769 12.0503C151.785 11.1154 150.48 10.5941 149.124 10.5941C147.767 10.5941 146.462 11.1154 145.479 12.0503C145.257 12.3043 144.993 12.5175 144.699 12.6803C144.898 11.4531 145.314 10.2713 145.929 9.1903C146.313 8.43564 146.854 7.77101 147.514 7.24015C148.174 6.70929 148.939 6.32423 149.759 6.1103C150.364 5.96228 150.99 5.92502 151.609 6.0003C153.799 6.1203 153.529 6.1803 153.879 5.4903C154.419 4.4903 154.299 4.2103 153.119 3.9303C152.286 3.71907 151.42 3.67152 150.569 3.7903ZM150.569 13.3903C151.739 13.9603 152.399 15.2703 152.399 17.0603C152.399 19.7703 150.889 22.0603 148.809 22.4003C148.295 22.5063 147.762 22.4691 147.268 22.2927C146.775 22.1164 146.339 21.8076 146.009 21.4003C144.289 19.5103 144.299 15.9303 146.069 14.2203C146.47 13.8189 146.955 13.5113 147.489 13.3194C148.024 13.1275 148.594 13.0561 149.159 13.1103C149.629 13.0844 150.097 13.1809 150.519 13.3903H150.569Z" />
        <path d="M162 3.82845C161.061 4.03759 160.175 4.43528 159.394 4.99739C158.614 5.5595 157.956 6.27431 157.46 7.09845C156.27 9.09845 155.74 11.7384 155.83 15.2984C155.752 17.363 156.156 19.4174 157.01 21.2984C157.333 22.042 157.81 22.7083 158.41 23.2532C159.01 23.798 159.719 24.2089 160.49 24.4584C162.063 24.9316 163.748 24.8682 165.28 24.2784C168.28 22.9284 169.89 18.7584 169.74 12.9784C169.807 10.9138 169.4 8.86138 168.55 6.97845C168.148 6.19421 167.583 5.50483 166.894 4.95642C166.204 4.40802 165.405 4.01322 164.55 3.79845C163.706 3.64102 162.84 3.65122 162 3.82845ZM163.77 5.99845C164.491 6.22008 165.134 6.64091 165.626 7.2124C166.118 7.78389 166.438 8.48277 166.55 9.22845C166.897 11.7441 166.941 14.2924 166.68 16.8184C166.575 17.9426 166.336 19.0503 165.97 20.1184C165.576 21.0278 164.88 21.7731 164 22.2284C163.578 22.4762 163.087 22.5814 162.6 22.5284C161.94 22.5573 161.287 22.3803 160.732 22.022C160.176 21.6638 159.746 21.1419 159.5 20.5284C158.733 18.6848 158.392 16.6922 158.5 14.6984C158.418 12.4592 158.831 10.2294 159.71 8.16845C160.261 7.16809 161.167 6.41135 162.25 6.04845C162.735 5.85503 163.273 5.83734 163.77 5.99845Z" />
        <path d="M176.999 3.86821C175.604 4.25237 174.357 5.0467 173.419 6.14821C172.121 7.93368 171.349 10.0467 171.189 12.2482C171.008 14.246 171.041 16.2576 171.289 18.2482C171.939 21.6982 173.619 23.8482 176.289 24.5682C177.312 24.8116 178.379 24.8051 179.399 24.5492C180.419 24.2933 181.362 23.7956 182.149 23.0982C184.149 21.2482 185.029 18.3882 185.029 13.4682C185.029 10.0982 184.759 8.68821 183.769 6.76821C183.231 5.65091 182.313 4.76131 181.179 4.25821C180.745 4.05219 180.293 3.88488 179.829 3.75821C178.888 3.61359 177.927 3.65093 176.999 3.86821ZM179.759 6.17821C180.929 6.68821 181.649 8.05821 182.019 10.5082C182.2 12.591 182.2 14.6855 182.019 16.7682C181.599 20.4182 180.329 22.2882 178.019 22.5382C175.909 22.7682 174.579 21.2082 174.019 17.8282C173.83 15.6356 173.83 13.4308 174.019 11.2382C174.156 9.67022 174.786 8.18592 175.819 6.99821C176.322 6.49738 176.958 6.15325 177.653 6.00768C178.347 5.8621 179.068 5.92135 179.729 6.17821H179.759Z" />
        <path d="M117.06 8.42941C116.2 8.6294 116.06 8.6694 115.79 9.0294C115.059 9.96822 114.416 10.9725 113.87 12.0294C113.44 12.7694 112.79 13.8694 112.41 14.4694C112.03 15.0694 111.08 16.6794 110.32 18.0194C109.56 19.3594 108.87 20.5694 108.79 20.6994L108.64 20.9194V20.5594C108.61 20.0432 108.61 19.5256 108.64 19.0094C108.74 17.3294 108.77 8.5594 108.7 8.4694C107.88 8.53964 107.065 8.65987 106.26 8.8294C106.26 8.8294 106.19 11.5694 106.14 14.8894C106.09 18.2094 106.01 21.8094 105.98 22.8894L105.92 24.8894H108.52L109 23.9994C109.26 23.5694 109.89 22.5494 110.39 21.7094L113.51 16.5494L115.71 12.9094V13.9094C115.71 14.4394 115.71 17.0994 115.61 19.8094C115.51 22.5194 115.48 24.7494 115.49 24.7594H116.84H118.18L118.24 22.6894C118.37 19.0094 118.47 8.4494 118.39 8.2794C118.31 8.1094 118.21 8.16941 117.06 8.42941Z" />
        <path d="M127.46 8.30037C126.181 8.48819 124.938 8.86567 123.77 9.42037C123.45 9.61037 123.45 9.83037 123.77 10.7004L124.08 11.5304L124.37 11.4704C124.52 11.4704 125.04 11.2904 125.52 11.1404C126.942 10.5783 128.486 10.3957 130 10.6104C130.536 10.8131 130.983 11.1994 131.26 11.7004C131.612 12.5505 131.723 13.4813 131.58 14.3904V14.7304H130.68C128.777 14.7809 126.904 15.2127 125.17 16.0004C124.561 16.2997 124.018 16.72 123.576 17.2358C123.135 17.7516 122.802 18.352 122.6 19.0004C122.366 20.0582 122.335 21.1511 122.51 22.2204C122.803 23.1909 123.416 24.0332 124.25 24.6092C125.084 25.1852 126.089 25.4607 127.1 25.3904C128.441 25.3638 129.731 24.8725 130.75 24.0004C131.095 23.7431 131.463 23.5188 131.85 23.3304C131.85 23.3304 132.1 23.7904 132.36 24.3304C132.75 25.1204 132.87 25.2804 133.04 25.2804C133.579 25.1589 134.086 24.9274 134.53 24.6004C135.12 24.2204 135.16 24.1004 134.83 23.4604C134.656 23.0937 134.506 22.7163 134.38 22.3304C134.157 21.5542 134.103 20.7393 134.22 19.9404C134.29 17.1704 134.22 12.6804 134.14 11.7604C134.114 10.9673 133.802 10.2106 133.26 9.63037C132.19 8.50037 129.92 8.00037 127.46 8.30037ZM131.46 18.8504C131.46 21.2304 131.46 21.2804 130.61 21.8504C128.61 23.3404 126.67 23.5304 125.69 22.3304C125.303 21.8552 125.07 21.2727 125.023 20.6612C124.977 20.0497 125.119 19.4387 125.43 18.9104C126.09 17.6904 128.14 16.8504 130.52 16.8404H131.46V18.8504Z" />
        <path d="M43.4197 8.42962C41.7512 8.84668 40.2633 9.79418 39.1797 11.1296C37.2997 13.7096 37.0397 18.4796 38.6197 21.7096C39.2332 23.0504 40.3189 24.1184 41.6697 24.7096C42.8716 25.2504 44.1814 25.509 45.4986 25.4657C46.8159 25.4223 48.1058 25.0782 49.2697 24.4596C50.4897 23.9096 50.5197 23.8196 49.9597 22.6296L49.5997 21.8596L49.2497 21.9296C48.8056 22.049 48.3737 22.2097 47.9597 22.4096C47.1428 22.8766 46.2205 23.1278 45.2797 23.1396C44.4471 23.1598 43.6252 22.9491 42.905 22.5307C42.1848 22.1124 41.5946 21.5029 41.1997 20.7696C40.7434 20.0076 40.4983 19.1378 40.4897 18.2496V17.4696L41.5497 17.4096C42.1397 17.4096 44.3597 17.4096 46.4997 17.4096C49.6397 17.4096 50.4297 17.4096 50.6197 17.3296C51.0197 17.1096 51.0397 16.7196 50.7697 14.7196C50.4397 12.4296 50.2097 11.7196 49.4097 10.6596C48.5576 9.54623 47.357 8.75052 45.9997 8.39962C45.1441 8.26366 44.2718 8.27381 43.4197 8.42962ZM45.3297 10.6396C45.928 10.819 46.4624 11.166 46.8697 11.6396C47.5849 12.469 47.9442 13.547 47.8697 14.6396V15.3396H40.4997L40.5597 14.6296C40.6072 14.1975 40.6874 13.7696 40.7997 13.3496C41.0399 12.6668 41.4177 12.0405 41.9097 11.5096C42.365 11.0959 42.915 10.8002 43.5113 10.6485C44.1075 10.4968 44.7319 10.4937 45.3297 10.6396Z" />
        <path d="M76.3092 8.51875C75.5892 8.73252 74.9123 9.07099 74.3092 9.51875C73.333 10.2259 72.5183 11.1326 71.9192 12.1787C71.1054 14.4792 70.8484 16.9398 71.1692 19.3587C71.6392 22.2587 73.1692 24.2987 75.5992 25.0887C76.2999 25.3259 77.0431 25.4111 77.7792 25.3387C78.9287 25.447 80.0849 25.2213 81.1092 24.6887C82.1972 24.103 83.0878 23.2089 83.6692 22.1187C84.394 20.6884 84.7838 19.112 84.8092 17.5087C85.1792 12.6987 83.3392 9.41875 79.8092 8.50875C78.6584 8.23333 77.4585 8.23676 76.3092 8.51875ZM79.4292 10.6887C79.9565 10.9404 80.4222 11.3045 80.7936 11.7554C81.165 12.2063 81.4332 12.7331 81.5792 13.2987C81.9347 14.5251 82.0535 15.808 81.9292 17.0787C81.9671 17.982 81.8864 18.8864 81.6892 19.7687C81.5626 20.4534 81.2815 21.1001 80.8674 21.6598C80.4532 22.2195 79.9169 22.6774 79.2992 22.9987C78.4107 23.386 77.406 23.4111 76.4992 23.0687C75.9155 22.7771 75.407 22.3546 75.0133 21.8343C74.6196 21.3139 74.3513 20.7098 74.2292 20.0687C73.8434 17.9643 73.8637 15.8055 74.2892 13.7087C74.4514 12.9464 74.8154 12.2417 75.3431 11.6682C75.8709 11.0947 76.543 10.6736 77.2892 10.4487C78.0083 10.2696 78.7678 10.3547 79.4292 10.6887Z" />
        <path d="M24.8403 8.82191C24.6683 8.82957 24.5004 8.87753 24.3503 8.96191C24.2009 9.61748 24.1604 10.2932 24.2303 10.9619C24.2303 12.0319 24.1703 13.7219 24.1003 14.7119C24.0303 15.7019 23.9203 17.1719 23.8603 17.9819C23.7003 20.3919 23.4403 21.2719 22.5703 22.2719C22.3705 22.5201 22.1199 22.7226 21.8353 22.8658C21.5507 23.0089 21.2387 23.0895 20.9203 23.1019C20.2003 23.2019 20.0703 23.3019 20.0703 23.6919C20.1467 24.2983 20.3439 24.8831 20.6503 25.4119C21.1369 25.5301 21.6472 25.5058 22.1203 25.3419C22.8686 25.1501 23.5603 24.7824 24.1378 24.2693C24.7153 23.7561 25.1619 23.1125 25.4403 22.3919C26.2003 20.5719 26.4403 18.9919 26.7903 12.1619L26.8403 11.0519L27.4603 10.9819C27.8003 10.9819 28.7103 10.9819 29.4603 10.9819H30.8603V17.6319C30.8603 21.3019 30.8603 24.4519 30.9303 24.6319L31.0003 25.0019L32.2603 24.9319L33.5403 24.8519C33.6003 24.7919 33.7203 8.97191 33.6403 8.85191C33.5603 8.73191 25.5903 8.74191 24.8403 8.82191Z" />
        <path d="M90.86 8.86828C90.86 8.92828 90.76 10.1783 90.72 11.6583C90.7368 13.7833 90.5594 15.9055 90.19 17.9983C89.79 20.1283 89.1 22.1983 88.64 22.5683C88.3811 22.6816 88.1025 22.7427 87.82 22.7483C87.5774 22.7588 87.3363 22.7923 87.1 22.8483C87.1 22.8483 87 24.4183 87 26.2883C87 29.1383 87 29.6683 87.08 29.7083C87.5013 29.76 87.9256 29.7834 88.35 29.7783H89.48L89.54 28.5083C89.54 27.7983 89.6 26.7183 89.61 26.0883V24.9983H99.81V29.7883H102.37L102.43 28.2483C102.43 27.4083 102.49 25.8383 102.49 24.7483V22.7483H100.57L100.5 21.7483C100.43 20.7483 100.6 10.5983 100.7 9.64828C100.7 9.19828 100.7 9.09828 100.56 8.92828C100.42 8.75828 100.33 8.73828 95.65 8.73828C92 8.75828 90.92 8.77828 90.86 8.86828ZM97.86 16.7483C97.86 19.9783 97.78 22.6483 97.75 22.6883C97.72 22.7283 91.52 22.7783 91.52 22.6883C91.52 22.5983 91.75 21.9383 92.03 21.1183C92.5327 19.7469 92.8684 18.3199 93.03 16.8683C93.16 15.7283 93.32 13.0183 93.32 11.8183V10.8783H97.97L97.86 16.7483Z" />
        <path d="M8.68945 31.4581L8.18945 31.5681V37.9981H8.68945C8.9145 38.034 9.14512 37.999 9.34945 37.8981C9.73096 37.4535 10.0849 36.9859 10.4095 36.4981C11.4095 35.0781 12.7595 33.2281 12.7995 33.2281C12.8395 33.2281 12.7995 34.2281 12.7995 35.5581V37.8981L13.1595 37.9581C13.3774 37.9963 13.5982 38.0164 13.8195 38.0181H14.1195V31.3281L13.7795 31.3881C12.9395 31.5381 12.6795 31.7781 11.7095 33.2081C11.0295 34.2081 9.76945 35.9481 9.58945 36.1581C9.53904 35.3689 9.53904 34.5773 9.58945 33.7881C9.55945 30.9981 9.65945 31.2581 8.68945 31.4581Z" />
        <path d="M17.5487 31.4398C16.7554 31.6193 16.0486 32.0681 15.5487 32.7098C15.2632 33.252 15.0943 33.848 15.053 34.4594C15.0116 35.0708 15.0988 35.6841 15.3087 36.2598C15.615 36.9859 16.1673 37.5807 16.8687 37.9398C17.7536 38.2812 18.7339 38.2812 19.6187 37.9398C20.4455 37.5819 21.1063 36.9246 21.4687 36.0998C21.7039 35.2016 21.7039 34.258 21.4687 33.3598C21.1702 32.6103 20.6036 31.9987 19.879 31.6438C19.1545 31.2889 18.3239 31.2162 17.5487 31.4398ZM19.0287 32.2698C19.4531 32.4976 19.801 32.8454 20.0287 33.2698C20.4187 34.2753 20.408 35.392 19.9987 36.3898C19.7851 36.729 19.4745 36.9961 19.1072 37.1566C18.7398 37.3171 18.3328 37.3635 17.9387 37.2898C17.6748 37.2081 17.4317 37.0702 17.2263 36.8855C17.0208 36.7007 16.8579 36.4736 16.7487 36.2198C16.4995 35.3901 16.4448 34.5141 16.5887 33.6598C16.744 33.1688 17.0776 32.7538 17.5236 32.4965C17.9697 32.2392 18.496 32.1584 18.9987 32.2698H19.0287Z" />
        <path d="M24.8796 31.459C24.591 31.5313 24.3071 31.6215 24.0296 31.729C23.3983 32.0583 22.8846 32.5754 22.5596 33.209C22.3422 33.7371 22.2663 34.3127 22.3396 34.879C22.2669 35.4486 22.3427 36.0274 22.5596 36.559C22.8535 37.1562 23.3346 37.6408 23.9296 37.939C24.9058 38.1074 25.9035 38.1074 26.8796 37.939C27.6696 37.779 27.9296 37.619 27.9296 37.319C27.9296 36.719 27.5596 36.589 26.3996 36.789C25.9248 36.877 25.4424 36.9172 24.9596 36.909C24.4696 36.909 24.3496 36.829 24.1296 36.579C23.9391 36.3218 23.8013 36.0295 23.7241 35.7189C23.6468 35.4083 23.6317 35.0855 23.6796 34.769C23.6252 34.4198 23.6509 34.0627 23.7548 33.7249C23.8588 33.387 24.0383 33.0773 24.2796 32.819C24.6299 32.4889 25.0788 32.2827 25.5574 32.2322C26.0361 32.1816 26.5181 32.2894 26.9296 32.539C27.3496 32.729 27.4996 32.759 27.6896 32.689C27.7594 32.67 27.824 32.6357 27.879 32.5887C27.9339 32.5417 27.9778 32.4831 28.0074 32.4172C28.0371 32.3512 28.0517 32.2795 28.0504 32.2072C28.049 32.1349 28.0317 32.0638 27.9996 31.999C27.0669 31.4268 25.9504 31.2336 24.8796 31.459Z" />
        <path d="M37.5798 31.4486L37.0898 31.5386V37.9986H37.5998C38.0898 37.9986 38.1398 37.9986 38.5998 37.5586C39.2168 36.8082 39.7911 36.0236 40.3198 35.2086C40.7331 34.5467 41.1838 33.909 41.6698 33.2986C41.7643 34.0781 41.7944 34.8641 41.7598 35.6486V37.9986H42.1598C42.3596 38.0124 42.5601 38.0124 42.7598 37.9986L42.9598 37.9386V31.3086L42.5398 31.3686C42.3343 31.3932 42.1327 31.4436 41.9398 31.5186C41.386 32.1556 40.8686 32.8234 40.3898 33.5186C39.8042 34.4478 39.1347 35.3214 38.3898 36.1286C38.3383 35.3294 38.3383 34.5278 38.3898 33.7286C38.4198 30.9986 38.5198 31.2686 37.5798 31.4486Z" />
        <path d="M49.0002 32.7809V34.1509H47.4502H45.8802V31.5209H44.4902V38.0009H44.8902C45.7102 38.0009 45.6902 38.0009 45.6902 36.8609C45.6861 36.4035 45.7061 35.9462 45.7502 35.4909L45.8102 35.1509H48.9302V37.9009L49.4402 37.9609C50.2802 38.0709 50.2302 38.2409 50.2302 35.4509C50.2302 34.0909 50.2302 32.6409 50.2902 32.2109L50.3502 31.4609H49.0002V32.7809Z" />
        <path d="M1.79945 33.1995C1.85489 34.3857 1.63944 35.569 1.16945 36.6595C0.929453 37.1295 0.799453 37.2395 0.409453 37.2395H0.189453V39.9995H1.38945V38.0595H6.28945V39.9995H7.58945V39.1295C7.58945 38.6595 7.58945 38.0195 7.52945 37.7095L7.45945 37.1395H6.55945L6.61945 34.3295L6.68945 31.5195H1.87945L1.79945 33.1995ZM5.29945 32.5095C5.29945 32.5095 5.29945 33.6295 5.29945 34.8995L5.23945 37.2395H3.82945C3.35553 37.2578 2.88091 37.2411 2.40945 37.1895C2.40945 37.1895 2.54945 36.2495 2.72945 35.1895C2.90945 34.1295 3.04945 33.0695 3.04945 32.9095C3.04945 32.7495 3.04945 32.5695 3.11945 32.5495C3.84127 32.4412 4.57415 32.4278 5.29945 32.5095Z" />
        <path d="M29.419 31.6395C29.3457 31.6802 29.282 31.736 29.232 31.8033C29.182 31.8705 29.1469 31.9477 29.129 32.0295C29.079 32.1795 28.939 33.4695 28.809 34.8795C28.679 36.2895 28.549 37.5995 28.529 37.7795L28.459 38.0895H29.069C29.292 38.0887 29.5139 38.0585 29.729 37.9995C29.729 37.9995 29.859 36.9995 29.969 35.7495C30.079 34.4995 30.159 33.4595 30.179 33.3595C30.4783 33.8096 30.7171 34.2971 30.889 34.8095C31.259 35.7195 31.619 36.5095 31.669 36.5695C31.719 36.6295 31.899 36.6895 32.249 36.6595H32.739L33.449 35.0595C33.6704 34.5033 33.9345 33.965 34.239 33.4495C34.3155 33.6985 34.3427 33.9601 34.319 34.2195C34.319 34.6395 34.319 35.6795 34.379 36.5195L34.439 37.9995H35.709L35.659 37.3295C35.659 36.9695 35.549 35.5695 35.459 34.2295C35.4503 33.371 35.3701 32.5147 35.219 31.6695C35.149 31.5795 34.939 31.5495 34.479 31.5695H33.849L32.999 33.3795C32.7589 33.9925 32.4748 34.5874 32.149 35.1595C32.149 35.1595 31.739 34.3095 31.309 33.3295L30.529 31.5195H30.069C29.8472 31.5232 29.6275 31.5638 29.419 31.6395Z" />
    </symbol>

    <symbol viewBox="0 0 23 24" id="footer-contacts-phone">
        <path d="M18.6315 20.1451C16.8254 20.1451 15.011 19.7253 13.1883 18.8855C11.3657 18.0457 9.69106 16.861 8.1645 15.3314C6.63792 13.8017 5.45475 12.1271 4.61497 10.3075C3.7752 8.48791 3.35532 6.67507 3.35532 4.86899C3.35532 4.57885 3.45115 4.33708 3.64282 4.14365C3.83448 3.95023 4.07407 3.85352 4.36157 3.85352H7.48717C7.72921 3.85352 7.94269 3.93246 8.1276 4.09034C8.31251 4.24823 8.43015 4.44328 8.48051 4.67548L9.0297 7.49516C9.0678 7.75686 9.05981 7.9817 9.00575 8.16968C8.9517 8.35766 8.85463 8.51554 8.71456 8.64331L6.50119 10.7977C6.8575 11.4501 7.26449 12.0672 7.72215 12.649C8.17982 13.2307 8.67526 13.7864 9.20848 14.3159C9.73435 14.8418 10.2934 15.3302 10.8856 15.7811C11.4778 16.232 12.1173 16.6516 12.8041 17.0398L14.9548 14.8707C15.1047 14.7146 15.2862 14.6053 15.4994 14.5426C15.7126 14.48 15.934 14.4646 16.1638 14.4966L18.825 15.0384C19.067 15.1023 19.2645 15.2257 19.4175 15.4088C19.5705 15.5919 19.6469 15.7995 19.6469 16.0317V19.1389C19.6469 19.4264 19.5502 19.666 19.3568 19.8576C19.1634 20.0493 18.9216 20.1451 18.6315 20.1451ZM5.82116 9.43765L7.53142 7.80111C7.56214 7.77653 7.5821 7.74274 7.59132 7.69974C7.60053 7.65673 7.599 7.6168 7.58672 7.57995L7.1702 5.43843C7.15792 5.38929 7.13642 5.35243 7.10571 5.32786C7.07499 5.30328 7.03506 5.29099 6.98591 5.29099H4.93654C4.89969 5.29099 4.86898 5.30328 4.8444 5.32786C4.81982 5.35243 4.80753 5.38314 4.80753 5.42001C4.85667 6.07487 4.96387 6.74018 5.12912 7.41593C5.29438 8.09168 5.52506 8.76559 5.82116 9.43765ZM14.1586 17.7198C14.7938 18.0159 15.4564 18.2423 16.1463 18.399C16.8362 18.5556 17.4809 18.6487 18.0804 18.6782C18.1173 18.6782 18.148 18.6659 18.1726 18.6413C18.1972 18.6167 18.2095 18.586 18.2095 18.5492V16.533C18.2095 16.4838 18.1972 16.4439 18.1726 16.4132C18.148 16.3825 18.1112 16.361 18.062 16.3487L16.0495 15.9395C16.0127 15.9273 15.9804 15.9257 15.9528 15.9349C15.9251 15.9442 15.8959 15.9641 15.8652 15.9948L14.1586 17.7198Z" />
    </symbol>

    <symbol viewBox="0 0 23 24" id="footer-contacts-email">
        <path d="M4.12706 19.1875C3.64297 19.1875 3.23322 19.0197 2.89781 18.6843C2.56239 18.3489 2.39468 17.9392 2.39468 17.4551V6.54488C2.39468 6.06079 2.56239 5.65104 2.89781 5.31563C3.23322 4.98021 3.64297 4.8125 4.12706 4.8125H18.8706C19.3547 4.8125 19.7644 4.98021 20.0998 5.31563C20.4353 5.65104 20.603 6.06079 20.603 6.54488V17.4551C20.603 17.9392 20.4353 18.3489 20.0998 18.6843C19.7644 19.0197 19.3547 19.1875 18.8706 19.1875H4.12706ZM11.4988 12.5344L3.83216 7.63216V17.4551C3.83216 17.5411 3.8598 17.6117 3.9151 17.667C3.9704 17.7223 4.04105 17.75 4.12706 17.75H18.8706C18.9566 17.75 19.0273 17.7223 19.0825 17.667C19.1378 17.6117 19.1655 17.5411 19.1655 17.4551V7.63216L11.4988 12.5344ZM11.4988 11.0416L19.0181 6.24998H3.9796L11.4988 11.0416ZM3.83216 7.63216V6.24998V17.4551C3.83216 17.5411 3.8598 17.6117 3.9151 17.667C3.9704 17.7223 4.04105 17.75 4.12706 17.75H3.83216V7.63216Z" />
    </symbol>

    <symbol viewBox="0 0 20 20" id="breadcrumbs">
        <path d="M12.3718 5.28851L17.0833 10L12.3718 14.7115L11.4936 13.8334L14.702 10.625L2.91671 10.625L2.91671 9.37505L14.702 9.37505L11.4936 6.16669L12.3718 5.28851Z" />
    </symbol>

    <symbol viewBox="0 0 16 17" id="breadcrumbs-mobile">
        <path d="M6.6347 12.2689L2.86548 8.49969L6.6347 4.73047L7.33725 5.45354L4.79108 7.9997H13.1347V8.99967H4.79108L7.33725 11.5458L6.6347 12.2689Z" />
    </symbol>

    <symbol viewBox="0 0 23 24" id="article-view">
        <path d="M11.5052 15.4278C12.5911 15.4278 13.5134 15.0478 14.272 14.2877C15.0307 13.5275 15.4101 12.6045 15.4101 11.5186C15.4101 10.4328 15.03 9.51048 14.2699 8.7518C13.5097 7.99312 12.5867 7.61378 11.5008 7.61378C10.415 7.61378 9.49269 7.99384 8.73401 8.75396C7.97533 9.51409 7.59599 10.4371 7.59599 11.523C7.59599 12.6089 7.97605 13.5311 8.73617 14.2898C9.4963 15.0485 10.4193 15.4278 11.5052 15.4278ZM11.503 14.1083C10.7843 14.1083 10.1733 13.8567 9.67021 13.3536C9.16708 12.8505 8.91552 12.2396 8.91552 11.5208C8.91552 10.8021 9.16708 10.1911 9.67021 9.688C10.1733 9.18487 10.7843 8.93331 11.503 8.93331C12.2218 8.93331 12.8327 9.18487 13.3358 9.688C13.839 10.1911 14.0905 10.8021 14.0905 11.5208C14.0905 12.2396 13.839 12.8505 13.3358 13.3536C12.8327 13.8567 12.2218 14.1083 11.503 14.1083ZM11.5043 18.2291C9.30054 18.2291 7.29252 17.6213 5.48028 16.4055C3.66806 15.1898 2.33377 13.5616 1.47742 11.5208C2.33377 9.48006 3.66762 7.85182 5.47899 6.63609C7.29033 5.42036 9.2979 4.8125 11.5017 4.8125C13.7055 4.8125 15.7135 5.42036 17.5258 6.63609C19.338 7.85182 20.6723 9.48006 21.5286 11.5208C20.6723 13.5616 19.3384 15.1898 17.5271 16.4055C15.7157 17.6213 13.7081 18.2291 11.5043 18.2291ZM11.503 16.7916C13.3079 16.7916 14.965 16.3165 16.4744 15.3661C17.9838 14.4158 19.1377 13.134 19.9364 11.5208C19.1377 9.90762 17.9838 8.62584 16.4744 7.6755C14.965 6.72515 13.3079 6.24998 11.503 6.24998C9.69816 6.24998 8.04104 6.72515 6.53167 7.6755C5.02229 8.62584 3.8683 9.90762 3.06969 11.5208C3.8683 13.134 5.02229 14.4158 6.53167 15.3661C8.04104 16.3165 9.69816 16.7916 11.503 16.7916Z" />
    </symbol>

    <symbol viewBox="0 0 24 25" id="notices-more">
        <path d="M8.92501 14.5442L12 11.4692L15.075 14.5442L16.1442 13.5L12 9.35578L7.85581 13.5L8.92501 14.5442ZM12.0017 22C10.6877 22 9.45271 21.7506 8.29658 21.252C7.14043 20.7533 6.13475 20.0765 5.27953 19.2217C4.4243 18.3669 3.74724 17.3616 3.24836 16.206C2.74947 15.0504 2.50003 13.8156 2.50003 12.5017C2.50003 11.1877 2.74936 9.95268 3.24803 8.79655C3.7467 7.6404 4.42345 6.63472 5.27828 5.7795C6.13313 4.92427 7.13837 4.24721 8.29401 3.74833C9.44962 3.24944 10.6844 3 11.9983 3C13.3123 3 14.5473 3.24933 15.7034 3.748C16.8596 4.24667 17.8653 4.92342 18.7205 5.77825C19.5757 6.6331 20.2528 7.63834 20.7517 8.79398C21.2505 9.94959 21.5 11.1844 21.5 12.4983C21.5 13.8122 21.2506 15.0473 20.752 16.2034C20.2533 17.3596 19.5766 18.3652 18.7217 19.2205C17.8669 20.0757 16.8616 20.7527 15.706 21.2516C14.5504 21.7505 13.3156 22 12.0017 22ZM12 20.5C14.2333 20.5 16.125 19.725 17.675 18.175C19.225 16.625 20 14.7333 20 12.5C20 10.2666 19.225 8.37498 17.675 6.82498C16.125 5.27498 14.2333 4.49998 12 4.49998C9.76667 4.49998 7.87501 5.27498 6.32501 6.82498C4.77501 8.37498 4.00001 10.2666 4.00001 12.5C4.00001 14.7333 4.77501 16.625 6.32501 18.175C7.87501 19.725 9.76667 20.5 12 20.5Z" />
    </symbol>

    <symbol viewBox="0 0 24 24" id="varicose-alarm">
        <path d="M12 21.9996C10.75 21.9996 9.57917 21.7621 8.4875 21.2871C7.39583 20.8121 6.44583 20.1704 5.6375 19.3621C4.82917 18.5538 4.1875 17.6038 3.7125 16.5121C3.2375 15.4204 3 14.2496 3 12.9996C3 11.7496 3.2375 10.5788 3.7125 9.48711C4.1875 8.39544 4.82917 7.44544 5.6375 6.63711C6.44583 5.82878 7.39583 5.18711 8.4875 4.71211C9.57917 4.23711 10.75 3.99961 12 3.99961C13.25 3.99961 14.4208 4.23711 15.5125 4.71211C16.6042 5.18711 17.5542 5.82878 18.3625 6.63711C19.1708 7.44544 19.8125 8.39544 20.2875 9.48711C20.7625 10.5788 21 11.7496 21 12.9996C21 14.2496 20.7625 15.4204 20.2875 16.5121C19.8125 17.6038 19.1708 18.5538 18.3625 19.3621C17.5542 20.1704 16.6042 20.8121 15.5125 21.2871C14.4208 21.7621 13.25 21.9996 12 21.9996ZM14.8 17.1996L16.2 15.7996L13 12.5996V7.99961H11V13.3996L14.8 17.1996ZM5.6 2.34961L7 3.74961L2.75 7.99961L1.35 6.59961L5.6 2.34961ZM18.4 2.34961L22.65 6.59961L21.25 7.99961L17 3.74961L18.4 2.34961Z" />
    </symbol>

    <symbol viewBox="0 0 24 24" id="varicose-calendar">
        <path d="M10.95 18.35L7.4 14.8L8.85 13.35L10.95 15.45L15.15 11.25L16.6 12.7L10.95 18.35ZM5 22C4.45 22 3.97917 21.8042 3.5875 21.4125C3.19583 21.0208 3 20.55 3 20V6C3 5.45 3.19583 4.97917 3.5875 4.5875C3.97917 4.19583 4.45 4 5 4H6V2H8V4H16V2H18V4H19C19.55 4 20.0208 4.19583 20.4125 4.5875C20.8042 4.97917 21 5.45 21 6V20C21 20.55 20.8042 21.0208 20.4125 21.4125C20.0208 21.8042 19.55 22 19 22H5ZM5 20H19V10H5V20Z" />
    </symbol>

    <symbol viewBox="0 0 24 24" id="varicose-night">
        <path d="M6 14C6.8 14 7.53333 14.2167 8.2 14.65C8.86667 15.0833 9.35833 15.675 9.675 16.425L9.925 17H10.55C11.25 17 11.8333 17.2458 12.3 17.7375C12.7667 18.2292 13 18.8167 13 19.5C13 20.2 12.7583 20.7917 12.275 21.275C11.7917 21.7583 11.2 22 10.5 22H6C4.9 22 3.95833 21.6083 3.175 20.825C2.39167 20.0417 2 19.1 2 18C2 16.8833 2.39167 15.9375 3.175 15.1625C3.95833 14.3875 4.9 14 6 14ZM11.25 3C10.95 4.65 11.0417 6.2625 11.525 7.8375C12.0083 9.4125 12.8417 10.7917 14.025 11.975C15.2083 13.1583 16.5875 13.9917 18.1625 14.475C19.7375 14.9583 21.35 15.05 23 14.75C22.5667 17.1167 21.4417 19.0708 19.625 20.6125C17.8083 22.1542 15.7083 22.95 13.325 23C13.8583 22.5667 14.2708 22.0458 14.5625 21.4375C14.8542 20.8292 15 20.1833 15 19.5C15 18.3667 14.6458 17.3875 13.9375 16.5625C13.2292 15.7375 12.325 15.2417 11.225 15.075C10.6917 14.125 9.9625 13.375 9.0375 12.825C8.1125 12.275 7.1 12 6 12C5.46667 12 4.94583 12.0667 4.4375 12.2C3.92917 12.3333 3.45 12.5333 3 12.8C3.03333 10.3833 3.82083 8.25833 5.3625 6.425C6.90417 4.59167 8.86667 3.45 11.25 3Z" />
    </symbol>

    <symbol viewBox="0 0 24 24" id="icon-info">
        <path d="M11.25 16.75H12.75V11H11.25V16.75ZM12 9.28845C12.2288 9.28845 12.4207 9.21105 12.5755 9.05625C12.7303 8.90145 12.8077 8.70963 12.8077 8.48078C12.8077 8.25194 12.7303 8.06012 12.5755 7.9053C12.4207 7.7505 12.2288 7.6731 12 7.6731C11.7711 7.6731 11.5793 7.7505 11.4245 7.9053C11.2697 8.06012 11.1923 8.25194 11.1923 8.48078C11.1923 8.70963 11.2697 8.90145 11.4245 9.05625C11.5793 9.21105 11.7711 9.28845 12 9.28845ZM12.0017 21.5C10.6877 21.5 9.45271 21.2506 8.29657 20.752C7.14042 20.2533 6.13474 19.5765 5.27952 18.7217C4.42429 17.8669 3.74723 16.8616 3.24835 15.706C2.74946 14.5504 2.50002 13.3156 2.50002 12.0017C2.50002 10.6877 2.74936 9.45268 3.24802 8.29655C3.74669 7.1404 4.42344 6.13472 5.27827 5.2795C6.13312 4.42427 7.13836 3.74721 8.294 3.24833C9.44962 2.74944 10.6844 2.5 11.9983 2.5C13.3123 2.5 14.5473 2.74933 15.7034 3.248C16.8596 3.74667 17.8653 4.42342 18.7205 5.27825C19.5757 6.1331 20.2528 7.13834 20.7516 8.29398C21.2505 9.44959 21.5 10.6844 21.5 11.9983C21.5 13.3122 21.2506 14.5473 20.752 15.7034C20.2533 16.8596 19.5766 17.8652 18.7217 18.7205C17.8669 19.5757 16.8616 20.2527 15.706 20.7516C14.5504 21.2505 13.3156 21.5 12.0017 21.5ZM12 20C14.2333 20 16.125 19.225 17.675 17.675C19.225 16.125 20 14.2333 20 12C20 9.76664 19.225 7.87498 17.675 6.32498C16.125 4.77498 14.2333 3.99998 12 3.99998C9.76666 3.99998 7.875 4.77498 6.325 6.32498C4.775 7.87498 4 9.76664 4 12C4 14.2333 4.775 16.125 6.325 17.675C7.875 19.225 9.76666 20 12 20Z" />
    </symbol>

    <symbol viewBox="0 0 16 16" id="pager-prev">
        <path fill-rule="evenodd" clip-rule="evenodd" d="M4.20503 7.52859C3.93166 7.78894 3.93166 8.21105 4.20503 8.4714L9.80502 13.8047C10.0784 14.0651 10.5216 14.0651 10.795 13.8047C11.0683 13.5444 11.0683 13.1223 10.795 12.8619L5.68995 8L10.795 3.13807C11.0683 2.87772 11.0683 2.45561 10.795 2.19526C10.5216 1.93491 10.0784 1.93491 9.80503 2.19526L4.20503 7.52859Z" />
    </symbol>

    <symbol viewBox="0 0 16 16" id="pager-next">
        <path fill-rule="evenodd" clip-rule="evenodd" d="M11.795 8.4714C12.0683 8.21105 12.0683 7.78895 11.795 7.5286L6.19498 2.19526C5.92161 1.93491 5.47839 1.93491 5.20503 2.19526C4.93166 2.45561 4.93166 2.87772 5.20503 3.13807L10.3101 8L5.20503 12.8619C4.93166 13.1223 4.93166 13.5444 5.20503 13.8047C5.47839 14.0651 5.92161 14.0651 6.19497 13.8047L11.795 8.4714Z" />
    </symbol>

    <symbol viewBox="0 0 24 25" id="article-share">
        <path d="M18.0011 22.25C17.2375 22.25 16.5881 21.9826 16.0529 21.4479C15.5176 20.9132 15.25 20.2639 15.25 19.5C15.25 19.3751 15.2599 19.2459 15.2798 19.1121C15.2997 18.9784 15.3295 18.8551 15.3692 18.7423L7.97305 14.4115C7.70895 14.6743 7.40831 14.8798 7.07113 15.0279C6.73394 15.1759 6.37689 15.25 5.99997 15.25C5.23609 15.25 4.58679 14.9827 4.05207 14.4482C3.51736 13.9137 3.25 13.2647 3.25 12.5011C3.25 11.7375 3.51736 11.0881 4.05207 10.5529C4.58679 10.0176 5.23609 9.75 5.99997 9.75C6.37689 9.75 6.73394 9.82403 7.07113 9.9721C7.40831 10.1202 7.70895 10.3256 7.97305 10.5885L15.3692 6.25768C15.3295 6.14486 15.2997 6.02157 15.2798 5.88783C15.2599 5.75409 15.25 5.62481 15.25 5.49998C15.25 4.73609 15.5173 4.08679 16.0518 3.55208C16.5863 3.01736 17.2353 2.75 17.9989 2.75C18.7624 2.75 19.4118 3.01725 19.9471 3.55175C20.4823 4.08625 20.75 4.73528 20.75 5.49885C20.75 6.26242 20.4826 6.91182 19.9479 7.44707C19.4132 7.98233 18.7639 8.24995 18 8.24995C17.6231 8.24995 17.266 8.17592 16.9288 8.02785C16.5916 7.87977 16.291 7.67432 16.0269 7.4115L8.63073 11.7423C8.67048 11.8551 8.70028 11.9782 8.72015 12.1115C8.74002 12.2447 8.74995 12.3736 8.74995 12.498C8.74995 12.6224 8.74002 12.7519 8.72015 12.8865C8.70028 13.0211 8.67048 13.1449 8.63073 13.2577L16.0269 17.5885C16.291 17.3256 16.5916 17.1202 16.9288 16.9721C17.266 16.824 17.6231 16.75 18 16.75C18.7639 16.75 19.4132 17.0173 19.9479 17.5518C20.4826 18.0863 20.75 18.7353 20.75 19.4989C20.75 20.2624 20.4827 20.9118 19.9482 21.4471C19.4137 21.9823 18.7647 22.25 18.0011 22.25ZM18 6.74998C18.3474 6.74998 18.6426 6.6285 18.8856 6.38555C19.1285 6.14258 19.25 5.84738 19.25 5.49995C19.25 5.15252 19.1285 4.85732 18.8856 4.61435C18.6426 4.37142 18.3474 4.24995 18 4.24995C17.6525 4.24995 17.3573 4.37143 17.1144 4.61438C16.8714 4.85734 16.75 5.15254 16.75 5.49998C16.75 5.84741 16.8714 6.14261 17.1144 6.38558C17.3573 6.62853 17.6525 6.74998 18 6.74998ZM5.99997 13.75C6.34741 13.75 6.64261 13.6285 6.88558 13.3856C7.12853 13.1426 7.25 12.8474 7.25 12.5C7.25 12.1525 7.12853 11.8573 6.88558 11.6144C6.64261 11.3714 6.34741 11.25 5.99997 11.25C5.65254 11.25 5.35734 11.3714 5.11438 11.6144C4.87143 11.8573 4.74995 12.1525 4.74995 12.5C4.74995 12.8474 4.87143 13.1426 5.11438 13.3856C5.35734 13.6285 5.65254 13.75 5.99997 13.75ZM18 20.75C18.3474 20.75 18.6426 20.6285 18.8856 20.3855C19.1285 20.1426 19.25 19.8474 19.25 19.5C19.25 19.1525 19.1285 18.8573 18.8856 18.6144C18.6426 18.3714 18.3474 18.25 18 18.25C17.6525 18.25 17.3573 18.3714 17.1144 18.6144C16.8714 18.8573 16.75 19.1525 16.75 19.5C16.75 19.8474 16.8714 20.1426 17.1144 20.3856C17.3573 20.6285 17.6525 20.75 18 20.75Z" />
    </symbol>

    <symbol viewBox="0 0 50 50" id="icon-info-big">
        <path d="M23.9583 34.375H26.0417V22.9167H23.9583V34.375ZM25 19.9519C25.3633 19.9519 25.6678 19.8291 25.9135 19.5833C26.1592 19.3376 26.282 19.0331 26.282 18.6698C26.282 18.3066 26.1592 18.0021 25.9135 17.7564C25.6678 17.5107 25.3633 17.3878 25 17.3878C24.6367 17.3878 24.3322 17.5107 24.0865 17.7564C23.8408 18.0021 23.718 18.3066 23.718 18.6698C23.718 19.0331 23.8408 19.3376 24.0865 19.5833C24.3322 19.8291 24.6367 19.9519 25 19.9519ZM25.007 43.75C22.4142 43.75 19.9765 43.258 17.694 42.274C15.4114 41.29 13.4259 39.9545 11.7374 38.2677C10.049 36.5808 8.71233 34.5972 7.7274 32.3168C6.74247 30.0364 6.25 27.5998 6.25 25.007C6.25 22.4142 6.742 19.9765 7.72599 17.694C8.71002 15.4114 10.0455 13.4259 11.7323 11.7374C13.4192 10.049 15.4028 8.71233 17.6832 7.7274C19.9636 6.74247 22.4002 6.25 24.993 6.25C27.5858 6.25 30.0235 6.742 32.306 7.72599C34.5886 8.71002 36.5741 10.0455 38.2626 11.7323C39.951 13.4192 41.2877 15.4028 42.2726 17.6832C43.2575 19.9636 43.75 22.4002 43.75 24.993C43.75 27.5858 43.258 30.0235 42.274 32.306C41.29 34.5886 39.9545 36.5741 38.2677 38.2626C36.5808 39.951 34.5972 41.2877 32.3168 42.2726C30.0364 43.2575 27.5998 43.75 25.007 43.75ZM25 41.6667C29.6528 41.6667 33.5938 40.0521 36.8229 36.8229C40.0521 33.5938 41.6667 29.6528 41.6667 25C41.6667 20.3472 40.0521 16.4062 36.8229 13.1771C33.5938 9.94792 29.6528 8.33333 25 8.33333C20.3472 8.33333 16.4062 9.94792 13.1771 13.1771C9.94792 16.4062 8.33333 20.3472 8.33333 25C8.33333 29.6528 9.94792 33.5938 13.1771 36.8229C16.4062 40.0521 20.3472 41.6667 25 41.6667Z" />
    </symbol>

    <symbol viewBox="0 0 16 17" id="back-link">
        <path d="M6.6347 12.2728L2.86548 8.50359L6.6347 4.73438L7.33725 5.45744L4.79108 8.00361H13.1347V9.00357H4.79108L7.33725 11.5497L6.6347 12.2728Z" />
    </symbol>

    <symbol viewBox="0 0 26 26" id="faq-plus">
        <path d="M12.1877 13.8151H5.9585V12.1901H12.1877V5.96094H13.8126V12.1901H20.0418V13.8151H13.8126V20.0442H12.1877V13.8151Z" />
    </symbol>

    <symbol viewBox="0 0 26 26" id="faq-minus">
        <path d="M12.1877 13.8124H5.9585V12.1875H12.1877L13.8126 12.1875L20.0418 12.1875V13.8124H13.8126H12.1877Z" />
    </symbol>

    <symbol viewBox="0 0 57 56" id="experts-status-digit">
        <path d="M24.977 37.118L39.9013 22.1936L38.25 20.5423L24.977 33.8154L18.327 27.1654L16.6757 28.8167L24.977 37.118ZM28.3412 49C25.4372 49 22.707 48.449 20.1506 47.3469C17.5941 46.2448 15.3704 44.7491 13.4793 42.8598C11.5882 40.9705 10.0911 38.7488 8.98803 36.1948C7.8849 33.6407 7.33334 30.9117 7.33334 28.0078C7.33334 25.1039 7.88438 22.3737 8.98645 19.8172C10.0886 17.2608 11.5843 15.037 13.4736 13.1459C15.3629 11.2549 17.5845 9.75781 20.1386 8.65469C22.6926 7.55156 25.4216 7 28.3255 7C31.2295 7 33.9597 7.55104 36.5161 8.65311C39.0725 9.75522 41.2963 11.2509 43.1874 13.1402C45.0784 15.0295 46.5755 17.2512 47.6787 19.8052C48.7818 22.3593 49.3333 25.0883 49.3333 27.9922C49.3333 30.8961 48.7823 33.6263 47.6802 36.1828C46.5781 38.7392 45.0824 40.963 43.1931 42.8541C41.3038 44.7451 39.0822 46.2422 36.5281 47.3453C33.9741 48.4484 31.2451 49 28.3412 49ZM28.3333 46.6667C33.5445 46.6667 37.9583 44.8583 41.575 41.2417C45.1917 37.625 47 33.2111 47 28C47 22.7889 45.1917 18.375 41.575 14.7583C37.9583 11.1417 33.5445 9.33333 28.3333 9.33333C23.1222 9.33333 18.7083 11.1417 15.0917 14.7583C11.475 18.375 9.66668 22.7889 9.66668 28C9.66668 33.2111 11.475 37.625 15.0917 41.2417C18.7083 44.8583 23.1222 46.6667 28.3333 46.6667Z" />
    </symbol>

    <symbol viewBox="0 0 12 7" id="up-link">
        <path fill-rule="evenodd" clip-rule="evenodd" d="M6.4714 0.205078C6.21106 -0.068289 5.78895 -0.068289 5.5286 0.205078L0.195262 5.80508C-0.0650874 6.07844 -0.0650874 6.52166 0.195262 6.79503C0.455611 7.06839 0.877722 7.06839 1.13807 6.79503L6 1.69L10.8619 6.79503C11.1223 7.06839 11.5444 7.06839 11.8047 6.79503C12.0651 6.52166 12.0651 6.07845 11.8047 5.80508L6.4714 0.205078Z" />
    </symbol>

    <symbol viewBox="0 0 36 36" id="menu-mobile-link">
        <path d="M7.5 21.75V20.25H28.5V21.75H7.5ZM7.5 15.75V14.25H28.5V15.75H7.5Z" />
    </symbol>

    <symbol viewBox="0 0 36 36" id="menu-mobile-close">
        <path d="M9.60002 27.9808L8.01929 26.4L16.4193 18L8.01929 9.60003L9.60002 8.01929L18 16.4193L26.4 8.01929L27.9808 9.60003L19.5808 18L27.9808 26.4L26.4 27.9808L18 19.5808L9.60002 27.9808Z" />
    </symbol>

</svg>