<svg width="56" height="56" viewBox="0 0 56 56" fill="none" xmlns="http://www.w3.org/2000/svg">
<mask id="mask0_184_2288" style="mask-type:alpha" maskUnits="userSpaceOnUse" x="0" y="0" width="56" height="56">
<rect width="56" height="56" fill="#D9D9D9"/>
</mask>
<g mask="url(#mask0_184_2288)">
<path d="M13.9916 47.2052C11.9185 47.2052 10.1438 46.4671 8.66758 44.9908C7.19128 43.5145 6.45312 41.7398 6.45312 39.6667C6.45312 37.5936 7.19128 35.819 8.66758 34.3427C10.1438 32.8664 11.9185 32.1283 13.9916 32.1283C16.0647 32.1283 17.8394 32.8664 19.3156 34.3427C20.7919 35.819 21.5301 37.5936 21.5301 39.6667C21.5301 41.7398 20.7919 43.5145 19.3156 44.9908C17.8394 46.4671 16.0647 47.2052 13.9916 47.2052ZM41.9916 47.2052C39.9185 47.2052 38.1438 46.4671 36.6676 44.9908C35.1913 43.5145 34.4531 41.7398 34.4531 39.6667C34.4531 37.5936 35.1913 35.819 36.6676 34.3427C38.1438 32.8664 39.9185 32.1283 41.9916 32.1283C44.0647 32.1283 45.8394 32.8664 47.3156 34.3427C48.7919 35.819 49.5301 37.5936 49.5301 39.6667C49.5301 41.7398 48.7919 43.5145 47.3156 44.9908C45.8394 46.4671 44.0647 47.2052 41.9916 47.2052ZM13.9932 44.8719C15.425 44.8719 16.6502 44.362 17.6688 43.3424C18.6874 42.3227 19.1967 41.097 19.1967 39.6652C19.1967 38.2333 18.6869 37.0081 17.6672 35.9895C16.6476 34.9709 15.4219 34.4616 13.99 34.4616C12.5582 34.4616 11.333 34.9714 10.3144 35.9911C9.29577 37.0107 8.78646 38.2365 8.78646 39.6683C8.78646 41.1002 9.29629 42.3254 10.316 43.3439C11.3356 44.3626 12.5613 44.8719 13.9932 44.8719ZM41.9932 44.8719C43.425 44.8719 44.6502 44.362 45.6688 43.3424C46.6874 42.3227 47.1967 41.097 47.1967 39.6652C47.1967 38.2333 46.6869 37.0081 45.6672 35.9895C44.6476 34.9709 43.4219 34.4616 41.99 34.4616C40.5582 34.4616 39.333 34.9714 38.3144 35.9911C37.2958 37.0107 36.7865 38.2365 36.7865 39.6683C36.7865 41.1002 37.2963 42.3254 38.316 43.3439C39.3356 44.3626 40.5613 44.8719 41.9932 44.8719ZM27.9916 23.8719C25.9185 23.8719 24.1438 23.1337 22.6676 21.6574C21.1913 20.1812 20.4531 18.4065 20.4531 16.3334C20.4531 14.2603 21.1913 12.4856 22.6676 11.0094C24.1438 9.53307 25.9185 8.79492 27.9916 8.79492C30.0647 8.79492 31.8394 9.53307 33.3156 11.0094C34.7919 12.4856 35.5301 14.2603 35.5301 16.3334C35.5301 18.4065 34.7919 20.1812 33.3156 21.6574C31.8394 23.1337 30.0647 23.8719 27.9916 23.8719ZM27.9932 21.5385C29.425 21.5385 30.6502 21.0287 31.6688 20.009C32.6874 18.9894 33.1967 17.7637 33.1967 16.3318C33.1967 14.9 32.6869 13.6748 31.6672 12.6562C30.6476 11.6376 29.4219 11.1283 27.99 11.1283C26.5582 11.1283 25.333 11.6381 24.3144 12.6578C23.2958 13.6774 22.7865 14.9031 22.7865 16.335C22.7865 17.7668 23.2963 18.992 24.316 20.0106C25.3356 21.0292 26.5613 21.5385 27.9932 21.5385Z" fill="#EE8F9F"/>
</g>
</svg>
