<svg width="56" height="56" viewBox="0 0 56 56" fill="none" xmlns="http://www.w3.org/2000/svg">
<mask id="mask0_184_2309" style="mask-type:alpha" maskUnits="userSpaceOnUse" x="0" y="0" width="56" height="56">
<rect width="56" height="56" fill="#D9D9D9"/>
</mask>
<g mask="url(#mask0_184_2309)">
<path d="M18.9583 16.5487L25.043 8.44935C25.4139 7.95064 25.8544 7.5844 26.3644 7.35064C26.8745 7.11688 27.4197 7 28 7C28.5803 7 29.1255 7.11688 29.6356 7.35064C30.1456 7.5844 30.5861 7.95064 30.957 8.44935L37.0417 16.5487L46.4199 19.7391C47.2515 20.0203 47.8917 20.4916 48.3404 21.153C48.7891 21.8144 49.0135 22.5451 49.0135 23.3449C49.0135 23.7141 48.9594 24.0808 48.8512 24.4449C48.743 24.809 48.5653 25.1579 48.318 25.4917L42.1705 33.8288L42.4038 42.7673C42.4427 43.8635 42.0801 44.7875 41.3158 45.5391C40.5515 46.2908 39.6623 46.6667 38.6481 46.6667C38.6601 46.6667 38.3071 46.6233 37.5891 46.5365L28 43.7096L18.4109 46.5365C18.2164 46.6143 18.0289 46.6555 17.8484 46.66C17.6679 46.6644 17.5024 46.6667 17.3519 46.6667C16.3169 46.6667 15.4224 46.2908 14.6686 45.5391C13.9147 44.7875 13.5573 43.8635 13.5962 42.7673L13.8295 33.7705L7.69551 25.4917C7.44821 25.1549 7.27047 24.8028 7.16228 24.4355C7.05409 24.0681 7 23.7007 7 23.3333C7 22.5456 7.23067 21.8131 7.69201 21.1357C8.15339 20.4583 8.79772 19.9778 9.625 19.6942L18.9583 16.5487ZM20.4257 18.5545L10.4102 21.9288C9.96153 22.0784 9.65491 22.385 9.49037 22.8487C9.32587 23.3124 9.39318 23.7387 9.69232 24.1275L16.2077 33.0885L15.9295 42.7943C15.8996 43.3028 16.0791 43.7066 16.468 44.0058C16.8569 44.3049 17.2906 44.3797 17.7692 44.2301L28 41.291L38.2308 44.2885C38.7094 44.438 39.1432 44.3633 39.532 44.0641C39.9209 43.765 40.1004 43.3611 40.0705 42.8526L39.7923 33.0885L46.3077 24.2442C46.6068 23.8553 46.6741 23.429 46.5096 22.9654C46.3451 22.5017 46.0385 22.1951 45.5898 22.0455L35.5744 18.5545L29.1218 9.96152C28.8526 9.57264 28.4786 9.37819 28 9.37819C27.5214 9.37819 27.1474 9.57264 26.8782 9.96152L20.4257 18.5545Z" fill="#EE8F9F"/>
</g>
</svg>
