<svg width="56" height="56" viewBox="0 0 56 56" fill="none" xmlns="http://www.w3.org/2000/svg">
<mask id="mask0_184_2297" style="mask-type:alpha" maskUnits="userSpaceOnUse" x="0" y="0" width="56" height="56">
<rect width="56" height="56" fill="#D9D9D9"/>
</mask>
<g mask="url(#mask0_184_2297)">
<path d="M24.6436 37.118L39.568 22.1936L37.9167 20.5423L24.6436 33.8154L17.9936 27.1654L16.3423 28.8167L24.6436 37.118ZM28.0078 49C25.1039 49 22.3737 48.449 19.8172 47.3469C17.2608 46.2448 15.037 44.7491 13.1459 42.8598C11.2549 40.9705 9.75781 38.7488 8.65468 36.1948C7.55156 33.6407 7 30.9117 7 28.0078C7 25.1039 7.55104 22.3737 8.65311 19.8172C9.75522 17.2608 11.2509 15.037 13.1402 13.1459C15.0295 11.2549 17.2512 9.75781 19.8052 8.65469C22.3593 7.55156 25.0883 7 27.9922 7C30.8961 7 33.6263 7.55104 36.1828 8.65311C38.7392 9.75522 40.963 11.2509 42.8541 13.1402C44.7451 15.0295 46.2422 17.2512 47.3453 19.8052C48.4484 22.3593 49 25.0883 49 27.9922C49 30.8961 48.449 33.6263 47.3469 36.1828C46.2448 38.7392 44.7491 40.963 42.8598 42.8541C40.9705 44.7451 38.7488 46.2422 36.1948 47.3453C33.6407 48.4484 30.9117 49 28.0078 49ZM28 46.6667C33.2111 46.6667 37.625 44.8583 41.2417 41.2417C44.8583 37.625 46.6667 33.2111 46.6667 28C46.6667 22.7889 44.8583 18.375 41.2417 14.7583C37.625 11.1417 33.2111 9.33333 28 9.33333C22.7889 9.33333 18.375 11.1417 14.7583 14.7583C11.1417 18.375 9.33333 22.7889 9.33333 28C9.33333 33.2111 11.1417 37.625 14.7583 41.2417C18.375 44.8583 22.7889 46.6667 28 46.6667Z" fill="#EE8F9F"/>
</g>
</svg>
