<svg width="60" height="55" viewBox="0 0 60 55" fill="none" xmlns="http://www.w3.org/2000/svg">
<path d="M25.3457 42.5948L7.73526 30.0164C7.73526 30.0164 3.81419 27.2958 6.85499 22.5215C9.75346 17.9709 14.5958 21.5439 14.5958 21.5439L28.1705 31.4961" fill="#E7425F"/>
<path d="M20.1793 22.0199L31.3327 30.3441L45.7511 26.5702C45.7511 26.5702 50.5805 24.8684 49.1864 19.7631C47.7924 14.6578 42.3758 16.1745 42.3758 16.1745" fill="#E7425F"/>
<path d="M21.6147 18.6936L33.392 15.5857L35.74 6.48472C35.74 6.48472 37.1493 1.08607 31.8141 0.121454C26.4944 -0.840521 25.3206 4.22787 25.3206 4.22787" fill="#E7425F"/>
<path d="M30.5915 33.5336L42.5751 30.4802L37.3792 51.0698C37.3792 51.0698 35.6911 56.0273 30.7015 54.8066C25.712 53.5857 26.7759 48.3692 26.7759 48.3692" fill="#E7425F"/>
<path d="M13.3882 38.196L4.28359 40.6252C3.05201 40.954 1.92869 41.6426 1.14176 42.6524C0.233742 43.8177 -0.463634 45.5841 0.38035 47.989C2.068 52.7986 7.79133 51.0597 7.79133 51.0597L24.5213 46.4721" fill="#E7425F"/>
<path d="M42.5538 42.5907L51.0634 50.6397C51.6801 51.223 52.4171 51.6745 53.2334 51.8989C54.4964 52.246 56.3114 52.2146 58.2702 50.4708C60.7955 48.2226 60.0139 45.5273 59.2885 44.0747C59.0019 43.5008 58.6126 42.9875 58.1467 42.5496L45.6371 30.789" fill="#E7425F"/>
</svg>
