<svg width="53" height="60" viewBox="0 0 53 60" fill="none" xmlns="http://www.w3.org/2000/svg">
<path d="M35.1558 46.583V44.3653C35.1558 44.3653 28.8976 42.751 28.8976 31.638H23.7063C23.7063 42.7516 17.4484 44.3653 17.4484 44.3653V46.583H35.1558Z" fill="#FF9959"/>
<path d="M28.9831 33.8081C29.0078 34.1132 29.0378 34.4095 29.0731 34.6971C30.0874 43.0592 35.1558 44.3666 35.1558 44.3666V46.5842H33.8458V44.3666C33.8458 44.3666 29.0426 43.1276 27.8522 35.3476C27.3635 35.5231 26.8482 35.6128 26.329 35.6127C25.3003 35.6127 24.34 35.2631 23.5353 34.6604C23.5698 34.3729 23.5993 34.0768 23.6237 33.7721L28.9831 33.8081Z" fill="#E17836"/>
<path d="M31.4803 28.6989C31.4803 31.9906 29.174 34.6595 26.3292 34.6595C23.4845 34.6595 21.1782 31.9919 21.1782 28.6989H31.4803Z" fill="#FF9959"/>
<path d="M31.4803 28.6985C31.4807 29.3031 31.4012 29.905 31.244 30.4887C30.8634 31.8884 30.0491 33.0654 28.9831 33.8084C28.208 34.3487 27.2998 34.8067 26.3292 34.8067C25.3732 34.8067 24.4325 34.4364 23.7108 33.8325C24.2258 34.0524 24.78 34.1659 25.3401 34.1661C27.1982 34.1661 28.8059 32.9249 29.5775 31.1196C26.8703 31.9093 23.968 31.685 21.4145 30.4887C21.2567 29.9051 21.1772 29.3031 21.1782 28.6985H31.4803Z" fill="#E17836"/>
<path d="M41.9172 5.34427C41.9172 21.6494 34.9382 30.9753 26.3293 30.9753C17.7204 30.9753 10.7414 21.6494 10.7414 5.34427V2.60757H41.9172V5.34427Z" fill="#FF9959"/>
<path d="M8.94917 23.1554C9.37609 23.3617 9.78856 23.4864 10.2647 23.5108C10.4749 23.5215 10.6845 23.4896 10.8916 23.4578C11.0268 23.4375 11.1596 23.4029 11.2876 23.3546C11.9627 23.0975 12.5915 22.6386 12.9001 21.9646C13.078 21.5861 13.1818 21.1771 13.2059 20.7597C13.2244 20.4155 13.186 20.0706 13.0924 19.7389C12.9908 19.3693 12.8134 19.0033 12.6144 18.6745C11.9106 17.5129 10.853 16.5973 9.80624 15.7549C9.08355 15.1735 8.34222 14.6156 7.60796 14.0489L7.81821 14.2112C6.60752 13.2757 5.40358 12.315 4.35491 11.1969C4.06558 10.8886 3.79008 10.5685 3.53193 10.2327L3.69427 10.4429C3.21848 9.8245 2.8057 9.15728 2.49934 8.4396L2.60414 8.68772C2.35721 8.107 2.18816 7.4962 2.10135 6.87118L2.13831 7.14726C2.06265 6.61118 2.05703 6.06753 2.1216 5.53L2.08463 5.80608C2.1467 5.3506 2.26818 4.90521 2.44597 4.48128L2.34117 4.7294C2.51787 4.31545 2.74657 3.92568 3.02174 3.56948L2.85939 3.77967C3.12738 3.43657 3.43638 3.12756 3.77947 2.85951L3.56825 3.0231C3.92378 2.74884 4.31265 2.52076 4.72558 2.34431L4.47772 2.44909C4.90165 2.27135 5.34704 2.14989 5.80253 2.08784L5.52928 2.12319C5.91882 2.06761 6.31397 2.06339 6.70461 2.11066L6.42845 2.0737C6.72717 2.11752 7.01914 2.19894 7.29741 2.31603L7.04923 2.21126C7.3211 2.32784 7.57763 2.47733 7.81307 2.65639L7.60282 2.49409C7.84324 2.68056 8.05925 2.89652 8.24578 3.13688L8.08343 2.92701C8.26271 3.16215 8.41226 3.41853 8.52868 3.69032L8.42388 3.4422C8.54041 3.72123 8.6211 4.01389 8.66402 4.31319L8.62705 4.03743C8.648 4.19728 8.65873 4.35831 8.6592 4.51953C8.66277 4.79413 8.77163 5.05689 8.96332 5.2536C9.14335 5.43358 9.43878 5.56921 9.69757 5.55764C10.2579 5.53257 10.7388 5.10157 10.736 4.51953C10.7358 3.92351 10.6178 3.33341 10.3886 2.78321C10.1594 2.233 9.82357 1.73357 9.40048 1.31366C8.97739 0.893758 8.47539 0.561685 7.92339 0.336567C7.37138 0.11145 6.78028 -0.00226349 6.18413 0.00197589C3.96593 0.0157959 1.84866 1.25799 0.778456 3.20534C0.243396 4.18088 -0.0245296 5.28036 0.00176488 6.39263C0.0193605 7.25481 0.178576 8.10824 0.473051 8.9188C1.07229 10.5364 2.11452 11.9203 3.33422 13.1246C4.52658 14.3019 5.87005 15.3133 7.19647 16.3318C7.348 16.4482 7.4993 16.5646 7.6504 16.6812L7.44015 16.5189C8.35218 17.2234 9.27258 17.9369 10.0692 18.7725C10.2627 18.9743 10.446 19.1858 10.6183 19.406L10.4559 19.1958C10.7139 19.5212 10.929 19.8784 11.096 20.2586L10.9912 20.0105C11.0679 20.1946 11.1209 20.3877 11.1491 20.5852L11.1121 20.3094C11.1375 20.5084 11.1375 20.7098 11.1121 20.9088L11.1491 20.6327C11.1252 20.8037 11.08 20.9711 11.0147 21.1309L11.1192 20.8831C11.0612 21.017 10.9869 21.1432 10.898 21.2588L11.0587 21.0486C10.9646 21.1644 10.8574 21.2688 10.7392 21.3597L10.9494 21.199C10.8258 21.2912 10.6922 21.369 10.5511 21.4311L10.7993 21.3266C10.6505 21.3888 10.4947 21.4326 10.3354 21.4571L10.6115 21.4202C10.4415 21.4425 10.2692 21.4425 10.0991 21.4202L10.3753 21.4574C10.203 21.4311 10.0345 21.3842 9.87342 21.3176L10.1216 21.4224C10.0785 21.4038 10.0361 21.3842 9.99302 21.3639C9.73809 21.2408 9.4735 21.1817 9.19285 21.2591C8.95174 21.3254 8.6907 21.5118 8.57207 21.7364C8.44348 21.9771 8.38079 22.269 8.46727 22.5364C8.547 22.7819 8.70356 23.0403 8.94467 23.1567L8.94917 23.1554Z" fill="#FF9959"/>
<path d="M8.56882 1.31363C7.81301 0.569698 6.82176 0.111981 5.7652 0.0190479C5.90429 0.0087632 6.0436 0.00308524 6.18312 0.00201391C7.38725 -0.00236767 8.54434 0.469061 9.40241 1.31363C10.2527 2.15601 10.7317 3.32558 10.7375 4.52021C10.7404 5.10193 10.2595 5.53325 9.69913 5.55832C9.55099 5.56091 9.40431 5.52865 9.27092 5.46415C9.63869 5.30345 9.90553 4.95377 9.90328 4.52021C9.89813 3.32558 9.41913 2.15537 8.56882 1.31363Z" fill="#E17836"/>
<path d="M13.2061 20.7597C13.1818 21.1771 13.0779 21.5859 12.9001 21.9643C12.5915 22.6393 11.9627 23.0963 11.2876 23.3544C11.1596 23.4028 11.0268 23.4374 10.8915 23.4575C10.6845 23.4897 10.4736 23.5218 10.2646 23.5106C10.1538 23.505 10.0434 23.4935 9.93382 23.4762L10.0569 23.4575C10.1924 23.4374 10.3253 23.4028 10.4533 23.3544C11.1284 23.0972 11.7569 22.6386 12.0659 21.9643C12.2436 21.5859 12.3473 21.1771 12.3716 20.7597C12.3898 20.4156 12.3515 20.0707 12.2581 19.739C12.1565 19.369 11.9791 19.0033 11.7798 18.6745C11.076 17.513 10.0184 16.597 8.97163 15.7549C8.28753 15.2047 7.58702 14.6754 6.89166 14.1396C5.71183 13.2268 4.54261 12.2871 3.52031 11.1966C3.26763 10.9272 3.02491 10.6483 2.79505 10.359C2.81627 10.3876 2.83781 10.4159 2.85935 10.4442L2.697 10.2343C2.72914 10.2748 2.7613 10.3147 2.79152 10.3548C2.36485 9.79782 2.0031 9.19398 1.71328 8.55502C1.51349 8.05706 1.37007 7.53831 1.28571 7.00846C1.23187 6.56035 1.22735 6.10769 1.27221 5.6586C1.33107 5.30137 1.42684 4.9512 1.558 4.61374C1.70677 4.28612 1.88883 3.97466 2.1013 3.68426C2.53961 3.11927 3.11596 2.67655 3.77492 2.39867C4.11556 2.26571 4.46918 2.16876 4.83001 2.10941C5.1244 2.07573 5.42142 2.07143 5.71666 2.09656C5.67519 2.08885 5.63339 2.0821 5.59128 2.07599L5.74333 2.09656L5.80249 2.08852C5.78352 2.09109 5.76455 2.09367 5.74591 2.09688L5.76584 2.09945H5.75749H5.74462C5.71762 2.1017 5.69061 2.10427 5.66361 2.10749C4.94089 2.20458 4.25671 2.49098 3.6804 2.93765C3.40824 3.16058 3.15884 3.40991 2.93586 3.68201C2.72424 3.9709 2.54283 4.28074 2.39449 4.60666C2.26133 4.94749 2.16435 5.30137 2.10516 5.66245C2.06183 6.11039 2.06733 6.56171 2.12155 7.00846C2.20561 7.53789 2.34881 8.05623 2.54848 8.55374C2.8383 9.1927 3.20005 9.79654 3.62672 10.3536L3.62993 10.3577C3.85947 10.647 4.10219 10.926 4.35519 11.1953C5.36174 12.2694 6.51167 13.1973 7.67317 14.0972C8.38589 14.6471 9.10505 15.1899 9.80651 15.7537C10.8533 16.5957 11.9109 17.5117 12.6146 18.6732C12.8136 19.002 12.9911 19.3678 13.0927 19.7377C13.1863 20.0698 13.2247 20.4151 13.2061 20.7597Z" fill="#E17836"/>
<path d="M43.7094 23.1554C43.2824 23.3617 42.87 23.4865 42.3939 23.5109C42.1836 23.5215 41.974 23.4897 41.767 23.4578C41.6317 23.4375 41.4989 23.403 41.3709 23.3547C40.6958 23.0976 40.067 22.6386 39.7584 21.9646C39.5806 21.5861 39.4767 21.1772 39.4523 20.7597C39.4341 20.4155 39.4725 20.0707 39.5661 19.739C39.6677 19.3694 39.8452 19.0033 40.0442 18.6745C40.7479 17.513 41.8056 16.5973 42.8523 15.7549C43.575 15.1735 44.3163 14.6156 45.0503 14.049L44.8403 14.2113C46.051 13.2757 47.255 12.315 48.3036 11.1969C48.593 10.8887 48.8681 10.5686 49.1266 10.2327L48.9659 10.4429C49.4417 9.82452 49.8544 9.15731 50.1608 8.43963L50.0541 8.68935C50.301 8.10863 50.4701 7.49783 50.5569 6.87282L50.5199 7.1489C50.5956 6.61227 50.6011 6.06807 50.5363 5.53002L50.5733 5.8061C50.511 5.35066 50.3896 4.90529 50.2119 4.48131L50.3164 4.72942C50.1399 4.31543 49.9113 3.92564 49.6362 3.5695L49.7985 3.7797C49.5304 3.43669 49.2214 3.12768 48.8784 2.85954L49.0896 3.02313C48.7342 2.74878 48.3453 2.52069 47.9323 2.34434L48.1802 2.44912C47.7563 2.27137 47.3109 2.14992 46.8554 2.08787L47.1312 2.12483C46.7417 2.06925 46.3465 2.06503 45.9559 2.11229L46.232 2.07533C45.9325 2.11842 45.6397 2.19931 45.3605 2.31606L45.6083 2.21128C45.3371 2.32763 45.0812 2.47668 44.8461 2.65513L45.0564 2.49283C44.8159 2.6793 44.5999 2.89526 44.4134 3.13562L44.5757 2.92575C44.3965 3.16089 44.2469 3.41727 44.1305 3.68906L44.2353 3.44095C44.1187 3.71995 44.0379 4.01261 43.9948 4.31193L44.0321 4.03617C44.0112 4.19602 44.0005 4.35705 44 4.51827C43.9964 4.79287 43.8876 5.05563 43.6959 5.25234C43.5158 5.43232 43.2204 5.56795 42.9616 5.55638C42.4013 5.53131 41.9203 5.10032 41.9232 4.51827C41.9235 3.92242 42.0417 3.33251 42.2709 2.78249C42.5001 2.23248 42.8359 1.73322 43.2589 1.31346C43.6819 0.893706 44.1838 0.561734 44.7357 0.336658C45.2875 0.111583 45.8784 -0.00215163 46.4744 0.00200188C48.6926 0.0158219 50.8099 1.25802 51.8801 3.20536C52.4156 4.18078 52.684 5.28027 52.6581 6.39265C52.6405 7.25484 52.4812 8.10827 52.1868 8.91883C51.5875 10.5364 50.5453 11.9204 49.3256 13.1246C48.1332 14.3019 46.7898 15.3133 45.4634 16.3318C45.3121 16.4482 45.1607 16.5646 45.0094 16.6812L45.2194 16.5189C44.3076 17.2234 43.3869 17.9369 42.5906 18.7725C42.3971 18.9744 42.2138 19.1858 42.0415 19.406L42.2039 19.1958C41.9458 19.5212 41.7307 19.8784 41.5638 20.2587L41.6686 20.0105C41.5919 20.1947 41.5387 20.3877 41.5105 20.5852L41.5477 20.3094C41.5218 20.5084 41.5213 20.7098 41.5461 20.9088L41.5092 20.6328C41.533 20.8038 41.5782 20.9711 41.6435 21.1309L41.5391 20.8831C41.5969 21.0171 41.6712 21.1433 41.7602 21.2589L41.5976 21.0487C41.6919 21.1643 41.7992 21.2687 41.9174 21.3598L41.7072 21.1991C41.8307 21.2913 41.9644 21.3691 42.1055 21.4311L41.8573 21.3267C42.0061 21.3888 42.1619 21.4327 42.3212 21.4572L42.0451 21.4202C42.2152 21.4425 42.3874 21.4425 42.5575 21.4202L42.2814 21.4575C42.4536 21.4311 42.6221 21.3842 42.7832 21.3177L42.535 21.4224C42.5781 21.4038 42.6205 21.3842 42.6636 21.3639C42.9185 21.2409 43.1828 21.1817 43.4638 21.2592C43.7049 21.3254 43.9659 21.5118 44.0845 21.7364C44.2131 21.9772 44.2774 22.269 44.1893 22.5364C44.1096 22.7819 43.9531 23.0403 43.7119 23.1567L43.7094 23.1554Z" fill="#FF9959"/>
<path d="M41.9171 2.60757V5.34426C41.9171 21.6494 34.9381 30.975 26.3292 30.975C22.0031 30.975 18.0888 28.6201 15.2646 24.208C17.903 27.6913 21.3438 29.5384 25.1073 29.5384C33.4166 29.5384 40.1525 20.5373 40.1525 4.7995V2.60757H41.9171Z" fill="#E17836"/>
<path d="M44.1868 22.5348C44.1071 22.7807 43.9505 23.0388 43.7094 23.1554C43.2825 23.3618 42.87 23.4865 42.3939 23.509C42.1901 23.5196 41.9872 23.49 41.7863 23.4588C42.0963 23.3975 42.3967 23.2949 42.6794 23.1538C42.9205 23.0371 43.0771 22.7791 43.1565 22.5332C43.2429 22.2661 43.1793 21.9743 43.052 21.7332C42.9621 21.5769 42.8314 21.448 42.6739 21.3601L42.6688 21.3572C42.9215 21.2364 43.1831 21.1795 43.4612 21.2563C43.7023 21.3225 43.9634 21.5086 44.082 21.7332C44.2093 21.9759 44.2733 22.2677 44.1868 22.5348Z" fill="#E17836"/>
<path d="M52.6581 6.39233C52.6405 7.25463 52.4813 8.10817 52.1868 8.91883C51.5876 10.5361 50.5453 11.92 49.3256 13.1246C48.1333 14.3016 46.7898 15.313 45.4634 16.3318C45.3252 16.439 45.1869 16.5454 45.0487 16.651L45.0448 16.6542L45.0095 16.6812C44.1672 17.3336 43.3265 18.0012 42.5906 18.7725C42.4277 18.9432 42.2708 19.12 42.1226 19.3038C41.9315 19.5574 41.7659 19.8292 41.6281 20.1153C41.5885 20.2246 41.5573 20.3368 41.5346 20.4509C41.5274 20.5554 41.5274 20.6603 41.5346 20.7649C41.5507 20.8443 41.5716 20.9226 41.5973 20.9995C41.6217 21.0467 41.6481 21.0924 41.677 21.137C41.7182 21.1816 41.761 21.2245 41.8056 21.2656C41.814 21.2714 41.8223 21.2769 41.831 21.282H41.8258H41.8217C41.7606 21.3028 41.7008 21.3273 41.6426 21.3553C41.5575 21.3855 41.4705 21.4102 41.3822 21.4292C41.3109 21.4332 41.2394 21.4332 41.1681 21.4292C41.0251 21.4088 40.8899 21.3514 40.7759 21.2627C40.7304 21.2221 40.6869 21.1792 40.6457 21.1342C40.617 21.0898 40.5905 21.0443 40.5663 20.9976C40.5399 20.9205 40.5184 20.8418 40.502 20.762C40.4948 20.6573 40.4948 20.5523 40.502 20.4476C40.5245 20.3337 40.5557 20.2216 40.5955 20.1124C40.7333 19.8264 40.8989 19.5545 41.09 19.3009C41.2382 19.1171 41.3951 18.9403 41.5581 18.7696C42.3058 17.9861 43.1613 17.3095 44.0167 16.6484L44.4308 16.3299C45.7572 15.3111 47.0991 14.2997 48.2931 13.1227C49.5147 11.9181 50.5556 10.5342 51.1542 8.9169C51.4488 8.10626 51.6082 7.25272 51.6258 6.39041C51.6522 5.2782 51.3841 4.17878 50.8488 3.20344C49.8635 1.41004 47.9876 0.214448 45.9665 0.0261098C46.1349 0.00777298 46.3041 -0.000918847 46.4735 7.67446e-05C48.6917 0.0138968 50.8089 1.25609 51.8792 3.20344C52.4153 4.17921 52.684 5.27932 52.6581 6.39233Z" fill="#E17836"/>
<path d="M37.5862 46.6399V58.331H14.8782V46.6399C14.8787 46.4629 14.9492 46.2932 15.0744 46.1681C15.1995 46.0429 15.3692 45.9723 15.5462 45.9717H36.9185C37.0955 45.9723 37.2651 46.0429 37.3902 46.1681C37.5153 46.2933 37.5857 46.4629 37.5862 46.6399Z" fill="#343B49"/>
<path d="M37.5862 46.6399V58.331H36.2504V46.6399C36.2499 46.4629 36.1794 46.2934 36.0543 46.1682C35.9292 46.043 35.7597 45.9724 35.5827 45.9717H36.9184C37.0955 45.9723 37.265 46.0429 37.3902 46.1681C37.5153 46.2933 37.5857 46.4629 37.5862 46.6399Z" fill="#262D38"/>
<path d="M39.59 57.997V59.3318C39.5895 59.5088 39.5191 59.6784 39.394 59.8036C39.2689 59.9288 39.0993 59.9994 38.9222 60H13.5424C13.3653 59.9995 13.1957 59.9289 13.0705 59.8037C12.9453 59.6785 12.8748 59.5088 12.8744 59.3318V57.9958C12.8749 57.8188 12.9454 57.6491 13.0706 57.524C13.1958 57.3988 13.3654 57.3282 13.5424 57.3276H38.9222C39.0995 57.3283 39.2692 57.3991 39.3943 57.5245C39.5195 57.65 39.5898 57.8199 39.59 57.997Z" fill="#262D38"/>
<path d="M39.59 57.997V59.3318C39.5895 59.5088 39.5191 59.6784 39.394 59.8036C39.2689 59.9288 39.0993 59.9994 38.9223 60H37.5862C37.7635 59.9999 37.9336 59.9295 38.0591 59.8043C38.1847 59.679 38.2554 59.5091 38.2558 59.3318V57.9958C38.2553 57.8188 38.1848 57.6491 38.0596 57.524C37.9345 57.3988 37.7648 57.3282 37.5878 57.3276H38.9239C39.1008 57.3287 39.2701 57.3997 39.3949 57.5251C39.5197 57.6505 39.5898 57.8202 39.59 57.997Z" fill="#171C23"/>
<path d="M34.247 49.3119V53.9886C34.2465 54.1656 34.1759 54.3352 34.0508 54.4604C33.9256 54.5856 33.756 54.6562 33.579 54.6568H18.8854C18.7084 54.6561 18.5389 54.5854 18.4138 54.4603C18.2887 54.3351 18.2182 54.1655 18.2177 53.9886V49.3119C18.2182 49.135 18.2887 48.9655 18.4138 48.8404C18.5389 48.7152 18.7085 48.6447 18.8854 48.6441H33.579C33.756 48.6446 33.9256 48.7151 34.0508 48.8403C34.1759 48.9654 34.2465 49.135 34.247 49.3119Z" fill="#FF9959"/>
<path d="M34.247 49.3119V53.9886C34.2465 54.1656 34.1759 54.3352 34.0508 54.4604C33.9256 54.5856 33.756 54.6562 33.579 54.6568H20.3215C23.0196 54.6031 31.9092 54.0288 31.9092 48.6441H33.579C33.756 48.6446 33.9256 48.7151 34.0508 48.8403C34.1759 48.9654 34.2465 49.135 34.247 49.3119Z" fill="#E17836"/>
<path d="M18.8854 52.3183V49.5864C18.8854 49.514 18.9142 49.4444 18.9655 49.3932C19.0167 49.3419 19.0862 49.313 19.1587 49.3129H25.1469C25.1469 49.3129 20.3884 49.813 18.8854 52.3183Z" fill="#FEBA95"/>
<path d="M15.6295 49.6462V46.9143C15.6296 46.8419 15.6584 46.7725 15.7096 46.7213C15.7609 46.67 15.8303 46.6412 15.9028 46.6411H21.8926C21.8926 46.6411 17.1324 47.1409 15.6295 49.6462Z" fill="#4E5868"/>
<path d="M20.7674 26.9672C18.7257 26.9672 13.0631 20.2448 12.3768 4.37299H15.5594C16.122 23.7918 20.7674 26.9672 20.7674 26.9672Z" fill="#FEBA95"/>
<path d="M19.61 44.5797C19.61 44.5797 23.95 41.6229 23.95 37.3483V44.5797H19.61Z" fill="#FEBA95"/>
<path d="M5.38875 1.60287C5.38875 1.60287 4.948 1.47431 4.04754 1.65912C2.94904 1.88409 1.56604 3.07648 1.56604 3.07648C2.2749 1.65912 3.88809 0.78299 4.56866 0.78299C4.78616 0.78299 4.99475 0.86937 5.14855 1.02313C5.30235 1.17689 5.38875 1.38543 5.38875 1.60287Z" fill="#FEBA95"/>
</svg>
