<svg width="60" height="60" viewBox="0 0 60 60" fill="none" xmlns="http://www.w3.org/2000/svg">
<path d="M30.0024 60C24.069 60.0005 18.2686 58.2415 13.3349 54.9454C8.40117 51.6494 4.55562 46.9643 2.28455 41.4827C0.0134808 36.0011 -0.581104 29.9692 0.575985 24.1497C1.73307 18.3301 4.58987 12.9844 8.78511 8.78851C12.9803 4.5926 18.3256 1.73495 24.1449 0.576925C29.9643 -0.581099 35.9963 0.0125175 41.4783 2.28271C46.9602 4.55289 51.6459 8.39769 54.9427 13.3309C58.2396 18.2641 59.9995 24.0642 60 29.9976C59.9911 37.9512 56.8279 45.5765 51.2043 51.2009C45.5808 56.8254 37.956 59.9898 30.0024 60Z" fill="white"/>
<path d="M58.5877 29.9995C58.5877 35.653 56.9112 41.1795 53.7703 45.8802C50.6294 50.5809 46.1651 54.2446 40.942 56.4081C35.7189 58.5716 29.9715 59.1377 24.4266 58.0347C18.8818 56.9318 13.7885 54.2094 9.79092 50.2118C5.7933 46.2142 3.07089 41.1209 1.96796 35.5761C0.865018 30.0312 1.43109 24.2838 3.59458 19.0607C5.75807 13.8376 9.42181 9.37329 14.1225 6.23239C18.8232 3.09149 24.3497 1.41504 30.0032 1.41504C37.5843 1.41504 44.8548 4.42661 50.2155 9.78723C55.5761 15.1479 58.5877 22.4184 58.5877 29.9995Z" fill="#E30613"/>
<path fill-rule="evenodd" clip-rule="evenodd" d="M59.5004 28.3771C59.5004 28.3771 54.4638 28.0185 54.1679 28.0185C53.7764 28.0185 52.3746 27.9617 51.8964 27.9437C51.4182 27.9258 49.1139 27.7465 47.9124 27.7644C46.7109 27.7824 44.2333 28.0633 44.2333 28.0633C44.2333 28.0633 44.1974 30.1076 44.1167 30.6785C44.036 31.2493 43.9583 31.874 43.6744 32.0383C43.3904 32.2027 42.3772 32.4478 42.2666 32.0712C42.0754 31.3988 42.3742 30.6456 42.452 30.1883C42.6845 29.0519 42.4931 27.8698 41.914 26.8648C41.0353 25.1851 37.6879 22.035 36.2503 20.7438C34.8127 19.4527 32.9387 18.0928 32.4934 16.724C32.0481 15.3551 31.9554 14.6796 31.809 14.1985C31.6625 13.7173 31.546 13.4572 31.3517 13.3437C31.2221 13.2732 31.0777 13.2343 30.9303 13.2301C30.9159 12.7325 30.9774 12.2357 31.1126 11.7566C31.3457 10.7823 31.8299 10.603 31.8658 10.3071C31.9016 10.0112 31.3278 9.73325 30.4939 9.81395C29.4538 9.91856 28.8053 10.3519 28.2016 11.5385C27.7353 12.5218 27.1017 14.5272 27.2183 16.0814C27.4006 18.5053 28.877 19.7904 29.3104 21.1383C29.6093 22.1067 30.2578 23.7595 30.0845 26.0011C29.8962 28.4309 30.3834 30.9743 31.9525 32.8752C32.4847 33.5195 33.1274 34.0639 33.8503 34.4831C34.7679 35.0002 35.001 35.4784 34.6364 35.8042C34.2717 36.13 33.5036 36.2465 32.7564 35.6906C32.0092 35.1347 31.1305 34.1962 30.9632 34.1962C30.7958 34.1962 30.4999 34.5967 30.0994 35.1526C29.6989 35.7085 28.9906 36.2465 29.1042 36.4587C29.6302 37.0418 29.9228 37.7984 29.9261 38.5837C29.9374 39.0119 29.8593 39.4378 29.6967 39.834C29.534 40.2303 29.2905 40.5883 28.9816 40.8851C29.4927 41.3603 30.0845 43.0459 29.9948 43.7752C29.9324 44.3334 29.7297 44.8667 29.4057 45.3255C29.0817 45.7843 28.6469 46.1537 28.1418 46.3993C28.1418 46.3993 30.198 46.5876 31.4982 46.6085C33.6118 46.5339 35.7134 46.2577 37.7745 45.7836C39.3436 45.3622 40.4913 45.4011 40.7215 43.2551C40.9516 41.1092 40.7992 39.8031 41.7376 39.848C42.9331 39.9048 42.6044 41.0136 42.5805 41.7817C42.5625 42.4123 42.446 43.5062 42.446 43.5062C42.446 43.5062 46.9291 43.4673 48.8449 43.5062C49.347 43.5062 56.6254 43.2372 56.6254 43.2372L59.5004 28.3771ZM55.1362 36.4468C55.0944 36.9459 54.8732 37.1969 54.3592 37.1969C53.8451 37.1969 45.5901 37.2477 45.0223 37.1521C44.843 37.1222 43.7909 36.9788 43.9792 35.9715C44.1137 35.2363 45.1897 35.5681 45.7157 35.6249C47.9692 35.864 52.1893 35.5053 54.4578 35.5143C54.9719 35.5143 55.1721 36.0104 55.1362 36.4468ZM26.6355 29.202C26.6952 28.401 26.4442 27.615 26.1393 27.5552C25.8345 27.4954 25.2576 27.3071 25.2008 27.7853C25.1441 28.2635 25.2905 30.2032 24.7226 30.6008C23.572 31.4047 22.3824 30.8488 21.1959 30.7532C20.0094 30.6575 15.9148 30.6575 15.1108 30.275C14.3068 29.8924 14.1305 28.4817 14.3995 27.5373C14.6685 26.5928 15.3409 25.5886 15.7414 25.3794C16.1419 25.1702 18.8049 24.2048 19.4535 23.9747C20.102 23.7445 21.1391 23.6758 22.0597 23.2873C22.7061 23.0006 23.3982 22.8306 24.104 22.7852C24.847 22.8429 25.581 22.9853 26.2917 23.2096C26.9433 23.4188 28.1298 23.4756 28.2075 23.6489C28.3476 24.3116 28.4365 24.984 28.4735 25.6603C28.3988 26.004 27.7682 25.0476 27.4036 24.952C27.0389 24.8564 26.1782 24.7607 25.679 24.9699C24.8736 25.223 24.0174 25.2692 23.1894 25.1044C22.2121 24.9341 21.1391 24.6262 20.1439 24.8564C19.1486 25.0865 17.5556 25.1791 17.6542 26.291C17.726 27.1159 19.0141 26.7333 19.319 26.6556C20.0469 26.4801 20.7939 26.3968 21.5426 26.4075C22.1553 26.4822 23.8619 26.9844 24.2654 26.9844C24.6758 26.9915 25.0832 26.912 25.4609 26.7512C25.7597 26.6317 27.0897 26.5629 27.4753 26.8499C27.6811 27.0188 27.843 27.2351 27.9471 27.4803C28.0512 27.7254 28.0944 27.9921 28.073 28.2576C28.073 28.8284 27.6905 29.8028 27.0957 30.0508C26.501 30.2989 26.6086 29.5756 26.6355 29.202ZM28.4705 33.9661C28.2755 34.4207 27.9232 34.7899 27.4783 35.0062C26.9164 35.3529 26.5607 35.4276 26.6355 34.8717C26.7102 34.3158 27.1376 33.6762 26.9642 33.3773C26.7909 33.0784 26.1393 32.938 25.6402 33.2637C25.1411 33.5895 25.0664 33.5626 25.0096 33.8376C24.9528 34.1125 24.9139 35.2931 24.7406 35.6009C24.5672 35.9088 24.3012 36.387 22.8636 36.4229C21.426 36.4587 18.8736 35.9267 17.711 36.0403C16.6948 36.1389 15.858 36.1031 15.5262 35.8669C15.1945 35.6308 15.0271 34.5071 15.1257 33.7748C15.2124 33.1472 16.0224 32.3163 16.9459 32.2625C18.1615 32.256 19.376 32.3359 20.5802 32.5016C21.7757 32.6361 23.3986 32.8005 24.1458 32.8005C24.893 32.8005 25.9092 32.6839 26.3874 32.4568C26.8656 32.2296 27.1346 31.9756 27.3647 31.9965C27.534 31.9924 27.7019 32.0285 27.8547 32.1017C28.0074 32.1749 28.1406 32.2833 28.2434 32.4179C28.5094 32.8602 28.7186 33.4819 28.4705 33.9631V33.9661ZM27.0778 38.781C26.8865 38.4821 26.5159 38.3207 26.235 38.0906L25.2188 38.4552C25.2188 38.4552 25.697 38.9723 25.5834 39.4505C25.5313 39.7806 25.3641 40.0817 25.1114 40.3004C24.8587 40.5192 24.5368 40.6416 24.2026 40.646C23.5361 40.6818 20.7954 40.8163 19.8749 40.5862C19.1152 40.3859 18.409 40.0206 17.8067 39.5162C17.3643 39.1516 17.1282 39.0081 17.1701 38.5718C17.2089 38.1922 17.3852 37.8485 17.6931 37.7917C18.0009 37.7349 18.4194 37.9471 20.7177 38.0906C23.0161 38.234 24.1847 38.2041 25.7179 37.6124C26.4074 37.3606 27.0785 37.061 27.7263 36.7157C27.7263 36.7157 28.4048 37.6303 28.2823 38.3835C28.1119 39.4564 27.7234 39.564 27.2661 39.8151C27.2519 39.4525 27.1885 39.0936 27.0778 38.7481V38.781ZM25.3742 43.2641C25.4549 43.5361 25.6731 43.6168 25.8315 43.8619C25.8492 44.0902 25.8053 44.3191 25.7043 44.5246C25.6034 44.7302 25.4491 44.9049 25.2576 45.0305C23.8145 45.186 22.3612 45.224 20.912 45.144C20.3333 45.0265 19.7779 44.8144 19.2682 44.5164C19.1385 44.4156 19.0325 44.2877 18.9577 44.1416C18.8828 43.9954 18.8408 43.8347 18.8348 43.6706C18.9217 43.1875 19.0852 42.7214 19.319 42.2898C19.901 42.3984 20.4905 42.4624 21.0823 42.4811L25.431 42.502C25.3663 42.7546 25.3471 43.0167 25.3742 43.2761V43.2641ZM27.55 43.6407C27.4155 42.8278 26.5637 42.236 26.6175 42.221L27.7652 41.8773C27.7652 41.8773 28.2852 43.028 28.2165 43.3896C28.1556 43.9057 27.8988 44.3786 27.4992 44.7107C27.551 44.3565 27.5681 43.9982 27.55 43.6407Z" fill="white"/>
<path d="M9.75439 13.3552L9.80222 13.3044L10.7586 12.3211L13.3887 13.7318L11.9123 11.1406L11.9601 11.0897L12.9165 10.1064L16.9214 13.0115L16.8736 13.0593L15.9561 14.0038L13.8012 12.3839L15.176 14.8048L15.1252 14.8556L14.5274 15.4862L12.0707 14.1801L13.7444 16.2872L13.6966 16.338L12.779 17.2795L9.75439 13.3552Z" fill="white"/>
<path d="M15.8965 7.97567L15.9563 7.9398L17.3819 7.08203L21.3898 10.3876L21.33 10.4235L20.0718 11.1796L19.4083 10.5819L18.0394 11.4068L18.2427 12.2705L18.1829 12.3064L16.9246 13.0625L15.8965 7.97567ZM17.7196 10.3487L18.6162 9.80778L17.2773 8.59733L17.7196 10.3487Z" fill="white"/>
<path d="M20.0032 5.75764L20.0689 5.73672L22.0236 5.07621C22.4099 4.91467 22.841 4.8956 23.24 5.02241C23.5285 5.13023 23.7818 5.3153 23.9722 5.55739C24.086 5.70976 24.1748 5.87925 24.2353 6.05951C24.2947 6.23992 24.326 6.42844 24.3279 6.6184C24.3273 6.92745 24.2392 7.23001 24.0739 7.49112C23.8336 7.83629 23.4771 8.08347 23.0696 8.1875L22.4151 8.40867L22.9292 9.93891L22.8634 9.95983L21.5633 10.3992L20.0032 5.75764ZM22.0714 7.38651L22.3703 7.2849C22.5181 7.24477 22.6516 7.164 22.7558 7.05177C22.8153 6.97657 22.8535 6.88677 22.8664 6.79175C22.8727 6.74213 22.8727 6.69193 22.8664 6.64231C22.8664 6.59449 22.8455 6.55863 22.8365 6.53173C22.8279 6.50534 22.8179 6.4794 22.8066 6.45402L22.7708 6.3793C22.7098 6.28695 22.6207 6.21673 22.5167 6.17905C22.3519 6.13317 22.1762 6.14693 22.0206 6.21791L21.7217 6.31953L22.0714 7.38651Z" fill="white"/>
<path d="M25.0005 4.23367H25.0692L26.4321 4.07527L26.6592 6.02095L27.8279 3.91089H27.8966L29.4956 3.72559L27.9235 6.29591L30.1142 8.58232H30.0425L28.3419 8.78256L26.7698 6.92355L27 8.91108H26.9312L25.5713 9.07247L25.0005 4.23367Z" fill="white"/>
<path d="M32.3167 3.88672H32.3854L34.0412 4.078L35.1918 9.15889H35.1231L33.6646 8.98853L33.5002 8.11581L31.9162 7.93051L31.5456 8.71655H31.4768L30.0183 8.54619L32.3167 3.88672ZM32.3167 6.87548L33.3597 6.99802L33.0399 5.21971L32.3167 6.87548Z" fill="white"/>
<path d="M41.7941 12.1869L40.5478 11.4068L40.4044 8.08631L38.9578 10.4235L37.7205 9.65839L40.3536 5.39941L41.5819 6.15856L41.7314 9.50895L43.1749 7.16278L44.4123 7.9279L41.7941 12.1869ZM44.9323 13.9473L42.4128 12.3901L42.8462 11.6848L45.3687 13.2449L44.9323 13.9473ZM45.8021 9.61356C46.0025 9.71888 46.1795 9.86377 46.3223 10.0395C46.4651 10.2152 46.5708 10.418 46.6329 10.6357C46.6781 10.8292 46.6836 11.0298 46.6492 11.2255C46.6147 11.4212 46.5411 11.6079 46.4327 11.7744C46.332 11.9475 46.1976 12.0986 46.0374 12.2188C45.8772 12.3389 45.6946 12.4257 45.5002 12.4738C45.0557 12.5327 44.6045 12.436 44.2232 12.2001C43.8419 11.9642 43.5539 11.6037 43.4081 11.1797C43.3608 10.9868 43.3533 10.7864 43.3862 10.5906C43.4191 10.3948 43.4916 10.2077 43.5993 10.041C43.7016 9.86716 43.838 9.71587 44.0004 9.59619C44.1627 9.47651 44.3475 9.39092 44.5438 9.34458C44.7608 9.30232 44.9842 9.30436 45.2004 9.35059C45.4166 9.39681 45.6213 9.48626 45.8021 9.61356ZM44.6394 11.5144C44.6965 11.5547 44.7628 11.5802 44.8321 11.5885C44.9015 11.5969 44.9719 11.5879 45.0369 11.5622C45.2027 11.4681 45.3377 11.328 45.4255 11.1587C45.5353 11.0087 45.5996 10.8303 45.6108 10.6447C45.6063 10.5764 45.584 10.5104 45.5463 10.4533C45.5086 10.3962 45.4566 10.3499 45.3956 10.3189C45.3388 10.2759 45.272 10.2478 45.2015 10.2374C45.131 10.2269 45.059 10.2344 44.9921 10.2591C44.8252 10.3541 44.6893 10.4953 44.6006 10.6656C44.3704 11.0482 44.3704 11.3291 44.6394 11.4995V11.5144Z" fill="white"/>
<path d="M48.3906 12.8569L47.8884 12.304L48.7223 11.5479L48.7671 11.5987L50.124 13.093L46.5017 16.3807L46.4538 16.3269L45.6021 15.3914L48.3906 12.8569Z" fill="white"/>
<path d="M13.3742 43.4072L15.4065 45.4695C15.7081 45.7376 15.8962 46.1106 15.9326 46.5125C15.9399 46.6792 15.9115 46.8454 15.8491 47.0001C15.7867 47.1548 15.6918 47.2943 15.5709 47.4092C15.3763 47.6091 15.1142 47.7295 14.8357 47.7469C14.6209 47.7516 14.4087 47.7001 14.22 47.5975C14.3938 47.8562 14.4778 48.165 14.4591 48.4762C14.4215 48.7599 14.2849 49.0213 14.0736 49.2144C13.9006 49.3891 13.6838 49.514 13.4459 49.576C13.2178 49.6373 12.9776 49.6373 12.7495 49.576C12.5562 49.5099 12.3769 49.4086 12.2205 49.2771C12.0336 49.1383 11.8549 48.9886 11.6855 48.8288L9.80859 46.928L13.3742 43.4072ZM11.6706 47.2717L12.2235 47.8336C12.3503 47.9879 12.5267 48.0935 12.7226 48.1325C12.794 48.138 12.8657 48.1274 12.9324 48.1016C12.9991 48.0757 13.0592 48.0352 13.1082 47.983C13.158 47.9365 13.1966 47.8791 13.2209 47.8154C13.2453 47.7517 13.2547 47.6833 13.2487 47.6154C13.2073 47.4204 13.1021 47.2448 12.9498 47.1163L12.3909 46.5663L11.6706 47.2717ZM13.0723 45.8909L13.5445 46.3691C13.6556 46.5087 13.8121 46.605 13.9869 46.6411C14.0537 46.6434 14.1203 46.631 14.1817 46.6046C14.2432 46.5783 14.2981 46.5387 14.3425 46.4886C14.3908 46.4465 14.4288 46.3939 14.4536 46.3348C14.4785 46.2758 14.4896 46.2119 14.486 46.1479C14.4513 45.9772 14.3596 45.8233 14.226 45.7116L13.7478 45.2244L13.0723 45.8909Z" fill="white"/>
<path d="M18.7031 48.1387L20.9985 49.2983C21.4196 49.4733 21.7569 49.8042 21.9399 50.2218C22.0007 50.42 22.0196 50.6285 21.9954 50.8344C21.9712 51.0402 21.9045 51.2387 21.7995 51.4173C21.7123 51.6177 21.5836 51.7973 21.4218 51.9441C21.26 52.0909 21.0688 52.2017 20.861 52.2691C20.369 52.373 19.856 52.2853 19.4264 52.0241L18.6672 51.6505L17.8304 53.3092L16.4436 52.6069L18.7031 48.1387ZM19.1275 50.7449L19.4652 50.9152C19.6532 51.0332 19.8752 51.0847 20.0959 51.0617C20.1697 51.0445 20.2388 51.0109 20.2978 50.9633C20.3568 50.9157 20.4042 50.8553 20.4366 50.7867C20.4714 50.7217 20.4927 50.6504 20.4994 50.577C20.5061 50.5035 20.4979 50.4295 20.4754 50.3593C20.4336 50.2159 20.2812 50.0784 20.0241 49.9469L19.6296 49.7496L19.1275 50.7449Z" fill="white"/>
<path d="M22.0232 52.5803C22.0695 52.2332 22.1924 51.9008 22.383 51.607C22.5735 51.3132 22.8269 51.0654 23.1249 50.8815C23.4229 50.6976 23.7581 50.5822 24.1061 50.5437C24.4541 50.5051 24.8064 50.5444 25.1374 50.6586C25.4826 50.7173 25.8126 50.8447 26.1077 51.0331C26.4029 51.2215 26.6573 51.4671 26.856 51.7554C27.026 52.0538 27.1332 52.3836 27.1713 52.7249C27.2093 53.0661 27.1773 53.4115 27.0771 53.74C26.9808 54.228 26.7675 54.6854 26.4555 55.073C26.1826 55.3874 25.8228 55.6141 25.4214 55.7245C24.9525 55.8409 24.4615 55.8348 23.9957 55.7066C23.5228 55.608 23.0783 55.4036 22.6956 55.1088C22.3694 54.8388 22.1328 54.4761 22.0172 54.0687C21.8865 53.5809 21.8886 53.0671 22.0232 52.5803ZM23.5175 52.945C23.3935 53.3106 23.4009 53.708 23.5384 54.0687C23.61 54.1935 23.7062 54.3025 23.8212 54.389C23.9362 54.4755 24.0676 54.5376 24.2074 54.5717C24.3472 54.6059 24.4924 54.6112 24.6343 54.5874C24.7762 54.5636 24.9118 54.5112 25.0328 54.4334C25.26 54.266 25.4393 53.9103 25.5678 53.3634C25.6836 53.0136 25.6698 52.6339 25.529 52.2934C25.4607 52.1654 25.3646 52.0544 25.2477 51.9685C25.1308 51.8826 24.9961 51.8241 24.8535 51.7973C24.7166 51.7595 24.573 51.753 24.4333 51.7783C24.2936 51.8037 24.1614 51.8602 24.0465 51.9437C23.7617 52.2091 23.5779 52.5651 23.5265 52.9509L23.5175 52.945Z" fill="white"/>
<path d="M31.3692 54.266L32.7321 54.6516C32.6622 54.9969 32.5207 55.3237 32.3166 55.611C32.1322 55.869 31.884 56.075 31.5964 56.2087C31.2478 56.3563 30.872 56.4286 30.4935 56.4209C30.037 56.4446 29.5806 56.3713 29.1545 56.2057C28.7819 56.0265 28.4701 55.7417 28.2579 55.3868C27.9827 54.928 27.8438 54.4004 27.8574 53.8655C27.8293 53.5194 27.8707 53.1711 27.9789 52.8411C28.0872 52.5111 28.2603 52.206 28.488 51.9438C28.9462 51.5625 29.5073 51.3259 30.1001 51.2642C30.6929 51.2025 31.2907 51.3183 31.8175 51.5971C32.2102 51.8847 32.4995 52.2914 32.6424 52.7567L31.2796 53.0855C31.245 52.9667 31.1926 52.8538 31.1241 52.7507C31.0411 52.6371 30.9312 52.5457 30.8043 52.4847C30.5927 52.3873 30.3532 52.3688 30.1291 52.4323C29.905 52.4959 29.7109 52.6374 29.5819 52.8314C29.4239 53.1358 29.3565 53.4792 29.3877 53.8207C29.355 54.2182 29.4491 54.6158 29.6566 54.9564C29.7453 55.0579 29.8561 55.1376 29.9805 55.1895C30.1048 55.2413 30.2395 55.2638 30.374 55.2553C30.4974 55.2619 30.6209 55.2418 30.7359 55.1964C30.8509 55.1511 30.9548 55.0814 31.0404 54.9923C31.2129 54.7839 31.3264 54.5331 31.3692 54.266Z" fill="white"/>
<path d="M36.8982 53.3454L38.3118 53.4261C38.3205 53.7787 38.2542 54.1291 38.1176 54.4542C37.9902 54.7423 37.793 54.9939 37.5437 55.1865C37.2352 55.4064 36.8839 55.5591 36.5126 55.6348C36.0724 55.7588 35.6105 55.7863 35.1587 55.7155C34.7536 55.6258 34.3843 55.4178 34.0977 55.1177C33.7281 54.73 33.4771 54.2447 33.3744 53.719C33.2711 53.3877 33.235 53.0391 33.2684 52.6936C33.3018 52.3482 33.4039 52.0129 33.5687 51.7075C33.7578 51.4233 34.0025 51.1804 34.2881 50.9934C34.5737 50.8064 34.8943 50.6793 35.2304 50.6196C35.7329 50.4706 36.269 50.4789 36.7667 50.6435C37.2123 50.8401 37.5825 51.1756 37.8217 51.6L36.5664 52.1977C36.5063 52.0879 36.4308 51.9873 36.3423 51.8988C36.234 51.8073 36.1062 51.7419 35.9687 51.7075C35.7421 51.6589 35.5057 51.6923 35.3015 51.8017C35.0973 51.9112 34.9387 52.0897 34.8538 52.3053C34.7654 52.6364 34.7737 52.986 34.8778 53.3125C35.0093 53.8535 35.1766 54.2091 35.3918 54.3616C35.4996 54.4417 35.6247 54.4956 35.757 54.5189C35.8893 54.5423 36.0252 54.5345 36.154 54.4961C36.276 54.4758 36.3924 54.4299 36.4954 54.3614C36.5985 54.2929 36.6858 54.2033 36.7517 54.0985C36.8633 53.8639 36.9137 53.6048 36.8982 53.3454Z" fill="white"/>
<path d="M42.0302 47.8428L44.3346 52.2871L43.0434 52.9506L41.7792 50.5087L41.3817 53.7964L40.0875 54.4688L37.7952 50.0485L39.0893 49.376L40.3655 51.8328L40.76 48.5093L42.0302 47.8428Z" fill="white"/>
<path d="M46.0653 44.3398L49.3948 48.0788L48.3098 49.0471L46.4807 46.9939L46.9111 50.2815L45.8202 51.2528L42.4907 47.5139L43.5786 46.5426L45.4197 48.6108L44.9863 45.2903L46.0653 44.3398Z" fill="white"/>
</svg>
